<svg width="62" height="62" viewBox="0 0 62 62" fill="none" xmlns="http://www.w3.org/2000/svg">
<circle cx="31" cy="31" r="31" fill="#DE0000"/>
<path d="M14.0975 19.8509C13.9525 20.013 13.8159 20.1837 13.6879 20.363C12.5359 21.3829 11.6227 23.6319 12.1561 26.4016C14.4559 38.3892 24.5555 47.5218 36.7074 48.6143C36.9677 48.6399 37.228 48.6484 37.4882 48.6484C38.8835 48.6484 40.2019 48.3027 41.2516 47.6583C41.7593 47.3639 42.2116 47.0011 42.5914 46.5744L43.6367 45.4179C45.672 43.1646 45.4971 39.678 43.2442 37.6424L41.482 36.0506C40.4665 35.133 39.1566 34.6294 37.7912 34.6294C36.2381 34.6294 34.7489 35.2909 33.7078 36.4432L32.6625 37.5954C32.2528 38.0478 31.9286 38.5513 31.6896 39.1061C27.5295 37.3564 24.116 34.2326 22.0039 30.2381C22.7677 29.9266 23.4547 29.4486 24.0136 28.8298L25.059 27.6776C26.0446 26.5851 26.5481 25.1768 26.4756 23.7087C26.403 22.2407 25.763 20.8879 24.6707 19.9021L22.9085 18.3103C21.893 17.3927 20.5831 16.8892 19.2177 16.8892C17.6646 16.8892 16.1755 17.5506 15.1344 18.6986L14.0975 19.8509Z" fill="white"/>
<path d="M47 29.6866C47 20.4855 39.5145 13 30.3133 13C29.5084 13 28.8518 13.6566 28.8518 14.4615C28.8518 15.2664 29.5084 15.923 30.3133 15.923C37.9047 15.923 44.0769 22.0995 44.0769 29.6866C44.0769 30.4915 44.7335 31.1481 45.5384 31.1481C46.3433 31.1481 47 30.4915 47 29.6866Z" fill="white"/>
<path d="M30.321 18.8335C29.5119 18.8335 28.8518 19.4936 28.8518 20.3027C28.8518 21.1118 29.5119 21.7719 30.321 21.7719C35.0395 21.7719 38.8764 25.6088 38.8764 30.3273C38.8764 31.1364 39.5365 31.7965 40.3456 31.7965C41.1547 31.7965 41.8148 31.1364 41.8148 30.3273C41.8105 23.9906 36.6577 18.8335 30.321 18.8335Z" fill="white"/>
</svg>
