<svg width="119" height="119" viewBox="0 0 119 119" fill="none" xmlns="http://www.w3.org/2000/svg">
<path d="M59.309 118.618C92.0644 118.618 118.618 92.0644 118.618 59.309C118.618 26.5535 92.0644 0 59.309 0C26.5535 0 0 26.5535 0 59.309C0 92.0644 26.5535 118.618 59.309 118.618Z" fill="#E4032E"/>
<path d="M17.4129 58.114C16.4123 58.114 15.4876 57.9493 14.6389 57.62C13.7903 57.278 13.0556 56.803 12.4349 56.195C11.8143 55.587 11.3266 54.8713 10.9719 54.048C10.6299 53.2247 10.4589 52.3253 10.4589 51.35C10.4589 50.3747 10.6299 49.4753 10.9719 48.652C11.3266 47.8287 11.8143 47.113 12.4349 46.505C13.0683 45.897 13.8093 45.4283 14.6579 45.099C15.5066 44.757 16.4313 44.586 17.4319 44.586C18.3946 44.586 19.3003 44.7507 20.1489 45.08C20.9976 45.3967 21.7133 45.878 22.2959 46.524L21.4029 47.417C20.8583 46.8597 20.2566 46.4607 19.5979 46.22C18.9393 45.9667 18.2299 45.84 17.4699 45.84C16.6719 45.84 15.9309 45.9793 15.2469 46.258C14.5629 46.524 13.9676 46.9103 13.4609 47.417C12.9543 47.911 12.5553 48.4937 12.2639 49.165C11.9853 49.8237 11.8459 50.552 11.8459 51.35C11.8459 52.148 11.9853 52.8827 12.2639 53.554C12.5553 54.2127 12.9543 54.7953 13.4609 55.302C13.9676 55.796 14.5629 56.1823 15.2469 56.461C15.9309 56.727 16.6719 56.86 17.4699 56.86C18.2299 56.86 18.9393 56.7333 19.5979 56.48C20.2566 56.2267 20.8583 55.8213 21.4029 55.264L22.2959 56.157C21.7133 56.803 20.9976 57.2907 20.1489 57.62C19.3003 57.9493 18.3883 58.114 17.4129 58.114ZM24.8765 58V48.025H29.2845C30.4119 48.025 31.2985 48.2403 31.9445 48.671C32.6032 49.1017 32.9325 49.735 32.9325 50.571C32.9325 51.3817 32.6222 52.0087 32.0015 52.452C31.3809 52.8827 30.5639 53.098 29.5505 53.098L29.8165 52.699C31.0072 52.699 31.8812 52.9207 32.4385 53.364C32.9959 53.8073 33.2745 54.447 33.2745 55.283C33.2745 56.1443 32.9579 56.8157 32.3245 57.297C31.7039 57.7657 30.7349 58 29.4175 58H24.8765ZM26.1875 56.936H29.3605C30.2092 56.936 30.8489 56.803 31.2795 56.537C31.7229 56.2583 31.9445 55.815 31.9445 55.207C31.9445 54.599 31.7482 54.1557 31.3555 53.877C30.9629 53.5983 30.3422 53.459 29.4935 53.459H26.1875V56.936ZM26.1875 52.452H29.1895C29.9622 52.452 30.5512 52.3063 30.9565 52.015C31.3745 51.7237 31.5835 51.2993 31.5835 50.742C31.5835 50.1847 31.3745 49.7667 30.9565 49.488C30.5512 49.2093 29.9622 49.07 29.1895 49.07H26.1875V52.452ZM42.8771 58V54.409L43.1241 54.694H39.7421C38.4628 54.694 37.4621 54.4153 36.7401 53.858C36.0181 53.3007 35.6571 52.49 35.6571 51.426C35.6571 50.286 36.0434 49.4373 36.8161 48.88C37.5888 48.31 38.6211 48.025 39.9131 48.025H44.1121V58H42.8771ZM35.5811 58L38.3171 54.162H39.7231L37.0441 58H35.5811ZM42.8771 54.01V48.804L43.1241 49.203H39.9511C39.0264 49.203 38.3044 49.3803 37.7851 49.735C37.2784 50.0897 37.0251 50.666 37.0251 51.464C37.0251 52.946 37.9688 53.687 39.8561 53.687H43.1241L42.8771 54.01ZM50.4334 58.114C49.7114 58.114 48.9958 58.0127 48.2864 57.81C47.5771 57.6073 46.9501 57.297 46.4054 56.879L46.8424 55.872C47.3238 56.2267 47.8811 56.499 48.5144 56.689C49.1478 56.8663 49.7748 56.955 50.3954 56.955C51.0161 56.9423 51.5544 56.8537 52.0104 56.689C52.4664 56.5243 52.8211 56.2963 53.0744 56.005C53.3278 55.7137 53.4544 55.3843 53.4544 55.017C53.4544 54.485 53.2138 54.0733 52.7324 53.782C52.2511 53.478 51.5924 53.326 50.7564 53.326H49.0464V52.338H50.6614C51.1554 52.338 51.5924 52.2747 51.9724 52.148C52.3524 52.0213 52.6438 51.8377 52.8464 51.597C53.0618 51.3563 53.1694 51.0713 53.1694 50.742C53.1694 50.3873 53.0428 50.0833 52.7894 49.83C52.5488 49.5767 52.2131 49.3867 51.7824 49.26C51.3518 49.1333 50.8641 49.07 50.3194 49.07C49.8254 49.0827 49.3124 49.1587 48.7804 49.298C48.2484 49.4247 47.7228 49.621 47.2034 49.887L46.8234 48.842C47.4061 48.538 47.9824 48.31 48.5524 48.158C49.1351 47.9933 49.7178 47.911 50.3004 47.911C51.0984 47.8857 51.8141 47.9807 52.4474 48.196C53.0934 48.4113 53.6064 48.7217 53.9864 49.127C54.3664 49.5197 54.5564 49.9947 54.5564 50.552C54.5564 51.046 54.4044 51.4767 54.1004 51.844C53.7964 52.2113 53.3911 52.4963 52.8844 52.699C52.3778 52.9017 51.8014 53.003 51.1554 53.003L51.2124 52.642C52.3524 52.642 53.2391 52.8637 53.8724 53.307C54.5184 53.7503 54.8414 54.352 54.8414 55.112C54.8414 55.7073 54.6451 56.233 54.2524 56.689C53.8598 57.1323 53.3278 57.4807 52.6564 57.734C51.9978 57.9873 51.2568 58.114 50.4334 58.114ZM64.0979 58V55.796L64.0409 55.435V51.749C64.0409 50.9003 63.8002 50.248 63.3189 49.792C62.8502 49.336 62.1472 49.108 61.2099 49.108C60.5639 49.108 59.9495 49.2157 59.3669 49.431C58.7842 49.6463 58.2902 49.9313 57.8849 50.286L57.2769 49.279C57.7835 48.8483 58.3915 48.519 59.1009 48.291C59.8102 48.0503 60.5575 47.93 61.3429 47.93C62.6349 47.93 63.6292 48.253 64.3259 48.899C65.0352 49.5323 65.3899 50.5013 65.3899 51.806V58H64.0979ZM60.6589 58.095C59.9115 58.095 59.2592 57.9747 58.7019 57.734C58.1572 57.4807 57.7392 57.1387 57.4479 56.708C57.1565 56.2647 57.0109 55.758 57.0109 55.188C57.0109 54.6687 57.1312 54.2 57.3719 53.782C57.6252 53.3513 58.0305 53.0093 58.5879 52.756C59.1579 52.49 59.9179 52.357 60.8679 52.357H64.3069V53.364H60.9059C59.9432 53.364 59.2719 53.535 58.8919 53.877C58.5245 54.219 58.3409 54.6433 58.3409 55.15C58.3409 55.72 58.5625 56.176 59.0059 56.518C59.4492 56.86 60.0699 57.031 60.8679 57.031C61.6279 57.031 62.2802 56.86 62.8249 56.518C63.3822 56.1633 63.7875 55.6567 64.0409 54.998L64.3449 55.929C64.0915 56.5877 63.6482 57.1133 63.0149 57.506C62.3942 57.8987 61.6089 58.095 60.6589 58.095ZM70.881 58V48.842L71.223 49.203H67.1V48.025H76.011V49.203H71.888L72.23 48.842V58H70.881ZM82.2555 51.54C83.5095 51.5527 84.4595 51.8313 85.1055 52.376C85.7641 52.9207 86.0935 53.706 86.0935 54.732C86.0935 55.796 85.7388 56.613 85.0295 57.183C84.3328 57.753 83.3195 58.0317 81.9895 58.019L77.9615 58V48.025H79.3105V51.502L82.2555 51.54ZM81.9135 56.993C82.8381 57.0057 83.5348 56.822 84.0035 56.442C84.4848 56.0493 84.7255 55.4793 84.7255 54.732C84.7255 53.9847 84.4911 53.44 84.0225 53.098C83.5538 52.7433 82.8508 52.5597 81.9135 52.547L79.3105 52.509V56.955L81.9135 56.993ZM92.8475 58.095C91.8595 58.095 90.9729 57.8797 90.1875 57.449C89.4149 57.0057 88.8069 56.404 88.3635 55.644C87.9202 54.8713 87.6985 53.991 87.6985 53.003C87.6985 52.0023 87.9202 51.122 88.3635 50.362C88.8069 49.602 89.4149 49.0067 90.1875 48.576C90.9729 48.1453 91.8595 47.93 92.8475 47.93C93.6962 47.93 94.4625 48.0947 95.1465 48.424C95.8305 48.7533 96.3689 49.2473 96.7615 49.906L95.7545 50.59C95.4125 50.0833 94.9882 49.7097 94.4815 49.469C93.9749 49.2283 93.4239 49.108 92.8285 49.108C92.1192 49.108 91.4795 49.2727 90.9095 49.602C90.3395 49.9187 89.8899 50.3683 89.5605 50.951C89.2312 51.5337 89.0665 52.2177 89.0665 53.003C89.0665 53.7883 89.2312 54.4723 89.5605 55.055C89.8899 55.6377 90.3395 56.0937 90.9095 56.423C91.4795 56.7397 92.1192 56.898 92.8285 56.898C93.4239 56.898 93.9749 56.7777 94.4815 56.537C94.9882 56.2963 95.4125 55.929 95.7545 55.435L96.7615 56.119C96.3689 56.765 95.8305 57.259 95.1465 57.601C94.4625 57.9303 93.6962 58.095 92.8475 58.095ZM105.481 58V54.409L105.728 54.694H102.346C101.066 54.694 100.066 54.4153 99.3436 53.858C98.6216 53.3007 98.2606 52.49 98.2606 51.426C98.2606 50.286 98.6469 49.4373 99.4196 48.88C100.192 48.31 101.225 48.025 102.517 48.025H106.716V58H105.481ZM98.1846 58L100.921 54.162H102.327L99.6476 58H98.1846ZM105.481 54.01V48.804L105.728 49.203H102.555C101.63 49.203 100.908 49.3803 100.389 49.735C99.8819 50.0897 99.6286 50.666 99.6286 51.464C99.6286 52.946 100.572 53.687 102.46 53.687H105.728L105.481 54.01ZM33.7509 81.095C32.7629 81.095 31.8762 80.8797 31.0909 80.449C30.3182 80.0057 29.7102 79.404 29.2669 78.644C28.8235 77.8713 28.6019 76.991 28.6019 76.003C28.6019 75.0023 28.8235 74.122 29.2669 73.362C29.7102 72.602 30.3182 72.0067 31.0909 71.576C31.8762 71.1453 32.7629 70.93 33.7509 70.93C34.5995 70.93 35.3659 71.0947 36.0499 71.424C36.7339 71.7533 37.2722 72.2473 37.6649 72.906L36.6579 73.59C36.3159 73.0833 35.8915 72.7097 35.3849 72.469C34.8782 72.2283 34.3272 72.108 33.7319 72.108C33.0225 72.108 32.3829 72.2727 31.8129 72.602C31.2429 72.9187 30.7932 73.3683 30.4639 73.951C30.1345 74.5337 29.9699 75.2177 29.9699 76.003C29.9699 76.7883 30.1345 77.4723 30.4639 78.055C30.7932 78.6377 31.2429 79.0937 31.8129 79.423C32.3829 79.7397 33.0225 79.898 33.7319 79.898C34.3272 79.898 34.8782 79.7777 35.3849 79.537C35.8915 79.2963 36.3159 78.929 36.6579 78.435L37.6649 79.119C37.2722 79.765 36.7339 80.259 36.0499 80.601C35.3659 80.9303 34.5995 81.095 33.7509 81.095ZM45.2496 81V71.025H46.5986V75.433H52.8876V71.025H54.2366V81H52.8876V76.592H46.5986V81H45.2496ZM64.2649 81V78.796L64.2079 78.435V74.749C64.2079 73.9003 63.9672 73.248 63.4859 72.792C63.0172 72.336 62.3142 72.108 61.3769 72.108C60.7309 72.108 60.1165 72.2157 59.5339 72.431C58.9512 72.6463 58.4572 72.9313 58.0519 73.286L57.4439 72.279C57.9505 71.8483 58.5585 71.519 59.2679 71.291C59.9772 71.0503 60.7245 70.93 61.5099 70.93C62.8019 70.93 63.7962 71.253 64.4929 71.899C65.2022 72.5323 65.5569 73.5013 65.5569 74.806V81H64.2649ZM60.8259 81.095C60.0785 81.095 59.4262 80.9747 58.8689 80.734C58.3242 80.4807 57.9062 80.1387 57.6149 79.708C57.3235 79.2647 57.1779 78.758 57.1779 78.188C57.1779 77.6687 57.2982 77.2 57.5389 76.782C57.7922 76.3513 58.1975 76.0093 58.7549 75.756C59.3249 75.49 60.0849 75.357 61.0349 75.357H64.4739V76.364H61.0729C60.1102 76.364 59.4389 76.535 59.0589 76.877C58.6915 77.219 58.5079 77.6433 58.5079 78.15C58.5079 78.72 58.7295 79.176 59.1729 79.518C59.6162 79.86 60.2369 80.031 61.0349 80.031C61.7949 80.031 62.4472 79.86 62.9919 79.518C63.5492 79.1633 63.9545 78.6567 64.2079 77.998L64.5119 78.929C64.2585 79.5877 63.8152 80.1133 63.1819 80.506C62.5612 80.8987 61.7759 81.095 60.8259 81.095ZM69.148 81V71.025H70.516L75.038 78.682H74.468L79.066 71.025H80.32V81H79.085V72.564L79.332 72.678L75.038 79.784H74.43L70.098 72.602L70.383 72.545V81H69.148ZM84.1587 81V71.025H85.5077V78.948L92.1767 71.025H93.3737V81H92.0247V73.058L85.3747 81H84.1587Z" fill="white"/>
</svg>
