<svg width="37" height="37" viewBox="0 0 37 37" fill="none" xmlns="http://www.w3.org/2000/svg">
<path d="M2.16325 7.0188C2.01363 7.18602 1.8728 7.36204 1.74079 7.54686C0.55265 8.59858 -0.389071 10.9176 0.160993 13.7736C2.53287 26.1346 12.9489 35.5517 25.4815 36.6782C25.75 36.7046 26.0184 36.7134 26.2868 36.7134C27.7258 36.7134 29.0855 36.357 30.1681 35.6925C30.6917 35.3889 31.1582 35.0148 31.5498 34.5748L32.628 33.3823C34.727 31.0588 34.5466 27.4636 32.2231 25.3645L30.4057 23.7231C29.3584 22.777 28.0074 22.2578 26.5993 22.2578C24.9975 22.2578 23.4617 22.9398 22.388 24.128L21.3098 25.3161C20.8874 25.7826 20.553 26.3018 20.3065 26.8739C16.016 25.0697 12.4956 21.8485 10.3174 17.7296C11.1051 17.4084 11.8136 16.9155 12.39 16.2775L13.4681 15.0893C14.4846 13.9628 15.0039 12.5106 14.9291 10.9969C14.8543 9.48308 14.1942 8.08812 13.0677 7.0716L11.2503 5.43021C10.203 4.4841 8.85202 3.96484 7.44386 3.96484C5.84207 3.96484 4.30629 4.64692 3.23257 5.83066L2.16325 7.0188Z" fill="white"/>
<path d="M36.386 17.3336C36.386 7.7757 28.6103 0 19.0524 0C18.2163 0 17.5342 0.682079 17.5342 1.51818C17.5342 2.35427 18.2163 3.03635 19.0524 3.03635C26.9381 3.03635 33.3496 9.4523 33.3496 17.3336C33.3496 18.1697 34.0317 18.8518 34.8678 18.8518C35.7039 18.8518 36.386 18.1697 36.386 17.3336Z" fill="white"/>
<path d="M18.8675 5.64136C18.0314 5.64136 17.3494 6.32344 17.3494 7.15954C17.3494 7.99563 18.0314 8.67771 18.8675 8.67771C23.7433 8.67771 27.7082 12.6426 27.7082 17.5183C27.7082 18.3544 28.3903 19.0365 29.2264 19.0365C30.0625 19.0365 30.7445 18.3544 30.7445 17.5183C30.7401 10.9704 25.4155 5.64136 18.8675 5.64136Z" fill="white"/>
</svg>
