<svg width="74" height="75" viewBox="0 0 74 75" fill="none" xmlns="http://www.w3.org/2000/svg">
<g id="Group">
<path id="Vector" d="M37.1322 74.0344C57.3718 74.0344 73.7793 57.6193 73.7793 37.3702C73.7793 17.1212 57.3718 0.706055 37.1322 0.706055C16.8926 0.706055 0.485168 17.1212 0.485168 37.3702C0.485168 57.6193 16.8926 74.0344 37.1322 74.0344Z" fill="#56FF00"/>
<g id="Group_2">
<g id="WA_Logo_00000044154096696281608650000002702640640883683240_">
<g id="Group_3">
<path id="Vector_2" fill-rule="evenodd" clip-rule="evenodd" d="M50.7626 24.082C47.3707 20.6844 42.8538 18.8113 38.0473 18.8113C28.1404 18.8113 20.0764 26.8749 20.0722 36.7864C20.0722 39.953 20.8992 43.0483 22.4734 45.7739L19.9253 55.0891L29.4544 52.5902C32.078 54.0223 35.0375 54.7783 38.0431 54.7783H38.0515C47.9584 54.7783 56.0224 46.7147 56.0266 36.799C56.0224 31.9944 54.1544 27.4796 50.7626 24.082ZM38.0473 51.7418H38.0431C35.3607 51.7418 32.7329 51.0195 30.4409 49.6587L29.8951 49.3354L24.2407 50.8179L25.7519 45.3036L25.3951 44.7366C23.9006 42.3595 23.1114 39.6086 23.1114 36.7864C23.1156 28.5464 29.8154 21.8435 38.0599 21.8435C42.0521 21.8435 45.8007 23.4017 48.6217 26.2239C51.4426 29.0462 52.9958 32.8008 52.9916 36.7948C52.9832 45.039 46.2793 51.7418 38.0473 51.7418ZM46.2415 40.5494C45.7923 40.3226 43.5843 39.2391 43.1729 39.0879C42.7615 38.9367 42.4634 38.8611 42.1612 39.3147C41.8632 39.764 41.0026 40.7762 40.7381 41.0744C40.4779 41.3726 40.2134 41.4104 39.7642 41.1878C39.3151 40.961 37.8668 40.4906 36.1541 38.9577C34.8192 37.7649 33.9167 36.295 33.6564 35.8456C33.3961 35.3962 33.627 35.1527 33.8537 34.9301C34.0552 34.7285 34.3029 34.4051 34.5253 34.1447C34.7478 33.8843 34.8234 33.6953 34.9745 33.3972C35.1256 33.099 35.0501 32.8344 34.9367 32.6118C34.8234 32.385 33.9251 30.1759 33.5514 29.2772C33.1862 28.3994 32.8168 28.5212 32.5398 28.5044C32.2795 28.4918 31.9773 28.4876 31.6792 28.4876C31.3812 28.4876 30.8942 28.601 30.4828 29.0504C30.0714 29.4997 28.9128 30.5875 28.9128 32.7966C28.9128 35.0057 30.5206 37.1434 30.7473 37.4415C30.9698 37.7397 33.9125 42.2797 38.4209 44.2242C39.4914 44.6862 40.3309 44.9634 40.9816 45.1692C42.0563 45.5093 43.0385 45.4632 43.811 45.3456C44.6757 45.2154 46.4682 44.2578 46.8418 43.2079C47.2154 42.1579 47.2154 41.2592 47.102 41.0702C46.9887 40.8854 46.6907 40.7762 46.2415 40.5494Z" fill="white"/>
</g>
</g>
</g>
</g>
</svg>
