<svg width="634" height="161" viewBox="0 0 634 161" fill="none" xmlns="http://www.w3.org/2000/svg">
<g clip-path="url(#clip0_68_185)">
<path d="M623.253 154.005L454.5 16L454.5 65L623.253 154.005Z" fill="white"/>
<rect width="460" height="88" rx="20" fill="white"/>
<path d="M40.774 35.512C42.0887 35.8973 43.188 36.0107 44.072 35.852C44.9787 35.6707 45.7833 35.036 46.486 33.948L47.642 32.214L48.152 31.636L56.04 16.2H61.446L51.314 35.036C50.4073 36.736 49.3307 38.0393 48.084 38.946C46.86 39.8527 45.5113 40.3627 44.038 40.476C42.5647 40.612 41.0347 40.3513 39.448 39.694L40.774 35.512ZM48.05 36.226L37.306 16.2H43.188L51.076 32.18L48.05 36.226ZM64.0635 40V16.2H74.3655C76.4961 16.2 78.3321 16.5513 79.8735 17.254C81.4148 17.934 82.6048 18.92 83.4435 20.212C84.2821 21.504 84.7015 23.0453 84.7015 24.836C84.7015 26.604 84.2821 28.134 83.4435 29.426C82.6048 30.718 81.4148 31.7153 79.8735 32.418C78.3321 33.098 76.4961 33.438 74.3655 33.438H67.1235L69.5715 30.956V40H64.0635ZM69.5715 31.568L67.1235 28.95H74.0595C75.7595 28.95 77.0288 28.5873 77.8675 27.862C78.7061 27.1367 79.1255 26.128 79.1255 24.836C79.1255 23.5213 78.7061 22.5013 77.8675 21.776C77.0288 21.0507 75.7595 20.688 74.0595 20.688H67.1235L69.5715 18.07V31.568ZM93.401 25.788H104.859V30.072H93.401V25.788ZM93.809 35.58H106.763V40H88.335V16.2H106.321V20.62H93.809V35.58ZM127.532 16.2H133.04V40H127.532V16.2ZM116.72 40H111.212V16.2H116.72V40ZM127.94 30.242H116.312V25.584H127.94V30.242ZM139.003 40V16.2H155.799L155.765 20.688H143.185L144.443 19.43L144.477 40H139.003ZM168.123 40.408C166.242 40.408 164.497 40.102 162.887 39.49C161.301 38.878 159.918 38.0167 158.739 36.906C157.583 35.7953 156.677 34.492 156.019 32.996C155.385 31.5 155.067 29.868 155.067 28.1C155.067 26.332 155.385 24.7 156.019 23.204C156.677 21.708 157.595 20.4047 158.773 19.294C159.952 18.1833 161.335 17.322 162.921 16.71C164.508 16.098 166.231 15.792 168.089 15.792C169.971 15.792 171.693 16.098 173.257 16.71C174.844 17.322 176.215 18.1833 177.371 19.294C178.55 20.4047 179.468 21.708 180.125 23.204C180.783 24.6773 181.111 26.3093 181.111 28.1C181.111 29.868 180.783 31.5113 180.125 33.03C179.468 34.526 178.55 35.8293 177.371 36.94C176.215 38.028 174.844 38.878 173.257 39.49C171.693 40.102 169.982 40.408 168.123 40.408ZM168.089 35.716C169.155 35.716 170.129 35.5347 171.013 35.172C171.92 34.8093 172.713 34.288 173.393 33.608C174.073 32.928 174.595 32.1233 174.957 31.194C175.343 30.2647 175.535 29.2333 175.535 28.1C175.535 26.9667 175.343 25.9353 174.957 25.006C174.595 24.0767 174.073 23.272 173.393 22.592C172.736 21.912 171.954 21.3907 171.047 21.028C170.141 20.6653 169.155 20.484 168.089 20.484C167.024 20.484 166.038 20.6653 165.131 21.028C164.247 21.3907 163.465 21.912 162.785 22.592C162.105 23.272 161.573 24.0767 161.187 25.006C160.825 25.9353 160.643 26.9667 160.643 28.1C160.643 29.2107 160.825 30.242 161.187 31.194C161.573 32.1233 162.094 32.928 162.751 33.608C163.431 34.288 164.225 34.8093 165.131 35.172C166.038 35.5347 167.024 35.716 168.089 35.716ZM185.354 40V16.2H190.828V31.704L202.184 16.2H207.352V40H201.912V24.53L190.556 40H185.354ZM196.336 14.67C194.07 14.67 192.404 14.2167 191.338 13.31C190.296 12.4033 189.763 11.1227 189.74 9.468H193.514C193.537 10.284 193.775 10.9073 194.228 11.338C194.704 11.746 195.407 11.95 196.336 11.95C197.243 11.95 197.934 11.746 198.41 11.338C198.886 10.9073 199.136 10.284 199.158 9.468H202.932C202.91 11.1227 202.366 12.4033 201.3 13.31C200.235 14.2167 198.58 14.67 196.336 14.67ZM224.532 40.408C222.696 40.408 220.985 40.1133 219.398 39.524C217.834 38.912 216.474 38.0507 215.318 36.94C214.162 35.8293 213.256 34.526 212.598 33.03C211.964 31.534 211.646 29.8907 211.646 28.1C211.646 26.3093 211.964 24.666 212.598 23.17C213.256 21.674 214.162 20.3707 215.318 19.26C216.497 18.1493 217.868 17.2993 219.432 16.71C220.996 16.098 222.708 15.792 224.566 15.792C226.629 15.792 228.488 16.1547 230.142 16.88C231.82 17.5827 233.225 18.6253 234.358 20.008L230.822 23.272C230.006 22.3427 229.1 21.6513 228.102 21.198C227.105 20.722 226.017 20.484 224.838 20.484C223.728 20.484 222.708 20.6653 221.778 21.028C220.849 21.3907 220.044 21.912 219.364 22.592C218.684 23.272 218.152 24.0767 217.766 25.006C217.404 25.9353 217.222 26.9667 217.222 28.1C217.222 29.2333 217.404 30.2647 217.766 31.194C218.152 32.1233 218.684 32.928 219.364 33.608C220.044 34.288 220.849 34.8093 221.778 35.172C222.708 35.5347 223.728 35.716 224.838 35.716C226.017 35.716 227.105 35.4893 228.102 35.036C229.1 34.56 230.006 33.846 230.822 32.894L234.358 36.158C233.225 37.5407 231.82 38.5947 230.142 39.32C228.488 40.0453 226.618 40.408 224.532 40.408ZM253.35 40L245.938 28.542L250.392 25.856L259.606 40H253.35ZM237.88 40V16.2H243.354V40H237.88ZM241.756 30.412V25.822H250.052V30.412H241.756ZM250.902 28.712L245.836 28.1L253.554 16.2H259.368L250.902 28.712ZM273.477 40.408C271.596 40.408 269.85 40.102 268.241 39.49C266.654 38.878 265.272 38.0167 264.093 36.906C262.937 35.7953 262.03 34.492 261.373 32.996C260.738 31.5 260.421 29.868 260.421 28.1C260.421 26.332 260.738 24.7 261.373 23.204C262.03 21.708 262.948 20.4047 264.127 19.294C265.306 18.1833 266.688 17.322 268.275 16.71C269.862 16.098 271.584 15.792 273.443 15.792C275.324 15.792 277.047 16.098 278.611 16.71C280.198 17.322 281.569 18.1833 282.725 19.294C283.904 20.4047 284.822 21.708 285.479 23.204C286.136 24.6773 286.465 26.3093 286.465 28.1C286.465 29.868 286.136 31.5113 285.479 33.03C284.822 34.526 283.904 35.8293 282.725 36.94C281.569 38.028 280.198 38.878 278.611 39.49C277.047 40.102 275.336 40.408 273.477 40.408ZM273.443 35.716C274.508 35.716 275.483 35.5347 276.367 35.172C277.274 34.8093 278.067 34.288 278.747 33.608C279.427 32.928 279.948 32.1233 280.311 31.194C280.696 30.2647 280.889 29.2333 280.889 28.1C280.889 26.9667 280.696 25.9353 280.311 25.006C279.948 24.0767 279.427 23.272 278.747 22.592C278.09 21.912 277.308 21.3907 276.401 21.028C275.494 20.6653 274.508 20.484 273.443 20.484C272.378 20.484 271.392 20.6653 270.485 21.028C269.601 21.3907 268.819 21.912 268.139 22.592C267.459 23.272 266.926 24.0767 266.541 25.006C266.178 25.9353 265.997 26.9667 265.997 28.1C265.997 29.2107 266.178 30.242 266.541 31.194C266.926 32.1233 267.448 32.928 268.105 33.608C268.785 34.288 269.578 34.8093 270.485 35.172C271.392 35.5347 272.378 35.716 273.443 35.716ZM295.774 25.788H307.232V30.072H295.774V25.788ZM296.182 35.58H309.136V40H290.708V16.2H308.694V20.62H296.182V35.58Z" fill="black"/>
<path d="M49.206 58.4H52.122V71H49.206V58.4ZM43.482 71H40.566V58.4H43.482V71ZM49.422 65.834H43.266V63.368H49.422V65.834ZM57.9609 63.476H64.0269V65.744H57.9609V63.476ZM58.1769 68.66H65.0349V71H55.2789V58.4H64.8009V60.74H58.1769V68.66ZM74.0502 70.208C72.4182 70.208 71.0322 69.992 69.8922 69.56C68.7642 69.128 67.9062 68.504 67.3182 67.688C66.7302 66.86 66.4362 65.852 66.4362 64.664C66.4362 63.476 66.7302 62.474 67.3182 61.658C67.9062 60.83 68.7642 60.2 69.8922 59.768C71.0322 59.336 72.4182 59.12 74.0502 59.12C74.0742 59.12 74.1402 59.12 74.2482 59.12C74.3682 59.12 74.4822 59.12 74.5902 59.12C74.7102 59.12 74.7762 59.12 74.7882 59.12C76.4082 59.12 77.7762 59.336 78.8922 59.768C80.0202 60.2 80.8722 60.83 81.4482 61.658C82.0242 62.486 82.3122 63.488 82.3122 64.664C82.3122 65.828 82.0242 66.83 81.4482 67.67C80.8842 68.498 80.0502 69.128 78.9462 69.56C77.8542 69.992 76.5162 70.208 74.9322 70.208C74.8962 70.208 74.8122 70.208 74.6802 70.208C74.5482 70.208 74.4162 70.208 74.2842 70.208C74.1642 70.208 74.0862 70.208 74.0502 70.208ZM74.3202 67.958C74.3562 67.958 74.4042 67.958 74.4642 67.958C74.5242 67.958 74.5662 67.958 74.5902 67.958C75.6942 67.958 76.6062 67.838 77.3262 67.598C78.0582 67.346 78.6042 66.98 78.9642 66.5C79.3242 66.008 79.5042 65.39 79.5042 64.646C79.5042 63.902 79.3182 63.29 78.9462 62.81C78.5742 62.33 78.0282 61.976 77.3082 61.748C76.6002 61.508 75.7062 61.388 74.6262 61.388C74.6022 61.388 74.5542 61.388 74.4822 61.388C74.4222 61.388 74.3682 61.388 74.3202 61.388C73.1802 61.388 72.2382 61.502 71.4942 61.73C70.7502 61.958 70.1922 62.318 69.8202 62.81C69.4482 63.29 69.2622 63.908 69.2622 64.664C69.2622 65.42 69.4602 66.044 69.8562 66.536C70.2522 67.016 70.8222 67.376 71.5662 67.616C72.3222 67.844 73.2402 67.958 74.3202 67.958ZM73.0422 71.558V57.86H75.7242V71.558H73.0422ZM87.036 71V60.11L87.702 60.776H83.022V58.4H93.948V60.776H89.268L89.916 60.11V71H87.036ZM98.4609 63.476H104.527V65.744H98.4609V63.476ZM98.6769 68.66H105.535V71H95.7789V58.4H105.301V60.74H98.6769V68.66ZM107.89 71V58.4H116.782L116.764 60.776H110.104L110.77 60.11L110.788 71H107.89ZM114.677 71L120.293 58.4H123.173L128.807 71H125.747L121.139 59.876H122.291L117.665 71H114.677ZM117.485 68.3L118.259 66.086H124.739L125.531 68.3H117.485ZM129.344 69.884L130.244 67.796C130.784 68.12 131.36 68.372 131.972 68.552C132.596 68.72 133.202 68.816 133.79 68.84C134.39 68.852 134.93 68.792 135.41 68.66C135.902 68.528 136.292 68.33 136.58 68.066C136.88 67.802 137.03 67.466 137.03 67.058C137.03 66.578 136.832 66.224 136.436 65.996C136.04 65.756 135.512 65.636 134.852 65.636H131.774V63.44H134.636C135.224 63.44 135.68 63.32 136.004 63.08C136.34 62.84 136.508 62.51 136.508 62.09C136.508 61.73 136.388 61.442 136.148 61.226C135.908 60.998 135.578 60.83 135.158 60.722C134.75 60.614 134.288 60.566 133.772 60.578C133.256 60.59 132.722 60.674 132.17 60.83C131.618 60.986 131.09 61.202 130.586 61.478L129.704 59.228C130.52 58.808 131.378 58.52 132.278 58.364C133.19 58.196 134.066 58.154 134.906 58.238C135.758 58.31 136.526 58.502 137.21 58.814C137.894 59.114 138.44 59.51 138.848 60.002C139.256 60.494 139.46 61.076 139.46 61.748C139.46 62.348 139.304 62.882 138.992 63.35C138.68 63.818 138.242 64.178 137.678 64.43C137.126 64.682 136.49 64.808 135.77 64.808L135.842 64.16C136.682 64.16 137.408 64.304 138.02 64.592C138.644 64.868 139.124 65.258 139.46 65.762C139.808 66.254 139.982 66.824 139.982 67.472C139.982 68.072 139.82 68.612 139.496 69.092C139.184 69.56 138.752 69.956 138.2 70.28C137.648 70.604 137.018 70.844 136.31 71C135.602 71.156 134.846 71.222 134.042 71.198C133.25 71.174 132.452 71.06 131.648 70.856C130.844 70.64 130.076 70.316 129.344 69.884ZM148.321 71.216C147.325 71.216 146.401 71.054 145.549 70.73C144.709 70.406 143.977 69.95 143.353 69.362C142.741 68.774 142.261 68.084 141.913 67.292C141.577 66.5 141.409 65.636 141.409 64.7C141.409 63.764 141.577 62.9 141.913 62.108C142.261 61.316 142.747 60.626 143.371 60.038C143.995 59.45 144.727 58.994 145.567 58.67C146.407 58.346 147.319 58.184 148.303 58.184C149.299 58.184 150.211 58.346 151.039 58.67C151.879 58.994 152.605 59.45 153.217 60.038C153.841 60.626 154.327 61.316 154.675 62.108C155.023 62.888 155.197 63.752 155.197 64.7C155.197 65.636 155.023 66.506 154.675 67.31C154.327 68.102 153.841 68.792 153.217 69.38C152.605 69.956 151.879 70.406 151.039 70.73C150.211 71.054 149.305 71.216 148.321 71.216ZM148.303 68.732C148.867 68.732 149.383 68.636 149.851 68.444C150.331 68.252 150.751 67.976 151.111 67.616C151.471 67.256 151.747 66.83 151.939 66.338C152.143 65.846 152.245 65.3 152.245 64.7C152.245 64.1 152.143 63.554 151.939 63.062C151.747 62.57 151.471 62.144 151.111 61.784C150.763 61.424 150.349 61.148 149.869 60.956C149.389 60.764 148.867 60.668 148.303 60.668C147.739 60.668 147.217 60.764 146.737 60.956C146.269 61.148 145.855 61.424 145.495 61.784C145.135 62.144 144.853 62.57 144.649 63.062C144.457 63.554 144.361 64.1 144.361 64.7C144.361 65.288 144.457 65.834 144.649 66.338C144.853 66.83 145.129 67.256 145.477 67.616C145.837 67.976 146.257 68.252 146.737 68.444C147.217 68.636 147.739 68.732 148.303 68.732ZM157.443 71V58.4H163.311C164.775 58.4 165.915 58.682 166.731 59.246C167.547 59.81 167.955 60.614 167.955 61.658C167.955 62.69 167.571 63.494 166.803 64.07C166.035 64.634 165.015 64.916 163.743 64.916L164.085 64.16C165.501 64.16 166.599 64.442 167.379 65.006C168.159 65.57 168.549 66.386 168.549 67.454C168.549 68.558 168.129 69.428 167.289 70.064C166.461 70.688 165.249 71 163.653 71H157.443ZM160.341 68.84H163.545C164.217 68.84 164.727 68.708 165.075 68.444C165.423 68.18 165.597 67.772 165.597 67.22C165.597 66.692 165.423 66.302 165.075 66.05C164.727 65.786 164.217 65.654 163.545 65.654H160.341V68.84ZM160.341 63.62H163.059C163.695 63.62 164.175 63.494 164.499 63.242C164.823 62.978 164.985 62.594 164.985 62.09C164.985 61.586 164.823 61.208 164.499 60.956C164.175 60.692 163.695 60.56 163.059 60.56H160.341V63.62ZM176.885 71.216C175.889 71.216 174.965 71.054 174.113 70.73C173.273 70.406 172.541 69.95 171.917 69.362C171.305 68.774 170.825 68.084 170.477 67.292C170.141 66.5 169.973 65.636 169.973 64.7C169.973 63.764 170.141 62.9 170.477 62.108C170.825 61.316 171.311 60.626 171.935 60.038C172.559 59.45 173.291 58.994 174.131 58.67C174.971 58.346 175.883 58.184 176.867 58.184C177.863 58.184 178.775 58.346 179.603 58.67C180.443 58.994 181.169 59.45 181.781 60.038C182.405 60.626 182.891 61.316 183.239 62.108C183.587 62.888 183.761 63.752 183.761 64.7C183.761 65.636 183.587 66.506 183.239 67.31C182.891 68.102 182.405 68.792 181.781 69.38C181.169 69.956 180.443 70.406 179.603 70.73C178.775 71.054 177.869 71.216 176.885 71.216ZM176.867 68.732C177.431 68.732 177.947 68.636 178.415 68.444C178.895 68.252 179.315 67.976 179.675 67.616C180.035 67.256 180.311 66.83 180.503 66.338C180.707 65.846 180.809 65.3 180.809 64.7C180.809 64.1 180.707 63.554 180.503 63.062C180.311 62.57 180.035 62.144 179.675 61.784C179.327 61.424 178.913 61.148 178.433 60.956C177.953 60.764 177.431 60.668 176.867 60.668C176.303 60.668 175.781 60.764 175.301 60.956C174.833 61.148 174.419 61.424 174.059 61.784C173.699 62.144 173.417 62.57 173.213 63.062C173.021 63.554 172.925 64.1 172.925 64.7C172.925 65.288 173.021 65.834 173.213 66.338C173.417 66.83 173.693 67.256 174.041 67.616C174.401 67.976 174.821 68.252 175.301 68.444C175.781 68.636 176.303 68.732 176.867 68.732ZM188.689 63.476H194.755V65.744H188.689V63.476ZM188.905 68.66H195.763V71H186.007V58.4H195.529V60.74H188.905V68.66ZM203.216 71V58.4H205.628L210.992 67.292H209.714L214.988 58.4H217.4L217.418 71H214.682L214.664 62.594H215.186L210.956 69.668H209.66L205.34 62.594H205.952V71H203.216ZM223.23 63.476H229.296V65.744H223.23V63.476ZM223.446 68.66H230.304V71H220.548V58.4H230.07V60.74H223.446V68.66ZM238.618 71.216C237.646 71.216 236.74 71.06 235.9 70.748C235.072 70.424 234.352 69.968 233.74 69.38C233.128 68.792 232.648 68.102 232.3 67.31C231.964 66.518 231.796 65.648 231.796 64.7C231.796 63.752 231.964 62.882 232.3 62.09C232.648 61.298 233.128 60.608 233.74 60.02C234.364 59.432 235.09 58.982 235.918 58.67C236.746 58.346 237.652 58.184 238.636 58.184C239.728 58.184 240.712 58.376 241.588 58.76C242.476 59.132 243.22 59.684 243.82 60.416L241.948 62.144C241.516 61.652 241.036 61.286 240.508 61.046C239.98 60.794 239.404 60.668 238.78 60.668C238.192 60.668 237.652 60.764 237.16 60.956C236.668 61.148 236.242 61.424 235.882 61.784C235.522 62.144 235.24 62.57 235.036 63.062C234.844 63.554 234.748 64.1 234.748 64.7C234.748 65.3 234.844 65.846 235.036 66.338C235.24 66.83 235.522 67.256 235.882 67.616C236.242 67.976 236.668 68.252 237.16 68.444C237.652 68.636 238.192 68.732 238.78 68.732C239.404 68.732 239.98 68.612 240.508 68.372C241.036 68.12 241.516 67.742 241.948 67.238L243.82 68.966C243.22 69.698 242.476 70.256 241.588 70.64C240.712 71.024 239.722 71.216 238.618 71.216ZM248.315 71V60.11L248.981 60.776H244.301V58.4H255.227V60.776H250.547L251.195 60.11V71H248.315ZM262.912 71.216C261.916 71.216 260.992 71.054 260.14 70.73C259.3 70.406 258.568 69.95 257.944 69.362C257.332 68.774 256.852 68.084 256.504 67.292C256.168 66.5 256 65.636 256 64.7C256 63.764 256.168 62.9 256.504 62.108C256.852 61.316 257.338 60.626 257.962 60.038C258.586 59.45 259.318 58.994 260.158 58.67C260.998 58.346 261.91 58.184 262.894 58.184C263.89 58.184 264.802 58.346 265.63 58.67C266.47 58.994 267.196 59.45 267.808 60.038C268.432 60.626 268.918 61.316 269.266 62.108C269.614 62.888 269.788 63.752 269.788 64.7C269.788 65.636 269.614 66.506 269.266 67.31C268.918 68.102 268.432 68.792 267.808 69.38C267.196 69.956 266.47 70.406 265.63 70.73C264.802 71.054 263.896 71.216 262.912 71.216ZM262.894 68.732C263.458 68.732 263.974 68.636 264.442 68.444C264.922 68.252 265.342 67.976 265.702 67.616C266.062 67.256 266.338 66.83 266.53 66.338C266.734 65.846 266.836 65.3 266.836 64.7C266.836 64.1 266.734 63.554 266.53 63.062C266.338 62.57 266.062 62.144 265.702 61.784C265.354 61.424 264.94 61.148 264.46 60.956C263.98 60.764 263.458 60.668 262.894 60.668C262.33 60.668 261.808 60.764 261.328 60.956C260.86 61.148 260.446 61.424 260.086 61.784C259.726 62.144 259.444 62.57 259.24 63.062C259.048 63.554 258.952 64.1 258.952 64.7C258.952 65.288 259.048 65.834 259.24 66.338C259.444 66.83 259.72 67.256 260.068 67.616C260.428 67.976 260.848 68.252 261.328 68.444C261.808 68.636 262.33 68.732 262.894 68.732ZM272.035 71V58.4H277.489C278.617 58.4 279.589 58.586 280.405 58.958C281.221 59.318 281.851 59.84 282.295 60.524C282.739 61.208 282.961 62.024 282.961 62.972C282.961 63.908 282.739 64.718 282.295 65.402C281.851 66.086 281.221 66.614 280.405 66.986C279.589 67.346 278.617 67.526 277.489 67.526H273.655L274.951 66.212V71H272.035ZM274.951 66.536L273.655 65.15H277.327C278.227 65.15 278.899 64.958 279.343 64.574C279.787 64.19 280.009 63.656 280.009 62.972C280.009 62.276 279.787 61.736 279.343 61.352C278.899 60.968 278.227 60.776 277.327 60.776H273.655L274.951 59.39V66.536ZM291.09 71.216C290.094 71.216 289.17 71.054 288.318 70.73C287.478 70.406 286.746 69.95 286.122 69.362C285.51 68.774 285.03 68.084 284.682 67.292C284.346 66.5 284.178 65.636 284.178 64.7C284.178 63.764 284.346 62.9 284.682 62.108C285.03 61.316 285.516 60.626 286.14 60.038C286.764 59.45 287.496 58.994 288.336 58.67C289.176 58.346 290.088 58.184 291.072 58.184C292.068 58.184 292.98 58.346 293.808 58.67C294.648 58.994 295.374 59.45 295.986 60.038C296.61 60.626 297.096 61.316 297.444 62.108C297.792 62.888 297.966 63.752 297.966 64.7C297.966 65.636 297.792 66.506 297.444 67.31C297.096 68.102 296.61 68.792 295.986 69.38C295.374 69.956 294.648 70.406 293.808 70.73C292.98 71.054 292.074 71.216 291.09 71.216ZM291.072 68.732C291.636 68.732 292.152 68.636 292.62 68.444C293.1 68.252 293.52 67.976 293.88 67.616C294.24 67.256 294.516 66.83 294.708 66.338C294.912 65.846 295.014 65.3 295.014 64.7C295.014 64.1 294.912 63.554 294.708 63.062C294.516 62.57 294.24 62.144 293.88 61.784C293.532 61.424 293.118 61.148 292.638 60.956C292.158 60.764 291.636 60.668 291.072 60.668C290.508 60.668 289.986 60.764 289.506 60.956C289.038 61.148 288.624 61.424 288.264 61.784C287.904 62.144 287.622 62.57 287.418 63.062C287.226 63.554 287.13 64.1 287.13 64.7C287.13 65.288 287.226 65.834 287.418 66.338C287.622 66.83 287.898 67.256 288.246 67.616C288.606 67.976 289.026 68.252 289.506 68.444C289.986 68.636 290.508 68.732 291.072 68.732ZM314.011 71L310.627 64.934L313.093 63.512L317.377 71H314.011ZM308.485 65.924V63.494H312.409V65.924H308.485ZM313.255 65.024L310.555 64.7L314.065 58.4H317.143L313.255 65.024ZM301.789 71H298.423L302.707 63.512L305.173 64.934L301.789 71ZM309.349 71H306.487V58.4H309.349V71ZM307.333 65.924H303.391V63.494H307.333V65.924ZM302.563 65.024L298.657 58.4H301.735L305.227 64.7L302.563 65.024ZM327.443 69.704V60.776H323.123L323.069 62.612C323.033 63.392 322.979 64.13 322.907 64.826C322.847 65.522 322.751 66.158 322.619 66.734C322.487 67.298 322.313 67.778 322.097 68.174C321.893 68.57 321.635 68.852 321.323 69.02L318.209 68.624C318.641 68.636 318.995 68.486 319.271 68.174C319.559 67.862 319.787 67.424 319.955 66.86C320.123 66.284 320.243 65.612 320.315 64.844C320.399 64.076 320.459 63.242 320.495 62.342L320.639 58.4H330.323V69.704H327.443ZM317.795 73.61L317.813 68.624H332.087V73.61H329.387V71H320.495V73.61H317.795ZM336.732 63.476H342.798V65.744H336.732V63.476ZM336.948 68.66H343.806V71H334.05V58.4H343.572V60.74H336.948V68.66ZM354.802 58.4H357.718V71H354.802V58.4ZM349.078 71H346.162V58.4H349.078V71ZM355.018 65.834H348.862V63.368H355.018V65.834ZM360.875 71V58.4H363.773V66.608L369.785 58.4H372.521V71H369.641V62.81L363.629 71H360.875ZM378.34 63.476H384.406V65.744H378.34V63.476ZM378.556 68.66H385.414V71H375.658V58.4H385.18V60.74H378.556V68.66Z" fill="black"/>
<g filter="url(#filter0_d_68_185)">
<rect x="22" y="11" width="66" height="6" transform="rotate(90 22 11)" fill="#D9D9D9"/>
<rect x="22" y="11" width="66" height="6" transform="rotate(90 22 11)" fill="url(#paint0_linear_68_185)"/>
</g>
</g>
<defs>
<filter id="filter0_d_68_185" x="12" y="11" width="14" height="74" filterUnits="userSpaceOnUse" color-interpolation-filters="sRGB">
<feFlood flood-opacity="0" result="BackgroundImageFix"/>
<feColorMatrix in="SourceAlpha" type="matrix" values="0 0 0 0 0 0 0 0 0 0 0 0 0 0 0 0 0 0 127 0" result="hardAlpha"/>
<feOffset dy="4"/>
<feGaussianBlur stdDeviation="2"/>
<feComposite in2="hardAlpha" operator="out"/>
<feColorMatrix type="matrix" values="0 0 0 0 0 0 0 0 0 0 0 0 0 0 0 0 0 0 0.25 0"/>
<feBlend mode="normal" in2="BackgroundImageFix" result="effect1_dropShadow_68_185"/>
<feBlend mode="normal" in="SourceGraphic" in2="effect1_dropShadow_68_185" result="shape"/>
</filter>
<linearGradient id="paint0_linear_68_185" x1="22" y1="11" x2="88" y2="11" gradientUnits="userSpaceOnUse">
<stop stop-color="#008DDE"/>
<stop offset="0.53125" stop-color="#EB097B"/>
<stop offset="1" stop-color="#571273"/>
</linearGradient>
<clipPath id="clip0_68_185">
<rect width="634" height="161" fill="white"/>
</clipPath>
</defs>
</svg>
