<svg width="634" height="154" viewBox="0 0 634 154" fill="none" xmlns="http://www.w3.org/2000/svg">
<path d="M623.253 154.005L454.5 16L454.5 65L623.253 154.005Z" fill="white"/>
<rect width="460" height="88" rx="20" fill="white"/>
<path d="M40.958 40V16.2H46.432V25.55H52.586V30.31H46.432V40H40.958ZM61.97 40.408C60.1567 40.408 58.4793 40.102 56.938 39.49C55.4193 38.878 54.0933 38.028 52.96 36.94C51.8267 35.8293 50.9427 34.526 50.308 33.03C49.696 31.5113 49.39 29.868 49.39 28.1C49.39 26.3093 49.696 24.666 50.308 23.17C50.9427 21.674 51.8267 20.382 52.96 19.294C54.0933 18.1833 55.4193 17.322 56.938 16.71C58.4793 16.098 60.1567 15.792 61.97 15.792C63.7607 15.792 65.4267 16.098 66.968 16.71C68.5093 17.322 69.8353 18.1833 70.946 19.294C72.0793 20.382 72.9633 21.6853 73.598 23.204C74.2327 24.7 74.55 26.332 74.55 28.1C74.55 29.868 74.2327 31.5113 73.598 33.03C72.9633 34.526 72.0793 35.8293 70.946 36.94C69.8353 38.028 68.5093 38.878 66.968 39.49C65.4267 40.102 63.7607 40.408 61.97 40.408ZM61.97 35.716C62.9673 35.716 63.8853 35.5347 64.724 35.172C65.5627 34.8093 66.2993 34.2993 66.934 33.642C67.5687 32.962 68.0673 32.1573 68.43 31.228C68.7927 30.2987 68.974 29.256 68.974 28.1C68.974 26.944 68.7927 25.9013 68.43 24.972C68.0673 24.0427 67.5687 23.2493 66.934 22.592C66.2993 21.912 65.5627 21.3907 64.724 21.028C63.8853 20.6653 62.9673 20.484 61.97 20.484C60.9953 20.484 60.0773 20.6653 59.216 21.028C58.3773 21.3907 57.6407 21.912 57.006 22.592C56.3713 23.2493 55.8727 24.0427 55.51 24.972C55.1473 25.9013 54.966 26.944 54.966 28.1C54.966 29.256 55.1473 30.2987 55.51 31.228C55.8727 32.1573 56.3713 32.962 57.006 33.642C57.6407 34.2993 58.3773 34.8093 59.216 35.172C60.0773 35.5347 60.9953 35.716 61.97 35.716ZM104.907 40L98.5155 28.542L103.173 25.856L111.265 40H104.907ZM94.4695 30.412V25.822H101.881V30.412H94.4695ZM103.479 28.712L98.3795 28.1L105.009 16.2H110.823L103.479 28.712ZM81.8215 40H75.4635L83.5555 25.856L88.2135 28.542L81.8215 40ZM96.1015 40H90.6955V16.2H96.1015V40ZM92.2935 30.412H84.8475V25.822H92.2935V30.412ZM83.2835 28.712L75.9055 16.2H81.7195L88.3155 28.1L83.2835 28.712ZM130.225 16.2H135.733V40H130.225V16.2ZM119.413 40H113.905V16.2H119.413V40ZM130.633 30.242H119.005V25.584H130.633V30.242ZM153.086 40.408C151.205 40.408 149.46 40.102 147.85 39.49C146.264 38.878 144.881 38.0167 143.702 36.906C142.546 35.7953 141.64 34.492 140.982 32.996C140.348 31.5 140.03 29.868 140.03 28.1C140.03 26.332 140.348 24.7 140.982 23.204C141.64 21.708 142.558 20.4047 143.736 19.294C144.915 18.1833 146.298 17.322 147.884 16.71C149.471 16.098 151.194 15.792 153.052 15.792C154.934 15.792 156.656 16.098 158.22 16.71C159.807 17.322 161.178 18.1833 162.334 19.294C163.513 20.4047 164.431 21.708 165.088 23.204C165.746 24.6773 166.074 26.3093 166.074 28.1C166.074 29.868 165.746 31.5113 165.088 33.03C164.431 34.526 163.513 35.8293 162.334 36.94C161.178 38.028 159.807 38.878 158.22 39.49C156.656 40.102 154.945 40.408 153.086 40.408ZM153.052 35.716C154.118 35.716 155.092 35.5347 155.976 35.172C156.883 34.8093 157.676 34.288 158.356 33.608C159.036 32.928 159.558 32.1233 159.92 31.194C160.306 30.2647 160.498 29.2333 160.498 28.1C160.498 26.9667 160.306 25.9353 159.92 25.006C159.558 24.0767 159.036 23.272 158.356 22.592C157.699 21.912 156.917 21.3907 156.01 21.028C155.104 20.6653 154.118 20.484 153.052 20.484C151.987 20.484 151.001 20.6653 150.094 21.028C149.21 21.3907 148.428 21.912 147.748 22.592C147.068 23.272 146.536 24.0767 146.15 25.006C145.788 25.9353 145.606 26.9667 145.606 28.1C145.606 29.2107 145.788 30.242 146.15 31.194C146.536 32.1233 147.057 32.928 147.714 33.608C148.394 34.288 149.188 34.8093 150.094 35.172C151.001 35.5347 151.987 35.716 153.052 35.716ZM169.227 32.554V28.304H178.849V32.554H169.227ZM187.405 40V19.43L188.663 20.688H179.823V16.2H200.461V20.688H191.621L192.845 19.43V40H187.405ZM200.038 40L210.646 16.2H216.086L226.728 40H220.948L212.244 18.988H214.42L205.682 40H200.038ZM205.342 34.9L206.804 30.718H219.044L220.54 34.9H205.342ZM229.884 40V16.2H234.44L244.572 32.996H242.158L252.12 16.2H256.676L256.71 40H251.542L251.508 24.122H252.494L244.504 37.484H242.056L233.896 24.122H235.052V40H229.884ZM262.622 40V16.2H281.832V20.586H268.096V25.482H274.692C277.571 25.482 279.758 26.0827 281.254 27.284C282.773 28.4853 283.532 30.2307 283.532 32.52C283.532 34.8773 282.693 36.7133 281.016 38.028C279.339 39.3427 276.97 40 273.91 40H262.622ZM268.096 35.92H273.604C275.009 35.92 276.086 35.648 276.834 35.104C277.582 34.5373 277.956 33.7213 277.956 32.656C277.956 30.5707 276.505 29.528 273.604 29.528H268.096V35.92ZM292.79 25.788H304.248V30.072H292.79V25.788ZM293.198 35.58H306.152V40H287.724V16.2H305.71V20.62H293.198V35.58ZM310.601 40V16.2H316.075V31.704L327.431 16.2H332.599V40H327.159V24.53L315.803 40H310.601ZM321.583 14.67C319.316 14.67 317.65 14.2167 316.585 13.31C315.542 12.4033 315.009 11.1227 314.987 9.468H318.761C318.783 10.284 319.021 10.9073 319.475 11.338C319.951 11.746 320.653 11.95 321.583 11.95C322.489 11.95 323.181 11.746 323.657 11.338C324.133 10.9073 324.382 10.284 324.405 9.468H328.179C328.156 11.1227 327.612 12.4033 326.547 13.31C325.481 14.2167 323.827 14.67 321.583 14.67ZM349.778 40.408C347.942 40.408 346.231 40.1133 344.644 39.524C343.08 38.912 341.72 38.0507 340.564 36.94C339.408 35.8293 338.502 34.526 337.844 33.03C337.21 31.534 336.892 29.8907 336.892 28.1C336.892 26.3093 337.21 24.666 337.844 23.17C338.502 21.674 339.408 20.3707 340.564 19.26C341.743 18.1493 343.114 17.2993 344.678 16.71C346.242 16.098 347.954 15.792 349.812 15.792C351.875 15.792 353.734 16.1547 355.388 16.88C357.066 17.5827 358.471 18.6253 359.604 20.008L356.068 23.272C355.252 22.3427 354.346 21.6513 353.348 21.198C352.351 20.722 351.263 20.484 350.084 20.484C348.974 20.484 347.954 20.6653 347.024 21.028C346.095 21.3907 345.29 21.912 344.61 22.592C343.93 23.272 343.398 24.0767 343.012 25.006C342.65 25.9353 342.468 26.9667 342.468 28.1C342.468 29.2333 342.65 30.2647 343.012 31.194C343.398 32.1233 343.93 32.928 344.61 33.608C345.29 34.288 346.095 34.8093 347.024 35.172C347.954 35.5347 348.974 35.716 350.084 35.716C351.263 35.716 352.351 35.4893 353.348 35.036C354.346 34.56 355.252 33.846 356.068 32.894L359.604 36.158C358.471 37.5407 357.066 38.5947 355.388 39.32C353.734 40.0453 351.864 40.408 349.778 40.408ZM378.596 40L371.184 28.542L375.638 25.856L384.852 40H378.596ZM363.126 40V16.2H368.6V40H363.126ZM367.002 30.412V25.822H375.298V30.412H367.002ZM376.148 28.712L371.082 28.1L378.8 16.2H384.614L376.148 28.712ZM398.723 40.408C396.842 40.408 395.096 40.102 393.487 39.49C391.9 38.878 390.518 38.0167 389.339 36.906C388.183 35.7953 387.276 34.492 386.619 32.996C385.984 31.5 385.667 29.868 385.667 28.1C385.667 26.332 385.984 24.7 386.619 23.204C387.276 21.708 388.194 20.4047 389.373 19.294C390.552 18.1833 391.934 17.322 393.521 16.71C395.108 16.098 396.83 15.792 398.689 15.792C400.57 15.792 402.293 16.098 403.857 16.71C405.444 17.322 406.815 18.1833 407.971 19.294C409.15 20.4047 410.068 21.708 410.725 23.204C411.382 24.6773 411.711 26.3093 411.711 28.1C411.711 29.868 411.382 31.5113 410.725 33.03C410.068 34.526 409.15 35.8293 407.971 36.94C406.815 38.028 405.444 38.878 403.857 39.49C402.293 40.102 400.582 40.408 398.723 40.408ZM398.689 35.716C399.754 35.716 400.729 35.5347 401.613 35.172C402.52 34.8093 403.313 34.288 403.993 33.608C404.673 32.928 405.194 32.1233 405.557 31.194C405.942 30.2647 406.135 29.2333 406.135 28.1C406.135 26.9667 405.942 25.9353 405.557 25.006C405.194 24.0767 404.673 23.272 403.993 22.592C403.336 21.912 402.554 21.3907 401.647 21.028C400.74 20.6653 399.754 20.484 398.689 20.484C397.624 20.484 396.638 20.6653 395.731 21.028C394.847 21.3907 394.065 21.912 393.385 22.592C392.705 23.272 392.172 24.0767 391.787 25.006C391.424 25.9353 391.243 26.9667 391.243 28.1C391.243 29.2107 391.424 30.242 391.787 31.194C392.172 32.1233 392.694 32.928 393.351 33.608C394.031 34.288 394.824 34.8093 395.731 35.172C396.638 35.5347 397.624 35.716 398.689 35.716ZM421.02 25.788H432.478V30.072H421.02V25.788ZM421.428 35.58H434.382V40H415.954V16.2H433.94V20.62H421.428V35.58Z" fill="black"/>
<path d="M50.206 58.4H53.122V71H50.206V58.4ZM44.482 71H41.566V58.4H44.482V71ZM50.422 65.834H44.266V63.368H50.422V65.834ZM58.9609 63.476H65.0269V65.744H58.9609V63.476ZM59.1769 68.66H66.0349V71H56.2789V58.4H65.8009V60.74H59.1769V68.66ZM75.0502 70.208C73.4182 70.208 72.0322 69.992 70.8922 69.56C69.7642 69.128 68.9062 68.504 68.3182 67.688C67.7302 66.86 67.4362 65.852 67.4362 64.664C67.4362 63.476 67.7302 62.474 68.3182 61.658C68.9062 60.83 69.7642 60.2 70.8922 59.768C72.0322 59.336 73.4182 59.12 75.0502 59.12C75.0742 59.12 75.1402 59.12 75.2482 59.12C75.3682 59.12 75.4822 59.12 75.5902 59.12C75.7102 59.12 75.7762 59.12 75.7882 59.12C77.4082 59.12 78.7762 59.336 79.8922 59.768C81.0202 60.2 81.8722 60.83 82.4482 61.658C83.0242 62.486 83.3122 63.488 83.3122 64.664C83.3122 65.828 83.0242 66.83 82.4482 67.67C81.8842 68.498 81.0502 69.128 79.9462 69.56C78.8542 69.992 77.5162 70.208 75.9322 70.208C75.8962 70.208 75.8122 70.208 75.6802 70.208C75.5482 70.208 75.4162 70.208 75.2842 70.208C75.1642 70.208 75.0862 70.208 75.0502 70.208ZM75.3202 67.958C75.3562 67.958 75.4042 67.958 75.4642 67.958C75.5242 67.958 75.5662 67.958 75.5902 67.958C76.6942 67.958 77.6062 67.838 78.3262 67.598C79.0582 67.346 79.6042 66.98 79.9642 66.5C80.3242 66.008 80.5042 65.39 80.5042 64.646C80.5042 63.902 80.3182 63.29 79.9462 62.81C79.5742 62.33 79.0282 61.976 78.3082 61.748C77.6002 61.508 76.7062 61.388 75.6262 61.388C75.6022 61.388 75.5542 61.388 75.4822 61.388C75.4222 61.388 75.3682 61.388 75.3202 61.388C74.1802 61.388 73.2382 61.502 72.4942 61.73C71.7502 61.958 71.1922 62.318 70.8202 62.81C70.4482 63.29 70.2622 63.908 70.2622 64.664C70.2622 65.42 70.4602 66.044 70.8562 66.536C71.2522 67.016 71.8222 67.376 72.5662 67.616C73.3222 67.844 74.2402 67.958 75.3202 67.958ZM74.0422 71.558V57.86H76.7242V71.558H74.0422ZM88.036 71V60.11L88.702 60.776H84.022V58.4H94.948V60.776H90.268L90.916 60.11V71H88.036ZM99.4609 63.476H105.527V65.744H99.4609V63.476ZM99.6769 68.66H106.535V71H96.7789V58.4H106.301V60.74H99.6769V68.66ZM108.89 71V58.4H117.782L117.764 60.776H111.104L111.77 60.11L111.788 71H108.89ZM115.677 71L121.293 58.4H124.173L129.807 71H126.747L122.139 59.876H123.291L118.665 71H115.677ZM118.485 68.3L119.259 66.086H125.739L126.531 68.3H118.485ZM130.344 69.884L131.244 67.796C131.784 68.12 132.36 68.372 132.972 68.552C133.596 68.72 134.202 68.816 134.79 68.84C135.39 68.852 135.93 68.792 136.41 68.66C136.902 68.528 137.292 68.33 137.58 68.066C137.88 67.802 138.03 67.466 138.03 67.058C138.03 66.578 137.832 66.224 137.436 65.996C137.04 65.756 136.512 65.636 135.852 65.636H132.774V63.44H135.636C136.224 63.44 136.68 63.32 137.004 63.08C137.34 62.84 137.508 62.51 137.508 62.09C137.508 61.73 137.388 61.442 137.148 61.226C136.908 60.998 136.578 60.83 136.158 60.722C135.75 60.614 135.288 60.566 134.772 60.578C134.256 60.59 133.722 60.674 133.17 60.83C132.618 60.986 132.09 61.202 131.586 61.478L130.704 59.228C131.52 58.808 132.378 58.52 133.278 58.364C134.19 58.196 135.066 58.154 135.906 58.238C136.758 58.31 137.526 58.502 138.21 58.814C138.894 59.114 139.44 59.51 139.848 60.002C140.256 60.494 140.46 61.076 140.46 61.748C140.46 62.348 140.304 62.882 139.992 63.35C139.68 63.818 139.242 64.178 138.678 64.43C138.126 64.682 137.49 64.808 136.77 64.808L136.842 64.16C137.682 64.16 138.408 64.304 139.02 64.592C139.644 64.868 140.124 65.258 140.46 65.762C140.808 66.254 140.982 66.824 140.982 67.472C140.982 68.072 140.82 68.612 140.496 69.092C140.184 69.56 139.752 69.956 139.2 70.28C138.648 70.604 138.018 70.844 137.31 71C136.602 71.156 135.846 71.222 135.042 71.198C134.25 71.174 133.452 71.06 132.648 70.856C131.844 70.64 131.076 70.316 130.344 69.884ZM149.321 71.216C148.325 71.216 147.401 71.054 146.549 70.73C145.709 70.406 144.977 69.95 144.353 69.362C143.741 68.774 143.261 68.084 142.913 67.292C142.577 66.5 142.409 65.636 142.409 64.7C142.409 63.764 142.577 62.9 142.913 62.108C143.261 61.316 143.747 60.626 144.371 60.038C144.995 59.45 145.727 58.994 146.567 58.67C147.407 58.346 148.319 58.184 149.303 58.184C150.299 58.184 151.211 58.346 152.039 58.67C152.879 58.994 153.605 59.45 154.217 60.038C154.841 60.626 155.327 61.316 155.675 62.108C156.023 62.888 156.197 63.752 156.197 64.7C156.197 65.636 156.023 66.506 155.675 67.31C155.327 68.102 154.841 68.792 154.217 69.38C153.605 69.956 152.879 70.406 152.039 70.73C151.211 71.054 150.305 71.216 149.321 71.216ZM149.303 68.732C149.867 68.732 150.383 68.636 150.851 68.444C151.331 68.252 151.751 67.976 152.111 67.616C152.471 67.256 152.747 66.83 152.939 66.338C153.143 65.846 153.245 65.3 153.245 64.7C153.245 64.1 153.143 63.554 152.939 63.062C152.747 62.57 152.471 62.144 152.111 61.784C151.763 61.424 151.349 61.148 150.869 60.956C150.389 60.764 149.867 60.668 149.303 60.668C148.739 60.668 148.217 60.764 147.737 60.956C147.269 61.148 146.855 61.424 146.495 61.784C146.135 62.144 145.853 62.57 145.649 63.062C145.457 63.554 145.361 64.1 145.361 64.7C145.361 65.288 145.457 65.834 145.649 66.338C145.853 66.83 146.129 67.256 146.477 67.616C146.837 67.976 147.257 68.252 147.737 68.444C148.217 68.636 148.739 68.732 149.303 68.732ZM158.443 71V58.4H164.311C165.775 58.4 166.915 58.682 167.731 59.246C168.547 59.81 168.955 60.614 168.955 61.658C168.955 62.69 168.571 63.494 167.803 64.07C167.035 64.634 166.015 64.916 164.743 64.916L165.085 64.16C166.501 64.16 167.599 64.442 168.379 65.006C169.159 65.57 169.549 66.386 169.549 67.454C169.549 68.558 169.129 69.428 168.289 70.064C167.461 70.688 166.249 71 164.653 71H158.443ZM161.341 68.84H164.545C165.217 68.84 165.727 68.708 166.075 68.444C166.423 68.18 166.597 67.772 166.597 67.22C166.597 66.692 166.423 66.302 166.075 66.05C165.727 65.786 165.217 65.654 164.545 65.654H161.341V68.84ZM161.341 63.62H164.059C164.695 63.62 165.175 63.494 165.499 63.242C165.823 62.978 165.985 62.594 165.985 62.09C165.985 61.586 165.823 61.208 165.499 60.956C165.175 60.692 164.695 60.56 164.059 60.56H161.341V63.62ZM177.885 71.216C176.889 71.216 175.965 71.054 175.113 70.73C174.273 70.406 173.541 69.95 172.917 69.362C172.305 68.774 171.825 68.084 171.477 67.292C171.141 66.5 170.973 65.636 170.973 64.7C170.973 63.764 171.141 62.9 171.477 62.108C171.825 61.316 172.311 60.626 172.935 60.038C173.559 59.45 174.291 58.994 175.131 58.67C175.971 58.346 176.883 58.184 177.867 58.184C178.863 58.184 179.775 58.346 180.603 58.67C181.443 58.994 182.169 59.45 182.781 60.038C183.405 60.626 183.891 61.316 184.239 62.108C184.587 62.888 184.761 63.752 184.761 64.7C184.761 65.636 184.587 66.506 184.239 67.31C183.891 68.102 183.405 68.792 182.781 69.38C182.169 69.956 181.443 70.406 180.603 70.73C179.775 71.054 178.869 71.216 177.885 71.216ZM177.867 68.732C178.431 68.732 178.947 68.636 179.415 68.444C179.895 68.252 180.315 67.976 180.675 67.616C181.035 67.256 181.311 66.83 181.503 66.338C181.707 65.846 181.809 65.3 181.809 64.7C181.809 64.1 181.707 63.554 181.503 63.062C181.311 62.57 181.035 62.144 180.675 61.784C180.327 61.424 179.913 61.148 179.433 60.956C178.953 60.764 178.431 60.668 177.867 60.668C177.303 60.668 176.781 60.764 176.301 60.956C175.833 61.148 175.419 61.424 175.059 61.784C174.699 62.144 174.417 62.57 174.213 63.062C174.021 63.554 173.925 64.1 173.925 64.7C173.925 65.288 174.021 65.834 174.213 66.338C174.417 66.83 174.693 67.256 175.041 67.616C175.401 67.976 175.821 68.252 176.301 68.444C176.781 68.636 177.303 68.732 177.867 68.732ZM189.689 63.476H195.755V65.744H189.689V63.476ZM189.905 68.66H196.763V71H187.007V58.4H196.529V60.74H189.905V68.66ZM204.216 71V58.4H206.628L211.992 67.292H210.714L215.988 58.4H218.4L218.418 71H215.682L215.664 62.594H216.186L211.956 69.668H210.66L206.34 62.594H206.952V71H204.216ZM224.23 63.476H230.296V65.744H224.23V63.476ZM224.446 68.66H231.304V71H221.548V58.4H231.07V60.74H224.446V68.66ZM239.618 71.216C238.646 71.216 237.74 71.06 236.9 70.748C236.072 70.424 235.352 69.968 234.74 69.38C234.128 68.792 233.648 68.102 233.3 67.31C232.964 66.518 232.796 65.648 232.796 64.7C232.796 63.752 232.964 62.882 233.3 62.09C233.648 61.298 234.128 60.608 234.74 60.02C235.364 59.432 236.09 58.982 236.918 58.67C237.746 58.346 238.652 58.184 239.636 58.184C240.728 58.184 241.712 58.376 242.588 58.76C243.476 59.132 244.22 59.684 244.82 60.416L242.948 62.144C242.516 61.652 242.036 61.286 241.508 61.046C240.98 60.794 240.404 60.668 239.78 60.668C239.192 60.668 238.652 60.764 238.16 60.956C237.668 61.148 237.242 61.424 236.882 61.784C236.522 62.144 236.24 62.57 236.036 63.062C235.844 63.554 235.748 64.1 235.748 64.7C235.748 65.3 235.844 65.846 236.036 66.338C236.24 66.83 236.522 67.256 236.882 67.616C237.242 67.976 237.668 68.252 238.16 68.444C238.652 68.636 239.192 68.732 239.78 68.732C240.404 68.732 240.98 68.612 241.508 68.372C242.036 68.12 242.516 67.742 242.948 67.238L244.82 68.966C244.22 69.698 243.476 70.256 242.588 70.64C241.712 71.024 240.722 71.216 239.618 71.216ZM249.315 71V60.11L249.981 60.776H245.301V58.4H256.227V60.776H251.547L252.195 60.11V71H249.315ZM263.912 71.216C262.916 71.216 261.992 71.054 261.14 70.73C260.3 70.406 259.568 69.95 258.944 69.362C258.332 68.774 257.852 68.084 257.504 67.292C257.168 66.5 257 65.636 257 64.7C257 63.764 257.168 62.9 257.504 62.108C257.852 61.316 258.338 60.626 258.962 60.038C259.586 59.45 260.318 58.994 261.158 58.67C261.998 58.346 262.91 58.184 263.894 58.184C264.89 58.184 265.802 58.346 266.63 58.67C267.47 58.994 268.196 59.45 268.808 60.038C269.432 60.626 269.918 61.316 270.266 62.108C270.614 62.888 270.788 63.752 270.788 64.7C270.788 65.636 270.614 66.506 270.266 67.31C269.918 68.102 269.432 68.792 268.808 69.38C268.196 69.956 267.47 70.406 266.63 70.73C265.802 71.054 264.896 71.216 263.912 71.216ZM263.894 68.732C264.458 68.732 264.974 68.636 265.442 68.444C265.922 68.252 266.342 67.976 266.702 67.616C267.062 67.256 267.338 66.83 267.53 66.338C267.734 65.846 267.836 65.3 267.836 64.7C267.836 64.1 267.734 63.554 267.53 63.062C267.338 62.57 267.062 62.144 266.702 61.784C266.354 61.424 265.94 61.148 265.46 60.956C264.98 60.764 264.458 60.668 263.894 60.668C263.33 60.668 262.808 60.764 262.328 60.956C261.86 61.148 261.446 61.424 261.086 61.784C260.726 62.144 260.444 62.57 260.24 63.062C260.048 63.554 259.952 64.1 259.952 64.7C259.952 65.288 260.048 65.834 260.24 66.338C260.444 66.83 260.72 67.256 261.068 67.616C261.428 67.976 261.848 68.252 262.328 68.444C262.808 68.636 263.33 68.732 263.894 68.732ZM273.035 71V58.4H278.489C279.617 58.4 280.589 58.586 281.405 58.958C282.221 59.318 282.851 59.84 283.295 60.524C283.739 61.208 283.961 62.024 283.961 62.972C283.961 63.908 283.739 64.718 283.295 65.402C282.851 66.086 282.221 66.614 281.405 66.986C280.589 67.346 279.617 67.526 278.489 67.526H274.655L275.951 66.212V71H273.035ZM275.951 66.536L274.655 65.15H278.327C279.227 65.15 279.899 64.958 280.343 64.574C280.787 64.19 281.009 63.656 281.009 62.972C281.009 62.276 280.787 61.736 280.343 61.352C279.899 60.968 279.227 60.776 278.327 60.776H274.655L275.951 59.39V66.536ZM292.09 71.216C291.094 71.216 290.17 71.054 289.318 70.73C288.478 70.406 287.746 69.95 287.122 69.362C286.51 68.774 286.03 68.084 285.682 67.292C285.346 66.5 285.178 65.636 285.178 64.7C285.178 63.764 285.346 62.9 285.682 62.108C286.03 61.316 286.516 60.626 287.14 60.038C287.764 59.45 288.496 58.994 289.336 58.67C290.176 58.346 291.088 58.184 292.072 58.184C293.068 58.184 293.98 58.346 294.808 58.67C295.648 58.994 296.374 59.45 296.986 60.038C297.61 60.626 298.096 61.316 298.444 62.108C298.792 62.888 298.966 63.752 298.966 64.7C298.966 65.636 298.792 66.506 298.444 67.31C298.096 68.102 297.61 68.792 296.986 69.38C296.374 69.956 295.648 70.406 294.808 70.73C293.98 71.054 293.074 71.216 292.09 71.216ZM292.072 68.732C292.636 68.732 293.152 68.636 293.62 68.444C294.1 68.252 294.52 67.976 294.88 67.616C295.24 67.256 295.516 66.83 295.708 66.338C295.912 65.846 296.014 65.3 296.014 64.7C296.014 64.1 295.912 63.554 295.708 63.062C295.516 62.57 295.24 62.144 294.88 61.784C294.532 61.424 294.118 61.148 293.638 60.956C293.158 60.764 292.636 60.668 292.072 60.668C291.508 60.668 290.986 60.764 290.506 60.956C290.038 61.148 289.624 61.424 289.264 61.784C288.904 62.144 288.622 62.57 288.418 63.062C288.226 63.554 288.13 64.1 288.13 64.7C288.13 65.288 288.226 65.834 288.418 66.338C288.622 66.83 288.898 67.256 289.246 67.616C289.606 67.976 290.026 68.252 290.506 68.444C290.986 68.636 291.508 68.732 292.072 68.732ZM315.011 71L311.627 64.934L314.093 63.512L318.377 71H315.011ZM309.485 65.924V63.494H313.409V65.924H309.485ZM314.255 65.024L311.555 64.7L315.065 58.4H318.143L314.255 65.024ZM302.789 71H299.423L303.707 63.512L306.173 64.934L302.789 71ZM310.349 71H307.487V58.4H310.349V71ZM308.333 65.924H304.391V63.494H308.333V65.924ZM303.563 65.024L299.657 58.4H302.735L306.227 64.7L303.563 65.024ZM328.443 69.704V60.776H324.123L324.069 62.612C324.033 63.392 323.979 64.13 323.907 64.826C323.847 65.522 323.751 66.158 323.619 66.734C323.487 67.298 323.313 67.778 323.097 68.174C322.893 68.57 322.635 68.852 322.323 69.02L319.209 68.624C319.641 68.636 319.995 68.486 320.271 68.174C320.559 67.862 320.787 67.424 320.955 66.86C321.123 66.284 321.243 65.612 321.315 64.844C321.399 64.076 321.459 63.242 321.495 62.342L321.639 58.4H331.323V69.704H328.443ZM318.795 73.61L318.813 68.624H333.087V73.61H330.387V71H321.495V73.61H318.795ZM337.732 63.476H343.798V65.744H337.732V63.476ZM337.948 68.66H344.806V71H335.05V58.4H344.572V60.74H337.948V68.66ZM355.802 58.4H358.718V71H355.802V58.4ZM350.078 71H347.162V58.4H350.078V71ZM356.018 65.834H349.862V63.368H356.018V65.834ZM361.875 71V58.4H364.773V66.608L370.785 58.4H373.521V71H370.641V62.81L364.629 71H361.875ZM379.34 63.476H385.406V65.744H379.34V63.476ZM379.556 68.66H386.414V71H376.658V58.4H386.18V60.74H379.556V68.66Z" fill="black"/>
<g filter="url(#filter0_d_68_48)">
<rect x="22" y="11" width="66" height="6" transform="rotate(90 22 11)" fill="#D9D9D9"/>
<rect x="22" y="11" width="66" height="6" transform="rotate(90 22 11)" fill="url(#paint0_linear_68_48)"/>
</g>
<defs>
<filter id="filter0_d_68_48" x="12" y="11" width="14" height="74" filterUnits="userSpaceOnUse" color-interpolation-filters="sRGB">
<feFlood flood-opacity="0" result="BackgroundImageFix"/>
<feColorMatrix in="SourceAlpha" type="matrix" values="0 0 0 0 0 0 0 0 0 0 0 0 0 0 0 0 0 0 127 0" result="hardAlpha"/>
<feOffset dy="4"/>
<feGaussianBlur stdDeviation="2"/>
<feComposite in2="hardAlpha" operator="out"/>
<feColorMatrix type="matrix" values="0 0 0 0 0 0 0 0 0 0 0 0 0 0 0 0 0 0 0.25 0"/>
<feBlend mode="normal" in2="BackgroundImageFix" result="effect1_dropShadow_68_48"/>
<feBlend mode="normal" in="SourceGraphic" in2="effect1_dropShadow_68_48" result="shape"/>
</filter>
<linearGradient id="paint0_linear_68_48" x1="22" y1="11" x2="88" y2="11" gradientUnits="userSpaceOnUse">
<stop stop-color="#008DDE"/>
<stop offset="0.53125" stop-color="#EB097B"/>
<stop offset="1" stop-color="#571273"/>
</linearGradient>
</defs>
</svg>
