<?xml version="1.0" standalone="no"?>
<!DOCTYPE svg PUBLIC "-//W3C//DTD SVG 20010904//EN"
 "http://www.w3.org/TR/2001/REC-SVG-20010904/DTD/svg10.dtd">
<svg version="1.0" xmlns="http://www.w3.org/2000/svg"
 width="119.000000pt" height="119.000000pt" viewBox="0 0 119.000000 119.000000"
 preserveAspectRatio="xMidYMid meet">

<g transform="translate(0.000000,119.000000) scale(0.100000,-0.100000)"
fill="#E4032E" stroke="none">
<path d="M470 1174 c-282 -60 -488 -333 -466 -616 20 -247 174 -444 409 -523
91 -30 233 -34 331 -9 198 51 369 221 421 420 19 75 19 223 0 299 -56 213
-236 385 -450 430 -86 18 -160 18 -245 -1z m-15 -344 c25 -39 45 -78 45 -87 0
-9 -14 -29 -32 -43 l-32 -27 21 -34 c24 -38 185 -199 200 -199 5 0 27 15 49
33 21 19 46 32 54 29 34 -12 140 -85 140 -97 0 -7 -26 -37 -57 -65 -55 -49
-61 -51 -101 -47 -58 6 -175 66 -238 121 -89 79 -214 282 -214 349 0 31 83
137 107 137 7 0 33 -32 58 -70z"/>
</g>
</svg>
