<svg width="64" height="64" viewBox="0 0 64 64" fill="none" xmlns="http://www.w3.org/2000/svg">
<path d="M32 64C49.6731 64 64 49.6731 64 32C64 14.3269 49.6731 0 32 0C14.3269 0 0 14.3269 0 32C0 49.6731 14.3269 64 32 64Z" fill="url(#paint0_linear_556_421)"/>
<path d="M21.4108 34.5639L25.0898 44.5491L41.4319 21.8542L21.4108 34.5639Z" fill="#C2DAEC"/>
<path d="M25.4952 36.7815L25.1404 44.6506L33.7655 37.339L25.4952 36.7815Z" fill="#9FCDE2"/>
<path d="M45.4235 18.0232L13.2207 30.2724C13.0201 30.3472 12.8476 30.4823 12.727 30.6592C12.6063 30.8361 12.5436 31.046 12.5473 31.2601C12.551 31.4742 12.621 31.6818 12.7477 31.8544C12.8743 32.027 13.0514 32.1561 13.2545 32.2239L21.5586 35.0327L40.4731 22.8258L25.4953 36.7814L37.1531 45.6304C37.4319 45.8451 37.7598 45.9868 38.1072 46.0426C38.4546 46.0984 38.8104 46.0665 39.1423 45.9498C39.4742 45.8332 39.7717 45.6354 40.0078 45.3746C40.2439 45.1137 40.4111 44.798 40.4942 44.4562L46.7836 19.2439C46.8287 19.0616 46.8234 18.8705 46.7682 18.691C46.7131 18.5115 46.6101 18.3503 46.4703 18.2249C46.3305 18.0995 46.1593 18.0144 45.9748 17.9789C45.7904 17.9434 45.5998 17.9587 45.4235 18.0232Z" fill="#ECF8FD"/>
<defs>
<linearGradient id="paint0_linear_556_421" x1="9.37276" y1="9.37276" x2="54.6272" y2="54.6272" gradientUnits="userSpaceOnUse">
<stop stop-color="#00AFE5"/>
<stop offset="1" stop-color="#0094D4"/>
</linearGradient>
</defs>
</svg>
