<svg width="52" height="44" viewBox="0 0 52 44" fill="none" xmlns="http://www.w3.org/2000/svg">
<path id="Vector" d="M51.8981 1.14613C51.7103 0.603113 51.4864 0.451069 51.1397 0.320745C50.3813 0.0311361 49.0956 0.465547 49.0956 0.465547C49.0956 0.465547 3.5264 16.8791 0.926157 18.6964C0.362772 19.0874 0.174974 19.3118 0.0882992 19.5797C-0.35952 20.8757 1.04172 21.4477 1.04172 21.4477L12.7861 25.285C12.7861 25.285 13.2267 25.3502 13.3784 25.2488C16.0509 23.5546 40.262 8.2343 41.656 7.72025C41.8799 7.65509 42.0388 7.72748 41.9955 7.87953C41.4393 9.84887 20.4135 28.5793 20.4135 28.5793C20.4135 28.5793 20.3341 28.6807 20.2835 28.7965L20.2546 28.782L19.1567 40.4605C19.1567 40.4605 18.6945 44.0372 22.2698 40.4605C24.7906 37.9337 27.2247 35.8268 28.4454 34.7987C32.483 37.5934 36.8311 40.685 38.7019 42.2995C39.6408 43.1104 40.4354 43.2407 41.0782 43.219C42.855 43.1539 43.3534 41.1918 43.3534 41.1918C43.3534 41.1918 51.6597 7.69128 51.9342 3.20235C51.9631 2.76069 51.9992 2.48557 51.9992 2.18148C52.0064 1.76155 51.9631 1.34161 51.8981 1.14613Z" fill="white"/>
</svg>
