<svg width="61" height="35" viewBox="0 0 61 35" fill="none" xmlns="http://www.w3.org/2000/svg">
<path id="Vector" d="M1.06718 2.1001C3.82743 2.1001 9.70993 2.1001 11.7009 2.1001C12.1157 2.1001 12.4853 2.34304 12.6512 2.72263C15.0947 8.06729 18.0736 12.9109 21.6559 17.1699C21.9651 17.671 22.7117 17.6178 22.9304 17.0712C24.0541 14.3306 26.1206 7.65733 22.1159 2.92002C21.7615 2.49488 21.9048 1.83439 22.4101 1.62182C26.46 -0.0787544 30.4269 -0.329288 34.2806 1.41684C35.0876 1.78124 35.6231 2.59357 35.6231 3.48941L36.528 17.2306C36.528 17.838 37.0786 18.3315 37.6744 18.2024C42.1164 17.2534 44.7409 10.5498 47.3277 3.55014C47.6445 2.68467 48.4514 2.1077 49.3715 2.1077H59.1606C59.96 2.1077 60.6086 2.82892 60.4577 3.61847C59.5376 8.58354 54.5752 15.029 51.9809 18.1189C51.0835 19.1893 51.0759 20.7533 51.9734 21.8237L60.7292 32.3156C61.3552 33.0672 60.8273 34.2212 59.8469 34.2212H48.7682C47.8556 34.2212 46.9883 33.8416 46.3775 33.1659L38.6322 26.6749C38.2325 26.2346 37.4707 26.0751 37.0937 26.5382C36.1359 27.715 36.2113 29.165 35.7513 32.4523C35.608 33.4848 34.6879 34.2212 33.6547 34.2212H26.0753C24.9969 34.2212 23.9335 33.9934 22.9606 33.5303C18.6091 31.4578 6.73097 24.1013 0.0566036 3.51219C-0.177188 2.82133 0.343184 2.1001 1.06718 2.1001Z" fill="white"/>
</svg>
