<svg width="62" height="61" viewBox="0 0 62 61" fill="none" xmlns="http://www.w3.org/2000/svg">
<g clip-path="url(#clip0_556_415)">
<path fill-rule="evenodd" clip-rule="evenodd" d="M31.0014 0C13.9035 0 0.00513304 13.6817 0.00513304 30.5012C0.00103004 36.9338 2.0697 43.1993 5.90942 48.3841L2.03739 59.7111L13.9484 55.9586C19.0155 59.2556 24.9458 61.0083 31.0064 61C48.0968 61 62.0026 47.3183 62.0026 30.5136C62.0026 13.709 48.0943 0.0123936 31.0064 0.0123936L31.0014 0Z" fill="url(#paint0_linear_556_415)"/>
<path fill-rule="evenodd" clip-rule="evenodd" d="M48.5591 38.2022C48.3417 37.8477 47.7667 37.6346 46.9093 37.2108C46.0519 36.7869 41.8125 34.7322 41.0251 34.4571C40.2376 34.1819 39.6577 34.0332 39.0878 34.8784C38.5179 35.7236 36.8606 37.6346 36.3581 38.2022C35.8557 38.7698 35.3582 38.8367 34.4933 38.4129C33.6284 37.989 30.8563 37.0918 27.5692 34.1993C25.6895 32.4881 24.0748 30.5112 22.7773 28.3325C22.2773 27.4873 22.7273 27.0288 23.1522 26.5975C23.5422 26.2158 24.0146 25.6061 24.4471 25.1104C24.8005 24.681 25.0901 24.2035 25.307 23.6926C25.4227 23.4589 25.4768 23.1999 25.4641 22.9398C25.4514 22.6797 25.3724 22.4271 25.2345 22.2055C25.0195 21.7842 23.2972 17.6152 22.5798 15.9174C21.8624 14.2196 21.1475 14.2865 20.6425 14.2865C20.1626 14.3083 19.6843 14.358 19.2102 14.4352C19.2102 14.4352 17.4854 14.6459 16.7105 15.4936C15.9356 16.3412 13.6984 18.391 13.6984 22.5575C13.6984 26.7239 16.7805 30.7566 17.2104 31.3192C17.6404 31.8818 23.1522 40.7452 31.9187 44.1383C40.6851 47.5315 40.6676 46.3963 42.2524 46.255C43.8372 46.1138 47.3468 44.2077 48.0642 42.2274C48.7816 40.247 48.7841 38.5517 48.5641 38.2022H48.5591Z" fill="white"/>
</g>
<defs>
<linearGradient id="paint0_linear_556_415" x1="30.9989" y1="0" x2="30.9989" y2="61" gradientUnits="userSpaceOnUse">
<stop stop-color="#4AC14B"/>
<stop offset="1" stop-color="#06853A"/>
</linearGradient>
<clipPath id="clip0_556_415">
<rect width="62" height="61" fill="white"/>
</clipPath>
</defs>
</svg>
