<svg width="50" height="51" viewBox="0 0 50 51" fill="none" xmlns="http://www.w3.org/2000/svg">
<g id="Group">
<g id="WA_Logo_00000080175704617493475030000007764790434362618514_">
<g id="Group_2">
<path id="Vector" fill-rule="evenodd" clip-rule="evenodd" d="M42.7093 7.29651C38.0116 2.59302 31.7558 0 25.0988 0C11.3779 0 0.209301 11.1628 0.203487 24.8837C0.203487 29.2674 1.34883 33.5523 3.52907 37.3256L0 50.2209L13.1977 46.7616C16.8314 48.7442 20.9302 49.7907 25.093 49.7907H25.1046C38.8256 49.7907 49.9942 38.6279 50 24.9012C49.9942 18.2558 47.407 12 42.7093 7.29651ZM25.0988 45.5872H25.093C21.3779 45.5872 17.7384 44.5872 14.564 42.7035L13.8081 42.2558L5.97675 44.3081L8.06977 36.6744L7.57558 35.8895C5.50582 32.5988 4.41279 28.7907 4.41279 24.8837C4.4186 13.4767 13.6977 4.19767 25.1163 4.19767C30.6453 4.19767 35.8372 6.35465 39.7442 10.2616C43.6512 14.1744 45.8023 19.3663 45.7965 24.8953C45.7849 36.3081 36.5 45.5872 25.0988 45.5872ZM36.4477 30.093C35.8256 29.7791 32.7674 28.2791 32.1977 28.0698C31.6279 27.8605 31.2151 27.7558 30.7965 28.3837C30.3837 29.0058 29.1919 30.407 28.8256 30.8198C28.4651 31.2326 28.0988 31.2849 27.4767 30.9767C26.8546 30.6628 24.8488 30.0116 22.4767 27.8895C20.6279 26.2384 19.3779 24.2035 19.0174 23.5814C18.657 22.9593 18.9767 22.6221 19.2907 22.314C19.5698 22.0349 19.9128 21.5872 20.2209 21.2267C20.5291 20.8663 20.6337 20.6047 20.843 20.1919C21.0523 19.7791 20.9477 19.4128 20.7907 19.1046C20.6337 18.7907 19.3895 15.7326 18.8721 14.4884C18.3663 13.2733 17.8547 13.4419 17.4709 13.4186C17.1105 13.4012 16.6919 13.3953 16.2791 13.3953C15.8663 13.3953 15.1919 13.5523 14.6221 14.1744C14.0523 14.7965 12.4477 16.3023 12.4477 19.3605C12.4477 22.4186 14.6744 25.3779 14.9884 25.7907C15.2965 26.2035 19.3721 32.4884 25.6163 35.1802C27.0988 35.8198 28.2616 36.2035 29.1628 36.4884C30.6512 36.9593 32.0116 36.8953 33.0814 36.7326C34.2791 36.5523 36.7616 35.2267 37.2791 33.7733C37.7965 32.3198 37.7965 31.0756 37.6395 30.8139C37.4826 30.5639 37.0698 30.407 36.4477 30.093Z" fill="white"/>
</g>
</g>
</g>
</svg>
