<svg width="1312" height="1120" viewBox="0 0 1312 1120" fill="none" xmlns="http://www.w3.org/2000/svg">
<rect x="790" y="664" width="518" height="115" rx="57.5" stroke="#008DDE" stroke-width="8"/>
<rect x="450" y="892" width="294" height="115" rx="57.5" stroke="#008DDE" stroke-width="8"/>
<rect x="991" y="1001" width="294" height="115" rx="57.5" stroke="#008DDE" stroke-width="8"/>
<rect x="296" y="414" width="978" height="115" rx="57.5" stroke="#008DDE" stroke-width="8"/>
<path d="M406 61H730C752.091 61 770 78.9086 770 101V148" stroke="#008CDA" stroke-width="8"/>
<path d="M768 268.5V301.727C768 323.819 750.091 341.727 728 341.727H544C521.909 341.727 504 359.636 504 381.727V413.5" stroke="#008CDA" stroke-width="8"/>
<path d="M1032 782V804.727C1032 826.819 1014.09 844.727 992 844.727H644C621.909 844.727 604 862.636 604 884.727L604 893" stroke="#008CDA" stroke-width="8"/>
<path d="M504 531.5V554.364C504 576.455 521.909 594.364 544 594.364H996C1018.09 594.364 1036 612.272 1036 634.364V663" stroke="#008CDA" stroke-width="8"/>
<path d="M606 1011V1019.36C606 1041.46 623.909 1059.36 646 1059.36H989.5" stroke="#008CDA" stroke-width="8"/>
<path d="M845.409 730.016L847.009 726.304C847.969 726.88 848.993 727.328 850.081 727.648C851.19 727.947 852.267 728.117 853.313 728.16C854.379 728.181 855.339 728.075 856.193 727.84C857.067 727.605 857.761 727.253 858.273 726.784C858.806 726.315 859.073 725.717 859.073 724.992C859.073 724.139 858.721 723.509 858.017 723.104C857.313 722.677 856.374 722.464 855.201 722.464H849.729V718.56H854.817C855.862 718.56 856.673 718.347 857.249 717.92C857.846 717.493 858.145 716.907 858.145 716.16C858.145 715.52 857.931 715.008 857.505 714.624C857.078 714.219 856.491 713.92 855.745 713.728C855.019 713.536 854.198 713.451 853.281 713.472C852.363 713.493 851.414 713.643 850.433 713.92C849.451 714.197 848.513 714.581 847.617 715.072L846.049 711.072C847.499 710.325 849.025 709.813 850.625 709.536C852.246 709.237 853.803 709.163 855.297 709.312C856.811 709.44 858.177 709.781 859.393 710.336C860.609 710.869 861.579 711.573 862.305 712.448C863.03 713.323 863.393 714.357 863.393 715.552C863.393 716.619 863.115 717.568 862.561 718.4C862.006 719.232 861.227 719.872 860.225 720.32C859.243 720.768 858.113 720.992 856.833 720.992L856.961 719.84C858.454 719.84 859.745 720.096 860.833 720.608C861.942 721.099 862.795 721.792 863.393 722.688C864.011 723.563 864.321 724.576 864.321 725.728C864.321 726.795 864.033 727.755 863.457 728.608C862.902 729.44 862.134 730.144 861.153 730.72C860.171 731.296 859.051 731.723 857.793 732C856.534 732.277 855.19 732.395 853.761 732.352C852.353 732.309 850.934 732.107 849.505 731.744C848.075 731.36 846.71 730.784 845.409 730.016ZM865.897 732L875.881 709.6H881.001L891.017 732H885.577L877.385 712.224H879.433L871.209 732H865.897ZM870.889 727.2L872.265 723.264H883.785L885.193 727.2H870.889ZM908.483 732L901.507 721.216L905.699 718.688L914.371 732H908.483ZM893.923 732V709.6H899.075V732H893.923ZM897.571 722.976V718.656H905.379V722.976H897.571ZM906.179 721.376L901.411 720.8L908.675 709.6H914.147L906.179 721.376ZM917.586 732.352C917.202 732.352 916.797 732.32 916.37 732.256C915.965 732.192 915.517 732.107 915.026 732L915.346 727.616C915.645 727.701 915.954 727.744 916.274 727.744C917.149 727.744 917.831 727.392 918.322 726.688C918.813 725.963 919.165 724.928 919.378 723.584C919.591 722.24 919.73 720.608 919.794 718.688L920.114 709.6H937.33V732H932.21V712.64L933.394 713.824H923.506L924.562 712.576L924.37 718.496C924.306 720.693 924.157 722.645 923.922 724.352C923.687 726.059 923.325 727.509 922.834 728.704C922.343 729.899 921.671 730.805 920.818 731.424C919.965 732.043 918.887 732.352 917.586 732.352ZM942.925 732V709.6H948.077V718.4H953.869V722.88H948.077V732H942.925ZM962.701 732.384C960.994 732.384 959.415 732.096 957.965 731.52C956.535 730.944 955.287 730.144 954.221 729.12C953.154 728.075 952.322 726.848 951.725 725.44C951.149 724.011 950.861 722.464 950.861 720.8C950.861 719.115 951.149 717.568 951.725 716.16C952.322 714.752 953.154 713.536 954.221 712.512C955.287 711.467 956.535 710.656 957.965 710.08C959.415 709.504 960.994 709.216 962.701 709.216C964.386 709.216 965.954 709.504 967.405 710.08C968.855 710.656 970.103 711.467 971.149 712.512C972.215 713.536 973.047 714.763 973.645 716.192C974.242 717.6 974.541 719.136 974.541 720.8C974.541 722.464 974.242 724.011 973.645 725.44C973.047 726.848 972.215 728.075 971.149 729.12C970.103 730.144 968.855 730.944 967.405 731.52C965.954 732.096 964.386 732.384 962.701 732.384ZM962.701 727.968C963.639 727.968 964.503 727.797 965.293 727.456C966.082 727.115 966.775 726.635 967.373 726.016C967.97 725.376 968.439 724.619 968.781 723.744C969.122 722.869 969.293 721.888 969.293 720.8C969.293 719.712 969.122 718.731 968.781 717.856C968.439 716.981 967.97 716.235 967.373 715.616C966.775 714.976 966.082 714.485 965.293 714.144C964.503 713.803 963.639 713.632 962.701 713.632C961.783 713.632 960.919 713.803 960.109 714.144C959.319 714.485 958.626 714.976 958.029 715.616C957.431 716.235 956.962 716.981 956.621 717.856C956.279 718.731 956.109 719.712 956.109 720.8C956.109 721.888 956.279 722.869 956.621 723.744C956.962 724.619 957.431 725.376 958.029 726.016C958.626 726.635 959.319 727.115 960.109 727.456C960.919 727.797 961.783 727.968 962.701 727.968ZM992.128 723.648C991.019 724.096 989.952 724.437 988.928 724.672C987.904 724.885 986.923 724.992 985.984 724.992C982.976 724.992 980.672 724.277 979.072 722.848C977.472 721.397 976.672 719.317 976.672 716.608V709.6H981.792V716.032C981.792 717.568 982.208 718.731 983.04 719.52C983.872 720.288 985.056 720.672 986.592 720.672C987.573 720.672 988.523 720.565 989.44 720.352C990.357 720.117 991.211 719.787 992 719.36L992.128 723.648ZM991.392 732V709.6H996.512V732H991.392ZM999.553 732L1009.54 709.6H1014.66L1024.67 732H1019.23L1011.04 712.224H1013.09L1004.86 732H999.553ZM1004.54 727.2L1005.92 723.264H1017.44L1018.85 727.2H1004.54ZM1032.41 718.624H1043.2V722.656H1032.41V718.624ZM1032.8 727.84H1044.99V732H1027.64V709.6H1044.57V713.76H1032.8V727.84ZM1049.17 732V709.6H1053.46L1063 725.408H1060.73L1070.1 709.6H1074.39L1074.42 732H1069.56L1069.53 717.056H1070.45L1062.93 729.632H1060.63L1052.95 717.056H1054.04V732H1049.17ZM1103.9 729.696V713.824H1096.22L1096.12 717.088C1096.06 718.475 1095.96 719.787 1095.83 721.024C1095.73 722.261 1095.56 723.392 1095.32 724.416C1095.09 725.419 1094.78 726.272 1094.39 726.976C1094.03 727.68 1093.57 728.181 1093.02 728.48L1087.48 727.776C1088.25 727.797 1088.88 727.531 1089.37 726.976C1089.88 726.421 1090.29 725.643 1090.59 724.64C1090.88 723.616 1091.1 722.421 1091.23 721.056C1091.37 719.691 1091.48 718.208 1091.55 716.608L1091.8 709.6H1109.02V729.696H1103.9ZM1086.75 736.64L1086.78 727.776H1112.15V736.64H1107.35V732H1091.55V736.64H1086.75ZM1126.36 732.384C1124.59 732.384 1122.95 732.096 1121.44 731.52C1119.94 730.944 1118.64 730.133 1117.53 729.088C1116.44 728.043 1115.59 726.816 1114.97 725.408C1114.37 724 1114.08 722.464 1114.08 720.8C1114.08 719.136 1114.37 717.6 1114.97 716.192C1115.59 714.784 1116.45 713.557 1117.56 712.512C1118.67 711.467 1119.97 710.656 1121.47 710.08C1122.96 709.504 1124.58 709.216 1126.33 709.216C1128.1 709.216 1129.72 709.504 1131.2 710.08C1132.69 710.656 1133.98 711.467 1135.07 712.512C1136.18 713.557 1137.04 714.784 1137.66 716.192C1138.28 717.579 1138.59 719.115 1138.59 720.8C1138.59 722.464 1138.28 724.011 1137.66 725.44C1137.04 726.848 1136.18 728.075 1135.07 729.12C1133.98 730.144 1132.69 730.944 1131.2 731.52C1129.72 732.096 1128.11 732.384 1126.36 732.384ZM1126.33 727.968C1127.33 727.968 1128.25 727.797 1129.08 727.456C1129.94 727.115 1130.68 726.624 1131.32 725.984C1131.96 725.344 1132.45 724.587 1132.8 723.712C1133.16 722.837 1133.34 721.867 1133.34 720.8C1133.34 719.733 1133.16 718.763 1132.8 717.888C1132.45 717.013 1131.96 716.256 1131.32 715.616C1130.7 714.976 1129.97 714.485 1129.12 714.144C1128.26 713.803 1127.33 713.632 1126.33 713.632C1125.33 713.632 1124.4 713.803 1123.55 714.144C1122.72 714.485 1121.98 714.976 1121.34 715.616C1120.7 716.256 1120.2 717.013 1119.84 717.888C1119.49 718.763 1119.32 719.733 1119.32 720.8C1119.32 721.845 1119.49 722.816 1119.84 723.712C1120.2 724.587 1120.69 725.344 1121.31 725.984C1121.95 726.624 1122.69 727.115 1123.55 727.456C1124.4 727.797 1125.33 727.968 1126.33 727.968ZM1142.58 732V709.6H1158.39L1158.36 713.824H1146.52L1147.7 712.64L1147.73 732H1142.58ZM1169.99 732.384C1168.22 732.384 1166.58 732.096 1165.06 731.52C1163.57 730.944 1162.27 730.133 1161.16 729.088C1160.07 728.043 1159.22 726.816 1158.6 725.408C1158 724 1157.7 722.464 1157.7 720.8C1157.7 719.136 1158 717.6 1158.6 716.192C1159.22 714.784 1160.08 713.557 1161.19 712.512C1162.3 711.467 1163.6 710.656 1165.09 710.08C1166.59 709.504 1168.21 709.216 1169.96 709.216C1171.73 709.216 1173.35 709.504 1174.82 710.08C1176.31 710.656 1177.6 711.467 1178.69 712.512C1179.8 713.557 1180.67 714.784 1181.28 716.192C1181.9 717.579 1182.21 719.115 1182.21 720.8C1182.21 722.464 1181.9 724.011 1181.28 725.44C1180.67 726.848 1179.8 728.075 1178.69 729.12C1177.6 730.144 1176.31 730.944 1174.82 731.52C1173.35 732.096 1171.74 732.384 1169.99 732.384ZM1169.96 727.968C1170.96 727.968 1171.88 727.797 1172.71 727.456C1173.56 727.115 1174.31 726.624 1174.95 725.984C1175.59 725.344 1176.08 724.587 1176.42 723.712C1176.78 722.837 1176.96 721.867 1176.96 720.8C1176.96 719.733 1176.78 718.763 1176.42 717.888C1176.08 717.013 1175.59 716.256 1174.95 715.616C1174.33 714.976 1173.59 714.485 1172.74 714.144C1171.89 713.803 1170.96 713.632 1169.96 713.632C1168.95 713.632 1168.03 713.803 1167.17 714.144C1166.34 714.485 1165.6 714.976 1164.96 715.616C1164.32 716.256 1163.82 717.013 1163.46 717.888C1163.12 718.763 1162.95 719.733 1162.95 720.8C1162.95 721.845 1163.12 722.816 1163.46 723.712C1163.82 724.587 1164.31 725.344 1164.93 725.984C1165.57 726.624 1166.32 727.115 1167.17 727.456C1168.03 727.797 1168.95 727.968 1169.96 727.968ZM1186.21 732V709.6H1196.64C1199.24 709.6 1201.27 710.101 1202.72 711.104C1204.17 712.107 1204.89 713.536 1204.89 715.392C1204.89 717.227 1204.21 718.656 1202.85 719.68C1201.48 720.683 1199.67 721.184 1197.41 721.184L1198.01 719.84C1200.53 719.84 1202.48 720.341 1203.87 721.344C1205.26 722.347 1205.95 723.797 1205.95 725.696C1205.95 727.659 1205.2 729.205 1203.71 730.336C1202.24 731.445 1200.08 732 1197.25 732H1186.21ZM1191.36 728.16H1197.05C1198.25 728.16 1199.16 727.925 1199.77 727.456C1200.39 726.987 1200.7 726.261 1200.7 725.28C1200.7 724.341 1200.39 723.648 1199.77 723.2C1199.16 722.731 1198.25 722.496 1197.05 722.496H1191.36V728.16ZM1191.36 718.88H1196.19C1197.32 718.88 1198.17 718.656 1198.75 718.208C1199.33 717.739 1199.61 717.056 1199.61 716.16C1199.61 715.264 1199.33 714.592 1198.75 714.144C1198.17 713.675 1197.32 713.44 1196.19 713.44H1191.36V718.88ZM1220.77 732.384C1219 732.384 1217.36 732.096 1215.84 731.52C1214.35 730.944 1213.05 730.133 1211.94 729.088C1210.85 728.043 1210 726.816 1209.38 725.408C1208.78 724 1208.48 722.464 1208.48 720.8C1208.48 719.136 1208.78 717.6 1209.38 716.192C1210 714.784 1210.86 713.557 1211.97 712.512C1213.08 711.467 1214.38 710.656 1215.87 710.08C1217.37 709.504 1218.99 709.216 1220.74 709.216C1222.51 709.216 1224.13 709.504 1225.6 710.08C1227.09 710.656 1228.39 711.467 1229.47 712.512C1230.58 713.557 1231.45 714.784 1232.07 716.192C1232.68 717.579 1232.99 719.115 1232.99 720.8C1232.99 722.464 1232.68 724.011 1232.07 725.44C1231.45 726.848 1230.58 728.075 1229.47 729.12C1228.39 730.144 1227.09 730.944 1225.6 731.52C1224.13 732.096 1222.52 732.384 1220.77 732.384ZM1220.74 727.968C1221.74 727.968 1222.66 727.797 1223.49 727.456C1224.34 727.115 1225.09 726.624 1225.73 725.984C1226.37 725.344 1226.86 724.587 1227.2 723.712C1227.56 722.837 1227.75 721.867 1227.75 720.8C1227.75 719.733 1227.56 718.763 1227.2 717.888C1226.86 717.013 1226.37 716.256 1225.73 715.616C1225.11 714.976 1224.37 714.485 1223.52 714.144C1222.67 713.803 1221.74 713.632 1220.74 713.632C1219.73 713.632 1218.81 713.803 1217.95 714.144C1217.12 714.485 1216.39 714.976 1215.75 715.616C1215.11 716.256 1214.6 717.013 1214.24 717.888C1213.9 718.763 1213.73 719.733 1213.73 720.8C1213.73 721.845 1213.9 722.816 1214.24 723.712C1214.6 724.587 1215.09 725.344 1215.71 725.984C1216.35 726.624 1217.1 727.115 1217.95 727.456C1218.81 727.797 1219.73 727.968 1220.74 727.968ZM1236.99 732V709.6H1246.68C1248.69 709.6 1250.42 709.931 1251.87 710.592C1253.32 711.232 1254.44 712.16 1255.23 713.376C1256.02 714.592 1256.41 716.043 1256.41 717.728C1256.41 719.392 1256.02 720.832 1255.23 722.048C1254.44 723.264 1253.32 724.203 1251.87 724.864C1250.42 725.504 1248.69 725.824 1246.68 725.824H1239.87L1242.17 723.488V732H1236.99ZM1242.17 724.064L1239.87 721.6H1246.4C1248 721.6 1249.19 721.259 1249.98 720.576C1250.77 719.893 1251.16 718.944 1251.16 717.728C1251.16 716.491 1250.77 715.531 1249.98 714.848C1249.19 714.165 1248 713.824 1246.4 713.824H1239.87L1242.17 711.36V724.064Z" fill="white"/>
<path d="M538.723 960.384C536.952 960.384 535.309 960.096 533.795 959.52C532.301 958.944 531 958.133 529.891 957.088C528.803 956.043 527.949 954.816 527.331 953.408C526.733 952 526.435 950.464 526.435 948.8C526.435 947.136 526.733 945.6 527.331 944.192C527.949 942.784 528.813 941.557 529.923 940.512C531.032 939.467 532.333 938.656 533.827 938.08C535.32 937.504 536.941 937.216 538.691 937.216C540.461 937.216 542.083 937.504 543.555 938.08C545.048 938.656 546.339 939.467 547.427 940.512C548.536 941.557 549.4 942.784 550.019 944.192C550.637 945.579 550.947 947.115 550.947 948.8C550.947 950.464 550.637 952.011 550.019 953.44C549.4 954.848 548.536 956.075 547.427 957.12C546.339 958.144 545.048 958.944 543.555 959.52C542.083 960.096 540.472 960.384 538.723 960.384ZM538.691 955.968C539.693 955.968 540.611 955.797 541.443 955.456C542.296 955.115 543.043 954.624 543.683 953.984C544.323 953.344 544.813 952.587 545.155 951.712C545.517 950.837 545.699 949.867 545.699 948.8C545.699 947.733 545.517 946.763 545.155 945.888C544.813 945.013 544.323 944.256 543.683 943.616C543.064 942.976 542.328 942.485 541.475 942.144C540.621 941.803 539.693 941.632 538.691 941.632C537.688 941.632 536.76 941.803 535.907 942.144C535.075 942.485 534.339 942.976 533.699 943.616C533.059 944.256 532.557 945.013 532.195 945.888C531.853 946.763 531.683 947.733 531.683 948.8C531.683 949.845 531.853 950.816 532.195 951.712C532.557 952.587 533.048 953.344 533.667 953.984C534.307 954.624 535.053 955.115 535.907 955.456C536.76 955.797 537.688 955.968 538.691 955.968ZM554.94 960V937.6H575.356V960H570.204V940.64L571.388 941.824H558.908L560.092 940.64V960H554.94ZM580.977 960.352C580.593 960.352 580.187 960.32 579.761 960.256C579.355 960.192 578.907 960.107 578.417 960L578.737 955.616C579.035 955.701 579.345 955.744 579.665 955.744C580.539 955.744 581.222 955.392 581.713 954.688C582.203 953.963 582.555 952.928 582.769 951.584C582.982 950.24 583.121 948.608 583.185 946.688L583.505 937.6H600.721V960H595.601V940.64L596.785 941.824H586.897L587.953 940.576L587.761 946.496C587.697 948.693 587.547 950.645 587.313 952.352C587.078 954.059 586.715 955.509 586.225 956.704C585.734 957.899 585.062 958.805 584.209 959.424C583.355 960.043 582.278 960.352 580.977 960.352ZM603.787 960L613.771 937.6H618.891L628.907 960H623.467L615.275 940.224H617.323L609.099 960H603.787ZM608.779 955.2L610.155 951.264H621.675L623.083 955.2H608.779ZM635.585 960V940.64L636.769 941.824H628.449V937.6H647.873V941.824H639.553L640.705 940.64V960H635.585ZM647.475 960L657.459 937.6H662.579L672.595 960H667.155L658.963 940.224H661.011L652.787 960H647.475ZM652.467 955.2L653.843 951.264H665.363L666.771 955.2H652.467Z" fill="white"/>
<path d="M1061.09 1066.7V1050.82H1053.41L1053.31 1054.09C1053.25 1055.47 1053.15 1056.79 1053.02 1058.02C1052.91 1059.26 1052.74 1060.39 1052.51 1061.42C1052.27 1062.42 1051.97 1063.27 1051.58 1063.98C1051.22 1064.68 1050.76 1065.18 1050.21 1065.48L1044.67 1064.78C1045.44 1064.8 1046.07 1064.53 1046.56 1063.98C1047.07 1063.42 1047.47 1062.64 1047.77 1061.64C1048.07 1060.62 1048.29 1059.42 1048.41 1058.06C1048.56 1056.69 1048.67 1055.21 1048.73 1053.61L1048.99 1046.6H1066.21V1066.7H1061.09ZM1043.93 1073.64L1043.97 1064.78H1069.34V1073.64H1064.54V1069H1048.73V1073.64H1043.93ZM1083.55 1069.38C1081.78 1069.38 1080.14 1069.1 1078.62 1068.52C1077.13 1067.94 1075.83 1067.13 1074.72 1066.09C1073.63 1065.04 1072.78 1063.82 1072.16 1062.41C1071.56 1061 1071.26 1059.46 1071.26 1057.8C1071.26 1056.14 1071.56 1054.6 1072.16 1053.19C1072.78 1051.78 1073.64 1050.56 1074.75 1049.51C1075.86 1048.47 1077.16 1047.66 1078.65 1047.08C1080.15 1046.5 1081.77 1046.22 1083.52 1046.22C1085.29 1046.22 1086.91 1046.5 1088.38 1047.08C1089.88 1047.66 1091.17 1048.47 1092.25 1049.51C1093.36 1050.56 1094.23 1051.78 1094.85 1053.19C1095.47 1054.58 1095.77 1056.11 1095.77 1057.8C1095.77 1059.46 1095.47 1061.01 1094.85 1062.44C1094.23 1063.85 1093.36 1065.07 1092.25 1066.12C1091.17 1067.14 1089.88 1067.94 1088.38 1068.52C1086.91 1069.1 1085.3 1069.38 1083.55 1069.38ZM1083.52 1064.97C1084.52 1064.97 1085.44 1064.8 1086.27 1064.46C1087.12 1064.11 1087.87 1063.62 1088.51 1062.98C1089.15 1062.34 1089.64 1061.59 1089.98 1060.71C1090.35 1059.84 1090.53 1058.87 1090.53 1057.8C1090.53 1056.73 1090.35 1055.76 1089.98 1054.89C1089.64 1054.01 1089.15 1053.26 1088.51 1052.62C1087.89 1051.98 1087.16 1051.49 1086.3 1051.14C1085.45 1050.8 1084.52 1050.63 1083.52 1050.63C1082.52 1050.63 1081.59 1050.8 1080.73 1051.14C1079.9 1051.49 1079.17 1051.98 1078.53 1052.62C1077.89 1053.26 1077.39 1054.01 1077.02 1054.89C1076.68 1055.76 1076.51 1056.73 1076.51 1057.8C1076.51 1058.85 1076.68 1059.82 1077.02 1060.71C1077.39 1061.59 1077.88 1062.34 1078.49 1062.98C1079.13 1063.62 1079.88 1064.11 1080.73 1064.46C1081.59 1064.8 1082.52 1064.97 1083.52 1064.97ZM1110.36 1069.38C1108.63 1069.38 1107.02 1069.11 1105.53 1068.55C1104.06 1067.98 1102.78 1067.17 1101.69 1066.12C1100.6 1065.07 1099.75 1063.85 1099.13 1062.44C1098.53 1061.03 1098.23 1059.49 1098.23 1057.8C1098.23 1056.11 1098.53 1054.57 1099.13 1053.16C1099.75 1051.75 1100.6 1050.53 1101.69 1049.48C1102.8 1048.43 1104.09 1047.63 1105.56 1047.08C1107.03 1046.5 1108.64 1046.22 1110.39 1046.22C1112.33 1046.22 1114.08 1046.56 1115.64 1047.24C1117.22 1047.9 1118.54 1048.88 1119.61 1050.18L1116.28 1053.26C1115.51 1052.38 1114.66 1051.73 1113.72 1051.3C1112.78 1050.86 1111.76 1050.63 1110.65 1050.63C1109.6 1050.63 1108.64 1050.8 1107.77 1051.14C1106.89 1051.49 1106.14 1051.98 1105.5 1052.62C1104.86 1053.26 1104.36 1054.01 1103.99 1054.89C1103.65 1055.76 1103.48 1056.73 1103.48 1057.8C1103.48 1058.87 1103.65 1059.84 1103.99 1060.71C1104.36 1061.59 1104.86 1062.34 1105.5 1062.98C1106.14 1063.62 1106.89 1064.11 1107.77 1064.46C1108.64 1064.8 1109.6 1064.97 1110.65 1064.97C1111.76 1064.97 1112.78 1064.75 1113.72 1064.33C1114.66 1063.88 1115.51 1063.21 1116.28 1062.31L1119.61 1065.38C1118.54 1066.69 1117.22 1067.68 1115.64 1068.36C1114.08 1069.04 1112.32 1069.38 1110.36 1069.38ZM1127.6 1069V1049.64L1128.78 1050.82H1120.46V1046.6H1139.89V1050.82H1131.57L1132.72 1049.64V1069H1127.6ZM1139.49 1069L1149.47 1046.6H1154.59L1164.61 1069H1159.17L1150.98 1049.22H1153.03L1144.8 1069H1139.49ZM1144.48 1064.2L1145.86 1060.26H1157.38L1158.79 1064.2H1144.48ZM1167.58 1069V1046.6H1178.01C1180.62 1046.6 1182.64 1047.1 1184.09 1048.1C1185.54 1049.11 1186.27 1050.54 1186.27 1052.39C1186.27 1054.23 1185.59 1055.66 1184.22 1056.68C1182.86 1057.68 1181.04 1058.18 1178.78 1058.18L1179.39 1056.84C1181.91 1056.84 1183.86 1057.34 1185.24 1058.34C1186.63 1059.35 1187.32 1060.8 1187.32 1062.7C1187.32 1064.66 1186.58 1066.21 1185.08 1067.34C1183.61 1068.45 1181.46 1069 1178.62 1069H1167.58ZM1172.73 1065.16H1178.43C1179.62 1065.16 1180.53 1064.93 1181.15 1064.46C1181.77 1063.99 1182.08 1063.26 1182.08 1062.28C1182.08 1061.34 1181.77 1060.65 1181.15 1060.2C1180.53 1059.73 1179.62 1059.5 1178.43 1059.5H1172.73V1065.16ZM1172.73 1055.88H1177.56C1178.7 1055.88 1179.55 1055.66 1180.12 1055.21C1180.7 1054.74 1180.99 1054.06 1180.99 1053.16C1180.99 1052.26 1180.7 1051.59 1180.12 1051.14C1179.55 1050.67 1178.7 1050.44 1177.56 1050.44H1172.73V1055.88ZM1205.92 1069L1198.94 1058.22L1203.14 1055.69L1211.81 1069H1205.92ZM1191.36 1069V1046.6H1196.51V1069H1191.36ZM1195.01 1059.98V1055.66H1202.82V1059.98H1195.01ZM1203.62 1058.38L1198.85 1057.8L1206.11 1046.6H1211.58L1203.62 1058.38ZM1211.24 1069L1221.22 1046.6H1226.34L1236.36 1069H1230.92L1222.73 1049.22H1224.78L1216.55 1069H1211.24ZM1216.23 1064.2L1217.61 1060.26H1229.13L1230.54 1064.2H1216.23Z" fill="white"/>
<path d="M384.454 463.384C382.726 463.384 381.115 463.107 379.622 462.552C378.15 461.976 376.87 461.165 375.782 460.12C374.694 459.075 373.841 457.848 373.222 456.44C372.625 455.032 372.326 453.485 372.326 451.8C372.326 450.115 372.625 448.568 373.222 447.16C373.841 445.752 374.694 444.525 375.782 443.48C376.891 442.435 378.182 441.635 379.654 441.08C381.126 440.504 382.737 440.216 384.486 440.216C386.427 440.216 388.177 440.557 389.734 441.24C391.313 441.901 392.635 442.883 393.702 444.184L390.374 447.256C389.606 446.381 388.753 445.731 387.814 445.304C386.875 444.856 385.851 444.632 384.742 444.632C383.697 444.632 382.737 444.803 381.862 445.144C380.987 445.485 380.23 445.976 379.59 446.616C378.95 447.256 378.449 448.013 378.086 448.888C377.745 449.763 377.574 450.733 377.574 451.8C377.574 452.867 377.745 453.837 378.086 454.712C378.449 455.587 378.95 456.344 379.59 456.984C380.23 457.624 380.987 458.115 381.862 458.456C382.737 458.797 383.697 458.968 384.742 458.968C385.851 458.968 386.875 458.755 387.814 458.328C388.753 457.88 389.606 457.208 390.374 456.312L393.702 459.384C392.635 460.685 391.313 461.677 389.734 462.36C388.177 463.043 386.417 463.384 384.454 463.384ZM407.332 463.384C405.561 463.384 403.919 463.096 402.404 462.52C400.911 461.944 399.609 461.133 398.5 460.088C397.412 459.043 396.559 457.816 395.94 456.408C395.343 455 395.044 453.464 395.044 451.8C395.044 450.136 395.343 448.6 395.94 447.192C396.559 445.784 397.423 444.557 398.532 443.512C399.641 442.467 400.943 441.656 402.436 441.08C403.929 440.504 405.551 440.216 407.3 440.216C409.071 440.216 410.692 440.504 412.164 441.08C413.657 441.656 414.948 442.467 416.036 443.512C417.145 444.557 418.009 445.784 418.628 447.192C419.247 448.579 419.556 450.115 419.556 451.8C419.556 453.464 419.247 455.011 418.628 456.44C418.009 457.848 417.145 459.075 416.036 460.12C414.948 461.144 413.657 461.944 412.164 462.52C410.692 463.096 409.081 463.384 407.332 463.384ZM407.3 458.968C408.303 458.968 409.22 458.797 410.052 458.456C410.905 458.115 411.652 457.624 412.292 456.984C412.932 456.344 413.423 455.587 413.764 454.712C414.127 453.837 414.308 452.867 414.308 451.8C414.308 450.733 414.127 449.763 413.764 448.888C413.423 448.013 412.932 447.256 412.292 446.616C411.673 445.976 410.937 445.485 410.084 445.144C409.231 444.803 408.303 444.632 407.3 444.632C406.297 444.632 405.369 444.803 404.516 445.144C403.684 445.485 402.948 445.976 402.308 446.616C401.668 447.256 401.167 448.013 400.804 448.888C400.463 449.763 400.292 450.733 400.292 451.8C400.292 452.845 400.463 453.816 400.804 454.712C401.167 455.587 401.657 456.344 402.276 456.984C402.916 457.624 403.663 458.115 404.516 458.456C405.369 458.797 406.297 458.968 407.3 458.968ZM434.142 463.384C432.414 463.384 430.803 463.107 429.31 462.552C427.838 461.976 426.558 461.165 425.47 460.12C424.382 459.075 423.528 457.848 422.91 456.44C422.312 455.032 422.014 453.485 422.014 451.8C422.014 450.115 422.312 448.568 422.91 447.16C423.528 445.752 424.382 444.525 425.47 443.48C426.579 442.435 427.87 441.635 429.342 441.08C430.814 440.504 432.424 440.216 434.174 440.216C436.115 440.216 437.864 440.557 439.422 441.24C441 441.901 442.323 442.883 443.39 444.184L440.062 447.256C439.294 446.381 438.44 445.731 437.502 445.304C436.563 444.856 435.539 444.632 434.43 444.632C433.384 444.632 432.424 444.803 431.55 445.144C430.675 445.485 429.918 445.976 429.278 446.616C428.638 447.256 428.136 448.013 427.774 448.888C427.432 449.763 427.262 450.733 427.262 451.8C427.262 452.867 427.432 453.837 427.774 454.712C428.136 455.587 428.638 456.344 429.278 456.984C429.918 457.624 430.675 458.115 431.55 458.456C432.424 458.797 433.384 458.968 434.43 458.968C435.539 458.968 436.563 458.755 437.502 458.328C438.44 457.88 439.294 457.208 440.062 456.312L443.39 459.384C442.323 460.685 441 461.677 439.422 462.36C437.864 463.043 436.104 463.384 434.142 463.384ZM451.382 463V443.64L452.566 444.824H444.246V440.6H463.67V444.824H455.35L456.502 443.64V463H451.382ZM463.272 463L473.256 440.6H478.376L488.392 463H482.952L474.76 443.224H476.808L468.584 463H463.272ZM468.264 458.2L469.64 454.264H481.16L482.568 458.2H468.264ZM491.362 463V440.6H501.794C504.397 440.6 506.423 441.101 507.874 442.104C509.325 443.107 510.05 444.536 510.05 446.392C510.05 448.227 509.367 449.656 508.002 450.68C506.637 451.683 504.823 452.184 502.562 452.184L503.17 450.84C505.687 450.84 507.639 451.341 509.026 452.344C510.413 453.347 511.106 454.797 511.106 456.696C511.106 458.659 510.359 460.205 508.866 461.336C507.394 462.445 505.239 463 502.402 463H491.362ZM496.514 459.16H502.21C503.405 459.16 504.311 458.925 504.93 458.456C505.549 457.987 505.858 457.261 505.858 456.28C505.858 455.341 505.549 454.648 504.93 454.2C504.311 453.731 503.405 453.496 502.21 453.496H496.514V459.16ZM496.514 449.88H501.346C502.477 449.88 503.33 449.656 503.906 449.208C504.482 448.739 504.77 448.056 504.77 447.16C504.77 446.264 504.482 445.592 503.906 445.144C503.33 444.675 502.477 444.44 501.346 444.44H496.514V449.88ZM515.43 463.352C515.046 463.352 514.641 463.32 514.214 463.256C513.809 463.192 513.361 463.107 512.87 463L513.19 458.616C513.489 458.701 513.798 458.744 514.118 458.744C514.993 458.744 515.675 458.392 516.166 457.688C516.657 456.963 517.009 455.928 517.222 454.584C517.435 453.24 517.574 451.608 517.638 449.688L517.958 440.6H535.174V463H530.054V443.64L531.238 444.824H521.35L522.406 443.576L522.214 449.496C522.15 451.693 522.001 453.645 521.766 455.352C521.531 457.059 521.169 458.509 520.678 459.704C520.187 460.899 519.515 461.805 518.662 462.424C517.809 463.043 516.731 463.352 515.43 463.352ZM553.536 463V455.928L554.816 457.048H548.672C546.731 457.048 545.056 456.728 543.648 456.088C542.24 455.448 541.163 454.52 540.416 453.304C539.67 452.088 539.296 450.637 539.296 448.952C539.296 447.203 539.691 445.709 540.48 444.472C541.291 443.213 542.422 442.253 543.872 441.592C545.323 440.931 547.03 440.6 548.992 440.6H558.656V463H553.536ZM539.36 463L544.928 454.968H550.176L544.832 463H539.36ZM553.536 454.264V443.48L554.816 444.824H549.12C547.648 444.824 546.518 445.165 545.728 445.848C544.96 446.531 544.576 447.544 544.576 448.888C544.576 450.189 544.95 451.192 545.696 451.896C546.443 452.6 547.542 452.952 548.992 452.952H554.816L553.536 454.264ZM569.036 449.624H579.82V453.656H569.036V449.624ZM569.42 458.84H581.612V463H564.268V440.6H581.196V444.76H569.42V458.84ZM585.8 463V440.6H590.088L599.624 456.408H597.352L606.728 440.6H611.016L611.048 463H606.184L606.152 448.056H607.08L599.56 460.632H597.256L589.576 448.056H590.664V463H585.8ZM640.171 463L633.195 452.216L637.387 449.688L646.059 463H640.171ZM625.611 463V440.6H630.763V463H625.611ZM629.259 453.976V449.656H637.067V453.976H629.259ZM637.867 452.376L633.099 451.8L640.363 440.6H645.835L637.867 452.376ZM659.113 463.384C657.343 463.384 655.7 463.096 654.185 462.52C652.692 461.944 651.391 461.133 650.281 460.088C649.193 459.043 648.34 457.816 647.721 456.408C647.124 455 646.825 453.464 646.825 451.8C646.825 450.136 647.124 448.6 647.721 447.192C648.34 445.784 649.204 444.557 650.313 443.512C651.423 442.467 652.724 441.656 654.217 441.08C655.711 440.504 657.332 440.216 659.081 440.216C660.852 440.216 662.473 440.504 663.945 441.08C665.439 441.656 666.729 442.467 667.817 443.512C668.927 444.557 669.791 445.784 670.409 447.192C671.028 448.579 671.337 450.115 671.337 451.8C671.337 453.464 671.028 455.011 670.409 456.44C669.791 457.848 668.927 459.075 667.817 460.12C666.729 461.144 665.439 461.944 663.945 462.52C662.473 463.096 660.863 463.384 659.113 463.384ZM659.081 458.968C660.084 458.968 661.001 458.797 661.833 458.456C662.687 458.115 663.433 457.624 664.073 456.984C664.713 456.344 665.204 455.587 665.545 454.712C665.908 453.837 666.089 452.867 666.089 451.8C666.089 450.733 665.908 449.763 665.545 448.888C665.204 448.013 664.713 447.256 664.073 446.616C663.455 445.976 662.719 445.485 661.865 445.144C661.012 444.803 660.084 444.632 659.081 444.632C658.079 444.632 657.151 444.803 656.297 445.144C655.465 445.485 654.729 445.976 654.089 446.616C653.449 447.256 652.948 448.013 652.585 448.888C652.244 449.763 652.073 450.733 652.073 451.8C652.073 452.845 652.244 453.816 652.585 454.712C652.948 455.587 653.439 456.344 654.057 456.984C654.697 457.624 655.444 458.115 656.297 458.456C657.151 458.797 658.079 458.968 659.081 458.968ZM675.331 463V440.6H679.619L689.155 456.408H686.883L696.259 440.6H700.547L700.579 463H695.715L695.683 448.056H696.611L689.091 460.632H686.787L679.107 448.056H680.195V463H675.331ZM706.143 463V440.6H710.431L719.967 456.408H717.695L727.071 440.6H731.359L731.391 463H726.527L726.495 448.056H727.423L719.903 460.632H717.599L709.919 448.056H711.007V463H706.143ZM741.724 449.624H752.508V453.656H741.724V449.624ZM742.108 458.84H754.3V463H736.956V440.6H753.884V444.76H742.108V458.84ZM758.487 463V440.6H768.183C770.188 440.6 771.916 440.931 773.367 441.592C774.818 442.232 775.938 443.16 776.727 444.376C777.516 445.592 777.911 447.043 777.911 448.728C777.911 450.392 777.516 451.832 776.727 453.048C775.938 454.264 774.818 455.203 773.367 455.864C771.916 456.504 770.188 456.824 768.183 456.824H761.367L763.671 454.488V463H758.487ZM763.671 455.064L761.367 452.6H767.895C769.495 452.6 770.69 452.259 771.479 451.576C772.268 450.893 772.663 449.944 772.663 448.728C772.663 447.491 772.268 446.531 771.479 445.848C770.69 445.165 769.495 444.824 767.895 444.824H761.367L763.671 442.36V455.064ZM795.128 454.648C794.019 455.096 792.952 455.437 791.928 455.672C790.904 455.885 789.923 455.992 788.984 455.992C785.976 455.992 783.672 455.277 782.072 453.848C780.472 452.397 779.672 450.317 779.672 447.608V440.6H784.792V447.032C784.792 448.568 785.208 449.731 786.04 450.52C786.872 451.288 788.056 451.672 789.592 451.672C790.573 451.672 791.523 451.565 792.44 451.352C793.357 451.117 794.211 450.787 795 450.36L795.128 454.648ZM794.392 463V440.6H799.512V463H794.392ZM809.849 449.624H820.633V453.656H809.849V449.624ZM810.233 458.84H822.425V463H805.081V440.6H822.009V444.76H810.233V458.84ZM837.204 463.384C835.476 463.384 833.865 463.107 832.372 462.552C830.9 461.976 829.62 461.165 828.532 460.12C827.444 459.075 826.591 457.848 825.972 456.44C825.375 455.032 825.076 453.485 825.076 451.8C825.076 450.115 825.375 448.568 825.972 447.16C826.591 445.752 827.444 444.525 828.532 443.48C829.641 442.435 830.932 441.635 832.404 441.08C833.876 440.504 835.487 440.216 837.236 440.216C839.177 440.216 840.927 440.557 842.484 441.24C844.063 441.901 845.385 442.883 846.452 444.184L843.124 447.256C842.356 446.381 841.503 445.731 840.564 445.304C839.625 444.856 838.601 444.632 837.492 444.632C836.447 444.632 835.487 444.803 834.612 445.144C833.737 445.485 832.98 445.976 832.34 446.616C831.7 447.256 831.199 448.013 830.836 448.888C830.495 449.763 830.324 450.733 830.324 451.8C830.324 452.867 830.495 453.837 830.836 454.712C831.199 455.587 831.7 456.344 832.34 456.984C832.98 457.624 833.737 458.115 834.612 458.456C835.487 458.797 836.447 458.968 837.492 458.968C838.601 458.968 839.625 458.755 840.564 458.328C841.503 457.88 842.356 457.208 843.124 456.312L846.452 459.384C845.385 460.685 844.063 461.677 842.484 462.36C840.927 463.043 839.167 463.384 837.204 463.384ZM864.327 463L857.351 452.216L861.543 449.688L870.215 463H864.327ZM849.767 463V440.6H854.919V463H849.767ZM853.415 453.976V449.656H861.223V453.976H853.415ZM862.023 452.376L857.255 451.8L864.519 440.6H869.991L862.023 452.376ZM883.27 463.384C881.499 463.384 879.856 463.096 878.342 462.52C876.848 461.944 875.547 461.133 874.438 460.088C873.35 459.043 872.496 457.816 871.878 456.408C871.28 455 870.982 453.464 870.982 451.8C870.982 450.136 871.28 448.6 871.878 447.192C872.496 445.784 873.36 444.557 874.47 443.512C875.579 442.467 876.88 441.656 878.374 441.08C879.867 440.504 881.488 440.216 883.238 440.216C885.008 440.216 886.63 440.504 888.102 441.08C889.595 441.656 890.886 442.467 891.974 443.512C893.083 444.557 893.947 445.784 894.566 447.192C895.184 448.579 895.494 450.115 895.494 451.8C895.494 453.464 895.184 455.011 894.566 456.44C893.947 457.848 893.083 459.075 891.974 460.12C890.886 461.144 889.595 461.944 888.102 462.52C886.63 463.096 885.019 463.384 883.27 463.384ZM883.238 458.968C884.24 458.968 885.158 458.797 885.99 458.456C886.843 458.115 887.59 457.624 888.23 456.984C888.87 456.344 889.36 455.587 889.702 454.712C890.064 453.837 890.246 452.867 890.246 451.8C890.246 450.733 890.064 449.763 889.702 448.888C889.36 448.013 888.87 447.256 888.23 446.616C887.611 445.976 886.875 445.485 886.022 445.144C885.168 444.803 884.24 444.632 883.238 444.632C882.235 444.632 881.307 444.803 880.454 445.144C879.622 445.485 878.886 445.976 878.246 446.616C877.606 447.256 877.104 448.013 876.742 448.888C876.4 449.763 876.23 450.733 876.23 451.8C876.23 452.845 876.4 453.816 876.742 454.712C877.104 455.587 877.595 456.344 878.214 456.984C878.854 457.624 879.6 458.115 880.454 458.456C881.307 458.797 882.235 458.968 883.238 458.968ZM904.255 449.624H915.039V453.656H904.255V449.624ZM904.639 458.84H916.831V463H899.487V440.6H916.415V444.76H904.639V458.84ZM930.081 463V440.6H950.497V463H945.345V443.64L946.529 444.824H934.049L935.233 443.64V463H930.081ZM956.05 463V440.6H965.746C967.751 440.6 969.479 440.931 970.93 441.592C972.38 442.232 973.5 443.16 974.29 444.376C975.079 445.592 975.474 447.043 975.474 448.728C975.474 450.392 975.079 451.832 974.29 453.048C973.5 454.264 972.38 455.203 970.93 455.864C969.479 456.504 967.751 456.824 965.746 456.824H958.93L961.234 454.488V463H956.05ZM961.234 455.064L958.93 452.6H965.458C967.058 452.6 968.252 452.259 969.042 451.576C969.831 450.893 970.226 449.944 970.226 448.728C970.226 447.491 969.831 446.531 969.042 445.848C968.252 445.165 967.058 444.824 965.458 444.824H958.93L961.234 442.36V455.064ZM983.661 449.624H994.445V453.656H983.661V449.624ZM984.045 458.84H996.237V463H978.893V440.6H995.821V444.76H984.045V458.84ZM1015.27 460.696V444.824H1007.59L1007.5 448.088C1007.43 449.475 1007.34 450.787 1007.21 452.024C1007.1 453.261 1006.93 454.392 1006.7 455.416C1006.46 456.419 1006.15 457.272 1005.77 457.976C1005.41 458.68 1004.95 459.181 1004.39 459.48L998.857 458.776C999.625 458.797 1000.25 458.531 1000.74 457.976C1001.26 457.421 1001.66 456.643 1001.96 455.64C1002.26 454.616 1002.47 453.421 1002.6 452.056C1002.75 450.691 1002.86 449.208 1002.92 447.608L1003.18 440.6H1020.39V460.696H1015.27ZM998.121 467.64L998.153 458.776H1023.53V467.64H1018.73V463H1002.92V467.64H998.121ZM1027.24 463.352C1026.86 463.352 1026.45 463.32 1026.03 463.256C1025.62 463.192 1025.17 463.107 1024.68 463L1025 458.616C1025.3 458.701 1025.61 458.744 1025.93 458.744C1026.81 458.744 1027.49 458.392 1027.98 457.688C1028.47 456.963 1028.82 455.928 1029.03 454.584C1029.25 453.24 1029.39 451.608 1029.45 449.688L1029.77 440.6H1046.99V463H1041.87V443.64L1043.05 444.824H1033.16L1034.22 443.576L1034.03 449.496C1033.96 451.693 1033.81 453.645 1033.58 455.352C1033.34 457.059 1032.98 458.509 1032.49 459.704C1032 460.899 1031.33 461.805 1030.47 462.424C1029.62 463.043 1028.54 463.352 1027.24 463.352ZM1063.3 463.384C1061.53 463.384 1059.89 463.096 1058.37 462.52C1056.88 461.944 1055.58 461.133 1054.47 460.088C1053.38 459.043 1052.53 457.816 1051.91 456.408C1051.31 455 1051.01 453.464 1051.01 451.8C1051.01 450.136 1051.31 448.6 1051.91 447.192C1052.53 445.784 1053.39 444.557 1054.5 443.512C1055.61 442.467 1056.91 441.656 1058.4 441.08C1059.9 440.504 1061.52 440.216 1063.27 440.216C1065.04 440.216 1066.66 440.504 1068.13 441.08C1069.63 441.656 1070.92 442.467 1072 443.512C1073.11 444.557 1073.98 445.784 1074.6 447.192C1075.22 448.579 1075.52 450.115 1075.52 451.8C1075.52 453.464 1075.22 455.011 1074.6 456.44C1073.98 457.848 1073.11 459.075 1072 460.12C1070.92 461.144 1069.63 461.944 1068.13 462.52C1066.66 463.096 1065.05 463.384 1063.3 463.384ZM1063.27 458.968C1064.27 458.968 1065.19 458.797 1066.02 458.456C1066.87 458.115 1067.62 457.624 1068.26 456.984C1068.9 456.344 1069.39 455.587 1069.73 454.712C1070.1 453.837 1070.28 452.867 1070.28 451.8C1070.28 450.733 1070.1 449.763 1069.73 448.888C1069.39 448.013 1068.9 447.256 1068.26 446.616C1067.64 445.976 1066.91 445.485 1066.05 445.144C1065.2 444.803 1064.27 444.632 1063.27 444.632C1062.27 444.632 1061.34 444.803 1060.48 445.144C1059.65 445.485 1058.92 445.976 1058.28 446.616C1057.64 447.256 1057.14 448.013 1056.77 448.888C1056.43 449.763 1056.26 450.733 1056.26 451.8C1056.26 452.845 1056.43 453.816 1056.77 454.712C1057.14 455.587 1057.63 456.344 1058.24 456.984C1058.88 457.624 1059.63 458.115 1060.48 458.456C1061.34 458.797 1062.27 458.968 1063.27 458.968ZM1104.05 463L1098.03 452.216L1102.42 449.688L1110.03 463H1104.05ZM1094.23 453.976V449.656H1101.2V453.976H1094.23ZM1102.71 452.376L1097.91 451.8L1104.15 440.6H1109.62L1102.71 452.376ZM1082.32 463H1076.34L1083.95 449.688L1088.34 452.216L1082.32 463ZM1095.76 463H1090.67V440.6H1095.76V463ZM1092.18 453.976H1085.17V449.656H1092.18V453.976ZM1083.7 452.376L1076.75 440.6H1082.23L1088.43 451.8L1083.7 452.376ZM1117.29 449.624H1128.07V453.656H1117.29V449.624ZM1117.67 458.84H1129.86V463H1112.52V440.6H1129.45V444.76H1117.67V458.84ZM1149.41 440.6H1154.59V463H1149.41V440.6ZM1139.23 463H1134.05V440.6H1139.23V463ZM1149.79 453.816H1138.85V449.432H1149.79V453.816ZM1160.21 463V440.6H1165.36V455.192L1176.05 440.6H1180.91V463H1175.79V448.44L1165.1 463H1160.21ZM1191.26 449.624H1202.04V453.656H1191.26V449.624ZM1191.64 458.84H1203.83V463H1186.49V440.6H1203.42V444.76H1191.64V458.84ZM1206.99 467.928L1209.1 460.248L1209.8 463.128C1208.89 463.128 1208.13 462.861 1207.53 462.328C1206.95 461.795 1206.67 461.059 1206.67 460.12C1206.67 459.181 1206.97 458.435 1207.56 457.88C1208.16 457.325 1208.9 457.048 1209.77 457.048C1210.67 457.048 1211.4 457.336 1211.98 457.912C1212.55 458.467 1212.84 459.203 1212.84 460.12C1212.84 460.397 1212.82 460.675 1212.78 460.952C1212.74 461.208 1212.65 461.528 1212.52 461.912C1212.42 462.275 1212.23 462.744 1211.98 463.32L1210.15 467.928H1206.99ZM372.223 502.384C370.452 502.384 368.809 502.096 367.295 501.52C365.801 500.944 364.5 500.133 363.391 499.088C362.303 498.043 361.449 496.816 360.831 495.408C360.233 494 359.935 492.464 359.935 490.8C359.935 489.136 360.233 487.6 360.831 486.192C361.449 484.784 362.313 483.557 363.423 482.512C364.532 481.467 365.833 480.656 367.327 480.08C368.82 479.504 370.441 479.216 372.191 479.216C373.961 479.216 375.583 479.504 377.055 480.08C378.548 480.656 379.839 481.467 380.927 482.512C382.036 483.557 382.9 484.784 383.519 486.192C384.137 487.579 384.447 489.115 384.447 490.8C384.447 492.464 384.137 494.011 383.519 495.44C382.9 496.848 382.036 498.075 380.927 499.12C379.839 500.144 378.548 500.944 377.055 501.52C375.583 502.096 373.972 502.384 372.223 502.384ZM372.191 497.968C373.193 497.968 374.111 497.797 374.943 497.456C375.796 497.115 376.543 496.624 377.183 495.984C377.823 495.344 378.313 494.587 378.655 493.712C379.017 492.837 379.199 491.867 379.199 490.8C379.199 489.733 379.017 488.763 378.655 487.888C378.313 487.013 377.823 486.256 377.183 485.616C376.564 484.976 375.828 484.485 374.975 484.144C374.121 483.803 373.193 483.632 372.191 483.632C371.188 483.632 370.26 483.803 369.407 484.144C368.575 484.485 367.839 484.976 367.199 485.616C366.559 486.256 366.057 487.013 365.695 487.888C365.353 488.763 365.183 489.733 365.183 490.8C365.183 491.845 365.353 492.816 365.695 493.712C366.057 494.587 366.548 495.344 367.167 495.984C367.807 496.624 368.553 497.115 369.407 497.456C370.26 497.797 371.188 497.968 372.191 497.968ZM392.96 502V482.64L394.144 483.824H385.824V479.6H405.248V483.824H396.928L398.08 482.64V502H392.96ZM432.061 502L425.085 491.216L429.277 488.688L437.949 502H432.061ZM417.501 502V479.6H422.653V502H417.501ZM421.149 492.976V488.656H428.957V492.976H421.149ZM429.757 491.376L424.989 490.8L432.253 479.6H437.725L429.757 491.376ZM451.004 502.384C449.233 502.384 447.591 502.096 446.076 501.52C444.583 500.944 443.281 500.133 442.172 499.088C441.084 498.043 440.231 496.816 439.612 495.408C439.015 494 438.716 492.464 438.716 490.8C438.716 489.136 439.015 487.6 439.612 486.192C440.231 484.784 441.095 483.557 442.204 482.512C443.313 481.467 444.615 480.656 446.108 480.08C447.601 479.504 449.223 479.216 450.972 479.216C452.743 479.216 454.364 479.504 455.836 480.08C457.329 480.656 458.62 481.467 459.708 482.512C460.817 483.557 461.681 484.784 462.3 486.192C462.919 487.579 463.228 489.115 463.228 490.8C463.228 492.464 462.919 494.011 462.3 495.44C461.681 496.848 460.817 498.075 459.708 499.12C458.62 500.144 457.329 500.944 455.836 501.52C454.364 502.096 452.753 502.384 451.004 502.384ZM450.972 497.968C451.975 497.968 452.892 497.797 453.724 497.456C454.577 497.115 455.324 496.624 455.964 495.984C456.604 495.344 457.095 494.587 457.436 493.712C457.799 492.837 457.98 491.867 457.98 490.8C457.98 489.733 457.799 488.763 457.436 487.888C457.095 487.013 456.604 486.256 455.964 485.616C455.345 484.976 454.609 484.485 453.756 484.144C452.903 483.803 451.975 483.632 450.972 483.632C449.969 483.632 449.041 483.803 448.188 484.144C447.356 484.485 446.62 484.976 445.98 485.616C445.34 486.256 444.839 487.013 444.476 487.888C444.135 488.763 443.964 489.733 443.964 490.8C443.964 491.845 444.135 492.816 444.476 493.712C444.839 494.587 445.329 495.344 445.948 495.984C446.588 496.624 447.335 497.115 448.188 497.456C449.041 497.797 449.969 497.968 450.972 497.968ZM471.741 502V482.64L472.925 483.824H464.605V479.6H484.029V483.824H475.709L476.861 482.64V502H471.741ZM497.692 502.384C495.921 502.384 494.278 502.096 492.764 501.52C491.27 500.944 489.969 500.133 488.86 499.088C487.772 498.043 486.918 496.816 486.299 495.408C485.702 494 485.404 492.464 485.404 490.8C485.404 489.136 485.702 487.6 486.299 486.192C486.918 484.784 487.782 483.557 488.891 482.512C490.001 481.467 491.302 480.656 492.796 480.08C494.289 479.504 495.91 479.216 497.66 479.216C499.43 479.216 501.052 479.504 502.524 480.08C504.017 480.656 505.308 481.467 506.396 482.512C507.505 483.557 508.369 484.784 508.988 486.192C509.606 487.579 509.916 489.115 509.916 490.8C509.916 492.464 509.606 494.011 508.988 495.44C508.369 496.848 507.505 498.075 506.396 499.12C505.308 500.144 504.017 500.944 502.524 501.52C501.052 502.096 499.441 502.384 497.692 502.384ZM497.66 497.968C498.662 497.968 499.58 497.797 500.412 497.456C501.265 497.115 502.012 496.624 502.652 495.984C503.292 495.344 503.782 494.587 504.124 493.712C504.486 492.837 504.668 491.867 504.668 490.8C504.668 489.733 504.486 488.763 504.124 487.888C503.782 487.013 503.292 486.256 502.652 485.616C502.033 484.976 501.297 484.485 500.444 484.144C499.59 483.803 498.662 483.632 497.66 483.632C496.657 483.632 495.729 483.803 494.876 484.144C494.044 484.485 493.308 484.976 492.668 485.616C492.028 486.256 491.526 487.013 491.164 487.888C490.822 488.763 490.652 489.733 490.652 490.8C490.652 491.845 490.822 492.816 491.164 493.712C491.526 494.587 492.017 495.344 492.635 495.984C493.275 496.624 494.022 497.115 494.876 497.456C495.729 497.797 496.657 497.968 497.66 497.968ZM513.909 502V479.6H523.605C525.61 479.6 527.338 479.931 528.789 480.592C530.24 481.232 531.36 482.16 532.149 483.376C532.938 484.592 533.333 486.043 533.333 487.728C533.333 489.392 532.938 490.832 532.149 492.048C531.36 493.264 530.24 494.203 528.789 494.864C527.338 495.504 525.61 495.824 523.605 495.824H516.789L519.093 493.488V502H513.909ZM519.093 494.064L516.789 491.6H523.317C524.917 491.6 526.112 491.259 526.901 490.576C527.69 489.893 528.085 488.944 528.085 487.728C528.085 486.491 527.69 485.531 526.901 484.848C526.112 484.165 524.917 483.824 523.317 483.824H516.789L519.093 481.36V494.064ZM547.785 502.384C546.015 502.384 544.372 502.096 542.857 501.52C541.364 500.944 540.063 500.133 538.953 499.088C537.865 498.043 537.012 496.816 536.393 495.408C535.796 494 535.497 492.464 535.497 490.8C535.497 489.136 535.796 487.6 536.393 486.192C537.012 484.784 537.876 483.557 538.985 482.512C540.095 481.467 541.396 480.656 542.889 480.08C544.383 479.504 546.004 479.216 547.753 479.216C549.524 479.216 551.145 479.504 552.617 480.08C554.111 480.656 555.401 481.467 556.489 482.512C557.599 483.557 558.463 484.784 559.081 486.192C559.7 487.579 560.009 489.115 560.009 490.8C560.009 492.464 559.7 494.011 559.081 495.44C558.463 496.848 557.599 498.075 556.489 499.12C555.401 500.144 554.111 500.944 552.617 501.52C551.145 502.096 549.535 502.384 547.785 502.384ZM547.753 497.968C548.756 497.968 549.673 497.797 550.505 497.456C551.359 497.115 552.105 496.624 552.745 495.984C553.385 495.344 553.876 494.587 554.217 493.712C554.58 492.837 554.761 491.867 554.761 490.8C554.761 489.733 554.58 488.763 554.217 487.888C553.876 487.013 553.385 486.256 552.745 485.616C552.127 484.976 551.391 484.485 550.537 484.144C549.684 483.803 548.756 483.632 547.753 483.632C546.751 483.632 545.823 483.803 544.969 484.144C544.137 484.485 543.401 484.976 542.761 485.616C542.121 486.256 541.62 487.013 541.257 487.888C540.916 488.763 540.745 489.733 540.745 490.8C540.745 491.845 540.916 492.816 541.257 493.712C541.62 494.587 542.111 495.344 542.729 495.984C543.369 496.624 544.116 497.115 544.969 497.456C545.823 497.797 546.751 497.968 547.753 497.968ZM564.003 502V479.6H579.811L579.779 483.824H567.939L569.123 482.64L569.155 502H564.003ZM591.41 502.384C589.64 502.384 587.997 502.096 586.482 501.52C584.989 500.944 583.688 500.133 582.578 499.088C581.49 498.043 580.637 496.816 580.018 495.408C579.421 494 579.122 492.464 579.122 490.8C579.122 489.136 579.421 487.6 580.018 486.192C580.637 484.784 581.501 483.557 582.61 482.512C583.72 481.467 585.021 480.656 586.514 480.08C588.008 479.504 589.629 479.216 591.378 479.216C593.149 479.216 594.77 479.504 596.242 480.08C597.736 480.656 599.026 481.467 600.114 482.512C601.224 483.557 602.088 484.784 602.706 486.192C603.325 487.579 603.634 489.115 603.634 490.8C603.634 492.464 603.325 494.011 602.706 495.44C602.088 496.848 601.224 498.075 600.114 499.12C599.026 500.144 597.736 500.944 596.242 501.52C594.77 502.096 593.16 502.384 591.41 502.384ZM591.378 497.968C592.381 497.968 593.298 497.797 594.13 497.456C594.984 497.115 595.73 496.624 596.37 495.984C597.01 495.344 597.501 494.587 597.842 493.712C598.205 492.837 598.386 491.867 598.386 490.8C598.386 489.733 598.205 488.763 597.842 487.888C597.501 487.013 597.01 486.256 596.37 485.616C595.752 484.976 595.016 484.485 594.162 484.144C593.309 483.803 592.381 483.632 591.378 483.632C590.376 483.632 589.448 483.803 588.594 484.144C587.762 484.485 587.026 484.976 586.386 485.616C585.746 486.256 585.245 487.013 584.882 487.888C584.541 488.763 584.37 489.733 584.37 490.8C584.37 491.845 584.541 492.816 584.882 493.712C585.245 494.587 585.736 495.344 586.354 495.984C586.994 496.624 587.741 497.115 588.594 497.456C589.448 497.797 590.376 497.968 591.378 497.968ZM616.69 502V479.6H627.122C629.725 479.6 631.752 480.101 633.202 481.104C634.653 482.107 635.378 483.536 635.378 485.392C635.378 487.227 634.696 488.656 633.33 489.68C631.965 490.683 630.152 491.184 627.89 491.184L628.498 489.84C631.016 489.84 632.968 490.341 634.354 491.344C635.741 492.347 636.434 493.797 636.434 495.696C636.434 497.659 635.688 499.205 634.194 500.336C632.722 501.445 630.568 502 627.73 502H616.69ZM621.842 498.16H627.538C628.733 498.16 629.64 497.925 630.258 497.456C630.877 496.987 631.186 496.261 631.186 495.28C631.186 494.341 630.877 493.648 630.258 493.2C629.64 492.731 628.733 492.496 627.538 492.496H621.842V498.16ZM621.842 488.88H626.674C627.805 488.88 628.658 488.656 629.234 488.208C629.81 487.739 630.098 487.056 630.098 486.16C630.098 485.264 629.81 484.592 629.234 484.144C628.658 483.675 627.805 483.44 626.674 483.44H621.842V488.88ZM638.006 502L647.99 479.6H653.11L663.126 502H657.686L649.494 482.224H651.542L643.318 502H638.006ZM642.998 497.2L644.374 493.264H655.894L657.302 497.2H642.998ZM666.097 502V479.6H670.385L679.921 495.408H677.649L687.025 479.6H691.313L691.345 502H686.481L686.449 487.056H687.377L679.857 499.632H677.553L669.873 487.056H670.961V502H666.097ZM705.972 502V479.6H724.052V483.728H711.124V488.336H717.332C720.041 488.336 722.1 488.901 723.508 490.032C724.937 491.163 725.652 492.805 725.652 494.96C725.652 497.179 724.862 498.907 723.284 500.144C721.705 501.381 719.476 502 716.596 502H705.972ZM711.124 498.16H716.308C717.63 498.16 718.644 497.904 719.347 497.392C720.052 496.859 720.404 496.091 720.404 495.088C720.404 493.125 719.038 492.144 716.308 492.144H711.124V498.16ZM729.521 497.776C730.758 498.139 731.793 498.245 732.625 498.096C733.478 497.925 734.235 497.328 734.897 496.304L735.985 494.672L736.465 494.128L743.889 479.6H748.977L739.441 497.328C738.587 498.928 737.574 500.155 736.401 501.008C735.249 501.861 733.979 502.341 732.593 502.448C731.206 502.576 729.766 502.331 728.273 501.712L729.521 497.776ZM736.369 498.448L726.257 479.6H731.793L739.217 494.64L736.369 498.448ZM765.913 499.696V483.824H758.233L758.137 487.088C758.073 488.475 757.977 489.787 757.849 491.024C757.743 492.261 757.572 493.392 757.337 494.416C757.103 495.419 756.793 496.272 756.409 496.976C756.047 497.68 755.588 498.181 755.033 498.48L749.497 497.776C750.265 497.797 750.895 497.531 751.385 496.976C751.897 496.421 752.303 495.643 752.601 494.64C752.9 493.616 753.113 492.421 753.241 491.056C753.391 489.691 753.497 488.208 753.561 486.608L753.817 479.6H771.033V499.696H765.913ZM748.761 506.64L748.793 497.776H774.169V506.64H769.369V502H753.561V506.64H748.761ZM782.427 488.624H793.211V492.656H782.427V488.624ZM782.811 497.84H795.003V502H777.659V479.6H794.587V483.76H782.811V497.84ZM804.022 502V482.64L805.206 483.824H796.886V479.6H816.31V483.824H807.99L809.142 482.64V502H804.022ZM839.22 502.384C837.492 502.384 835.881 502.107 834.388 501.552C832.916 500.976 831.636 500.165 830.548 499.12C829.46 498.075 828.606 496.848 827.988 495.44C827.39 494.032 827.092 492.485 827.092 490.8C827.092 489.115 827.39 487.568 827.988 486.16C828.606 484.752 829.46 483.525 830.548 482.48C831.657 481.435 832.948 480.635 834.42 480.08C835.892 479.504 837.502 479.216 839.252 479.216C841.193 479.216 842.942 479.557 844.5 480.24C846.078 480.901 847.401 481.883 848.468 483.184L845.14 486.256C844.372 485.381 843.518 484.731 842.58 484.304C841.641 483.856 840.617 483.632 839.508 483.632C838.462 483.632 837.502 483.803 836.628 484.144C835.753 484.485 834.996 484.976 834.356 485.616C833.716 486.256 833.214 487.013 832.852 487.888C832.51 488.763 832.34 489.733 832.34 490.8C832.34 491.867 832.51 492.837 832.852 493.712C833.214 494.587 833.716 495.344 834.356 495.984C834.996 496.624 835.753 497.115 836.628 497.456C837.502 497.797 838.462 497.968 839.508 497.968C840.617 497.968 841.641 497.755 842.58 497.328C843.518 496.88 844.372 496.208 845.14 495.312L848.468 498.384C847.401 499.685 846.078 500.677 844.5 501.36C842.942 502.043 841.182 502.384 839.22 502.384ZM851.539 502.352C851.155 502.352 850.75 502.32 850.323 502.256C849.918 502.192 849.47 502.107 848.979 502L849.299 497.616C849.598 497.701 849.907 497.744 850.227 497.744C851.102 497.744 851.785 497.392 852.275 496.688C852.766 495.963 853.118 494.928 853.331 493.584C853.545 492.24 853.683 490.608 853.747 488.688L854.067 479.6H871.283V502H866.163V482.64L867.347 483.824H857.459L858.515 482.576L858.323 488.496C858.259 490.693 858.11 492.645 857.875 494.352C857.641 496.059 857.278 497.509 856.787 498.704C856.297 499.899 855.625 500.805 854.771 501.424C853.918 502.043 852.841 502.352 851.539 502.352ZM887.598 502.384C885.827 502.384 884.184 502.096 882.67 501.52C881.176 500.944 879.875 500.133 878.766 499.088C877.678 498.043 876.824 496.816 876.206 495.408C875.608 494 875.31 492.464 875.31 490.8C875.31 489.136 875.608 487.6 876.206 486.192C876.824 484.784 877.688 483.557 878.798 482.512C879.907 481.467 881.208 480.656 882.702 480.08C884.195 479.504 885.816 479.216 887.566 479.216C889.336 479.216 890.958 479.504 892.43 480.08C893.923 480.656 895.214 481.467 896.302 482.512C897.411 483.557 898.275 484.784 898.894 486.192C899.512 487.579 899.822 489.115 899.822 490.8C899.822 492.464 899.512 494.011 898.894 495.44C898.275 496.848 897.411 498.075 896.302 499.12C895.214 500.144 893.923 500.944 892.43 501.52C890.958 502.096 889.347 502.384 887.598 502.384ZM887.566 497.968C888.568 497.968 889.486 497.797 890.318 497.456C891.171 497.115 891.918 496.624 892.558 495.984C893.198 495.344 893.688 494.587 894.03 493.712C894.392 492.837 894.574 491.867 894.574 490.8C894.574 489.733 894.392 488.763 894.03 487.888C893.688 487.013 893.198 486.256 892.558 485.616C891.939 484.976 891.203 484.485 890.35 484.144C889.496 483.803 888.568 483.632 887.566 483.632C886.563 483.632 885.635 483.803 884.782 484.144C883.95 484.485 883.214 484.976 882.574 485.616C881.934 486.256 881.432 487.013 881.07 487.888C880.728 488.763 880.558 489.733 880.558 490.8C880.558 491.845 880.728 492.816 881.07 493.712C881.432 494.587 881.923 495.344 882.542 495.984C883.182 496.624 883.928 497.115 884.782 497.456C885.635 497.797 886.563 497.968 887.566 497.968ZM928.347 502L922.331 491.216L926.715 488.688L934.331 502H928.347ZM918.523 492.976V488.656H925.499V492.976H918.523ZM927.003 491.376L922.203 490.8L928.443 479.6H933.915L927.003 491.376ZM906.619 502H900.635L908.251 488.688L912.635 491.216L906.619 502ZM920.059 502H914.971V479.6H920.059V502ZM916.475 492.976H909.467V488.656H916.475V492.976ZM907.995 491.376L901.051 479.6H906.523L912.731 490.8L907.995 491.376ZM952.175 479.6H957.359V502H952.175V479.6ZM941.999 502H936.815V479.6H941.999V502ZM952.559 492.816H941.615V488.432H952.559V492.816ZM973.692 502.384C971.921 502.384 970.278 502.096 968.764 501.52C967.27 500.944 965.969 500.133 964.86 499.088C963.772 498.043 962.918 496.816 962.299 495.408C961.702 494 961.404 492.464 961.404 490.8C961.404 489.136 961.702 487.6 962.299 486.192C962.918 484.784 963.782 483.557 964.891 482.512C966.001 481.467 967.302 480.656 968.796 480.08C970.289 479.504 971.91 479.216 973.66 479.216C975.43 479.216 977.052 479.504 978.524 480.08C980.017 480.656 981.308 481.467 982.396 482.512C983.505 483.557 984.369 484.784 984.988 486.192C985.606 487.579 985.916 489.115 985.916 490.8C985.916 492.464 985.606 494.011 984.988 495.44C984.369 496.848 983.505 498.075 982.396 499.12C981.308 500.144 980.017 500.944 978.524 501.52C977.052 502.096 975.441 502.384 973.692 502.384ZM973.66 497.968C974.662 497.968 975.58 497.797 976.412 497.456C977.265 497.115 978.012 496.624 978.652 495.984C979.292 495.344 979.782 494.587 980.124 493.712C980.486 492.837 980.668 491.867 980.668 490.8C980.668 489.733 980.486 488.763 980.124 487.888C979.782 487.013 979.292 486.256 978.652 485.616C978.033 484.976 977.297 484.485 976.444 484.144C975.59 483.803 974.662 483.632 973.66 483.632C972.657 483.632 971.729 483.803 970.876 484.144C970.044 484.485 969.308 484.976 968.668 485.616C968.028 486.256 967.526 487.013 967.164 487.888C966.822 488.763 966.652 489.733 966.652 490.8C966.652 491.845 966.822 492.816 967.164 493.712C967.526 494.587 968.017 495.344 968.635 495.984C969.275 496.624 970.022 497.115 970.876 497.456C971.729 497.797 972.657 497.968 973.66 497.968ZM1009.69 502.384C1007.92 502.384 1006.28 502.096 1004.76 501.52C1003.27 500.944 1001.97 500.133 1000.86 499.088C999.772 498.043 998.918 496.816 998.299 495.408C997.702 494 997.404 492.464 997.404 490.8C997.404 489.136 997.702 487.6 998.299 486.192C998.918 484.784 999.782 483.557 1000.89 482.512C1002 481.467 1003.3 480.656 1004.8 480.08C1006.29 479.504 1007.91 479.216 1009.66 479.216C1011.43 479.216 1013.05 479.504 1014.52 480.08C1016.02 480.656 1017.31 481.467 1018.4 482.512C1019.5 483.557 1020.37 484.784 1020.99 486.192C1021.61 487.579 1021.92 489.115 1021.92 490.8C1021.92 492.464 1021.61 494.011 1020.99 495.44C1020.37 496.848 1019.5 498.075 1018.4 499.12C1017.31 500.144 1016.02 500.944 1014.52 501.52C1013.05 502.096 1011.44 502.384 1009.69 502.384ZM1009.66 497.968C1010.66 497.968 1011.58 497.797 1012.41 497.456C1013.26 497.115 1014.01 496.624 1014.65 495.984C1015.29 495.344 1015.78 494.587 1016.12 493.712C1016.49 492.837 1016.67 491.867 1016.67 490.8C1016.67 489.733 1016.49 488.763 1016.12 487.888C1015.78 487.013 1015.29 486.256 1014.65 485.616C1014.03 484.976 1013.3 484.485 1012.44 484.144C1011.59 483.803 1010.66 483.632 1009.66 483.632C1008.66 483.632 1007.73 483.803 1006.88 484.144C1006.04 484.485 1005.31 484.976 1004.67 485.616C1004.03 486.256 1003.53 487.013 1003.16 487.888C1002.82 488.763 1002.65 489.733 1002.65 490.8C1002.65 491.845 1002.82 492.816 1003.16 493.712C1003.53 494.587 1004.02 495.344 1004.64 495.984C1005.28 496.624 1006.02 497.115 1006.88 497.456C1007.73 497.797 1008.66 497.968 1009.66 497.968ZM1030.43 502V482.64L1031.61 483.824H1023.29V479.6H1042.72V483.824H1034.4L1035.55 482.64V502H1030.43ZM1060.47 502L1053.49 491.216L1057.68 488.688L1066.36 502H1060.47ZM1045.91 502V479.6H1051.06V502H1045.91ZM1049.56 492.976V488.656H1057.36V492.976H1049.56ZM1058.16 491.376L1053.4 490.8L1060.66 479.6H1066.13L1058.16 491.376ZM1065.79 502L1075.77 479.6H1080.89L1090.91 502H1085.47L1077.28 482.224H1079.32L1071.1 502H1065.79ZM1070.78 497.2L1072.16 493.264H1083.68L1085.08 497.2H1070.78ZM1091.86 500.016L1093.46 496.304C1094.42 496.88 1095.45 497.328 1096.53 497.648C1097.64 497.947 1098.72 498.117 1099.77 498.16C1100.83 498.181 1101.79 498.075 1102.65 497.84C1103.52 497.605 1104.21 497.253 1104.73 496.784C1105.26 496.315 1105.53 495.717 1105.53 494.992C1105.53 494.139 1105.17 493.509 1104.47 493.104C1103.77 492.677 1102.83 492.464 1101.65 492.464H1096.18V488.56H1101.27C1102.32 488.56 1103.13 488.347 1103.7 487.92C1104.3 487.493 1104.6 486.907 1104.6 486.16C1104.6 485.52 1104.38 485.008 1103.96 484.624C1103.53 484.219 1102.94 483.92 1102.2 483.728C1101.47 483.536 1100.65 483.451 1099.73 483.472C1098.82 483.493 1097.87 483.643 1096.89 483.92C1095.9 484.197 1094.97 484.581 1094.07 485.072L1092.5 481.072C1093.95 480.325 1095.48 479.813 1097.08 479.536C1098.7 479.237 1100.26 479.163 1101.75 479.312C1103.26 479.44 1104.63 479.781 1105.85 480.336C1107.06 480.869 1108.03 481.573 1108.76 482.448C1109.48 483.323 1109.85 484.357 1109.85 485.552C1109.85 486.619 1109.57 487.568 1109.01 488.4C1108.46 489.232 1107.68 489.872 1106.68 490.32C1105.7 490.768 1104.57 490.992 1103.29 490.992L1103.41 489.84C1104.91 489.84 1106.2 490.096 1107.29 490.608C1108.4 491.099 1109.25 491.792 1109.85 492.688C1110.46 493.563 1110.77 494.576 1110.77 495.728C1110.77 496.795 1110.49 497.755 1109.91 498.608C1109.36 499.44 1108.59 500.144 1107.61 500.72C1106.62 501.296 1105.5 501.723 1104.25 502C1102.99 502.277 1101.64 502.395 1100.21 502.352C1098.81 502.309 1097.39 502.107 1095.96 501.744C1094.53 501.36 1093.16 500.784 1091.86 500.016ZM1112.35 502L1122.33 479.6H1127.45L1137.47 502H1132.03L1123.84 482.224H1125.89L1117.66 502H1112.35ZM1117.34 497.2L1118.72 493.264H1130.24L1131.65 497.2H1117.34ZM1144.15 502V482.64L1145.33 483.824H1137.01V479.6H1156.44V483.824H1148.12L1149.27 482.64V502H1144.15ZM1170.54 486.96C1173.25 486.96 1175.34 487.568 1176.81 488.784C1178.28 489.979 1179.02 491.781 1179.02 494.192C1179.02 496.752 1178.2 498.693 1176.55 500.016C1174.93 501.339 1172.68 502 1169.8 502H1159.69V479.6H1164.84V486.96H1170.54ZM1169.51 498.16C1170.84 498.16 1171.88 497.829 1172.65 497.168C1173.42 496.507 1173.8 495.547 1173.8 494.288C1173.8 493.051 1173.42 492.165 1172.65 491.632C1171.9 491.077 1170.86 490.8 1169.51 490.8H1164.84V498.16H1169.51ZM1193.34 502.384C1191.62 502.384 1190.01 502.107 1188.51 501.552C1187.04 500.976 1185.76 500.165 1184.67 499.12C1183.58 498.075 1182.73 496.848 1182.11 495.44C1181.52 494.032 1181.22 492.485 1181.22 490.8C1181.22 489.115 1181.52 487.568 1182.11 486.16C1182.73 484.752 1183.58 483.525 1184.67 482.48C1185.78 481.435 1187.07 480.635 1188.54 480.08C1190.02 479.504 1191.63 479.216 1193.38 479.216C1195.32 479.216 1197.07 479.557 1198.62 480.24C1200.2 480.901 1201.53 481.883 1202.59 483.184L1199.26 486.256C1198.5 485.381 1197.64 484.731 1196.7 484.304C1195.77 483.856 1194.74 483.632 1193.63 483.632C1192.59 483.632 1191.63 483.803 1190.75 484.144C1189.88 484.485 1189.12 484.976 1188.48 485.616C1187.84 486.256 1187.34 487.013 1186.98 487.888C1186.64 488.763 1186.46 489.733 1186.46 490.8C1186.46 491.867 1186.64 492.837 1186.98 493.712C1187.34 494.587 1187.84 495.344 1188.48 495.984C1189.12 496.624 1189.88 497.115 1190.75 497.456C1191.63 497.797 1192.59 497.968 1193.63 497.968C1194.74 497.968 1195.77 497.755 1196.7 497.328C1197.64 496.88 1198.5 496.208 1199.26 495.312L1202.59 498.384C1201.53 499.685 1200.2 500.677 1198.62 501.36C1197.07 502.043 1195.31 502.384 1193.34 502.384ZM1218.33 502V494.928L1219.61 496.048H1213.47C1211.53 496.048 1209.85 495.728 1208.45 495.088C1207.04 494.448 1205.96 493.52 1205.21 492.304C1204.47 491.088 1204.09 489.637 1204.09 487.952C1204.09 486.203 1204.49 484.709 1205.28 483.472C1206.09 482.213 1207.22 481.253 1208.67 480.592C1210.12 479.931 1211.83 479.6 1213.79 479.6H1223.45V502H1218.33ZM1204.16 502L1209.73 493.968H1214.97L1209.63 502H1204.16ZM1218.33 493.264V482.48L1219.61 483.824H1213.92C1212.45 483.824 1211.31 484.165 1210.53 484.848C1209.76 485.531 1209.37 486.544 1209.37 487.888C1209.37 489.189 1209.75 490.192 1210.49 490.896C1211.24 491.6 1212.34 491.952 1213.79 491.952H1219.61L1218.33 493.264Z" fill="white"/>
<g clip-path="url(#clip0_41_391)">
<rect x="442" y="150" width="668" height="115" rx="57.5" stroke="#008DDE" stroke-width="8"/>
<path d="M516.69 198V175.6H520.978L530.514 191.408H528.242L537.618 175.6H541.906L541.938 198H537.074L537.042 183.056H537.97L530.45 195.632H528.146L520.466 183.056H521.554V198H516.69ZM558.351 182.96C561.06 182.96 563.151 183.568 564.623 184.784C566.095 185.979 566.831 187.781 566.831 190.192C566.831 192.752 566.009 194.693 564.367 196.016C562.745 197.339 560.495 198 557.615 198H547.503V175.6H552.655V182.96H558.351ZM557.327 194.16C558.649 194.16 559.695 193.829 560.463 193.168C561.231 192.507 561.615 191.547 561.615 190.288C561.615 189.051 561.231 188.165 560.463 187.632C559.716 187.077 558.671 186.8 557.327 186.8H552.655V194.16H557.327ZM569.679 198V175.6H574.831V198H569.679ZM600.064 198.384C598.336 198.384 596.725 198.107 595.232 197.552C593.76 196.976 592.48 196.165 591.391 195.12C590.304 194.075 589.45 192.848 588.832 191.44C588.234 190.032 587.936 188.485 587.936 186.8C587.936 185.115 588.234 183.568 588.832 182.16C589.45 180.752 590.304 179.525 591.391 178.48C592.501 177.435 593.792 176.635 595.264 176.08C596.736 175.504 598.346 175.216 600.096 175.216C602.037 175.216 603.786 175.557 605.344 176.24C606.922 176.901 608.245 177.883 609.312 179.184L605.984 182.256C605.216 181.381 604.362 180.731 603.424 180.304C602.485 179.856 601.461 179.632 600.352 179.632C599.306 179.632 598.346 179.803 597.472 180.144C596.597 180.485 595.84 180.976 595.2 181.616C594.56 182.256 594.058 183.013 593.696 183.888C593.354 184.763 593.184 185.733 593.184 186.8C593.184 187.867 593.354 188.837 593.696 189.712C594.058 190.587 594.56 191.344 595.2 191.984C595.84 192.624 596.597 193.115 597.472 193.456C598.346 193.797 599.306 193.968 600.352 193.968C601.461 193.968 602.485 193.755 603.424 193.328C604.362 192.88 605.216 192.208 605.984 191.312L609.312 194.384C608.245 195.685 606.922 196.677 605.344 197.36C603.786 198.043 602.026 198.384 600.064 198.384ZM612.69 198V175.6H623.122C625.725 175.6 627.752 176.101 629.202 177.104C630.653 178.107 631.378 179.536 631.378 181.392C631.378 183.227 630.696 184.656 629.33 185.68C627.965 186.683 626.152 187.184 623.89 187.184L624.498 185.84C627.016 185.84 628.968 186.341 630.354 187.344C631.741 188.347 632.434 189.797 632.434 191.696C632.434 193.659 631.688 195.205 630.194 196.336C628.722 197.445 626.568 198 623.73 198H612.69ZM617.842 194.16H623.538C624.733 194.16 625.64 193.925 626.258 193.456C626.877 192.987 627.186 192.261 627.186 191.28C627.186 190.341 626.877 189.648 626.258 189.2C625.64 188.731 624.733 188.496 623.538 188.496H617.842V194.16ZM617.842 184.88H622.674C623.805 184.88 624.658 184.656 625.234 184.208C625.81 183.739 626.098 183.056 626.098 182.16C626.098 181.264 625.81 180.592 625.234 180.144C624.658 179.675 623.805 179.44 622.674 179.44H617.842V184.88ZM648.99 198V190.928L650.27 192.048H644.126C642.184 192.048 640.51 191.728 639.102 191.088C637.694 190.448 636.616 189.52 635.87 188.304C635.123 187.088 634.75 185.637 634.75 183.952C634.75 182.203 635.144 180.709 635.934 179.472C636.744 178.213 637.875 177.253 639.326 176.592C640.776 175.931 642.483 175.6 644.446 175.6H654.11V198H648.99ZM634.814 198L640.382 189.968H645.63L640.286 198H634.814ZM648.99 189.264V178.48L650.27 179.824H644.574C643.102 179.824 641.971 180.165 641.182 180.848C640.414 181.531 640.03 182.544 640.03 183.888C640.03 185.189 640.403 186.192 641.15 186.896C641.896 187.6 642.995 187.952 644.446 187.952H650.27L648.99 189.264ZM657.706 196.016L659.306 192.304C660.266 192.88 661.29 193.328 662.378 193.648C663.487 193.947 664.564 194.117 665.61 194.16C666.676 194.181 667.636 194.075 668.49 193.84C669.364 193.605 670.058 193.253 670.57 192.784C671.103 192.315 671.37 191.717 671.37 190.992C671.37 190.139 671.018 189.509 670.314 189.104C669.61 188.677 668.671 188.464 667.498 188.464H662.026V184.56H667.114C668.159 184.56 668.97 184.347 669.546 183.92C670.143 183.493 670.442 182.907 670.442 182.16C670.442 181.52 670.228 181.008 669.802 180.624C669.375 180.219 668.788 179.92 668.042 179.728C667.316 179.536 666.495 179.451 665.578 179.472C664.66 179.493 663.711 179.643 662.73 179.92C661.748 180.197 660.81 180.581 659.914 181.072L658.346 177.072C659.796 176.325 661.322 175.813 662.922 175.536C664.543 175.237 666.1 175.163 667.594 175.312C669.108 175.44 670.474 175.781 671.69 176.336C672.906 176.869 673.876 177.573 674.602 178.448C675.327 179.323 675.69 180.357 675.69 181.552C675.69 182.619 675.412 183.568 674.858 184.4C674.303 185.232 673.524 185.872 672.522 186.32C671.54 186.768 670.41 186.992 669.13 186.992L669.258 185.84C670.751 185.84 672.042 186.096 673.13 186.608C674.239 187.099 675.092 187.792 675.69 188.688C676.308 189.563 676.618 190.576 676.618 191.728C676.618 192.795 676.33 193.755 675.753 194.608C675.199 195.44 674.431 196.144 673.45 196.72C672.468 197.296 671.348 197.723 670.09 198C668.831 198.277 667.487 198.395 666.058 198.352C664.65 198.309 663.231 198.107 661.802 197.744C660.372 197.36 659.007 196.784 657.706 196.016ZM691.57 182.96C694.279 182.96 696.37 183.568 697.842 184.784C699.314 185.979 700.05 187.781 700.05 190.192C700.05 192.752 699.228 194.693 697.586 196.016C695.964 197.339 693.714 198 690.834 198H680.722V175.6H685.874V182.96H691.57ZM690.546 194.16C691.868 194.16 692.914 193.829 693.682 193.168C694.45 192.507 694.833 191.547 694.833 190.288C694.833 189.051 694.45 188.165 693.682 187.632C692.935 187.077 691.89 186.8 690.546 186.8H685.874V194.16H690.546ZM702.898 198V175.6H708.05V198H702.898ZM713.628 198V175.6H724.06C726.662 175.6 728.689 176.101 730.14 177.104C731.59 178.107 732.316 179.536 732.316 181.392C732.316 183.227 731.633 184.656 730.268 185.68C728.902 186.683 727.089 187.184 724.828 187.184L725.436 185.84C727.953 185.84 729.905 186.341 731.292 187.344C732.678 188.347 733.372 189.797 733.372 191.696C733.372 193.659 732.625 195.205 731.132 196.336C729.66 197.445 727.505 198 724.668 198H713.628ZM718.78 194.16H724.476C725.67 194.16 726.577 193.925 727.196 193.456C727.814 192.987 728.124 192.261 728.124 191.28C728.124 190.341 727.814 189.648 727.196 189.2C726.577 188.731 725.67 188.496 724.476 188.496H718.78V194.16ZM718.78 184.88H723.612C724.742 184.88 725.596 184.656 726.172 184.208C726.748 183.739 727.036 183.056 727.036 182.16C727.036 181.264 726.748 180.592 726.172 180.144C725.596 179.675 724.742 179.44 723.612 179.44H718.78V184.88ZM734.944 198L744.928 175.6H750.048L760.064 198H754.624L746.432 178.224H748.48L740.256 198H734.944ZM739.936 193.2L741.312 189.264H752.832L754.24 193.2H739.936ZM767.802 184.624H778.586V188.656H767.802V184.624ZM768.186 193.84H780.378V198H763.034V175.6H779.962V179.76H768.186V193.84ZM784.565 198V175.6H788.853L798.389 191.408H796.117L805.493 175.6H809.781L809.813 198H804.949L804.917 183.056H805.845L798.325 195.632H796.021L788.341 183.056H789.429V198H784.565ZM825.97 198.384C824.242 198.384 822.631 198.107 821.138 197.552C819.666 196.976 818.386 196.165 817.298 195.12C816.21 194.075 815.356 192.848 814.738 191.44C814.14 190.032 813.842 188.485 813.842 186.8C813.842 185.115 814.14 183.568 814.738 182.16C815.356 180.752 816.21 179.525 817.298 178.48C818.407 177.435 819.698 176.635 821.17 176.08C822.642 175.504 824.252 175.216 826.002 175.216C827.943 175.216 829.692 175.557 831.25 176.24C832.828 176.901 834.151 177.883 835.218 179.184L831.89 182.256C831.122 181.381 830.268 180.731 829.33 180.304C828.391 179.856 827.367 179.632 826.258 179.632C825.212 179.632 824.252 179.803 823.378 180.144C822.503 180.485 821.746 180.976 821.106 181.616C820.466 182.256 819.964 183.013 819.602 183.888C819.26 184.763 819.09 185.733 819.09 186.8C819.09 187.867 819.26 188.837 819.602 189.712C819.964 190.587 820.466 191.344 821.106 191.984C821.746 192.624 822.503 193.115 823.378 193.456C824.252 193.797 825.212 193.968 826.258 193.968C827.367 193.968 828.391 193.755 829.33 193.328C830.268 192.88 831.122 192.208 831.89 191.312L835.218 194.384C834.151 195.685 832.828 196.677 831.25 197.36C829.692 198.043 827.932 198.384 825.97 198.384ZM850.958 198V190.928L852.238 192.048H846.094C844.153 192.048 842.478 191.728 841.07 191.088C839.662 190.448 838.585 189.52 837.838 188.304C837.092 187.088 836.718 185.637 836.718 183.952C836.718 182.203 837.113 180.709 837.902 179.472C838.713 178.213 839.844 177.253 841.294 176.592C842.745 175.931 844.452 175.6 846.414 175.6H856.078V198H850.958ZM836.782 198L842.35 189.968H847.598L842.254 198H836.782ZM850.958 189.264V178.48L852.238 179.824H846.542C845.07 179.824 843.94 180.165 843.15 180.848C842.382 181.531 841.998 182.544 841.998 183.888C841.998 185.189 842.372 186.192 843.118 186.896C843.865 187.6 844.964 187.952 846.414 187.952H852.238L850.958 189.264ZM881.345 198.384C879.617 198.384 878.006 198.107 876.513 197.552C875.041 196.976 873.761 196.165 872.673 195.12C871.585 194.075 870.731 192.848 870.113 191.44C869.515 190.032 869.217 188.485 869.217 186.8C869.217 185.115 869.515 183.568 870.113 182.16C870.731 180.752 871.585 179.525 872.673 178.48C873.782 177.435 875.073 176.635 876.545 176.08C878.017 175.504 879.627 175.216 881.377 175.216C883.318 175.216 885.067 175.557 886.625 176.24C888.203 176.901 889.526 177.883 890.593 179.184L887.265 182.256C886.497 181.381 885.643 180.731 884.705 180.304C883.766 179.856 882.742 179.632 881.633 179.632C880.587 179.632 879.627 179.803 878.753 180.144C877.878 180.485 877.121 180.976 876.481 181.616C875.841 182.256 875.339 183.013 874.977 183.888C874.635 184.763 874.465 185.733 874.465 186.8C874.465 187.867 874.635 188.837 874.977 189.712C875.339 190.587 875.841 191.344 876.481 191.984C877.121 192.624 877.878 193.115 878.753 193.456C879.627 193.797 880.587 193.968 881.633 193.968C882.742 193.968 883.766 193.755 884.705 193.328C885.643 192.88 886.497 192.208 887.265 191.312L890.593 194.384C889.526 195.685 888.203 196.677 886.625 197.36C885.067 198.043 883.307 198.384 881.345 198.384ZM903.034 198V175.6H913.466C916.069 175.6 918.095 176.101 919.546 177.104C920.997 178.107 921.722 179.536 921.722 181.392C921.722 183.227 921.039 184.656 919.674 185.68C918.309 186.683 916.495 187.184 914.234 187.184L914.842 185.84C917.359 185.84 919.311 186.341 920.698 187.344C922.085 188.347 922.778 189.797 922.778 191.696C922.778 193.659 922.031 195.205 920.538 196.336C919.066 197.445 916.911 198 914.074 198H903.034ZM908.186 194.16H913.882C915.077 194.16 915.983 193.925 916.602 193.456C917.221 192.987 917.53 192.261 917.53 191.28C917.53 190.341 917.221 189.648 916.602 189.2C915.983 188.731 915.077 188.496 913.882 188.496H908.186V194.16ZM908.186 184.88H913.018C914.149 184.88 915.002 184.656 915.578 184.208C916.154 183.739 916.442 183.056 916.442 182.16C916.442 181.264 916.154 180.592 915.578 180.144C915.002 179.675 914.149 179.44 913.018 179.44H908.186V184.88ZM924.35 198L934.334 175.6H939.454L949.47 198H944.03L935.838 178.224H937.886L929.662 198H924.35ZM929.342 193.2L930.718 189.264H942.238L943.646 193.2H929.342ZM952.44 198V175.6H956.728L966.264 191.408H963.992L973.368 175.6H977.656L977.688 198H972.824L972.792 183.056H973.72L966.2 195.632H963.896L956.216 183.056H957.304V198H952.44ZM983.253 198V175.6H988.405V190.192L999.093 175.6H1003.96V198H998.837V183.44L988.149 198H983.253ZM1018.6 198V175.6H1023.75V190.192L1034.44 175.6H1039.3V198H1034.18V183.44L1023.49 198H1018.6ZM502.911 232.776C504.149 233.139 505.183 233.245 506.015 233.096C506.869 232.925 507.626 232.328 508.287 231.304L509.375 229.672L509.855 229.128L517.279 214.6H522.367L512.831 232.328C511.978 233.928 510.965 235.155 509.791 236.008C508.639 236.861 507.37 237.341 505.983 237.448C504.597 237.576 503.157 237.331 501.663 236.712L502.911 232.776ZM509.759 233.448L499.647 214.6H505.183L512.607 229.64L509.759 233.448ZM529.694 237V217.64L530.878 218.824H522.558V214.6H541.982V218.824H533.662L534.814 217.64V237H529.694ZM555.645 237.384C553.874 237.384 552.231 237.096 550.717 236.52C549.223 235.944 547.922 235.133 546.813 234.088C545.725 233.043 544.871 231.816 544.253 230.408C543.655 229 543.357 227.464 543.357 225.8C543.357 224.136 543.655 222.6 544.253 221.192C544.871 219.784 545.735 218.557 546.845 217.512C547.954 216.467 549.255 215.656 550.749 215.08C552.242 214.504 553.863 214.216 555.613 214.216C557.383 214.216 559.005 214.504 560.477 215.08C561.97 215.656 563.261 216.467 564.349 217.512C565.458 218.557 566.322 219.784 566.941 221.192C567.559 222.579 567.869 224.115 567.869 225.8C567.869 227.464 567.559 229.011 566.941 230.44C566.322 231.848 565.458 233.075 564.349 234.12C563.261 235.144 561.97 235.944 560.477 236.52C559.005 237.096 557.394 237.384 555.645 237.384ZM555.613 232.968C556.615 232.968 557.533 232.797 558.365 232.456C559.218 232.115 559.965 231.624 560.605 230.984C561.245 230.344 561.735 229.587 562.077 228.712C562.439 227.837 562.621 226.867 562.621 225.8C562.621 224.733 562.439 223.763 562.077 222.888C561.735 222.013 561.245 221.256 560.605 220.616C559.986 219.976 559.25 219.485 558.397 219.144C557.543 218.803 556.615 218.632 555.613 218.632C554.61 218.632 553.682 218.803 552.829 219.144C551.997 219.485 551.261 219.976 550.621 220.616C549.981 221.256 549.479 222.013 549.117 222.888C548.775 223.763 548.605 224.733 548.605 225.8C548.605 226.845 548.775 227.816 549.117 228.712C549.479 229.587 549.97 230.344 550.589 230.984C551.229 231.624 551.975 232.115 552.829 232.456C553.682 232.797 554.61 232.968 555.613 232.968ZM585.409 228.648C584.3 229.096 583.233 229.437 582.209 229.672C581.185 229.885 580.204 229.992 579.265 229.992C576.257 229.992 573.953 229.277 572.353 227.848C570.753 226.397 569.953 224.317 569.953 221.608V214.6H575.073V221.032C575.073 222.568 575.489 223.731 576.321 224.52C577.153 225.288 578.337 225.672 579.873 225.672C580.855 225.672 581.804 225.565 582.721 225.352C583.639 225.117 584.492 224.787 585.281 224.36L585.409 228.648ZM584.673 237V214.6H589.793V237H584.673ZM610.722 214.6H615.906V237H610.722V214.6ZM600.546 237H595.362V214.6H600.546V237ZM611.106 227.816H600.162V223.432H611.106V227.816ZM634.286 237V229.928L635.566 231.048H629.422C627.481 231.048 625.806 230.728 624.398 230.088C622.99 229.448 621.913 228.52 621.166 227.304C620.42 226.088 620.046 224.637 620.046 222.952C620.046 221.203 620.441 219.709 621.23 218.472C622.041 217.213 623.172 216.253 624.622 215.592C626.073 214.931 627.78 214.6 629.742 214.6H639.406V237H634.286ZM620.11 237L625.678 228.968H630.926L625.582 237H620.11ZM634.286 228.264V217.48L635.566 218.824H629.87C628.398 218.824 627.268 219.165 626.478 219.848C625.71 220.531 625.326 221.544 625.326 222.888C625.326 224.189 625.7 225.192 626.446 225.896C627.193 226.6 628.292 226.952 629.742 226.952H635.566L634.286 228.264ZM649.786 223.624H660.57V227.656H649.786V223.624ZM650.17 232.84H662.362V237H645.018V214.6H661.946V218.76H650.17V232.84ZM666.55 237V214.6H670.838L680.374 230.408H678.102L687.478 214.6H691.766L691.798 237H686.934L686.902 222.056H687.83L680.31 234.632H678.006L670.326 222.056H671.414V237H666.55ZM706.425 237V214.6H716.857C719.459 214.6 721.486 215.101 722.937 216.104C724.387 217.107 725.113 218.536 725.113 220.392C725.113 222.227 724.43 223.656 723.065 224.68C721.699 225.683 719.886 226.184 717.625 226.184L718.233 224.84C720.75 224.84 722.702 225.341 724.089 226.344C725.475 227.347 726.169 228.797 726.169 230.696C726.169 232.659 725.422 234.205 723.929 235.336C722.457 236.445 720.302 237 717.465 237H706.425ZM711.577 233.16H717.273C718.467 233.16 719.374 232.925 719.993 232.456C720.611 231.987 720.921 231.261 720.921 230.28C720.921 229.341 720.611 228.648 719.993 228.2C719.374 227.731 718.467 227.496 717.273 227.496H711.577V233.16ZM711.577 223.88H716.409C717.539 223.88 718.393 223.656 718.969 223.208C719.545 222.739 719.833 222.056 719.833 221.16C719.833 220.264 719.545 219.592 718.969 219.144C718.393 218.675 717.539 218.44 716.409 218.44H711.577V223.88ZM740.86 237.384C739.132 237.384 737.522 237.107 736.028 236.552C734.556 235.976 733.276 235.165 732.188 234.12C731.1 233.075 730.247 231.848 729.628 230.44C729.031 229.032 728.732 227.485 728.732 225.8C728.732 224.115 729.031 222.568 729.628 221.16C730.247 219.752 731.1 218.525 732.188 217.48C733.298 216.435 734.588 215.635 736.06 215.08C737.532 214.504 739.143 214.216 740.892 214.216C742.834 214.216 744.583 214.557 746.14 215.24C747.719 215.901 749.042 216.883 750.108 218.184L746.78 221.256C746.012 220.381 745.159 219.731 744.22 219.304C743.282 218.856 742.258 218.632 741.148 218.632C740.103 218.632 739.143 218.803 738.268 219.144C737.394 219.485 736.636 219.976 735.996 220.616C735.356 221.256 734.855 222.013 734.492 222.888C734.151 223.763 733.98 224.733 733.98 225.8C733.98 226.867 734.151 227.837 734.492 228.712C734.855 229.587 735.356 230.344 735.996 230.984C736.636 231.624 737.394 232.115 738.268 232.456C739.143 232.797 740.103 232.968 741.148 232.968C742.258 232.968 743.282 232.755 744.22 232.328C745.159 231.88 746.012 231.208 746.78 230.312L750.108 233.384C749.042 234.685 747.719 235.677 746.14 236.36C744.583 237.043 742.823 237.384 740.86 237.384ZM758.255 223.624H769.039V227.656H758.255V223.624ZM758.639 232.84H770.831V237H753.487V214.6H770.415V218.76H758.639V232.84ZM784.081 237V214.6H804.497V237H799.345V217.64L800.529 218.824H788.049L789.233 217.64V237H784.081ZM820.77 237.384C818.999 237.384 817.356 237.096 815.842 236.52C814.348 235.944 813.047 235.133 811.938 234.088C810.85 233.043 809.996 231.816 809.378 230.408C808.78 229 808.482 227.464 808.482 225.8C808.482 224.136 808.78 222.6 809.378 221.192C809.996 219.784 810.86 218.557 811.97 217.512C813.079 216.467 814.38 215.656 815.874 215.08C817.367 214.504 818.988 214.216 820.738 214.216C822.508 214.216 824.13 214.504 825.602 215.08C827.095 215.656 828.386 216.467 829.474 217.512C830.583 218.557 831.447 219.784 832.066 221.192C832.684 222.579 832.994 224.115 832.994 225.8C832.994 227.464 832.684 229.011 832.066 230.44C831.447 231.848 830.583 233.075 829.474 234.12C828.386 235.144 827.095 235.944 825.602 236.52C824.13 237.096 822.519 237.384 820.77 237.384ZM820.738 232.968C821.74 232.968 822.658 232.797 823.49 232.456C824.343 232.115 825.09 231.624 825.73 230.984C826.37 230.344 826.86 229.587 827.202 228.712C827.564 227.837 827.746 226.867 827.746 225.8C827.746 224.733 827.564 223.763 827.202 222.888C826.86 222.013 826.37 221.256 825.73 220.616C825.111 219.976 824.375 219.485 823.522 219.144C822.668 218.803 821.74 218.632 820.738 218.632C819.735 218.632 818.807 218.803 817.954 219.144C817.122 219.485 816.386 219.976 815.746 220.616C815.106 221.256 814.604 222.013 814.242 222.888C813.9 223.763 813.73 224.733 813.73 225.8C813.73 226.845 813.9 227.816 814.242 228.712C814.604 229.587 815.095 230.344 815.714 230.984C816.354 231.624 817.1 232.115 817.954 232.456C818.807 232.797 819.735 232.968 820.738 232.968ZM851.21 234.696V218.824H843.53L843.434 222.088C843.37 223.475 843.274 224.787 843.146 226.024C843.039 227.261 842.869 228.392 842.634 229.416C842.399 230.419 842.09 231.272 841.706 231.976C841.343 232.68 840.885 233.181 840.33 233.48L834.794 232.776C835.562 232.797 836.191 232.531 836.682 231.976C837.194 231.421 837.599 230.643 837.898 229.64C838.197 228.616 838.41 227.421 838.538 226.056C838.687 224.691 838.794 223.208 838.858 221.608L839.114 214.6H856.33V234.696H851.21ZM834.058 241.64L834.09 232.776H859.466V241.64H854.666V237H838.858V241.64H834.058ZM862.956 237V214.6H872.652C874.657 214.6 876.385 214.931 877.836 215.592C879.287 216.232 880.407 217.16 881.196 218.376C881.985 219.592 882.38 221.043 882.38 222.728C882.38 224.392 881.985 225.832 881.196 227.048C880.407 228.264 879.287 229.203 877.836 229.864C876.385 230.504 874.657 230.824 872.652 230.824H865.836L868.14 228.488V237H862.956ZM868.14 229.064L865.836 226.6H872.364C873.964 226.6 875.159 226.259 875.948 225.576C876.737 224.893 877.132 223.944 877.132 222.728C877.132 221.491 876.737 220.531 875.948 219.848C875.159 219.165 873.964 218.824 872.364 218.824H865.836L868.14 216.36V229.064ZM896.832 237.384C895.061 237.384 893.419 237.096 891.904 236.52C890.411 235.944 889.109 235.133 888 234.088C886.912 233.043 886.059 231.816 885.44 230.408C884.843 229 884.544 227.464 884.544 225.8C884.544 224.136 884.843 222.6 885.44 221.192C886.059 219.784 886.923 218.557 888.032 217.512C889.141 216.467 890.443 215.656 891.936 215.08C893.429 214.504 895.051 214.216 896.8 214.216C898.571 214.216 900.192 214.504 901.664 215.08C903.157 215.656 904.448 216.467 905.536 217.512C906.645 218.557 907.509 219.784 908.128 221.192C908.747 222.579 909.056 224.115 909.056 225.8C909.056 227.464 908.747 229.011 908.128 230.44C907.509 231.848 906.645 233.075 905.536 234.12C904.448 235.144 903.157 235.944 901.664 236.52C900.192 237.096 898.581 237.384 896.832 237.384ZM896.8 232.968C897.803 232.968 898.72 232.797 899.552 232.456C900.405 232.115 901.152 231.624 901.792 230.984C902.432 230.344 902.923 229.587 903.264 228.712C903.627 227.837 903.808 226.867 903.808 225.8C903.808 224.733 903.627 223.763 903.264 222.888C902.923 222.013 902.432 221.256 901.792 220.616C901.173 219.976 900.437 219.485 899.584 219.144C898.731 218.803 897.803 218.632 896.8 218.632C895.797 218.632 894.869 218.803 894.016 219.144C893.184 219.485 892.448 219.976 891.808 220.616C891.168 221.256 890.667 222.013 890.304 222.888C889.963 223.763 889.792 224.733 889.792 225.8C889.792 226.845 889.963 227.816 890.304 228.712C890.667 229.587 891.157 230.344 891.776 230.984C892.416 231.624 893.163 232.115 894.016 232.456C894.869 232.797 895.797 232.968 896.8 232.968ZM913.05 237V214.6H931.13V218.728H918.202V223.336H924.41C927.119 223.336 929.178 223.901 930.586 225.032C932.015 226.163 932.73 227.805 932.73 229.96C932.73 232.179 931.94 233.907 930.362 235.144C928.783 236.381 926.554 237 923.674 237H913.05ZM918.202 233.16H923.386C924.708 233.16 925.722 232.904 926.426 232.392C927.13 231.859 927.482 231.091 927.482 230.088C927.482 228.125 926.116 227.144 923.386 227.144H918.202V233.16ZM952.035 214.6H957.219V237H952.035V214.6ZM941.859 237H936.675V214.6H941.859V237ZM952.419 227.816H941.475V223.432H952.419V227.816ZM973.551 237.384C971.78 237.384 970.138 237.096 968.623 236.52C967.13 235.944 965.828 235.133 964.719 234.088C963.631 233.043 962.778 231.816 962.159 230.408C961.562 229 961.263 227.464 961.263 225.8C961.263 224.136 961.562 222.6 962.159 221.192C962.778 219.784 963.642 218.557 964.751 217.512C965.86 216.467 967.162 215.656 968.655 215.08C970.148 214.504 971.77 214.216 973.519 214.216C975.29 214.216 976.911 214.504 978.383 215.08C979.876 215.656 981.167 216.467 982.255 217.512C983.364 218.557 984.228 219.784 984.847 221.192C985.466 222.579 985.775 224.115 985.775 225.8C985.775 227.464 985.466 229.011 984.847 230.44C984.228 231.848 983.364 233.075 982.255 234.12C981.167 235.144 979.876 235.944 978.383 236.52C976.911 237.096 975.3 237.384 973.551 237.384ZM973.519 232.968C974.522 232.968 975.439 232.797 976.271 232.456C977.124 232.115 977.871 231.624 978.511 230.984C979.151 230.344 979.642 229.587 979.983 228.712C980.346 227.837 980.527 226.867 980.527 225.8C980.527 224.733 980.346 223.763 979.983 222.888C979.642 222.013 979.151 221.256 978.511 220.616C977.892 219.976 977.156 219.485 976.303 219.144C975.45 218.803 974.522 218.632 973.519 218.632C972.516 218.632 971.588 218.803 970.735 219.144C969.903 219.485 969.167 219.976 968.527 220.616C967.887 221.256 967.386 222.013 967.023 222.888C966.682 223.763 966.511 224.733 966.511 225.8C966.511 226.845 966.682 227.816 967.023 228.712C967.386 229.587 967.876 230.344 968.495 230.984C969.135 231.624 969.882 232.115 970.735 232.456C971.588 232.797 972.516 232.968 973.519 232.968ZM1000.36 237.384C998.632 237.384 997.022 237.107 995.528 236.552C994.056 235.976 992.776 235.165 991.688 234.12C990.6 233.075 989.747 231.848 989.128 230.44C988.531 229.032 988.232 227.485 988.232 225.8C988.232 224.115 988.531 222.568 989.128 221.16C989.747 219.752 990.6 218.525 991.688 217.48C992.798 216.435 994.088 215.635 995.56 215.08C997.032 214.504 998.643 214.216 1000.39 214.216C1002.33 214.216 1004.08 214.557 1005.64 215.24C1007.22 215.901 1008.54 216.883 1009.61 218.184L1006.28 221.256C1005.51 220.381 1004.66 219.731 1003.72 219.304C1002.78 218.856 1001.76 218.632 1000.65 218.632C999.603 218.632 998.643 218.803 997.768 219.144C996.894 219.485 996.136 219.976 995.496 220.616C994.856 221.256 994.355 222.013 993.992 222.888C993.651 223.763 993.48 224.733 993.48 225.8C993.48 226.867 993.651 227.837 993.992 228.712C994.355 229.587 994.856 230.344 995.496 230.984C996.136 231.624 996.894 232.115 997.768 232.456C998.643 232.797 999.603 232.968 1000.65 232.968C1001.76 232.968 1002.78 232.755 1003.72 232.328C1004.66 231.88 1005.51 231.208 1006.28 230.312L1009.61 233.384C1008.54 234.685 1007.22 235.677 1005.64 236.36C1004.08 237.043 1002.32 237.384 1000.36 237.384ZM1017.6 237V217.64L1018.78 218.824H1010.46V214.6H1029.89V218.824H1021.57L1022.72 217.64V237H1017.6ZM1033.14 237V214.6H1038.3V229.192L1048.98 214.6H1053.85V237H1048.73V222.44L1038.04 237H1033.14Z" fill="white"/>
<rect x="4" y="4" width="402" height="115" rx="57.5" stroke="#008DDE" stroke-width="8"/>
<path d="M47.0809 58V35.6H57.5129C60.1155 35.6 62.1422 36.1013 63.5929 37.104C65.0435 38.1067 65.7689 39.536 65.7689 41.392C65.7689 43.2267 65.0862 44.656 63.7209 45.68C62.3555 46.6827 60.5422 47.184 58.2809 47.184L58.8889 45.84C61.4062 45.84 63.3582 46.3413 64.7449 47.344C66.1315 48.3467 66.8249 49.7973 66.8249 51.696C66.8249 53.6587 66.0782 55.2053 64.5849 56.336C63.1129 57.4453 60.9582 58 58.1209 58H47.0809ZM52.2329 54.16H57.9289C59.1235 54.16 60.0302 53.9253 60.6489 53.456C61.2675 52.9867 61.5769 52.2613 61.5769 51.28C61.5769 50.3413 61.2675 49.648 60.6489 49.2C60.0302 48.7307 59.1235 48.496 57.9289 48.496H52.2329V54.16ZM52.2329 44.88H57.0649C58.1955 44.88 59.0489 44.656 59.6249 44.208C60.2009 43.7387 60.4889 43.056 60.4889 42.16C60.4889 41.264 60.2009 40.592 59.6249 40.144C59.0489 39.6747 58.1955 39.44 57.0649 39.44H52.2329V44.88ZM81.7726 42.96C84.482 42.96 86.5726 43.568 88.0446 44.784C89.5166 45.9787 90.2526 47.7813 90.2526 50.192C90.2526 52.752 89.4313 54.6933 87.7886 56.016C86.1673 57.3387 83.9166 58 81.0366 58H70.9246V35.6H76.0766V42.96H81.7726ZM80.7486 54.16C82.0713 54.16 83.1166 53.8293 83.8846 53.168C84.6526 52.5067 85.0366 51.5467 85.0366 50.288C85.0366 49.0507 84.6526 48.1653 83.8846 47.632C83.138 47.0773 82.0926 46.8 80.7486 46.8H76.0766V54.16H80.7486ZM93.1006 58V35.6H98.2526V58H93.1006ZM123.613 58.384C121.843 58.384 120.2 58.096 118.685 57.52C117.192 56.944 115.891 56.1333 114.781 55.088C113.693 54.0427 112.84 52.816 112.221 51.408C111.624 50 111.325 48.464 111.325 46.8C111.325 45.136 111.624 43.6 112.221 42.192C112.84 40.784 113.704 39.5573 114.813 38.512C115.923 37.4667 117.224 36.656 118.717 36.08C120.211 35.504 121.832 35.216 123.581 35.216C125.352 35.216 126.973 35.504 128.445 36.08C129.939 36.656 131.229 37.4667 132.317 38.512C133.427 39.5573 134.291 40.784 134.909 42.192C135.528 43.5787 135.837 45.1147 135.837 46.8C135.837 48.464 135.528 50.0107 134.909 51.44C134.291 52.848 133.427 54.0747 132.317 55.12C131.229 56.144 129.939 56.944 128.445 57.52C126.973 58.096 125.363 58.384 123.613 58.384ZM123.581 53.968C124.584 53.968 125.501 53.7973 126.333 53.456C127.187 53.1147 127.933 52.624 128.573 51.984C129.213 51.344 129.704 50.5867 130.045 49.712C130.408 48.8373 130.589 47.8667 130.589 46.8C130.589 45.7333 130.408 44.7627 130.045 43.888C129.704 43.0133 129.213 42.256 128.573 41.616C127.955 40.976 127.219 40.4853 126.365 40.144C125.512 39.8027 124.584 39.632 123.581 39.632C122.579 39.632 121.651 39.8027 120.797 40.144C119.965 40.4853 119.229 40.976 118.589 41.616C117.949 42.256 117.448 43.0133 117.085 43.888C116.744 44.7627 116.573 45.7333 116.573 46.8C116.573 47.8453 116.744 48.816 117.085 49.712C117.448 50.5867 117.939 51.344 118.557 51.984C119.197 52.624 119.944 53.1147 120.797 53.456C121.651 53.7973 122.579 53.968 123.581 53.968ZM144.35 58V38.64L145.534 39.824H137.214V35.6H156.638V39.824H148.318L149.47 38.64V58H144.35ZM159.893 58V35.6H180.309V58H175.157V38.64L176.341 39.824H163.861L165.045 38.64V58H159.893ZM185.862 58V35.6H195.558C197.563 35.6 199.291 35.9307 200.742 36.592C202.193 37.232 203.313 38.16 204.102 39.376C204.891 40.592 205.286 42.0427 205.286 43.728C205.286 45.392 204.891 46.832 204.102 48.048C203.313 49.264 202.193 50.2027 200.742 50.864C199.291 51.504 197.563 51.824 195.558 51.824H188.742L191.046 49.488V58H185.862ZM191.046 50.064L188.742 47.6H195.27C196.87 47.6 198.065 47.2587 198.854 46.576C199.643 45.8933 200.038 44.944 200.038 43.728C200.038 42.4907 199.643 41.5307 198.854 40.848C198.065 40.1653 196.87 39.824 195.27 39.824H188.742L191.046 37.36V50.064ZM205.053 58L215.037 35.6H220.157L230.173 58H224.733L216.541 38.224H218.589L210.365 58H205.053ZM210.045 53.2L211.421 49.264H222.941L224.349 53.2H210.045ZM233.143 58V35.6H243.575C246.178 35.6 248.205 36.1013 249.655 37.104C251.106 38.1067 251.831 39.536 251.831 41.392C251.831 43.2267 251.149 44.656 249.783 45.68C248.418 46.6827 246.605 47.184 244.343 47.184L244.951 45.84C247.469 45.84 249.421 46.3413 250.807 47.344C252.194 48.3467 252.887 49.7973 252.887 51.696C252.887 53.6587 252.141 55.2053 250.647 56.336C249.175 57.4453 247.021 58 244.183 58H233.143ZM238.295 54.16H243.991C245.186 54.16 246.093 53.9253 246.711 53.456C247.33 52.9867 247.639 52.2613 247.639 51.28C247.639 50.3413 247.33 49.648 246.711 49.2C246.093 48.7307 245.186 48.496 243.991 48.496H238.295V54.16ZM238.295 44.88H243.127C244.258 44.88 245.111 44.656 245.687 44.208C246.263 43.7387 246.551 43.056 246.551 42.16C246.551 41.264 246.263 40.592 245.687 40.144C245.111 39.6747 244.258 39.44 243.127 39.44H238.295V44.88ZM257.211 58.352C256.827 58.352 256.422 58.32 255.995 58.256C255.59 58.192 255.142 58.1067 254.651 58L254.971 53.616C255.27 53.7013 255.579 53.744 255.899 53.744C256.774 53.744 257.456 53.392 257.947 52.688C258.438 51.9627 258.79 50.928 259.003 49.584C259.216 48.24 259.355 46.608 259.419 44.688L259.739 35.6H276.955V58H271.835V38.64L273.019 39.824H263.131L264.187 38.576L263.995 44.496C263.931 46.6933 263.782 48.6453 263.547 50.352C263.312 52.0587 262.95 53.5093 262.459 54.704C261.968 55.8987 261.296 56.8053 260.443 57.424C259.59 58.0427 258.512 58.352 257.211 58.352ZM295.318 58V50.928L296.598 52.048H290.454C288.512 52.048 286.838 51.728 285.43 51.088C284.022 50.448 282.944 49.52 282.198 48.304C281.451 47.088 281.078 45.6373 281.078 43.952C281.078 42.2027 281.472 40.7093 282.262 39.472C283.072 38.2133 284.203 37.2533 285.654 36.592C287.104 35.9307 288.811 35.6 290.774 35.6H300.438V58H295.318ZM281.142 58L286.71 49.968H291.958L286.614 58H281.142ZM295.318 49.264V38.48L296.598 39.824H290.902C289.43 39.824 288.299 40.1653 287.51 40.848C286.742 41.5307 286.358 42.544 286.358 43.888C286.358 45.1893 286.731 46.192 287.478 46.896C288.224 47.6 289.323 47.952 290.774 47.952H296.598L295.318 49.264ZM310.818 44.624H321.602V48.656H310.818V44.624ZM311.202 53.84H323.394V58H306.05V35.6H322.978V39.76H311.202V53.84ZM332.413 58V38.64L333.597 39.824H325.277V35.6H344.701V39.824H336.381L337.533 38.64V58H332.413ZM352.724 44.624H363.508V48.656H352.724V44.624ZM353.108 53.84H365.3V58H347.956V35.6H364.884V39.76H353.108V53.84ZM136.737 95.016L138.337 91.304C139.297 91.88 140.321 92.328 141.409 92.648C142.518 92.9467 143.595 93.1173 144.641 93.16C145.707 93.1813 146.667 93.0747 147.521 92.84C148.395 92.6053 149.089 92.2533 149.601 91.784C150.134 91.3147 150.401 90.7173 150.401 89.992C150.401 89.1387 150.049 88.5093 149.345 88.104C148.641 87.6773 147.702 87.464 146.529 87.464H141.057V83.56H146.145C147.19 83.56 148.001 83.3467 148.577 82.92C149.174 82.4933 149.473 81.9067 149.473 81.16C149.473 80.52 149.259 80.008 148.833 79.624C148.406 79.2187 147.819 78.92 147.073 78.728C146.347 78.536 145.526 78.4507 144.609 78.472C143.691 78.4933 142.742 78.6427 141.761 78.92C140.779 79.1973 139.841 79.5813 138.945 80.072L137.377 76.072C138.827 75.3253 140.353 74.8133 141.953 74.536C143.574 74.2373 145.131 74.1627 146.625 74.312C148.139 74.44 149.505 74.7813 150.721 75.336C151.937 75.8693 152.907 76.5733 153.633 77.448C154.358 78.3227 154.721 79.3573 154.721 80.552C154.721 81.6187 154.443 82.568 153.889 83.4C153.334 84.232 152.555 84.872 151.553 85.32C150.571 85.768 149.441 85.992 148.161 85.992L148.289 84.84C149.782 84.84 151.073 85.096 152.161 85.608C153.27 86.0987 154.123 86.792 154.721 87.688C155.339 88.5627 155.649 89.576 155.649 90.728C155.649 91.7947 155.361 92.7547 154.785 93.608C154.23 94.44 153.462 95.144 152.481 95.72C151.499 96.296 150.379 96.7227 149.121 97C147.862 97.2773 146.518 97.3947 145.089 97.352C143.681 97.3093 142.262 97.1067 140.833 96.744C139.403 96.36 138.038 95.784 136.737 95.016ZM157.225 97L167.209 74.6H172.329L182.345 97H176.905L168.713 77.224H170.761L162.537 97H157.225ZM162.217 92.2L163.593 88.264H175.113L176.521 92.2H162.217ZM196.896 97V89.928L198.176 91.048H192.032C190.09 91.048 188.416 90.728 187.008 90.088C185.6 89.448 184.522 88.52 183.776 87.304C183.029 86.088 182.656 84.6373 182.656 82.952C182.656 81.2027 183.05 79.7093 183.84 78.472C184.65 77.2133 185.781 76.2533 187.232 75.592C188.682 74.9307 190.389 74.6 192.352 74.6H202.016V97H196.896ZM182.72 97L188.288 88.968H193.536L188.192 97H182.72ZM196.896 88.264V77.48L198.176 78.824H192.48C191.008 78.824 189.877 79.1653 189.088 79.848C188.32 80.5307 187.936 81.544 187.936 82.888C187.936 84.1893 188.309 85.192 189.056 85.896C189.802 86.6 190.901 86.952 192.352 86.952H198.176L196.896 88.264ZM207.628 97V74.6H218.06C220.662 74.6 222.689 75.1013 224.14 76.104C225.59 77.1067 226.316 78.536 226.316 80.392C226.316 82.2267 225.633 83.656 224.268 84.68C222.902 85.6827 221.089 86.184 218.828 86.184L219.436 84.84C221.953 84.84 223.905 85.3413 225.292 86.344C226.678 87.3467 227.372 88.7973 227.372 90.696C227.372 92.6587 226.625 94.2053 225.132 95.336C223.66 96.4453 221.505 97 218.668 97H207.628ZM212.78 93.16H218.476C219.67 93.16 220.577 92.9253 221.196 92.456C221.814 91.9867 222.124 91.2613 222.124 90.28C222.124 89.3413 221.814 88.648 221.196 88.2C220.577 87.7307 219.67 87.496 218.476 87.496H212.78V93.16ZM212.78 83.88H217.612C218.742 83.88 219.596 83.656 220.172 83.208C220.748 82.7387 221.036 82.056 221.036 81.16C221.036 80.264 220.748 79.592 220.172 79.144C219.596 78.6747 218.742 78.44 217.612 78.44H212.78V83.88ZM245.968 97L238.992 86.216L243.184 83.688L251.856 97H245.968ZM231.408 97V74.6H236.56V97H231.408ZM235.056 87.976V83.656H242.864V87.976H235.056ZM243.664 86.376L238.896 85.8L246.16 74.6H251.632L243.664 86.376ZM255.427 92.776C256.664 93.1387 257.699 93.2453 258.531 93.096C259.384 92.9253 260.142 92.328 260.803 91.304L261.891 89.672L262.371 89.128L269.795 74.6H274.883L265.347 92.328C264.494 93.928 263.48 95.1547 262.307 96.008C261.155 96.8613 259.886 97.3413 258.499 97.448C257.112 97.576 255.672 97.3307 254.179 96.712L255.427 92.776ZM262.275 93.448L252.163 74.6H257.699L265.123 89.64L262.275 93.448Z" fill="white"/>
</g>
<defs>
<clipPath id="clip0_41_391">
<rect width="1255" height="310" fill="white"/>
</clipPath>
</defs>
</svg>
