<svg width="379" height="553" viewBox="0 0 379 553" fill="none" xmlns="http://www.w3.org/2000/svg">
<rect x="79.475" y="1.475" width="192.05" height="53.05" rx="26.525" stroke="#008DDE" stroke-width="2.95"/>
<rect x="51.475" y="95.475" width="303.05" height="50.05" rx="25.025" stroke="#008DDE" stroke-width="2.95"/>
<rect x="135.475" y="328.475" width="232.05" height="42.05" rx="21.025" stroke="#008DDE" stroke-width="2.95"/>
<rect x="13.475" y="414.475" width="123.05" height="43.05" rx="21.525" stroke="#008DDE" stroke-width="2.95"/>
<rect x="189.475" y="509.475" width="132.05" height="42.05" rx="21.025" stroke="#008DDE" stroke-width="2.95"/>
<rect x="1.475" y="194.475" width="360.05" height="89.05" rx="44.525" stroke="#008DDE" stroke-width="2.95"/>
<path d="M176 56V59.3013C176 67.4475 182.604 74.0513 190.75 74.0513H192.25C200.396 74.0513 207 80.6551 207 88.8013V94" stroke="#008CDA" stroke-width="2.95"/>
<path d="M207 147V155.481C207 163.627 200.396 170.231 192.25 170.231H92.75C84.6038 170.231 78 176.835 78 184.981V193" stroke="#008CDA" stroke-width="2.95"/>
<path d="M255 371V380.55C255 388.696 248.396 395.3 240.25 395.3H90.75C82.6038 395.3 76 401.904 76 410.05L76 414" stroke="#008CDA" stroke-width="2.95"/>
<path d="M76 459V465.698C76 473.844 82.6038 480.448 90.75 480.448H241.25C249.396 480.448 256 487.052 256 495.198L256 508" stroke="#008CDA" stroke-width="2.95"/>
<path d="M183 285V290.328C183 298.474 189.604 305.078 197.75 305.078H240.25C248.396 305.078 255 311.682 255 319.828L255 327" stroke="#008CDA" stroke-width="2.95"/>
<path d="M101.741 24V13.5H106.631C107.851 13.5 108.801 13.735 109.481 14.205C110.161 14.675 110.501 15.345 110.501 16.215C110.501 17.075 110.181 17.745 109.541 18.225C108.901 18.695 108.051 18.93 106.991 18.93L107.276 18.3C108.456 18.3 109.371 18.535 110.021 19.005C110.671 19.475 110.996 20.155 110.996 21.045C110.996 21.965 110.646 22.69 109.946 23.22C109.256 23.74 108.246 24 106.916 24H101.741ZM104.156 22.2H106.826C107.386 22.2 107.811 22.09 108.101 21.87C108.391 21.65 108.536 21.31 108.536 20.85C108.536 20.41 108.391 20.085 108.101 19.875C107.811 19.655 107.386 19.545 106.826 19.545H104.156V22.2ZM104.156 17.85H106.421C106.951 17.85 107.351 17.745 107.621 17.535C107.891 17.315 108.026 16.995 108.026 16.575C108.026 16.155 107.891 15.84 107.621 15.63C107.351 15.41 106.951 15.3 106.421 15.3H104.156V17.85ZM118.003 16.95C119.273 16.95 120.253 17.235 120.943 17.805C121.633 18.365 121.978 19.21 121.978 20.34C121.978 21.54 121.593 22.45 120.823 23.07C120.063 23.69 119.008 24 117.658 24H112.918V13.5H115.333V16.95H118.003ZM117.523 22.2C118.143 22.2 118.633 22.045 118.993 21.735C119.353 21.425 119.533 20.975 119.533 20.385C119.533 19.805 119.353 19.39 118.993 19.14C118.643 18.88 118.153 18.75 117.523 18.75H115.333V22.2H117.523ZM123.313 24V13.5H125.728V24H123.313ZM137.616 24.18C136.786 24.18 136.016 24.045 135.306 23.775C134.606 23.505 133.996 23.125 133.476 22.635C132.966 22.145 132.566 21.57 132.276 20.91C131.996 20.25 131.856 19.53 131.856 18.75C131.856 17.97 131.996 17.25 132.276 16.59C132.566 15.93 132.971 15.355 133.491 14.865C134.011 14.375 134.621 13.995 135.321 13.725C136.021 13.455 136.781 13.32 137.601 13.32C138.431 13.32 139.191 13.455 139.881 13.725C140.581 13.995 141.186 14.375 141.696 14.865C142.216 15.355 142.621 15.93 142.911 16.59C143.201 17.24 143.346 17.96 143.346 18.75C143.346 19.53 143.201 20.255 142.911 20.925C142.621 21.585 142.216 22.16 141.696 22.65C141.186 23.13 140.581 23.505 139.881 23.775C139.191 24.045 138.436 24.18 137.616 24.18ZM137.601 22.11C138.071 22.11 138.501 22.03 138.891 21.87C139.291 21.71 139.641 21.48 139.941 21.18C140.241 20.88 140.471 20.525 140.631 20.115C140.801 19.705 140.886 19.25 140.886 18.75C140.886 18.25 140.801 17.795 140.631 17.385C140.471 16.975 140.241 16.62 139.941 16.32C139.651 16.02 139.306 15.79 138.906 15.63C138.506 15.47 138.071 15.39 137.601 15.39C137.131 15.39 136.696 15.47 136.296 15.63C135.906 15.79 135.561 16.02 135.261 16.32C134.961 16.62 134.726 16.975 134.556 17.385C134.396 17.795 134.316 18.25 134.316 18.75C134.316 19.24 134.396 19.695 134.556 20.115C134.726 20.525 134.956 20.88 135.246 21.18C135.546 21.48 135.896 21.71 136.296 21.87C136.696 22.03 137.131 22.11 137.601 22.11ZM147.336 24V14.925L147.891 15.48H143.991V13.5H153.096V15.48H149.196L149.736 14.925V24H147.336ZM154.622 24V13.5H164.192V24H161.777V14.925L162.332 15.48H156.482L157.037 14.925V24H154.622ZM166.795 24V13.5H171.34C172.28 13.5 173.09 13.655 173.77 13.965C174.45 14.265 174.975 14.7 175.345 15.27C175.715 15.84 175.9 16.52 175.9 17.31C175.9 18.09 175.715 18.765 175.345 19.335C174.975 19.905 174.45 20.345 173.77 20.655C173.09 20.955 172.28 21.105 171.34 21.105H168.145L169.225 20.01V24H166.795ZM169.225 20.28L168.145 19.125H171.205C171.955 19.125 172.515 18.965 172.885 18.645C173.255 18.325 173.44 17.88 173.44 17.31C173.44 16.73 173.255 16.28 172.885 15.96C172.515 15.64 171.955 15.48 171.205 15.48H168.145L169.225 14.325V20.28ZM175.79 24L180.47 13.5H182.87L187.565 24H185.015L181.175 14.73H182.135L178.28 24H175.79ZM178.13 21.75L178.775 19.905H184.175L184.835 21.75H178.13ZM188.958 24V13.5H193.848C195.068 13.5 196.018 13.735 196.698 14.205C197.378 14.675 197.718 15.345 197.718 16.215C197.718 17.075 197.398 17.745 196.758 18.225C196.118 18.695 195.268 18.93 194.208 18.93L194.493 18.3C195.673 18.3 196.588 18.535 197.238 19.005C197.888 19.475 198.213 20.155 198.213 21.045C198.213 21.965 197.863 22.69 197.163 23.22C196.473 23.74 195.463 24 194.133 24H188.958ZM191.373 22.2H194.043C194.603 22.2 195.028 22.09 195.318 21.87C195.608 21.65 195.753 21.31 195.753 20.85C195.753 20.41 195.608 20.085 195.318 19.875C195.028 19.655 194.603 19.545 194.043 19.545H191.373V22.2ZM191.373 17.85H193.638C194.168 17.85 194.568 17.745 194.838 17.535C195.108 17.315 195.243 16.995 195.243 16.575C195.243 16.155 195.108 15.84 194.838 15.63C194.568 15.41 194.168 15.3 193.638 15.3H191.373V17.85ZM200.24 24.165C200.06 24.165 199.87 24.15 199.67 24.12C199.48 24.09 199.27 24.05 199.04 24L199.19 21.945C199.33 21.985 199.475 22.005 199.625 22.005C200.035 22.005 200.355 21.84 200.585 21.51C200.815 21.17 200.98 20.685 201.08 20.055C201.18 19.425 201.245 18.66 201.275 17.76L201.425 13.5H209.495V24H207.095V14.925L207.65 15.48H203.015L203.51 14.895L203.42 17.67C203.39 18.7 203.32 19.615 203.21 20.415C203.1 21.215 202.93 21.895 202.7 22.455C202.47 23.015 202.155 23.44 201.755 23.73C201.355 24.02 200.85 24.165 200.24 24.165ZM218.102 24V20.685L218.702 21.21H215.822C214.912 21.21 214.127 21.06 213.467 20.76C212.807 20.46 212.302 20.025 211.952 19.455C211.602 18.885 211.427 18.205 211.427 17.415C211.427 16.595 211.612 15.895 211.982 15.315C212.362 14.725 212.892 14.275 213.572 13.965C214.252 13.655 215.052 13.5 215.972 13.5H220.502V24H218.102ZM211.457 24L214.067 20.235H216.527L214.022 24H211.457ZM218.102 19.905V14.85L218.702 15.48H216.032C215.342 15.48 214.812 15.64 214.442 15.96C214.082 16.28 213.902 16.755 213.902 17.385C213.902 17.995 214.077 18.465 214.427 18.795C214.777 19.125 215.292 19.29 215.972 19.29H218.702L218.102 19.905ZM225.368 17.73H230.423V19.62H225.368V17.73ZM225.548 22.05H231.263V24H223.133V13.5H231.068V15.45H225.548V22.05ZM235.49 24V14.925L236.045 15.48H232.145V13.5H241.25V15.48H237.35L237.89 14.925V24H235.49ZM245.011 17.73H250.066V19.62H245.011V17.73ZM245.191 22.05H250.906V24H242.776V13.5H250.711V15.45H245.191V22.05ZM143.767 41.07L144.517 39.33C144.967 39.6 145.447 39.81 145.957 39.96C146.477 40.1 146.982 40.18 147.472 40.2C147.972 40.21 148.422 40.16 148.822 40.05C149.232 39.94 149.557 39.775 149.797 39.555C150.047 39.335 150.172 39.055 150.172 38.715C150.172 38.315 150.007 38.02 149.677 37.83C149.347 37.63 148.907 37.53 148.357 37.53H145.792V35.7H148.177C148.667 35.7 149.047 35.6 149.317 35.4C149.597 35.2 149.737 34.925 149.737 34.575C149.737 34.275 149.637 34.035 149.437 33.855C149.237 33.665 148.962 33.525 148.612 33.435C148.272 33.345 147.887 33.305 147.457 33.315C147.027 33.325 146.582 33.395 146.122 33.525C145.662 33.655 145.222 33.835 144.802 34.065L144.067 32.19C144.747 31.84 145.462 31.6 146.212 31.47C146.972 31.33 147.702 31.295 148.402 31.365C149.112 31.425 149.752 31.585 150.322 31.845C150.892 32.095 151.347 32.425 151.687 32.835C152.027 33.245 152.197 33.73 152.197 34.29C152.197 34.79 152.067 35.235 151.807 35.625C151.547 36.015 151.182 36.315 150.712 36.525C150.252 36.735 149.722 36.84 149.122 36.84L149.182 36.3C149.882 36.3 150.487 36.42 150.997 36.66C151.517 36.89 151.917 37.215 152.197 37.635C152.487 38.045 152.632 38.52 152.632 39.06C152.632 39.56 152.497 40.01 152.227 40.41C151.967 40.8 151.607 41.13 151.147 41.4C150.687 41.67 150.162 41.87 149.572 42C148.982 42.13 148.352 42.185 147.682 42.165C147.022 42.145 146.357 42.05 145.687 41.88C145.017 41.7 144.377 41.43 143.767 41.07ZM153.371 42L158.051 31.5H160.451L165.146 42H162.596L158.756 32.73H159.716L155.861 42H153.371ZM155.711 39.75L156.356 37.905H161.756L162.416 39.75H155.711ZM171.967 42V38.685L172.567 39.21H169.687C168.777 39.21 167.992 39.06 167.332 38.76C166.672 38.46 166.167 38.025 165.817 37.455C165.467 36.885 165.292 36.205 165.292 35.415C165.292 34.595 165.477 33.895 165.847 33.315C166.227 32.725 166.757 32.275 167.437 31.965C168.117 31.655 168.917 31.5 169.837 31.5H174.367V42H171.967ZM165.322 42L167.932 38.235H170.392L167.887 42H165.322ZM171.967 37.905V32.85L172.567 33.48H169.897C169.207 33.48 168.677 33.64 168.307 33.96C167.947 34.28 167.767 34.755 167.767 35.385C167.767 35.995 167.942 36.465 168.292 36.795C168.642 37.125 169.157 37.29 169.837 37.29H172.567L171.967 37.905ZM176.997 42V31.5H181.887C183.107 31.5 184.057 31.735 184.737 32.205C185.417 32.675 185.757 33.345 185.757 34.215C185.757 35.075 185.437 35.745 184.797 36.225C184.157 36.695 183.307 36.93 182.247 36.93L182.532 36.3C183.712 36.3 184.627 36.535 185.277 37.005C185.927 37.475 186.252 38.155 186.252 39.045C186.252 39.965 185.902 40.69 185.202 41.22C184.512 41.74 183.502 42 182.172 42H176.997ZM179.412 40.2H182.082C182.642 40.2 183.067 40.09 183.357 39.87C183.647 39.65 183.792 39.31 183.792 38.85C183.792 38.41 183.647 38.085 183.357 37.875C183.067 37.655 182.642 37.545 182.082 37.545H179.412V40.2ZM179.412 35.85H181.677C182.207 35.85 182.607 35.745 182.877 35.535C183.147 35.315 183.282 34.995 183.282 34.575C183.282 34.155 183.147 33.84 182.877 33.63C182.607 33.41 182.207 33.3 181.677 33.3H179.412V35.85ZM194.969 42L191.699 36.945L193.664 35.76L197.729 42H194.969ZM188.144 42V31.5H190.559V42H188.144ZM189.854 37.77V35.745H193.514V37.77H189.854ZM193.889 37.02L191.654 36.75L195.059 31.5H197.624L193.889 37.02ZM199.403 40.02C199.983 40.19 200.468 40.24 200.858 40.17C201.258 40.09 201.613 39.81 201.923 39.33L202.433 38.565L202.658 38.31L206.138 31.5H208.523L204.053 39.81C203.653 40.56 203.178 41.135 202.628 41.535C202.088 41.935 201.493 42.16 200.843 42.21C200.193 42.27 199.518 42.155 198.818 41.865L199.403 40.02ZM202.613 40.335L197.873 31.5H200.468L203.948 38.55L202.613 40.335Z" fill="white"/>
<path d="M81.5111 117V106.5H83.5211L87.9911 113.91H86.9261L91.3211 106.5H93.3311L93.3461 117H91.0661L91.0511 109.995H91.4861L87.9611 115.89H86.8811L83.2811 109.995H83.7911V117H81.5111ZM101.039 109.95C102.309 109.95 103.289 110.235 103.979 110.805C104.669 111.365 105.014 112.21 105.014 113.34C105.014 114.54 104.629 115.45 103.859 116.07C103.099 116.69 102.044 117 100.694 117H95.9544V106.5H98.3694V109.95H101.039ZM100.559 115.2C101.179 115.2 101.669 115.045 102.029 114.735C102.389 114.425 102.569 113.975 102.569 113.385C102.569 112.805 102.389 112.39 102.029 112.14C101.679 111.88 101.189 111.75 100.559 111.75H98.3694V115.2H100.559ZM106.349 117V106.5H108.764V117H106.349ZM120.592 117.18C119.782 117.18 119.027 117.05 118.327 116.79C117.637 116.52 117.037 116.14 116.527 115.65C116.017 115.16 115.617 114.585 115.327 113.925C115.047 113.265 114.907 112.54 114.907 111.75C114.907 110.96 115.047 110.235 115.327 109.575C115.617 108.915 116.017 108.34 116.527 107.85C117.047 107.36 117.652 106.985 118.342 106.725C119.032 106.455 119.787 106.32 120.607 106.32C121.517 106.32 122.337 106.48 123.067 106.8C123.807 107.11 124.427 107.57 124.927 108.18L123.367 109.62C123.007 109.21 122.607 108.905 122.167 108.705C121.727 108.495 121.247 108.39 120.727 108.39C120.237 108.39 119.787 108.47 119.377 108.63C118.967 108.79 118.612 109.02 118.312 109.32C118.012 109.62 117.777 109.975 117.607 110.385C117.447 110.795 117.367 111.25 117.367 111.75C117.367 112.25 117.447 112.705 117.607 113.115C117.777 113.525 118.012 113.88 118.312 114.18C118.612 114.48 118.967 114.71 119.377 114.87C119.787 115.03 120.237 115.11 120.727 115.11C121.247 115.11 121.727 115.01 122.167 114.81C122.607 114.6 123.007 114.285 123.367 113.865L124.927 115.305C124.427 115.915 123.807 116.38 123.067 116.7C122.337 117.02 121.512 117.18 120.592 117.18ZM126.511 117V106.5H131.401C132.621 106.5 133.571 106.735 134.251 107.205C134.931 107.675 135.271 108.345 135.271 109.215C135.271 110.075 134.951 110.745 134.311 111.225C133.671 111.695 132.821 111.93 131.761 111.93L132.046 111.3C133.226 111.3 134.141 111.535 134.791 112.005C135.441 112.475 135.766 113.155 135.766 114.045C135.766 114.965 135.416 115.69 134.716 116.22C134.026 116.74 133.016 117 131.686 117H126.511ZM128.926 115.2H131.596C132.156 115.2 132.581 115.09 132.871 114.87C133.161 114.65 133.306 114.31 133.306 113.85C133.306 113.41 133.161 113.085 132.871 112.875C132.581 112.655 132.156 112.545 131.596 112.545H128.926V115.2ZM128.926 110.85H131.191C131.721 110.85 132.121 110.745 132.391 110.535C132.661 110.315 132.796 109.995 132.796 109.575C132.796 109.155 132.661 108.84 132.391 108.63C132.121 108.41 131.721 108.3 131.191 108.3H128.926V110.85ZM143.526 117V113.685L144.126 114.21H141.246C140.336 114.21 139.551 114.06 138.891 113.76C138.231 113.46 137.726 113.025 137.376 112.455C137.026 111.885 136.851 111.205 136.851 110.415C136.851 109.595 137.036 108.895 137.406 108.315C137.786 107.725 138.316 107.275 138.996 106.965C139.676 106.655 140.476 106.5 141.396 106.5H145.926V117H143.526ZM136.881 117L139.491 113.235H141.951L139.446 117H136.881ZM143.526 112.905V107.85L144.126 108.48H141.456C140.766 108.48 140.236 108.64 139.866 108.96C139.506 109.28 139.326 109.755 139.326 110.385C139.326 110.995 139.501 111.465 139.851 111.795C140.201 112.125 140.716 112.29 141.396 112.29H144.126L143.526 112.905ZM147.612 116.07L148.362 114.33C148.812 114.6 149.292 114.81 149.802 114.96C150.322 115.1 150.827 115.18 151.317 115.2C151.817 115.21 152.267 115.16 152.667 115.05C153.077 114.94 153.402 114.775 153.642 114.555C153.892 114.335 154.017 114.055 154.017 113.715C154.017 113.315 153.852 113.02 153.522 112.83C153.192 112.63 152.752 112.53 152.202 112.53H149.637V110.7H152.022C152.512 110.7 152.892 110.6 153.162 110.4C153.442 110.2 153.582 109.925 153.582 109.575C153.582 109.275 153.482 109.035 153.282 108.855C153.082 108.665 152.807 108.525 152.457 108.435C152.117 108.345 151.732 108.305 151.302 108.315C150.872 108.325 150.427 108.395 149.967 108.525C149.507 108.655 149.067 108.835 148.647 109.065L147.912 107.19C148.592 106.84 149.307 106.6 150.057 106.47C150.817 106.33 151.547 106.295 152.247 106.365C152.957 106.425 153.597 106.585 154.167 106.845C154.737 107.095 155.192 107.425 155.532 107.835C155.872 108.245 156.042 108.73 156.042 109.29C156.042 109.79 155.912 110.235 155.652 110.625C155.392 111.015 155.027 111.315 154.557 111.525C154.097 111.735 153.567 111.84 152.967 111.84L153.027 111.3C153.727 111.3 154.332 111.42 154.842 111.66C155.362 111.89 155.762 112.215 156.042 112.635C156.332 113.045 156.477 113.52 156.477 114.06C156.477 114.56 156.342 115.01 156.072 115.41C155.812 115.8 155.452 116.13 154.992 116.4C154.532 116.67 154.007 116.87 153.417 117C152.827 117.13 152.197 117.185 151.527 117.165C150.867 117.145 150.202 117.05 149.532 116.88C148.862 116.7 148.222 116.43 147.612 116.07ZM163.486 109.95C164.756 109.95 165.736 110.235 166.426 110.805C167.116 111.365 167.461 112.21 167.461 113.34C167.461 114.54 167.076 115.45 166.306 116.07C165.546 116.69 164.491 117 163.141 117H158.401V106.5H160.816V109.95H163.486ZM163.006 115.2C163.626 115.2 164.116 115.045 164.476 114.735C164.836 114.425 165.016 113.975 165.016 113.385C165.016 112.805 164.836 112.39 164.476 112.14C164.126 111.88 163.636 111.75 163.006 111.75H160.816V115.2H163.006ZM168.796 117V106.5H171.211V117H168.796ZM173.826 117V106.5H178.716C179.936 106.5 180.886 106.735 181.566 107.205C182.246 107.675 182.586 108.345 182.586 109.215C182.586 110.075 182.266 110.745 181.626 111.225C180.986 111.695 180.136 111.93 179.076 111.93L179.361 111.3C180.541 111.3 181.456 111.535 182.106 112.005C182.756 112.475 183.081 113.155 183.081 114.045C183.081 114.965 182.731 115.69 182.031 116.22C181.341 116.74 180.331 117 179.001 117H173.826ZM176.241 115.2H178.911C179.471 115.2 179.896 115.09 180.186 114.87C180.476 114.65 180.621 114.31 180.621 113.85C180.621 113.41 180.476 113.085 180.186 112.875C179.896 112.655 179.471 112.545 178.911 112.545H176.241V115.2ZM176.241 110.85H178.506C179.036 110.85 179.436 110.745 179.706 110.535C179.976 110.315 180.111 109.995 180.111 109.575C180.111 109.155 179.976 108.84 179.706 108.63C179.436 108.41 179.036 108.3 178.506 108.3H176.241V110.85ZM183.817 117L188.497 106.5H190.897L195.592 117H193.042L189.202 107.73H190.162L186.307 117H183.817ZM186.157 114.75L186.802 112.905H192.202L192.862 114.75H186.157ZM199.22 110.73H204.275V112.62H199.22V110.73ZM199.4 115.05H205.115V117H196.985V106.5H204.92V108.45H199.4V115.05ZM207.077 117V106.5H209.087L213.557 113.91H212.492L216.887 106.5H218.897L218.912 117H216.632L216.617 109.995H217.052L213.527 115.89H212.447L208.847 109.995H209.357V117H207.077ZM226.486 117.18C225.676 117.18 224.921 117.05 224.221 116.79C223.531 116.52 222.931 116.14 222.421 115.65C221.911 115.16 221.511 114.585 221.221 113.925C220.941 113.265 220.801 112.54 220.801 111.75C220.801 110.96 220.941 110.235 221.221 109.575C221.511 108.915 221.911 108.34 222.421 107.85C222.941 107.36 223.546 106.985 224.236 106.725C224.926 106.455 225.681 106.32 226.501 106.32C227.411 106.32 228.231 106.48 228.961 106.8C229.701 107.11 230.321 107.57 230.821 108.18L229.261 109.62C228.901 109.21 228.501 108.905 228.061 108.705C227.621 108.495 227.141 108.39 226.621 108.39C226.131 108.39 225.681 108.47 225.271 108.63C224.861 108.79 224.506 109.02 224.206 109.32C223.906 109.62 223.671 109.975 223.501 110.385C223.341 110.795 223.261 111.25 223.261 111.75C223.261 112.25 223.341 112.705 223.501 113.115C223.671 113.525 223.906 113.88 224.206 114.18C224.506 114.48 224.861 114.71 225.271 114.87C225.681 115.03 226.131 115.11 226.621 115.11C227.141 115.11 227.621 115.01 228.061 114.81C228.501 114.6 228.901 114.285 229.261 113.865L230.821 115.305C230.321 115.915 229.701 116.38 228.961 116.7C228.231 117.02 227.406 117.18 226.486 117.18ZM238.199 117V113.685L238.799 114.21H235.919C235.009 114.21 234.224 114.06 233.564 113.76C232.904 113.46 232.399 113.025 232.049 112.455C231.699 111.885 231.524 111.205 231.524 110.415C231.524 109.595 231.709 108.895 232.079 108.315C232.459 107.725 232.989 107.275 233.669 106.965C234.349 106.655 235.149 106.5 236.069 106.5H240.599V117H238.199ZM231.554 117L234.164 113.235H236.624L234.119 117H231.554ZM238.199 112.905V107.85L238.799 108.48H236.129C235.439 108.48 234.909 108.64 234.539 108.96C234.179 109.28 233.999 109.755 233.999 110.385C233.999 110.995 234.174 111.465 234.524 111.795C234.874 112.125 235.389 112.29 236.069 112.29H238.799L238.199 112.905ZM252.443 117.18C251.633 117.18 250.878 117.05 250.178 116.79C249.488 116.52 248.888 116.14 248.378 115.65C247.868 115.16 247.468 114.585 247.178 113.925C246.898 113.265 246.758 112.54 246.758 111.75C246.758 110.96 246.898 110.235 247.178 109.575C247.468 108.915 247.868 108.34 248.378 107.85C248.898 107.36 249.503 106.985 250.193 106.725C250.883 106.455 251.638 106.32 252.458 106.32C253.368 106.32 254.188 106.48 254.918 106.8C255.658 107.11 256.278 107.57 256.778 108.18L255.218 109.62C254.858 109.21 254.458 108.905 254.018 108.705C253.578 108.495 253.098 108.39 252.578 108.39C252.088 108.39 251.638 108.47 251.228 108.63C250.818 108.79 250.463 109.02 250.163 109.32C249.863 109.62 249.628 109.975 249.458 110.385C249.298 110.795 249.218 111.25 249.218 111.75C249.218 112.25 249.298 112.705 249.458 113.115C249.628 113.525 249.863 113.88 250.163 114.18C250.463 114.48 250.818 114.71 251.228 114.87C251.638 115.03 252.088 115.11 252.578 115.11C253.098 115.11 253.578 115.01 254.018 114.81C254.458 114.6 254.858 114.285 255.218 113.865L256.778 115.305C256.278 115.915 255.658 116.38 254.918 116.7C254.188 117.02 253.363 117.18 252.443 117.18ZM262.61 117V106.5H267.5C268.72 106.5 269.67 106.735 270.35 107.205C271.03 107.675 271.37 108.345 271.37 109.215C271.37 110.075 271.05 110.745 270.41 111.225C269.77 111.695 268.92 111.93 267.86 111.93L268.145 111.3C269.325 111.3 270.24 111.535 270.89 112.005C271.54 112.475 271.865 113.155 271.865 114.045C271.865 114.965 271.515 115.69 270.815 116.22C270.125 116.74 269.115 117 267.785 117H262.61ZM265.025 115.2H267.695C268.255 115.2 268.68 115.09 268.97 114.87C269.26 114.65 269.405 114.31 269.405 113.85C269.405 113.41 269.26 113.085 268.97 112.875C268.68 112.655 268.255 112.545 267.695 112.545H265.025V115.2ZM265.025 110.85H267.29C267.82 110.85 268.22 110.745 268.49 110.535C268.76 110.315 268.895 109.995 268.895 109.575C268.895 109.155 268.76 108.84 268.49 108.63C268.22 108.41 267.82 108.3 267.29 108.3H265.025V110.85ZM272.601 117L277.281 106.5H279.681L284.376 117H281.826L277.986 107.73H278.946L275.091 117H272.601ZM274.941 114.75L275.586 112.905H280.986L281.646 114.75H274.941ZM285.769 117V106.5H287.779L292.249 113.91H291.184L295.579 106.5H297.589L297.604 117H295.324L295.309 109.995H295.744L292.219 115.89H291.139L287.539 109.995H288.049V117H285.769ZM300.212 117V106.5H302.627V113.34L307.637 106.5H309.917V117H307.517V110.175L302.507 117H300.212ZM316.78 117V106.5H319.195V113.34L324.205 106.5H326.485V117H324.085V110.175L319.075 117H316.78ZM75.0522 133.02C75.6322 133.19 76.1172 133.24 76.5072 133.17C76.9072 133.09 77.2622 132.81 77.5722 132.33L78.0822 131.565L78.3072 131.31L81.7872 124.5H84.1722L79.7022 132.81C79.3022 133.56 78.8272 134.135 78.2772 134.535C77.7372 134.935 77.1422 135.16 76.4922 135.21C75.8422 135.27 75.1672 135.155 74.4672 134.865L75.0522 133.02ZM78.2622 133.335L73.5222 124.5H76.1172L79.5972 131.55L78.2622 133.335ZM87.6066 135V125.925L88.1616 126.48H84.2616V124.5H93.3666V126.48H89.4666L90.0066 125.925V135H87.6066ZM99.7709 135.18C98.9409 135.18 98.1709 135.045 97.4609 134.775C96.7609 134.505 96.1509 134.125 95.6309 133.635C95.1209 133.145 94.7209 132.57 94.4309 131.91C94.1509 131.25 94.0109 130.53 94.0109 129.75C94.0109 128.97 94.1509 128.25 94.4309 127.59C94.7209 126.93 95.1259 126.355 95.6459 125.865C96.1659 125.375 96.7759 124.995 97.4759 124.725C98.1759 124.455 98.9359 124.32 99.7559 124.32C100.586 124.32 101.346 124.455 102.036 124.725C102.736 124.995 103.341 125.375 103.851 125.865C104.371 126.355 104.776 126.93 105.066 127.59C105.356 128.24 105.501 128.96 105.501 129.75C105.501 130.53 105.356 131.255 105.066 131.925C104.776 132.585 104.371 133.16 103.851 133.65C103.341 134.13 102.736 134.505 102.036 134.775C101.346 135.045 100.591 135.18 99.7709 135.18ZM99.7559 133.11C100.226 133.11 100.656 133.03 101.046 132.87C101.446 132.71 101.796 132.48 102.096 132.18C102.396 131.88 102.626 131.525 102.786 131.115C102.956 130.705 103.041 130.25 103.041 129.75C103.041 129.25 102.956 128.795 102.786 128.385C102.626 127.975 102.396 127.62 102.096 127.32C101.806 127.02 101.461 126.79 101.061 126.63C100.661 126.47 100.226 126.39 99.7559 126.39C99.2859 126.39 98.8509 126.47 98.4509 126.63C98.0609 126.79 97.7159 127.02 97.4159 127.32C97.1159 127.62 96.8809 127.975 96.7109 128.385C96.5509 128.795 96.4709 129.25 96.4709 129.75C96.4709 130.24 96.5509 130.695 96.7109 131.115C96.8809 131.525 97.1109 131.88 97.4009 132.18C97.7009 132.48 98.0509 132.71 98.4509 132.87C98.8509 133.03 99.2859 133.11 99.7559 133.11ZM113.723 131.085C113.203 131.295 112.703 131.455 112.223 131.565C111.743 131.665 111.283 131.715 110.843 131.715C109.433 131.715 108.353 131.38 107.603 130.71C106.853 130.03 106.478 129.055 106.478 127.785V124.5H108.878V127.515C108.878 128.235 109.073 128.78 109.463 129.15C109.853 129.51 110.408 129.69 111.128 129.69C111.588 129.69 112.033 129.64 112.463 129.54C112.893 129.43 113.293 129.275 113.663 129.075L113.723 131.085ZM113.378 135V124.5H115.778V135H113.378ZM125.588 124.5H128.018V135H125.588V124.5ZM120.818 135H118.388V124.5H120.818V135ZM125.768 130.695H120.638V128.64H125.768V130.695ZM136.634 135V131.685L137.234 132.21H134.354C133.444 132.21 132.659 132.06 131.999 131.76C131.339 131.46 130.834 131.025 130.484 130.455C130.134 129.885 129.959 129.205 129.959 128.415C129.959 127.595 130.144 126.895 130.514 126.315C130.894 125.725 131.424 125.275 132.104 124.965C132.784 124.655 133.584 124.5 134.504 124.5H139.034V135H136.634ZM129.989 135L132.599 131.235H135.059L132.554 135H129.989ZM136.634 130.905V125.85L137.234 126.48H134.564C133.874 126.48 133.344 126.64 132.974 126.96C132.614 127.28 132.434 127.755 132.434 128.385C132.434 128.995 132.609 129.465 132.959 129.795C133.309 130.125 133.824 130.29 134.504 130.29H137.234L136.634 130.905ZM143.9 128.73H148.955V130.62H143.9V128.73ZM144.08 133.05H149.795V135H141.665V124.5H149.6V126.45H144.08V133.05ZM151.758 135V124.5H153.768L158.238 131.91H157.173L161.568 124.5H163.578L163.593 135H161.313L161.298 127.995H161.733L158.208 133.89H157.128L153.528 127.995H154.038V135H151.758ZM170.449 135V124.5H175.339C176.559 124.5 177.509 124.735 178.189 125.205C178.869 125.675 179.209 126.345 179.209 127.215C179.209 128.075 178.889 128.745 178.249 129.225C177.609 129.695 176.759 129.93 175.699 129.93L175.984 129.3C177.164 129.3 178.079 129.535 178.729 130.005C179.379 130.475 179.704 131.155 179.704 132.045C179.704 132.965 179.354 133.69 178.654 134.22C177.964 134.74 176.954 135 175.624 135H170.449ZM172.864 133.2H175.534C176.094 133.2 176.519 133.09 176.809 132.87C177.099 132.65 177.244 132.31 177.244 131.85C177.244 131.41 177.099 131.085 176.809 130.875C176.519 130.655 176.094 130.545 175.534 130.545H172.864V133.2ZM172.864 128.85H175.129C175.659 128.85 176.059 128.745 176.329 128.535C176.599 128.315 176.734 127.995 176.734 127.575C176.734 127.155 176.599 126.84 176.329 126.63C176.059 126.41 175.659 126.3 175.129 126.3H172.864V128.85ZM186.591 135.18C185.781 135.18 185.026 135.05 184.326 134.79C183.636 134.52 183.036 134.14 182.526 133.65C182.016 133.16 181.616 132.585 181.326 131.925C181.046 131.265 180.906 130.54 180.906 129.75C180.906 128.96 181.046 128.235 181.326 127.575C181.616 126.915 182.016 126.34 182.526 125.85C183.046 125.36 183.651 124.985 184.341 124.725C185.031 124.455 185.786 124.32 186.606 124.32C187.516 124.32 188.336 124.48 189.066 124.8C189.806 125.11 190.426 125.57 190.926 126.18L189.366 127.62C189.006 127.21 188.606 126.905 188.166 126.705C187.726 126.495 187.246 126.39 186.726 126.39C186.236 126.39 185.786 126.47 185.376 126.63C184.966 126.79 184.611 127.02 184.311 127.32C184.011 127.62 183.776 127.975 183.606 128.385C183.446 128.795 183.366 129.25 183.366 129.75C183.366 130.25 183.446 130.705 183.606 131.115C183.776 131.525 184.011 131.88 184.311 132.18C184.611 132.48 184.966 132.71 185.376 132.87C185.786 133.03 186.236 133.11 186.726 133.11C187.246 133.11 187.726 133.01 188.166 132.81C188.606 132.6 189.006 132.285 189.366 131.865L190.926 133.305C190.426 133.915 189.806 134.38 189.066 134.7C188.336 135.02 187.511 135.18 186.591 135.18ZM194.745 128.73H199.8V130.62H194.745V128.73ZM194.925 133.05H200.64V135H192.51V124.5H200.445V126.45H194.925V133.05ZM206.85 135V124.5H216.42V135H214.005V125.925L214.56 126.48H208.71L209.265 125.925V135H206.85ZM224.048 135.18C223.218 135.18 222.448 135.045 221.738 134.775C221.038 134.505 220.428 134.125 219.908 133.635C219.398 133.145 218.998 132.57 218.708 131.91C218.428 131.25 218.288 130.53 218.288 129.75C218.288 128.97 218.428 128.25 218.708 127.59C218.998 126.93 219.403 126.355 219.923 125.865C220.443 125.375 221.053 124.995 221.753 124.725C222.453 124.455 223.213 124.32 224.033 124.32C224.863 124.32 225.623 124.455 226.313 124.725C227.013 124.995 227.618 125.375 228.128 125.865C228.648 126.355 229.053 126.93 229.343 127.59C229.633 128.24 229.778 128.96 229.778 129.75C229.778 130.53 229.633 131.255 229.343 131.925C229.053 132.585 228.648 133.16 228.128 133.65C227.618 134.13 227.013 134.505 226.313 134.775C225.623 135.045 224.868 135.18 224.048 135.18ZM224.033 133.11C224.503 133.11 224.933 133.03 225.323 132.87C225.723 132.71 226.073 132.48 226.373 132.18C226.673 131.88 226.903 131.525 227.063 131.115C227.233 130.705 227.318 130.25 227.318 129.75C227.318 129.25 227.233 128.795 227.063 128.385C226.903 127.975 226.673 127.62 226.373 127.32C226.083 127.02 225.738 126.79 225.338 126.63C224.938 126.47 224.503 126.39 224.033 126.39C223.563 126.39 223.128 126.47 222.728 126.63C222.338 126.79 221.993 127.02 221.693 127.32C221.393 127.62 221.158 127.975 220.988 128.385C220.828 128.795 220.748 129.25 220.748 129.75C220.748 130.24 220.828 130.695 220.988 131.115C221.158 131.525 221.388 131.88 221.678 132.18C221.978 132.48 222.328 132.71 222.728 132.87C223.128 133.03 223.563 133.11 224.033 133.11ZM238.317 133.92V126.48H234.717L234.672 128.01C234.642 128.66 234.597 129.275 234.537 129.855C234.487 130.435 234.407 130.965 234.297 131.445C234.187 131.915 234.042 132.315 233.862 132.645C233.692 132.975 233.477 133.21 233.217 133.35L230.622 133.02C230.982 133.03 231.277 132.905 231.507 132.645C231.747 132.385 231.937 132.02 232.077 131.55C232.217 131.07 232.317 130.51 232.377 129.87C232.447 129.23 232.497 128.535 232.527 127.785L232.647 124.5H240.717V133.92H238.317ZM230.277 137.175L230.292 133.02H242.187V137.175H239.937V135H232.527V137.175H230.277ZM243.823 135V124.5H248.368C249.308 124.5 250.118 124.655 250.798 124.965C251.478 125.265 252.003 125.7 252.373 126.27C252.743 126.84 252.928 127.52 252.928 128.31C252.928 129.09 252.743 129.765 252.373 130.335C252.003 130.905 251.478 131.345 250.798 131.655C250.118 131.955 249.308 132.105 248.368 132.105H245.173L246.253 131.01V135H243.823ZM246.253 131.28L245.173 130.125H248.233C248.983 130.125 249.543 129.965 249.913 129.645C250.283 129.325 250.468 128.88 250.468 128.31C250.468 127.73 250.283 127.28 249.913 126.96C249.543 126.64 248.983 126.48 248.233 126.48H245.173L246.253 125.325V131.28ZM259.703 135.18C258.873 135.18 258.103 135.045 257.393 134.775C256.693 134.505 256.083 134.125 255.563 133.635C255.053 133.145 254.653 132.57 254.363 131.91C254.083 131.25 253.943 130.53 253.943 129.75C253.943 128.97 254.083 128.25 254.363 127.59C254.653 126.93 255.058 126.355 255.578 125.865C256.098 125.375 256.708 124.995 257.408 124.725C258.108 124.455 258.868 124.32 259.688 124.32C260.518 124.32 261.278 124.455 261.968 124.725C262.668 124.995 263.273 125.375 263.783 125.865C264.303 126.355 264.708 126.93 264.998 127.59C265.288 128.24 265.433 128.96 265.433 129.75C265.433 130.53 265.288 131.255 264.998 131.925C264.708 132.585 264.303 133.16 263.783 133.65C263.273 134.13 262.668 134.505 261.968 134.775C261.278 135.045 260.523 135.18 259.703 135.18ZM259.688 133.11C260.158 133.11 260.588 133.03 260.978 132.87C261.378 132.71 261.728 132.48 262.028 132.18C262.328 131.88 262.558 131.525 262.718 131.115C262.888 130.705 262.973 130.25 262.973 129.75C262.973 129.25 262.888 128.795 262.718 128.385C262.558 127.975 262.328 127.62 262.028 127.32C261.738 127.02 261.393 126.79 260.993 126.63C260.593 126.47 260.158 126.39 259.688 126.39C259.218 126.39 258.783 126.47 258.383 126.63C257.993 126.79 257.648 127.02 257.348 127.32C257.048 127.62 256.813 127.975 256.643 128.385C256.483 128.795 256.403 129.25 256.403 129.75C256.403 130.24 256.483 130.695 256.643 131.115C256.813 131.525 257.043 131.88 257.333 132.18C257.633 132.48 257.983 132.71 258.383 132.87C258.783 133.03 259.218 133.11 259.688 133.11ZM267.305 135V124.5H275.78V126.435H269.72V128.595H272.63C273.9 128.595 274.865 128.86 275.525 129.39C276.195 129.92 276.53 130.69 276.53 131.7C276.53 132.74 276.16 133.55 275.42 134.13C274.68 134.71 273.635 135 272.285 135H267.305ZM269.72 133.2H272.15C272.77 133.2 273.245 133.08 273.575 132.84C273.905 132.59 274.07 132.23 274.07 131.76C274.07 130.84 273.43 130.38 272.15 130.38H269.72V133.2ZM285.579 124.5H288.009V135H285.579V124.5ZM280.809 135H278.379V124.5H280.809V135ZM285.759 130.695H280.629V128.64H285.759V130.695ZM295.664 135.18C294.834 135.18 294.064 135.045 293.354 134.775C292.654 134.505 292.044 134.125 291.524 133.635C291.014 133.145 290.614 132.57 290.324 131.91C290.044 131.25 289.904 130.53 289.904 129.75C289.904 128.97 290.044 128.25 290.324 127.59C290.614 126.93 291.019 126.355 291.539 125.865C292.059 125.375 292.669 124.995 293.369 124.725C294.069 124.455 294.829 124.32 295.649 124.32C296.479 124.32 297.239 124.455 297.929 124.725C298.629 124.995 299.234 125.375 299.744 125.865C300.264 126.355 300.669 126.93 300.959 127.59C301.249 128.24 301.394 128.96 301.394 129.75C301.394 130.53 301.249 131.255 300.959 131.925C300.669 132.585 300.264 133.16 299.744 133.65C299.234 134.13 298.629 134.505 297.929 134.775C297.239 135.045 296.484 135.18 295.664 135.18ZM295.649 133.11C296.119 133.11 296.549 133.03 296.939 132.87C297.339 132.71 297.689 132.48 297.989 132.18C298.289 131.88 298.519 131.525 298.679 131.115C298.849 130.705 298.934 130.25 298.934 129.75C298.934 129.25 298.849 128.795 298.679 128.385C298.519 127.975 298.289 127.62 297.989 127.32C297.699 127.02 297.354 126.79 296.954 126.63C296.554 126.47 296.119 126.39 295.649 126.39C295.179 126.39 294.744 126.47 294.344 126.63C293.954 126.79 293.609 127.02 293.309 127.32C293.009 127.62 292.774 127.975 292.604 128.385C292.444 128.795 292.364 129.25 292.364 129.75C292.364 130.24 292.444 130.695 292.604 131.115C292.774 131.525 293.004 131.88 293.294 132.18C293.594 132.48 293.944 132.71 294.344 132.87C294.744 133.03 295.179 133.11 295.649 133.11ZM308.231 135.18C307.421 135.18 306.666 135.05 305.966 134.79C305.276 134.52 304.676 134.14 304.166 133.65C303.656 133.16 303.256 132.585 302.966 131.925C302.686 131.265 302.546 130.54 302.546 129.75C302.546 128.96 302.686 128.235 302.966 127.575C303.256 126.915 303.656 126.34 304.166 125.85C304.686 125.36 305.291 124.985 305.981 124.725C306.671 124.455 307.426 124.32 308.246 124.32C309.156 124.32 309.976 124.48 310.706 124.8C311.446 125.11 312.066 125.57 312.566 126.18L311.006 127.62C310.646 127.21 310.246 126.905 309.806 126.705C309.366 126.495 308.886 126.39 308.366 126.39C307.876 126.39 307.426 126.47 307.016 126.63C306.606 126.79 306.251 127.02 305.951 127.32C305.651 127.62 305.416 127.975 305.246 128.385C305.086 128.795 305.006 129.25 305.006 129.75C305.006 130.25 305.086 130.705 305.246 131.115C305.416 131.525 305.651 131.88 305.951 132.18C306.251 132.48 306.606 132.71 307.016 132.87C307.426 133.03 307.876 133.11 308.366 133.11C308.886 133.11 309.366 133.01 309.806 132.81C310.246 132.6 310.646 132.285 311.006 131.865L312.566 133.305C312.066 133.915 311.446 134.38 310.706 134.7C309.976 135.02 309.151 135.18 308.231 135.18ZM316.313 135V125.925L316.868 126.48H312.968V124.5H322.073V126.48H318.173L318.713 125.925V135H316.313ZM323.598 135V124.5H326.013V131.34L331.023 124.5H333.303V135H330.903V128.175L325.893 135H323.598Z" fill="white"/>
<path d="M154.129 355.07L154.879 353.33C155.329 353.6 155.809 353.81 156.319 353.96C156.839 354.1 157.344 354.18 157.834 354.2C158.334 354.21 158.784 354.16 159.184 354.05C159.594 353.94 159.919 353.775 160.159 353.555C160.409 353.335 160.534 353.055 160.534 352.715C160.534 352.315 160.369 352.02 160.039 351.83C159.709 351.63 159.269 351.53 158.719 351.53H156.154V349.7H158.539C159.029 349.7 159.409 349.6 159.679 349.4C159.959 349.2 160.099 348.925 160.099 348.575C160.099 348.275 159.999 348.035 159.799 347.855C159.599 347.665 159.324 347.525 158.974 347.435C158.634 347.345 158.249 347.305 157.819 347.315C157.389 347.325 156.944 347.395 156.484 347.525C156.024 347.655 155.584 347.835 155.164 348.065L154.429 346.19C155.109 345.84 155.824 345.6 156.574 345.47C157.334 345.33 158.064 345.295 158.764 345.365C159.474 345.425 160.114 345.585 160.684 345.845C161.254 346.095 161.709 346.425 162.049 346.835C162.389 347.245 162.559 347.73 162.559 348.29C162.559 348.79 162.429 349.235 162.169 349.625C161.909 350.015 161.544 350.315 161.074 350.525C160.614 350.735 160.084 350.84 159.484 350.84L159.544 350.3C160.244 350.3 160.849 350.42 161.359 350.66C161.879 350.89 162.279 351.215 162.559 351.635C162.849 352.045 162.994 352.52 162.994 353.06C162.994 353.56 162.859 354.01 162.589 354.41C162.329 354.8 161.969 355.13 161.509 355.4C161.049 355.67 160.524 355.87 159.934 356C159.344 356.13 158.714 356.185 158.044 356.165C157.384 356.145 156.719 356.05 156.049 355.88C155.379 355.7 154.739 355.43 154.129 355.07ZM163.733 356L168.413 345.5H170.813L175.508 356H172.958L169.118 346.73H170.078L166.223 356H163.733ZM166.073 353.75L166.718 351.905H172.118L172.778 353.75H166.073ZM183.695 356L180.425 350.945L182.39 349.76L186.455 356H183.695ZM176.87 356V345.5H179.285V356H176.87ZM178.58 351.77V349.745H182.24V351.77H178.58ZM182.615 351.02L180.38 350.75L183.785 345.5H186.35L182.615 351.02ZM187.962 356.165C187.782 356.165 187.592 356.15 187.392 356.12C187.202 356.09 186.992 356.05 186.762 356L186.912 353.945C187.052 353.985 187.197 354.005 187.347 354.005C187.757 354.005 188.077 353.84 188.307 353.51C188.537 353.17 188.702 352.685 188.802 352.055C188.902 351.425 188.967 350.66 188.997 349.76L189.147 345.5H197.217V356H194.817V346.925L195.372 347.48H190.737L191.232 346.895L191.142 349.67C191.112 350.7 191.042 351.615 190.932 352.415C190.822 353.215 190.652 353.895 190.422 354.455C190.192 355.015 189.877 355.44 189.477 355.73C189.077 356.02 188.572 356.165 187.962 356.165ZM199.84 356V345.5H202.255V349.625H204.97V351.725H202.255V356H199.84ZM209.11 356.18C208.31 356.18 207.57 356.045 206.89 355.775C206.22 355.505 205.635 355.13 205.135 354.65C204.635 354.16 204.245 353.585 203.965 352.925C203.695 352.255 203.56 351.53 203.56 350.75C203.56 349.96 203.695 349.235 203.965 348.575C204.245 347.915 204.635 347.345 205.135 346.865C205.635 346.375 206.22 345.995 206.89 345.725C207.57 345.455 208.31 345.32 209.11 345.32C209.9 345.32 210.635 345.455 211.315 345.725C211.995 345.995 212.58 346.375 213.07 346.865C213.57 347.345 213.96 347.92 214.24 348.59C214.52 349.25 214.66 349.97 214.66 350.75C214.66 351.53 214.52 352.255 214.24 352.925C213.96 353.585 213.57 354.16 213.07 354.65C212.58 355.13 211.995 355.505 211.315 355.775C210.635 356.045 209.9 356.18 209.11 356.18ZM209.11 354.11C209.55 354.11 209.955 354.03 210.325 353.87C210.695 353.71 211.02 353.485 211.3 353.195C211.58 352.895 211.8 352.54 211.96 352.13C212.12 351.72 212.2 351.26 212.2 350.75C212.2 350.24 212.12 349.78 211.96 349.37C211.8 348.96 211.58 348.61 211.3 348.32C211.02 348.02 210.695 347.79 210.325 347.63C209.955 347.47 209.55 347.39 209.11 347.39C208.68 347.39 208.275 347.47 207.895 347.63C207.525 347.79 207.2 348.02 206.92 348.32C206.64 348.61 206.42 348.96 206.26 349.37C206.1 349.78 206.02 350.24 206.02 350.75C206.02 351.26 206.1 351.72 206.26 352.13C206.42 352.54 206.64 352.895 206.92 353.195C207.2 353.485 207.525 353.71 207.895 353.87C208.275 354.03 208.68 354.11 209.11 354.11ZM222.904 352.085C222.384 352.295 221.884 352.455 221.404 352.565C220.924 352.665 220.464 352.715 220.024 352.715C218.614 352.715 217.534 352.38 216.784 351.71C216.034 351.03 215.659 350.055 215.659 348.785V345.5H218.059V348.515C218.059 349.235 218.254 349.78 218.644 350.15C219.034 350.51 219.589 350.69 220.309 350.69C220.769 350.69 221.214 350.64 221.644 350.54C222.074 350.43 222.474 350.275 222.844 350.075L222.904 352.085ZM222.559 356V345.5H224.959V356H222.559ZM226.384 356L231.064 345.5H233.464L238.159 356H235.609L231.769 346.73H232.729L228.874 356H226.384ZM228.724 353.75L229.369 351.905H234.769L235.429 353.75H228.724ZM241.787 349.73H246.842V351.62H241.787V349.73ZM241.967 354.05H247.682V356H239.552V345.5H247.487V347.45H241.967V354.05ZM249.644 356V345.5H251.654L256.124 352.91H255.059L259.454 345.5H261.464L261.479 356H259.199L259.184 348.995H259.619L256.094 354.89H255.014L251.414 348.995H251.924V356H249.644ZM275.296 354.92V347.48H271.696L271.651 349.01C271.621 349.66 271.576 350.275 271.516 350.855C271.466 351.435 271.386 351.965 271.276 352.445C271.166 352.915 271.021 353.315 270.841 353.645C270.671 353.975 270.456 354.21 270.196 354.35L267.601 354.02C267.961 354.03 268.256 353.905 268.486 353.645C268.726 353.385 268.916 353.02 269.056 352.55C269.196 352.07 269.296 351.51 269.356 350.87C269.426 350.23 269.476 349.535 269.506 348.785L269.626 345.5H277.696V354.92H275.296ZM267.256 358.175L267.271 354.02H279.166V358.175H276.916V356H269.506V358.175H267.256ZM285.827 356.18C284.997 356.18 284.227 356.045 283.517 355.775C282.817 355.505 282.207 355.125 281.687 354.635C281.177 354.145 280.777 353.57 280.487 352.91C280.207 352.25 280.067 351.53 280.067 350.75C280.067 349.97 280.207 349.25 280.487 348.59C280.777 347.93 281.182 347.355 281.702 346.865C282.222 346.375 282.832 345.995 283.532 345.725C284.232 345.455 284.992 345.32 285.812 345.32C286.642 345.32 287.402 345.455 288.092 345.725C288.792 345.995 289.397 346.375 289.907 346.865C290.427 347.355 290.832 347.93 291.122 348.59C291.412 349.24 291.557 349.96 291.557 350.75C291.557 351.53 291.412 352.255 291.122 352.925C290.832 353.585 290.427 354.16 289.907 354.65C289.397 355.13 288.792 355.505 288.092 355.775C287.402 356.045 286.647 356.18 285.827 356.18ZM285.812 354.11C286.282 354.11 286.712 354.03 287.102 353.87C287.502 353.71 287.852 353.48 288.152 353.18C288.452 352.88 288.682 352.525 288.842 352.115C289.012 351.705 289.097 351.25 289.097 350.75C289.097 350.25 289.012 349.795 288.842 349.385C288.682 348.975 288.452 348.62 288.152 348.32C287.862 348.02 287.517 347.79 287.117 347.63C286.717 347.47 286.282 347.39 285.812 347.39C285.342 347.39 284.907 347.47 284.507 347.63C284.117 347.79 283.772 348.02 283.472 348.32C283.172 348.62 282.937 348.975 282.767 349.385C282.607 349.795 282.527 350.25 282.527 350.75C282.527 351.24 282.607 351.695 282.767 352.115C282.937 352.525 283.167 352.88 283.457 353.18C283.757 353.48 284.107 353.71 284.507 353.87C284.907 354.03 285.342 354.11 285.812 354.11ZM293.429 356V345.5H300.839L300.824 347.48H295.274L295.829 346.925L295.844 356H293.429ZM306.276 356.18C305.446 356.18 304.676 356.045 303.966 355.775C303.266 355.505 302.656 355.125 302.136 354.635C301.626 354.145 301.226 353.57 300.936 352.91C300.656 352.25 300.516 351.53 300.516 350.75C300.516 349.97 300.656 349.25 300.936 348.59C301.226 347.93 301.631 347.355 302.151 346.865C302.671 346.375 303.281 345.995 303.981 345.725C304.681 345.455 305.441 345.32 306.261 345.32C307.091 345.32 307.851 345.455 308.541 345.725C309.241 345.995 309.846 346.375 310.356 346.865C310.876 347.355 311.281 347.93 311.571 348.59C311.861 349.24 312.006 349.96 312.006 350.75C312.006 351.53 311.861 352.255 311.571 352.925C311.281 353.585 310.876 354.16 310.356 354.65C309.846 355.13 309.241 355.505 308.541 355.775C307.851 356.045 307.096 356.18 306.276 356.18ZM306.261 354.11C306.731 354.11 307.161 354.03 307.551 353.87C307.951 353.71 308.301 353.48 308.601 353.18C308.901 352.88 309.131 352.525 309.291 352.115C309.461 351.705 309.546 351.25 309.546 350.75C309.546 350.25 309.461 349.795 309.291 349.385C309.131 348.975 308.901 348.62 308.601 348.32C308.311 348.02 307.966 347.79 307.566 347.63C307.166 347.47 306.731 347.39 306.261 347.39C305.791 347.39 305.356 347.47 304.956 347.63C304.566 347.79 304.221 348.02 303.921 348.32C303.621 348.62 303.386 348.975 303.216 349.385C303.056 349.795 302.976 350.25 302.976 350.75C302.976 351.24 303.056 351.695 303.216 352.115C303.386 352.525 303.616 352.88 303.906 353.18C304.206 353.48 304.556 353.71 304.956 353.87C305.356 354.03 305.791 354.11 306.261 354.11ZM313.878 356V345.5H318.768C319.988 345.5 320.938 345.735 321.618 346.205C322.298 346.675 322.638 347.345 322.638 348.215C322.638 349.075 322.318 349.745 321.678 350.225C321.038 350.695 320.188 350.93 319.128 350.93L319.413 350.3C320.593 350.3 321.508 350.535 322.158 351.005C322.808 351.475 323.133 352.155 323.133 353.045C323.133 353.965 322.783 354.69 322.083 355.22C321.393 355.74 320.383 356 319.053 356H313.878ZM316.293 354.2H318.963C319.523 354.2 319.948 354.09 320.238 353.87C320.528 353.65 320.673 353.31 320.673 352.85C320.673 352.41 320.528 352.085 320.238 351.875C319.948 351.655 319.523 351.545 318.963 351.545H316.293V354.2ZM316.293 349.85H318.558C319.088 349.85 319.488 349.745 319.758 349.535C320.028 349.315 320.163 348.995 320.163 348.575C320.163 348.155 320.028 347.84 319.758 347.63C319.488 347.41 319.088 347.3 318.558 347.3H316.293V349.85ZM330.08 356.18C329.25 356.18 328.48 356.045 327.77 355.775C327.07 355.505 326.46 355.125 325.94 354.635C325.43 354.145 325.03 353.57 324.74 352.91C324.46 352.25 324.32 351.53 324.32 350.75C324.32 349.97 324.46 349.25 324.74 348.59C325.03 347.93 325.435 347.355 325.955 346.865C326.475 346.375 327.085 345.995 327.785 345.725C328.485 345.455 329.245 345.32 330.065 345.32C330.895 345.32 331.655 345.455 332.345 345.725C333.045 345.995 333.65 346.375 334.16 346.865C334.68 347.355 335.085 347.93 335.375 348.59C335.665 349.24 335.81 349.96 335.81 350.75C335.81 351.53 335.665 352.255 335.375 352.925C335.085 353.585 334.68 354.16 334.16 354.65C333.65 355.13 333.045 355.505 332.345 355.775C331.655 356.045 330.9 356.18 330.08 356.18ZM330.065 354.11C330.535 354.11 330.965 354.03 331.355 353.87C331.755 353.71 332.105 353.48 332.405 353.18C332.705 352.88 332.935 352.525 333.095 352.115C333.265 351.705 333.35 351.25 333.35 350.75C333.35 350.25 333.265 349.795 333.095 349.385C332.935 348.975 332.705 348.62 332.405 348.32C332.115 348.02 331.77 347.79 331.37 347.63C330.97 347.47 330.535 347.39 330.065 347.39C329.595 347.39 329.16 347.47 328.76 347.63C328.37 347.79 328.025 348.02 327.725 348.32C327.425 348.62 327.19 348.975 327.02 349.385C326.86 349.795 326.78 350.25 326.78 350.75C326.78 351.24 326.86 351.695 327.02 352.115C327.19 352.525 327.42 352.88 327.71 353.18C328.01 353.48 328.36 353.71 328.76 353.87C329.16 354.03 329.595 354.11 330.065 354.11ZM337.681 356V345.5H342.226C343.166 345.5 343.976 345.655 344.656 345.965C345.336 346.265 345.861 346.7 346.231 347.27C346.601 347.84 346.786 348.52 346.786 349.31C346.786 350.09 346.601 350.765 346.231 351.335C345.861 351.905 345.336 352.345 344.656 352.655C343.976 352.955 343.166 353.105 342.226 353.105H339.031L340.111 352.01V356H337.681ZM340.111 352.28L339.031 351.125H342.091C342.841 351.125 343.401 350.965 343.771 350.645C344.141 350.325 344.326 349.88 344.326 349.31C344.326 348.73 344.141 348.28 343.771 347.96C343.401 347.64 342.841 347.48 342.091 347.48H339.031L340.111 346.325V352.28Z" fill="white"/>
<path d="M47.6263 442.749C46.7963 442.749 46.0263 442.614 45.3163 442.344C44.6163 442.074 44.0063 441.694 43.4863 441.204C42.9763 440.714 42.5763 440.139 42.2863 439.479C42.0063 438.819 41.8663 438.099 41.8663 437.319C41.8663 436.539 42.0063 435.819 42.2863 435.159C42.5763 434.499 42.9813 433.924 43.5013 433.434C44.0213 432.944 44.6313 432.564 45.3313 432.294C46.0313 432.024 46.7913 431.889 47.6113 431.889C48.4413 431.889 49.2013 432.024 49.8913 432.294C50.5913 432.564 51.1963 432.944 51.7063 433.434C52.2263 433.924 52.6313 434.499 52.9213 435.159C53.2113 435.809 53.3563 436.529 53.3563 437.319C53.3563 438.099 53.2113 438.824 52.9213 439.494C52.6313 440.154 52.2263 440.729 51.7063 441.219C51.1963 441.699 50.5913 442.074 49.8913 442.344C49.2013 442.614 48.4463 442.749 47.6263 442.749ZM47.6113 440.679C48.0813 440.679 48.5113 440.599 48.9013 440.439C49.3013 440.279 49.6513 440.049 49.9513 439.749C50.2513 439.449 50.4813 439.094 50.6413 438.684C50.8113 438.274 50.8963 437.819 50.8963 437.319C50.8963 436.819 50.8113 436.364 50.6413 435.954C50.4813 435.544 50.2513 435.189 49.9513 434.889C49.6613 434.589 49.3163 434.359 48.9163 434.199C48.5163 434.039 48.0813 433.959 47.6113 433.959C47.1413 433.959 46.7063 434.039 46.3063 434.199C45.9163 434.359 45.5713 434.589 45.2713 434.889C44.9713 435.189 44.7363 435.544 44.5663 435.954C44.4063 436.364 44.3263 436.819 44.3263 437.319C44.3263 437.809 44.4063 438.264 44.5663 438.684C44.7363 439.094 44.9663 439.449 45.2563 439.749C45.5563 440.049 45.9063 440.279 46.3063 440.439C46.7063 440.599 47.1413 440.679 47.6113 440.679ZM55.2283 442.569V432.069H64.7983V442.569H62.3833V433.494L62.9383 434.049H57.0883L57.6433 433.494V442.569H55.2283ZM67.4329 442.734C67.2529 442.734 67.0629 442.719 66.8629 442.689C66.6729 442.659 66.4629 442.619 66.2329 442.569L66.3829 440.514C66.5229 440.554 66.6679 440.574 66.8179 440.574C67.2279 440.574 67.5479 440.409 67.7779 440.079C68.0079 439.739 68.1729 439.254 68.2729 438.624C68.3729 437.994 68.4379 437.229 68.4679 436.329L68.6179 432.069H76.6879V442.569H74.2879V433.494L74.8429 434.049H70.2079L70.7029 433.464L70.6129 436.239C70.5829 437.269 70.5129 438.184 70.4029 438.984C70.2929 439.784 70.1229 440.464 69.8929 441.024C69.6629 441.584 69.3479 442.009 68.9479 442.299C68.5479 442.589 68.0429 442.734 67.4329 442.734ZM78.1253 442.569L82.8053 432.069H85.2053L89.9003 442.569H87.3503L83.5103 433.299H84.4703L80.6153 442.569H78.1253ZM80.4653 440.319L81.1103 438.474H86.5103L87.1703 440.319H80.4653ZM93.0304 442.569V433.494L93.5854 434.049H89.6854V432.069H98.7904V434.049H94.8904L95.4304 433.494V442.569H93.0304ZM98.6038 442.569L103.284 432.069H105.684L110.379 442.569H107.829L103.989 433.299H104.949L101.094 442.569H98.6038ZM100.944 440.319L101.589 438.474H106.989L107.649 440.319H100.944Z" fill="white"/>
<path d="M219.509 533.92V526.48H215.909L215.864 528.01C215.834 528.66 215.789 529.275 215.729 529.855C215.679 530.435 215.599 530.965 215.489 531.445C215.379 531.915 215.234 532.315 215.054 532.645C214.884 532.975 214.669 533.21 214.409 533.35L211.814 533.02C212.174 533.03 212.469 532.905 212.699 532.645C212.939 532.385 213.129 532.02 213.269 531.55C213.409 531.07 213.509 530.51 213.569 529.87C213.639 529.23 213.689 528.535 213.719 527.785L213.839 524.5H221.909V533.92H219.509ZM211.469 537.175L211.484 533.02H223.379V537.175H221.129V535H213.719V537.175H211.469ZM230.039 535.18C229.209 535.18 228.439 535.045 227.729 534.775C227.029 534.505 226.419 534.125 225.899 533.635C225.389 533.145 224.989 532.57 224.699 531.91C224.419 531.25 224.279 530.53 224.279 529.75C224.279 528.97 224.419 528.25 224.699 527.59C224.989 526.93 225.394 526.355 225.914 525.865C226.434 525.375 227.044 524.995 227.744 524.725C228.444 524.455 229.204 524.32 230.024 524.32C230.854 524.32 231.614 524.455 232.304 524.725C233.004 524.995 233.609 525.375 234.119 525.865C234.639 526.355 235.044 526.93 235.334 527.59C235.624 528.24 235.769 528.96 235.769 529.75C235.769 530.53 235.624 531.255 235.334 531.925C235.044 532.585 234.639 533.16 234.119 533.65C233.609 534.13 233.004 534.505 232.304 534.775C231.614 535.045 230.859 535.18 230.039 535.18ZM230.024 533.11C230.494 533.11 230.924 533.03 231.314 532.87C231.714 532.71 232.064 532.48 232.364 532.18C232.664 531.88 232.894 531.525 233.054 531.115C233.224 530.705 233.309 530.25 233.309 529.75C233.309 529.25 233.224 528.795 233.054 528.385C232.894 527.975 232.664 527.62 232.364 527.32C232.074 527.02 231.729 526.79 231.329 526.63C230.929 526.47 230.494 526.39 230.024 526.39C229.554 526.39 229.119 526.47 228.719 526.63C228.329 526.79 227.984 527.02 227.684 527.32C227.384 527.62 227.149 527.975 226.979 528.385C226.819 528.795 226.739 529.25 226.739 529.75C226.739 530.24 226.819 530.695 226.979 531.115C227.149 531.525 227.379 531.88 227.669 532.18C227.969 532.48 228.319 532.71 228.719 532.87C229.119 533.03 229.554 533.11 230.024 533.11ZM242.606 535.18C241.796 535.18 241.041 535.05 240.341 534.79C239.651 534.52 239.051 534.14 238.541 533.65C238.031 533.16 237.631 532.585 237.341 531.925C237.061 531.265 236.921 530.54 236.921 529.75C236.921 528.96 237.061 528.235 237.341 527.575C237.631 526.915 238.031 526.34 238.541 525.85C239.061 525.36 239.666 524.985 240.356 524.725C241.046 524.455 241.801 524.32 242.621 524.32C243.531 524.32 244.351 524.48 245.081 524.8C245.821 525.11 246.441 525.57 246.941 526.18L245.381 527.62C245.021 527.21 244.621 526.905 244.181 526.705C243.741 526.495 243.261 526.39 242.741 526.39C242.251 526.39 241.801 526.47 241.391 526.63C240.981 526.79 240.626 527.02 240.326 527.32C240.026 527.62 239.791 527.975 239.621 528.385C239.461 528.795 239.381 529.25 239.381 529.75C239.381 530.25 239.461 530.705 239.621 531.115C239.791 531.525 240.026 531.88 240.326 532.18C240.626 532.48 240.981 532.71 241.391 532.87C241.801 533.03 242.251 533.11 242.741 533.11C243.261 533.11 243.741 533.01 244.181 532.81C244.621 532.6 245.021 532.285 245.381 531.865L246.941 533.305C246.441 533.915 245.821 534.38 245.081 534.7C244.351 535.02 243.526 535.18 242.606 535.18ZM250.688 535V525.925L251.243 526.48H247.343V524.5H256.448V526.48H252.548L253.088 525.925V535H250.688ZM256.261 535L260.941 524.5H263.341L268.036 535H265.486L261.646 525.73H262.606L258.751 535H256.261ZM258.601 532.75L259.246 530.905H264.646L265.306 532.75H258.601ZM269.429 535V524.5H274.319C275.539 524.5 276.489 524.735 277.169 525.205C277.849 525.675 278.189 526.345 278.189 527.215C278.189 528.075 277.869 528.745 277.229 529.225C276.589 529.695 275.739 529.93 274.679 529.93L274.964 529.3C276.144 529.3 277.059 529.535 277.709 530.005C278.359 530.475 278.684 531.155 278.684 532.045C278.684 532.965 278.334 533.69 277.634 534.22C276.944 534.74 275.934 535 274.604 535H269.429ZM271.844 533.2H274.514C275.074 533.2 275.499 533.09 275.789 532.87C276.079 532.65 276.224 532.31 276.224 531.85C276.224 531.41 276.079 531.085 275.789 530.875C275.499 530.655 275.074 530.545 274.514 530.545H271.844V533.2ZM271.844 528.85H274.109C274.639 528.85 275.039 528.745 275.309 528.535C275.579 528.315 275.714 527.995 275.714 527.575C275.714 527.155 275.579 526.84 275.309 526.63C275.039 526.41 274.639 526.3 274.109 526.3H271.844V528.85ZM287.4 535L284.13 529.945L286.095 528.76L290.16 535H287.4ZM280.575 535V524.5H282.99V535H280.575ZM282.285 530.77V528.745H285.945V530.77H282.285ZM286.32 530.02L284.085 529.75L287.49 524.5H290.055L286.32 530.02ZM289.894 535L294.574 524.5H296.974L301.669 535H299.119L295.279 525.73H296.239L292.384 535H289.894ZM292.234 532.75L292.879 530.905H298.279L298.939 532.75H292.234Z" fill="white"/>
<path d="M143.375 217.18C142.565 217.18 141.81 217.05 141.11 216.79C140.42 216.52 139.82 216.14 139.31 215.65C138.8 215.16 138.4 214.585 138.11 213.925C137.83 213.265 137.69 212.54 137.69 211.75C137.69 210.96 137.83 210.235 138.11 209.575C138.4 208.915 138.8 208.34 139.31 207.85C139.83 207.36 140.435 206.985 141.125 206.725C141.815 206.455 142.57 206.32 143.39 206.32C144.3 206.32 145.12 206.48 145.85 206.8C146.59 207.11 147.21 207.57 147.71 208.18L146.15 209.62C145.79 209.21 145.39 208.905 144.95 208.705C144.51 208.495 144.03 208.39 143.51 208.39C143.02 208.39 142.57 208.47 142.16 208.63C141.75 208.79 141.395 209.02 141.095 209.32C140.795 209.62 140.56 209.975 140.39 210.385C140.23 210.795 140.15 211.25 140.15 211.75C140.15 212.25 140.23 212.705 140.39 213.115C140.56 213.525 140.795 213.88 141.095 214.18C141.395 214.48 141.75 214.71 142.16 214.87C142.57 215.03 143.02 215.11 143.51 215.11C144.03 215.11 144.51 215.01 144.95 214.81C145.39 214.6 145.79 214.285 146.15 213.865L147.71 215.305C147.21 215.915 146.59 216.38 145.85 216.7C145.12 217.02 144.295 217.18 143.375 217.18ZM154.1 217.18C153.27 217.18 152.5 217.045 151.79 216.775C151.09 216.505 150.48 216.125 149.96 215.635C149.45 215.145 149.05 214.57 148.76 213.91C148.48 213.25 148.34 212.53 148.34 211.75C148.34 210.97 148.48 210.25 148.76 209.59C149.05 208.93 149.455 208.355 149.975 207.865C150.495 207.375 151.105 206.995 151.805 206.725C152.505 206.455 153.265 206.32 154.085 206.32C154.915 206.32 155.675 206.455 156.365 206.725C157.065 206.995 157.67 207.375 158.18 207.865C158.7 208.355 159.105 208.93 159.395 209.59C159.685 210.24 159.83 210.96 159.83 211.75C159.83 212.53 159.685 213.255 159.395 213.925C159.105 214.585 158.7 215.16 158.18 215.65C157.67 216.13 157.065 216.505 156.365 216.775C155.675 217.045 154.92 217.18 154.1 217.18ZM154.085 215.11C154.555 215.11 154.985 215.03 155.375 214.87C155.775 214.71 156.125 214.48 156.425 214.18C156.725 213.88 156.955 213.525 157.115 213.115C157.285 212.705 157.37 212.25 157.37 211.75C157.37 211.25 157.285 210.795 157.115 210.385C156.955 209.975 156.725 209.62 156.425 209.32C156.135 209.02 155.79 208.79 155.39 208.63C154.99 208.47 154.555 208.39 154.085 208.39C153.615 208.39 153.18 208.47 152.78 208.63C152.39 208.79 152.045 209.02 151.745 209.32C151.445 209.62 151.21 209.975 151.04 210.385C150.88 210.795 150.8 211.25 150.8 211.75C150.8 212.24 150.88 212.695 151.04 213.115C151.21 213.525 151.44 213.88 151.73 214.18C152.03 214.48 152.38 214.71 152.78 214.87C153.18 215.03 153.615 215.11 154.085 215.11ZM166.666 217.18C165.856 217.18 165.101 217.05 164.401 216.79C163.711 216.52 163.111 216.14 162.601 215.65C162.091 215.16 161.691 214.585 161.401 213.925C161.121 213.265 160.981 212.54 160.981 211.75C160.981 210.96 161.121 210.235 161.401 209.575C161.691 208.915 162.091 208.34 162.601 207.85C163.121 207.36 163.726 206.985 164.416 206.725C165.106 206.455 165.861 206.32 166.681 206.32C167.591 206.32 168.411 206.48 169.141 206.8C169.881 207.11 170.501 207.57 171.001 208.18L169.441 209.62C169.081 209.21 168.681 208.905 168.241 208.705C167.801 208.495 167.321 208.39 166.801 208.39C166.311 208.39 165.861 208.47 165.451 208.63C165.041 208.79 164.686 209.02 164.386 209.32C164.086 209.62 163.851 209.975 163.681 210.385C163.521 210.795 163.441 211.25 163.441 211.75C163.441 212.25 163.521 212.705 163.681 213.115C163.851 213.525 164.086 213.88 164.386 214.18C164.686 214.48 165.041 214.71 165.451 214.87C165.861 215.03 166.311 215.11 166.801 215.11C167.321 215.11 167.801 215.01 168.241 214.81C168.681 214.6 169.081 214.285 169.441 213.865L171.001 215.305C170.501 215.915 169.881 216.38 169.141 216.7C168.411 217.02 167.586 217.18 166.666 217.18ZM174.748 217V207.925L175.303 208.48H171.403V206.5H180.508V208.48H176.608L177.148 207.925V217H174.748ZM180.321 217L185.001 206.5H187.401L192.096 217H189.546L185.706 207.73H186.666L182.811 217H180.321ZM182.661 214.75L183.306 212.905H188.706L189.366 214.75H182.661ZM193.489 217V206.5H198.379C199.599 206.5 200.549 206.735 201.229 207.205C201.909 207.675 202.249 208.345 202.249 209.215C202.249 210.075 201.929 210.745 201.289 211.225C200.649 211.695 199.799 211.93 198.739 211.93L199.024 211.3C200.204 211.3 201.119 211.535 201.769 212.005C202.419 212.475 202.744 213.155 202.744 214.045C202.744 214.965 202.394 215.69 201.694 216.22C201.004 216.74 199.994 217 198.664 217H193.489ZM195.904 215.2H198.574C199.134 215.2 199.559 215.09 199.849 214.87C200.139 214.65 200.284 214.31 200.284 213.85C200.284 213.41 200.139 213.085 199.849 212.875C199.559 212.655 199.134 212.545 198.574 212.545H195.904V215.2ZM195.904 210.85H198.169C198.699 210.85 199.099 210.745 199.369 210.535C199.639 210.315 199.774 209.995 199.774 209.575C199.774 209.155 199.639 208.84 199.369 208.63C199.099 208.41 198.699 208.3 198.169 208.3H195.904V210.85ZM204.77 217.165C204.59 217.165 204.4 217.15 204.2 217.12C204.01 217.09 203.8 217.05 203.57 217L203.72 214.945C203.86 214.985 204.005 215.005 204.155 215.005C204.565 215.005 204.885 214.84 205.115 214.51C205.345 214.17 205.51 213.685 205.61 213.055C205.71 212.425 205.775 211.66 205.805 210.76L205.955 206.5H214.025V217H211.625V207.925L212.18 208.48H207.545L208.04 207.895L207.95 210.67C207.92 211.7 207.85 212.615 207.74 213.415C207.63 214.215 207.46 214.895 207.23 215.455C207 216.015 206.685 216.44 206.285 216.73C205.885 217.02 205.38 217.165 204.77 217.165ZM222.633 217V213.685L223.233 214.21H220.353C219.443 214.21 218.658 214.06 217.998 213.76C217.338 213.46 216.833 213.025 216.483 212.455C216.133 211.885 215.958 211.205 215.958 210.415C215.958 209.595 216.143 208.895 216.513 208.315C216.893 207.725 217.423 207.275 218.103 206.965C218.783 206.655 219.583 206.5 220.503 206.5H225.033V217H222.633ZM215.988 217L218.598 213.235H221.058L218.553 217H215.988ZM222.633 212.905V207.85L223.233 208.48H220.563C219.873 208.48 219.343 208.64 218.973 208.96C218.613 209.28 218.433 209.755 218.433 210.385C218.433 210.995 218.608 211.465 218.958 211.795C219.308 212.125 219.823 212.29 220.503 212.29H223.233L222.633 212.905ZM229.898 210.73H234.953V212.62H229.898V210.73ZM230.078 215.05H235.793V217H227.663V206.5H235.598V208.45H230.078V215.05ZM237.756 217V206.5H239.766L244.236 213.91H243.171L247.566 206.5H249.576L249.591 217H247.311L247.296 209.995H247.731L244.206 215.89H243.126L239.526 209.995H240.036V217H237.756ZM63.5771 235L60.3071 229.945L62.2721 228.76L66.3371 235H63.5771ZM56.7521 235V224.5H59.1671V235H56.7521ZM58.4621 230.77V228.745H62.1221V230.77H58.4621ZM62.4971 230.02L60.2621 229.75L63.6671 224.5H66.2321L62.4971 230.02ZM72.4565 235.18C71.6265 235.18 70.8565 235.045 70.1465 234.775C69.4465 234.505 68.8365 234.125 68.3165 233.635C67.8065 233.145 67.4065 232.57 67.1165 231.91C66.8365 231.25 66.6965 230.53 66.6965 229.75C66.6965 228.97 66.8365 228.25 67.1165 227.59C67.4065 226.93 67.8115 226.355 68.3315 225.865C68.8515 225.375 69.4615 224.995 70.1615 224.725C70.8615 224.455 71.6215 224.32 72.4415 224.32C73.2715 224.32 74.0315 224.455 74.7215 224.725C75.4215 224.995 76.0265 225.375 76.5365 225.865C77.0565 226.355 77.4615 226.93 77.7515 227.59C78.0415 228.24 78.1865 228.96 78.1865 229.75C78.1865 230.53 78.0415 231.255 77.7515 231.925C77.4615 232.585 77.0565 233.16 76.5365 233.65C76.0265 234.13 75.4215 234.505 74.7215 234.775C74.0315 235.045 73.2765 235.18 72.4565 235.18ZM72.4415 233.11C72.9115 233.11 73.3415 233.03 73.7315 232.87C74.1315 232.71 74.4815 232.48 74.7815 232.18C75.0815 231.88 75.3115 231.525 75.4715 231.115C75.6415 230.705 75.7265 230.25 75.7265 229.75C75.7265 229.25 75.6415 228.795 75.4715 228.385C75.3115 227.975 75.0815 227.62 74.7815 227.32C74.4915 227.02 74.1465 226.79 73.7465 226.63C73.3465 226.47 72.9115 226.39 72.4415 226.39C71.9715 226.39 71.5365 226.47 71.1365 226.63C70.7465 226.79 70.4015 227.02 70.1015 227.32C69.8015 227.62 69.5665 227.975 69.3965 228.385C69.2365 228.795 69.1565 229.25 69.1565 229.75C69.1565 230.24 69.2365 230.695 69.3965 231.115C69.5665 231.525 69.7965 231.88 70.0865 232.18C70.3865 232.48 70.7365 232.71 71.1365 232.87C71.5365 233.03 71.9715 233.11 72.4415 233.11ZM80.0584 235V224.5H82.0684L86.5384 231.91H85.4734L89.8684 224.5H91.8784L91.8934 235H89.6134L89.5984 227.995H90.0334L86.5084 233.89H85.4284L81.8284 227.995H82.3384V235H80.0584ZM94.5018 235V224.5H96.5118L100.982 231.91H99.9168L104.312 224.5H106.322L106.337 235H104.057L104.042 227.995H104.477L100.952 233.89H99.8718L96.2718 227.995H96.7818V235H94.5018ZM111.18 228.73H116.235V230.62H111.18V228.73ZM111.36 233.05H117.075V235H108.945V224.5H116.88V226.45H111.36V233.05ZM119.038 235V224.5H123.583C124.523 224.5 125.333 224.655 126.013 224.965C126.693 225.265 127.218 225.7 127.588 226.27C127.958 226.84 128.143 227.52 128.143 228.31C128.143 229.09 127.958 229.765 127.588 230.335C127.218 230.905 126.693 231.345 126.013 231.655C125.333 231.955 124.523 232.105 123.583 232.105H120.388L121.468 231.01V235H119.038ZM121.468 231.28L120.388 230.125H123.448C124.198 230.125 124.758 229.965 125.128 229.645C125.498 229.325 125.683 228.88 125.683 228.31C125.683 227.73 125.498 227.28 125.128 226.96C124.758 226.64 124.198 226.48 123.448 226.48H120.388L121.468 225.325V231.28ZM136.213 231.085C135.693 231.295 135.193 231.455 134.713 231.565C134.233 231.665 133.773 231.715 133.333 231.715C131.923 231.715 130.843 231.38 130.093 230.71C129.343 230.03 128.968 229.055 128.968 227.785V224.5H131.368V227.515C131.368 228.235 131.563 228.78 131.953 229.15C132.343 229.51 132.898 229.69 133.618 229.69C134.078 229.69 134.523 229.64 134.953 229.54C135.383 229.43 135.783 229.275 136.153 229.075L136.213 231.085ZM135.868 235V224.5H138.268V235H135.868ZM143.114 228.73H148.169V230.62H143.114V228.73ZM143.294 233.05H149.009V235H140.879V224.5H148.814V226.45H143.294V233.05ZM155.937 235.18C155.127 235.18 154.372 235.05 153.672 234.79C152.982 234.52 152.382 234.14 151.872 233.65C151.362 233.16 150.962 232.585 150.672 231.925C150.392 231.265 150.252 230.54 150.252 229.75C150.252 228.96 150.392 228.235 150.672 227.575C150.962 226.915 151.362 226.34 151.872 225.85C152.392 225.36 152.997 224.985 153.687 224.725C154.377 224.455 155.132 224.32 155.952 224.32C156.862 224.32 157.682 224.48 158.412 224.8C159.152 225.11 159.772 225.57 160.272 226.18L158.712 227.62C158.352 227.21 157.952 226.905 157.512 226.705C157.072 226.495 156.592 226.39 156.072 226.39C155.582 226.39 155.132 226.47 154.722 226.63C154.312 226.79 153.957 227.02 153.657 227.32C153.357 227.62 153.122 227.975 152.952 228.385C152.792 228.795 152.712 229.25 152.712 229.75C152.712 230.25 152.792 230.705 152.952 231.115C153.122 231.525 153.357 231.88 153.657 232.18C153.957 232.48 154.312 232.71 154.722 232.87C155.132 233.03 155.582 233.11 156.072 233.11C156.592 233.11 157.072 233.01 157.512 232.81C157.952 232.6 158.352 232.285 158.712 231.865L160.272 233.305C159.772 233.915 159.152 234.38 158.412 234.7C157.682 235.02 156.857 235.18 155.937 235.18ZM168.65 235L165.38 229.945L167.345 228.76L171.41 235H168.65ZM161.825 235V224.5H164.24V235H161.825ZM163.535 230.77V228.745H167.195V230.77H163.535ZM167.57 230.02L165.335 229.75L168.74 224.5H171.305L167.57 230.02ZM177.53 235.18C176.7 235.18 175.93 235.045 175.22 234.775C174.52 234.505 173.91 234.125 173.39 233.635C172.88 233.145 172.48 232.57 172.19 231.91C171.91 231.25 171.77 230.53 171.77 229.75C171.77 228.97 171.91 228.25 172.19 227.59C172.48 226.93 172.885 226.355 173.405 225.865C173.925 225.375 174.535 224.995 175.235 224.725C175.935 224.455 176.695 224.32 177.515 224.32C178.345 224.32 179.105 224.455 179.795 224.725C180.495 224.995 181.1 225.375 181.61 225.865C182.13 226.355 182.535 226.93 182.825 227.59C183.115 228.24 183.26 228.96 183.26 229.75C183.26 230.53 183.115 231.255 182.825 231.925C182.535 232.585 182.13 233.16 181.61 233.65C181.1 234.13 180.495 234.505 179.795 234.775C179.105 235.045 178.35 235.18 177.53 235.18ZM177.515 233.11C177.985 233.11 178.415 233.03 178.805 232.87C179.205 232.71 179.555 232.48 179.855 232.18C180.155 231.88 180.385 231.525 180.545 231.115C180.715 230.705 180.8 230.25 180.8 229.75C180.8 229.25 180.715 228.795 180.545 228.385C180.385 227.975 180.155 227.62 179.855 227.32C179.565 227.02 179.22 226.79 178.82 226.63C178.42 226.47 177.985 226.39 177.515 226.39C177.045 226.39 176.61 226.47 176.21 226.63C175.82 226.79 175.475 227.02 175.175 227.32C174.875 227.62 174.64 227.975 174.47 228.385C174.31 228.795 174.23 229.25 174.23 229.75C174.23 230.24 174.31 230.695 174.47 231.115C174.64 231.525 174.87 231.88 175.16 232.18C175.46 232.48 175.81 232.71 176.21 232.87C176.61 233.03 177.045 233.11 177.515 233.11ZM187.367 228.73H192.422V230.62H187.367V228.73ZM187.547 233.05H193.262V235H185.132V224.5H193.067V226.45H187.547V233.05ZM199.472 235V224.5H209.042V235H206.627V225.925L207.182 226.48H201.332L201.887 225.925V235H199.472ZM211.645 235V224.5H216.19C217.13 224.5 217.94 224.655 218.62 224.965C219.3 225.265 219.825 225.7 220.195 226.27C220.565 226.84 220.75 227.52 220.75 228.31C220.75 229.09 220.565 229.765 220.195 230.335C219.825 230.905 219.3 231.345 218.62 231.655C217.94 231.955 217.13 232.105 216.19 232.105H212.995L214.075 231.01V235H211.645ZM214.075 231.28L212.995 230.125H216.055C216.805 230.125 217.365 229.965 217.735 229.645C218.105 229.325 218.29 228.88 218.29 228.31C218.29 227.73 218.105 227.28 217.735 226.96C217.365 226.64 216.805 226.48 216.055 226.48H212.995L214.075 225.325V231.28ZM224.588 228.73H229.643V230.62H224.588V228.73ZM224.768 233.05H230.483V235H222.353V224.5H230.288V226.45H224.768V233.05ZM239.406 233.92V226.48H235.806L235.761 228.01C235.731 228.66 235.686 229.275 235.626 229.855C235.576 230.435 235.496 230.965 235.386 231.445C235.276 231.915 235.131 232.315 234.951 232.645C234.781 232.975 234.566 233.21 234.306 233.35L231.711 233.02C232.071 233.03 232.366 232.905 232.596 232.645C232.836 232.385 233.026 232.02 233.166 231.55C233.306 231.07 233.406 230.51 233.466 229.87C233.536 229.23 233.586 228.535 233.616 227.785L233.736 224.5H241.806V233.92H239.406ZM231.366 237.175L231.381 233.02H243.276V237.175H241.026V235H233.616V237.175H231.366ZM245.017 235.165C244.837 235.165 244.647 235.15 244.447 235.12C244.257 235.09 244.047 235.05 243.817 235L243.967 232.945C244.107 232.985 244.252 233.005 244.402 233.005C244.812 233.005 245.132 232.84 245.362 232.51C245.592 232.17 245.757 231.685 245.857 231.055C245.957 230.425 246.022 229.66 246.052 228.76L246.202 224.5H254.272V235H251.872V225.925L252.427 226.48H247.792L248.287 225.895L248.197 228.67C248.167 229.7 248.097 230.615 247.987 231.415C247.877 232.215 247.707 232.895 247.477 233.455C247.247 234.015 246.932 234.44 246.532 234.73C246.132 235.02 245.627 235.165 245.017 235.165ZM261.919 235.18C261.089 235.18 260.319 235.045 259.609 234.775C258.909 234.505 258.299 234.125 257.779 233.635C257.269 233.145 256.869 232.57 256.579 231.91C256.299 231.25 256.159 230.53 256.159 229.75C256.159 228.97 256.299 228.25 256.579 227.59C256.869 226.93 257.274 226.355 257.794 225.865C258.314 225.375 258.924 224.995 259.624 224.725C260.324 224.455 261.084 224.32 261.904 224.32C262.734 224.32 263.494 224.455 264.184 224.725C264.884 224.995 265.489 225.375 265.999 225.865C266.519 226.355 266.924 226.93 267.214 227.59C267.504 228.24 267.649 228.96 267.649 229.75C267.649 230.53 267.504 231.255 267.214 231.925C266.924 232.585 266.519 233.16 265.999 233.65C265.489 234.13 264.884 234.505 264.184 234.775C263.494 235.045 262.739 235.18 261.919 235.18ZM261.904 233.11C262.374 233.11 262.804 233.03 263.194 232.87C263.594 232.71 263.944 232.48 264.244 232.18C264.544 231.88 264.774 231.525 264.934 231.115C265.104 230.705 265.189 230.25 265.189 229.75C265.189 229.25 265.104 228.795 264.934 228.385C264.774 227.975 264.544 227.62 264.244 227.32C263.954 227.02 263.609 226.79 263.209 226.63C262.809 226.47 262.374 226.39 261.904 226.39C261.434 226.39 260.999 226.47 260.599 226.63C260.209 226.79 259.864 227.02 259.564 227.32C259.264 227.62 259.029 227.975 258.859 228.385C258.699 228.795 258.619 229.25 258.619 229.75C258.619 230.24 258.699 230.695 258.859 231.115C259.029 231.525 259.259 231.88 259.549 232.18C259.849 232.48 260.199 232.71 260.599 232.87C260.999 233.03 261.434 233.11 261.904 233.11ZM281.02 235L278.2 229.945L280.255 228.76L283.825 235H281.02ZM276.415 230.77V228.745H279.685V230.77H276.415ZM280.39 230.02L278.14 229.75L281.065 224.5H283.63L280.39 230.02ZM270.835 235H268.03L271.6 228.76L273.655 229.945L270.835 235ZM277.135 235H274.75V224.5H277.135V235ZM275.455 230.77H272.17V228.745H275.455V230.77ZM271.48 230.02L268.225 224.5H270.79L273.7 229.75L271.48 230.02ZM287.225 228.73H292.28V230.62H287.225V228.73ZM287.405 233.05H293.12V235H284.99V224.5H292.925V226.45H287.405V233.05ZM302.283 224.5H304.713V235H302.283V224.5ZM297.513 235H295.083V224.5H297.513V235ZM302.463 230.695H297.333V228.64H302.463V230.695ZM307.344 235V224.5H309.759V231.34L314.769 224.5H317.049V235H314.649V228.175L309.639 235H307.344ZM321.898 228.73H326.953V230.62H321.898V228.73ZM322.078 233.05H327.793V235H319.663V224.5H327.598V226.45H322.078V233.05ZM329.272 237.31L330.262 233.71L330.592 235.06C330.162 235.06 329.807 234.935 329.527 234.685C329.257 234.435 329.122 234.09 329.122 233.65C329.122 233.21 329.262 232.86 329.542 232.6C329.822 232.34 330.167 232.21 330.577 232.21C330.997 232.21 331.342 232.345 331.612 232.615C331.882 232.875 332.017 233.22 332.017 233.65C332.017 233.78 332.007 233.91 331.987 234.04C331.967 234.16 331.927 234.31 331.867 234.49C331.817 234.66 331.732 234.88 331.612 235.15L330.757 237.31H329.272ZM142.644 253.18C141.814 253.18 141.044 253.045 140.334 252.775C139.634 252.505 139.024 252.125 138.504 251.635C137.994 251.145 137.594 250.57 137.304 249.91C137.024 249.25 136.884 248.53 136.884 247.75C136.884 246.97 137.024 246.25 137.304 245.59C137.594 244.93 137.999 244.355 138.519 243.865C139.039 243.375 139.649 242.995 140.349 242.725C141.049 242.455 141.809 242.32 142.629 242.32C143.459 242.32 144.219 242.455 144.909 242.725C145.609 242.995 146.214 243.375 146.724 243.865C147.244 244.355 147.649 244.93 147.939 245.59C148.229 246.24 148.374 246.96 148.374 247.75C148.374 248.53 148.229 249.255 147.939 249.925C147.649 250.585 147.244 251.16 146.724 251.65C146.214 252.13 145.609 252.505 144.909 252.775C144.219 253.045 143.464 253.18 142.644 253.18ZM142.629 251.11C143.099 251.11 143.529 251.03 143.919 250.87C144.319 250.71 144.669 250.48 144.969 250.18C145.269 249.88 145.499 249.525 145.659 249.115C145.829 248.705 145.914 248.25 145.914 247.75C145.914 247.25 145.829 246.795 145.659 246.385C145.499 245.975 145.269 245.62 144.969 245.32C144.679 245.02 144.334 244.79 143.934 244.63C143.534 244.47 143.099 244.39 142.629 244.39C142.159 244.39 141.724 244.47 141.324 244.63C140.934 244.79 140.589 245.02 140.289 245.32C139.989 245.62 139.754 245.975 139.584 246.385C139.424 246.795 139.344 247.25 139.344 247.75C139.344 248.24 139.424 248.695 139.584 249.115C139.754 249.525 139.984 249.88 140.274 250.18C140.574 250.48 140.924 250.71 141.324 250.87C141.724 251.03 142.159 251.11 142.629 251.11ZM152.365 253V243.925L152.92 244.48H149.02V242.5H158.125V244.48H154.225L154.765 243.925V253H152.365ZM170.694 253L167.424 247.945L169.389 246.76L173.454 253H170.694ZM163.869 253V242.5H166.284V253H163.869ZM165.579 248.77V246.745H169.239V248.77H165.579ZM169.614 248.02L167.379 247.75L170.784 242.5H173.349L169.614 248.02ZM179.573 253.18C178.743 253.18 177.973 253.045 177.263 252.775C176.563 252.505 175.953 252.125 175.433 251.635C174.923 251.145 174.523 250.57 174.233 249.91C173.953 249.25 173.813 248.53 173.813 247.75C173.813 246.97 173.953 246.25 174.233 245.59C174.523 244.93 174.928 244.355 175.448 243.865C175.968 243.375 176.578 242.995 177.278 242.725C177.978 242.455 178.738 242.32 179.558 242.32C180.388 242.32 181.148 242.455 181.838 242.725C182.538 242.995 183.143 243.375 183.653 243.865C184.173 244.355 184.578 244.93 184.868 245.59C185.158 246.24 185.303 246.96 185.303 247.75C185.303 248.53 185.158 249.255 184.868 249.925C184.578 250.585 184.173 251.16 183.653 251.65C183.143 252.13 182.538 252.505 181.838 252.775C181.148 253.045 180.393 253.18 179.573 253.18ZM179.558 251.11C180.028 251.11 180.458 251.03 180.848 250.87C181.248 250.71 181.598 250.48 181.898 250.18C182.198 249.88 182.428 249.525 182.588 249.115C182.758 248.705 182.843 248.25 182.843 247.75C182.843 247.25 182.758 246.795 182.588 246.385C182.428 245.975 182.198 245.62 181.898 245.32C181.608 245.02 181.263 244.79 180.863 244.63C180.463 244.47 180.028 244.39 179.558 244.39C179.088 244.39 178.653 244.47 178.253 244.63C177.863 244.79 177.518 245.02 177.218 245.32C176.918 245.62 176.683 245.975 176.513 246.385C176.353 246.795 176.273 247.25 176.273 247.75C176.273 248.24 176.353 248.695 176.513 249.115C176.683 249.525 176.913 249.88 177.203 250.18C177.503 250.48 177.853 250.71 178.253 250.87C178.653 251.03 179.088 251.11 179.558 251.11ZM189.294 253V243.925L189.849 244.48H185.949V242.5H195.054V244.48H191.154L191.694 243.925V253H189.294ZM201.458 253.18C200.628 253.18 199.858 253.045 199.148 252.775C198.448 252.505 197.838 252.125 197.318 251.635C196.808 251.145 196.408 250.57 196.118 249.91C195.838 249.25 195.698 248.53 195.698 247.75C195.698 246.97 195.838 246.25 196.118 245.59C196.408 244.93 196.813 244.355 197.333 243.865C197.853 243.375 198.463 242.995 199.163 242.725C199.863 242.455 200.623 242.32 201.443 242.32C202.273 242.32 203.033 242.455 203.723 242.725C204.423 242.995 205.028 243.375 205.538 243.865C206.058 244.355 206.463 244.93 206.753 245.59C207.043 246.24 207.188 246.96 207.188 247.75C207.188 248.53 207.043 249.255 206.753 249.925C206.463 250.585 206.058 251.16 205.538 251.65C205.028 252.13 204.423 252.505 203.723 252.775C203.033 253.045 202.278 253.18 201.458 253.18ZM201.443 251.11C201.913 251.11 202.343 251.03 202.733 250.87C203.133 250.71 203.483 250.48 203.783 250.18C204.083 249.88 204.313 249.525 204.473 249.115C204.643 248.705 204.728 248.25 204.728 247.75C204.728 247.25 204.643 246.795 204.473 246.385C204.313 245.975 204.083 245.62 203.783 245.32C203.493 245.02 203.148 244.79 202.748 244.63C202.348 244.47 201.913 244.39 201.443 244.39C200.973 244.39 200.538 244.47 200.138 244.63C199.748 244.79 199.403 245.02 199.103 245.32C198.803 245.62 198.568 245.975 198.398 246.385C198.238 246.795 198.158 247.25 198.158 247.75C198.158 248.24 198.238 248.695 198.398 249.115C198.568 249.525 198.798 249.88 199.088 250.18C199.388 250.48 199.738 250.71 200.138 250.87C200.538 251.03 200.973 251.11 201.443 251.11ZM209.06 253V242.5H213.605C214.545 242.5 215.355 242.655 216.035 242.965C216.715 243.265 217.24 243.7 217.61 244.27C217.98 244.84 218.165 245.52 218.165 246.31C218.165 247.09 217.98 247.765 217.61 248.335C217.24 248.905 216.715 249.345 216.035 249.655C215.355 249.955 214.545 250.105 213.605 250.105H210.41L211.49 249.01V253H209.06ZM211.49 249.28L210.41 248.125H213.47C214.22 248.125 214.78 247.965 215.15 247.645C215.52 247.325 215.705 246.88 215.705 246.31C215.705 245.73 215.52 245.28 215.15 244.96C214.78 244.64 214.22 244.48 213.47 244.48H210.41L211.49 243.325V249.28ZM224.939 253.18C224.109 253.18 223.339 253.045 222.629 252.775C221.929 252.505 221.319 252.125 220.799 251.635C220.289 251.145 219.889 250.57 219.599 249.91C219.319 249.25 219.179 248.53 219.179 247.75C219.179 246.97 219.319 246.25 219.599 245.59C219.889 244.93 220.294 244.355 220.814 243.865C221.334 243.375 221.944 242.995 222.644 242.725C223.344 242.455 224.104 242.32 224.924 242.32C225.754 242.32 226.514 242.455 227.204 242.725C227.904 242.995 228.509 243.375 229.019 243.865C229.539 244.355 229.944 244.93 230.234 245.59C230.524 246.24 230.669 246.96 230.669 247.75C230.669 248.53 230.524 249.255 230.234 249.925C229.944 250.585 229.539 251.16 229.019 251.65C228.509 252.13 227.904 252.505 227.204 252.775C226.514 253.045 225.759 253.18 224.939 253.18ZM224.924 251.11C225.394 251.11 225.824 251.03 226.214 250.87C226.614 250.71 226.964 250.48 227.264 250.18C227.564 249.88 227.794 249.525 227.954 249.115C228.124 248.705 228.209 248.25 228.209 247.75C228.209 247.25 228.124 246.795 227.954 246.385C227.794 245.975 227.564 245.62 227.264 245.32C226.974 245.02 226.629 244.79 226.229 244.63C225.829 244.47 225.394 244.39 224.924 244.39C224.454 244.39 224.019 244.47 223.619 244.63C223.229 244.79 222.884 245.02 222.584 245.32C222.284 245.62 222.049 245.975 221.879 246.385C221.719 246.795 221.639 247.25 221.639 247.75C221.639 248.24 221.719 248.695 221.879 249.115C222.049 249.525 222.279 249.88 222.569 250.18C222.869 250.48 223.219 250.71 223.619 250.87C224.019 251.03 224.454 251.11 224.924 251.11ZM232.541 253V242.5H239.951L239.936 244.48H234.386L234.941 243.925L234.956 253H232.541ZM245.389 253.18C244.559 253.18 243.789 253.045 243.079 252.775C242.379 252.505 241.769 252.125 241.249 251.635C240.739 251.145 240.339 250.57 240.049 249.91C239.769 249.25 239.629 248.53 239.629 247.75C239.629 246.97 239.769 246.25 240.049 245.59C240.339 244.93 240.744 244.355 241.264 243.865C241.784 243.375 242.394 242.995 243.094 242.725C243.794 242.455 244.554 242.32 245.374 242.32C246.204 242.32 246.964 242.455 247.654 242.725C248.354 242.995 248.959 243.375 249.469 243.865C249.989 244.355 250.394 244.93 250.684 245.59C250.974 246.24 251.119 246.96 251.119 247.75C251.119 248.53 250.974 249.255 250.684 249.925C250.394 250.585 249.989 251.16 249.469 251.65C248.959 252.13 248.354 252.505 247.654 252.775C246.964 253.045 246.209 253.18 245.389 253.18ZM245.374 251.11C245.844 251.11 246.274 251.03 246.664 250.87C247.064 250.71 247.414 250.48 247.714 250.18C248.014 249.88 248.244 249.525 248.404 249.115C248.574 248.705 248.659 248.25 248.659 247.75C248.659 247.25 248.574 246.795 248.404 246.385C248.244 245.975 248.014 245.62 247.714 245.32C247.424 245.02 247.079 244.79 246.679 244.63C246.279 244.47 245.844 244.39 245.374 244.39C244.904 244.39 244.469 244.47 244.069 244.63C243.679 244.79 243.334 245.02 243.034 245.32C242.734 245.62 242.499 245.975 242.329 246.385C242.169 246.795 242.089 247.25 242.089 247.75C242.089 248.24 242.169 248.695 242.329 249.115C242.499 249.525 242.729 249.88 243.019 250.18C243.319 250.48 243.669 250.71 244.069 250.87C244.469 251.03 244.904 251.11 245.374 251.11ZM51.7796 271V260.5H56.6696C57.8896 260.5 58.8396 260.735 59.5196 261.205C60.1996 261.675 60.5396 262.345 60.5396 263.215C60.5396 264.075 60.2196 264.745 59.5796 265.225C58.9396 265.695 58.0896 265.93 57.0296 265.93L57.3146 265.3C58.4946 265.3 59.4096 265.535 60.0596 266.005C60.7096 266.475 61.0346 267.155 61.0346 268.045C61.0346 268.965 60.6846 269.69 59.9846 270.22C59.2946 270.74 58.2846 271 56.9546 271H51.7796ZM54.1946 269.2H56.8646C57.4246 269.2 57.8496 269.09 58.1396 268.87C58.4296 268.65 58.5746 268.31 58.5746 267.85C58.5746 267.41 58.4296 267.085 58.1396 266.875C57.8496 266.655 57.4246 266.545 56.8646 266.545H54.1946V269.2ZM54.1946 264.85H56.4596C56.9896 264.85 57.3896 264.745 57.6596 264.535C57.9296 264.315 58.0646 263.995 58.0646 263.575C58.0646 263.155 57.9296 262.84 57.6596 262.63C57.3896 262.41 56.9896 262.3 56.4596 262.3H54.1946V264.85ZM61.7714 271L66.4514 260.5H68.8514L73.5464 271H70.9964L67.1564 261.73H68.1164L64.2614 271H61.7714ZM64.1114 268.75L64.7564 266.905H70.1564L70.8164 268.75H64.1114ZM74.9388 271V260.5H76.9488L81.4188 267.91H80.3538L84.7488 260.5H86.7588L86.7738 271H84.4938L84.4788 263.995H84.9138L81.3888 269.89H80.3088L76.7088 263.995H77.2188V271H74.9388ZM93.6302 271V260.5H102.105V262.435H96.0452V264.595H98.9552C100.225 264.595 101.19 264.86 101.85 265.39C102.52 265.92 102.855 266.69 102.855 267.7C102.855 268.74 102.485 269.55 101.745 270.13C101.005 270.71 99.9602 271 98.6102 271H93.6302ZM96.0452 269.2H98.4752C99.0952 269.2 99.5702 269.08 99.9002 268.84C100.23 268.59 100.395 268.23 100.395 267.76C100.395 266.84 99.7552 266.38 98.4752 266.38H96.0452V269.2ZM104.669 269.02C105.249 269.19 105.734 269.24 106.124 269.17C106.524 269.09 106.879 268.81 107.189 268.33L107.699 267.565L107.924 267.31L111.404 260.5H113.789L109.319 268.81C108.919 269.56 108.444 270.135 107.894 270.535C107.354 270.935 106.759 271.16 106.109 271.21C105.459 271.27 104.784 271.155 104.084 270.865L104.669 269.02ZM107.879 269.335L103.139 260.5H105.734L109.214 267.55L107.879 269.335ZM121.728 269.92V262.48H118.128L118.083 264.01C118.053 264.66 118.008 265.275 117.948 265.855C117.898 266.435 117.818 266.965 117.708 267.445C117.598 267.915 117.453 268.315 117.273 268.645C117.103 268.975 116.888 269.21 116.628 269.35L114.033 269.02C114.393 269.03 114.688 268.905 114.918 268.645C115.158 268.385 115.348 268.02 115.488 267.55C115.628 267.07 115.728 266.51 115.788 265.87C115.858 265.23 115.908 264.535 115.938 263.785L116.058 260.5H124.128V269.92H121.728ZM113.688 273.175L113.703 269.02H125.598V273.175H123.348V271H115.938V273.175H113.688ZM129.469 264.73H134.524V266.62H129.469V264.73ZM129.649 269.05H135.364V271H127.234V260.5H135.169V262.45H129.649V269.05ZM139.591 271V261.925L140.146 262.48H136.246V260.5H145.351V262.48H141.451L141.991 261.925V271H139.591ZM156.09 271.18C155.28 271.18 154.525 271.05 153.825 270.79C153.135 270.52 152.535 270.14 152.025 269.65C151.515 269.16 151.115 268.585 150.825 267.925C150.545 267.265 150.405 266.54 150.405 265.75C150.405 264.96 150.545 264.235 150.825 263.575C151.115 262.915 151.515 262.34 152.025 261.85C152.545 261.36 153.15 260.985 153.84 260.725C154.53 260.455 155.285 260.32 156.105 260.32C157.015 260.32 157.835 260.48 158.565 260.8C159.305 261.11 159.925 261.57 160.425 262.18L158.865 263.62C158.505 263.21 158.105 262.905 157.665 262.705C157.225 262.495 156.745 262.39 156.225 262.39C155.735 262.39 155.285 262.47 154.875 262.63C154.465 262.79 154.11 263.02 153.81 263.32C153.51 263.62 153.275 263.975 153.105 264.385C152.945 264.795 152.865 265.25 152.865 265.75C152.865 266.25 152.945 266.705 153.105 267.115C153.275 267.525 153.51 267.88 153.81 268.18C154.11 268.48 154.465 268.71 154.875 268.87C155.285 269.03 155.735 269.11 156.225 269.11C156.745 269.11 157.225 269.01 157.665 268.81C158.105 268.6 158.505 268.285 158.865 267.865L160.425 269.305C159.925 269.915 159.305 270.38 158.565 270.7C157.835 271.02 157.01 271.18 156.09 271.18ZM161.865 271.165C161.685 271.165 161.495 271.15 161.295 271.12C161.105 271.09 160.895 271.05 160.665 271L160.815 268.945C160.955 268.985 161.1 269.005 161.25 269.005C161.66 269.005 161.98 268.84 162.21 268.51C162.44 268.17 162.605 267.685 162.705 267.055C162.805 266.425 162.87 265.66 162.9 264.76L163.05 260.5H171.12V271H168.72V261.925L169.275 262.48H164.64L165.135 261.895L165.045 264.67C165.015 265.7 164.945 266.615 164.835 267.415C164.725 268.215 164.555 268.895 164.325 269.455C164.095 270.015 163.78 270.44 163.38 270.73C162.98 271.02 162.475 271.165 161.865 271.165ZM178.768 271.18C177.938 271.18 177.168 271.045 176.458 270.775C175.758 270.505 175.148 270.125 174.628 269.635C174.118 269.145 173.718 268.57 173.427 267.91C173.148 267.25 173.008 266.53 173.008 265.75C173.008 264.97 173.148 264.25 173.427 263.59C173.718 262.93 174.123 262.355 174.642 261.865C175.163 261.375 175.773 260.995 176.473 260.725C177.173 260.455 177.933 260.32 178.753 260.32C179.583 260.32 180.343 260.455 181.033 260.725C181.733 260.995 182.338 261.375 182.848 261.865C183.368 262.355 183.773 262.93 184.063 263.59C184.353 264.24 184.498 264.96 184.498 265.75C184.498 266.53 184.353 267.255 184.063 267.925C183.773 268.585 183.368 269.16 182.848 269.65C182.338 270.13 181.733 270.505 181.033 270.775C180.343 271.045 179.588 271.18 178.768 271.18ZM178.753 269.11C179.223 269.11 179.653 269.03 180.043 268.87C180.443 268.71 180.793 268.48 181.093 268.18C181.393 267.88 181.623 267.525 181.783 267.115C181.953 266.705 182.038 266.25 182.038 265.75C182.038 265.25 181.953 264.795 181.783 264.385C181.623 263.975 181.393 263.62 181.093 263.32C180.803 263.02 180.458 262.79 180.058 262.63C179.658 262.47 179.223 262.39 178.753 262.39C178.283 262.39 177.848 262.47 177.448 262.63C177.058 262.79 176.713 263.02 176.413 263.32C176.113 263.62 175.878 263.975 175.708 264.385C175.548 264.795 175.468 265.25 175.468 265.75C175.468 266.24 175.548 266.695 175.708 267.115C175.878 267.525 176.108 267.88 176.397 268.18C176.697 268.48 177.048 268.71 177.448 268.87C177.848 269.03 178.283 269.11 178.753 269.11ZM197.869 271L195.049 265.945L197.104 264.76L200.674 271H197.869ZM193.264 266.77V264.745H196.534V266.77H193.264ZM197.239 266.02L194.989 265.75L197.914 260.5H200.479L197.239 266.02ZM187.684 271H184.879L188.449 264.76L190.504 265.945L187.684 271ZM193.984 271H191.599V260.5H193.984V271ZM192.304 266.77H189.019V264.745H192.304V266.77ZM188.329 266.02L185.074 260.5H187.639L190.549 265.75L188.329 266.02ZM209.038 260.5H211.468V271H209.038V260.5ZM204.268 271H201.838V260.5H204.268V271ZM209.218 266.695H204.088V264.64H209.218V266.695ZM219.124 271.18C218.294 271.18 217.524 271.045 216.814 270.775C216.114 270.505 215.504 270.125 214.984 269.635C214.474 269.145 214.074 268.57 213.784 267.91C213.504 267.25 213.364 266.53 213.364 265.75C213.364 264.97 213.504 264.25 213.784 263.59C214.074 262.93 214.479 262.355 214.999 261.865C215.519 261.375 216.129 260.995 216.829 260.725C217.529 260.455 218.289 260.32 219.109 260.32C219.939 260.32 220.699 260.455 221.389 260.725C222.089 260.995 222.694 261.375 223.204 261.865C223.724 262.355 224.129 262.93 224.419 263.59C224.709 264.24 224.854 264.96 224.854 265.75C224.854 266.53 224.709 267.255 224.419 267.925C224.129 268.585 223.724 269.16 223.204 269.65C222.694 270.13 222.089 270.505 221.389 270.775C220.699 271.045 219.944 271.18 219.124 271.18ZM219.109 269.11C219.579 269.11 220.009 269.03 220.399 268.87C220.799 268.71 221.149 268.48 221.449 268.18C221.749 267.88 221.979 267.525 222.139 267.115C222.309 266.705 222.394 266.25 222.394 265.75C222.394 265.25 222.309 264.795 222.139 264.385C221.979 263.975 221.749 263.62 221.449 263.32C221.159 263.02 220.814 262.79 220.414 262.63C220.014 262.47 219.579 262.39 219.109 262.39C218.639 262.39 218.204 262.47 217.804 262.63C217.414 262.79 217.069 263.02 216.769 263.32C216.469 263.62 216.234 263.975 216.064 264.385C215.904 264.795 215.824 265.25 215.824 265.75C215.824 266.24 215.904 266.695 216.064 267.115C216.234 267.525 216.464 267.88 216.754 268.18C217.054 268.48 217.404 268.71 217.804 268.87C218.204 269.03 218.639 269.11 219.109 269.11ZM235.999 271.18C235.169 271.18 234.399 271.045 233.689 270.775C232.989 270.505 232.379 270.125 231.859 269.635C231.349 269.145 230.949 268.57 230.659 267.91C230.379 267.25 230.239 266.53 230.239 265.75C230.239 264.97 230.379 264.25 230.659 263.59C230.949 262.93 231.354 262.355 231.874 261.865C232.394 261.375 233.004 260.995 233.704 260.725C234.404 260.455 235.164 260.32 235.984 260.32C236.814 260.32 237.574 260.455 238.264 260.725C238.964 260.995 239.569 261.375 240.079 261.865C240.599 262.355 241.004 262.93 241.294 263.59C241.584 264.24 241.729 264.96 241.729 265.75C241.729 266.53 241.584 267.255 241.294 267.925C241.004 268.585 240.599 269.16 240.079 269.65C239.569 270.13 238.964 270.505 238.264 270.775C237.574 271.045 236.819 271.18 235.999 271.18ZM235.984 269.11C236.454 269.11 236.884 269.03 237.274 268.87C237.674 268.71 238.024 268.48 238.324 268.18C238.624 267.88 238.854 267.525 239.014 267.115C239.184 266.705 239.269 266.25 239.269 265.75C239.269 265.25 239.184 264.795 239.014 264.385C238.854 263.975 238.624 263.62 238.324 263.32C238.034 263.02 237.689 262.79 237.289 262.63C236.889 262.47 236.454 262.39 235.984 262.39C235.514 262.39 235.079 262.47 234.679 262.63C234.289 262.79 233.944 263.02 233.644 263.32C233.344 263.62 233.109 263.975 232.939 264.385C232.779 264.795 232.699 265.25 232.699 265.75C232.699 266.24 232.779 266.695 232.939 267.115C233.109 267.525 233.339 267.88 233.629 268.18C233.929 268.48 234.279 268.71 234.679 268.87C235.079 269.03 235.514 269.11 235.984 269.11ZM245.719 271V261.925L246.274 262.48H242.374V260.5H251.479V262.48H247.579L248.119 261.925V271H245.719ZM259.8 271L256.53 265.945L258.495 264.76L262.56 271H259.8ZM252.975 271V260.5H255.39V271H252.975ZM254.685 266.77V264.745H258.345V266.77H254.685ZM258.72 266.02L256.485 265.75L259.89 260.5H262.455L258.72 266.02ZM262.294 271L266.974 260.5H269.374L274.069 271H271.519L267.679 261.73H268.639L264.784 271H262.294ZM264.634 268.75L265.279 266.905H270.679L271.339 268.75H264.634ZM274.516 270.07L275.266 268.33C275.716 268.6 276.196 268.81 276.706 268.96C277.226 269.1 277.731 269.18 278.221 269.2C278.721 269.21 279.171 269.16 279.571 269.05C279.981 268.94 280.306 268.775 280.546 268.555C280.796 268.335 280.921 268.055 280.921 267.715C280.921 267.315 280.756 267.02 280.426 266.83C280.096 266.63 279.656 266.53 279.106 266.53H276.541V264.7H278.926C279.416 264.7 279.796 264.6 280.066 264.4C280.346 264.2 280.486 263.925 280.486 263.575C280.486 263.275 280.386 263.035 280.186 262.855C279.986 262.665 279.711 262.525 279.361 262.435C279.021 262.345 278.636 262.305 278.206 262.315C277.776 262.325 277.331 262.395 276.871 262.525C276.411 262.655 275.971 262.835 275.551 263.065L274.816 261.19C275.496 260.84 276.211 260.6 276.961 260.47C277.721 260.33 278.451 260.295 279.151 260.365C279.861 260.425 280.501 260.585 281.071 260.845C281.641 261.095 282.096 261.425 282.436 261.835C282.776 262.245 282.946 262.73 282.946 263.29C282.946 263.79 282.816 264.235 282.556 264.625C282.296 265.015 281.931 265.315 281.461 265.525C281.001 265.735 280.471 265.84 279.871 265.84L279.931 265.3C280.631 265.3 281.236 265.42 281.746 265.66C282.266 265.89 282.666 266.215 282.946 266.635C283.236 267.045 283.381 267.52 283.381 268.06C283.381 268.56 283.246 269.01 282.976 269.41C282.716 269.8 282.356 270.13 281.896 270.4C281.436 270.67 280.911 270.87 280.321 271C279.731 271.13 279.101 271.185 278.431 271.165C277.771 271.145 277.106 271.05 276.436 270.88C275.766 270.7 275.126 270.43 274.516 270.07ZM284.12 271L288.8 260.5H291.2L295.895 271H293.345L289.505 261.73H290.465L286.61 271H284.12ZM286.46 268.75L287.105 266.905H292.505L293.165 268.75H286.46ZM299.025 271V261.925L299.58 262.48H295.68V260.5H304.785V262.48H300.885L301.425 261.925V271H299.025ZM311.396 263.95C312.666 263.95 313.646 264.235 314.336 264.805C315.026 265.365 315.371 266.21 315.371 267.34C315.371 268.54 314.986 269.45 314.216 270.07C313.456 270.69 312.401 271 311.051 271H306.311V260.5H308.726V263.95H311.396ZM310.916 269.2C311.536 269.2 312.026 269.045 312.386 268.735C312.746 268.425 312.926 267.975 312.926 267.385C312.926 266.805 312.746 266.39 312.386 266.14C312.036 265.88 311.546 265.75 310.916 265.75H308.726V269.2H310.916ZM322.086 271.18C321.276 271.18 320.521 271.05 319.821 270.79C319.131 270.52 318.531 270.14 318.021 269.65C317.511 269.16 317.111 268.585 316.821 267.925C316.541 267.265 316.401 266.54 316.401 265.75C316.401 264.96 316.541 264.235 316.821 263.575C317.111 262.915 317.511 262.34 318.021 261.85C318.541 261.36 319.146 260.985 319.836 260.725C320.526 260.455 321.281 260.32 322.101 260.32C323.011 260.32 323.831 260.48 324.561 260.8C325.301 261.11 325.921 261.57 326.421 262.18L324.861 263.62C324.501 263.21 324.101 262.905 323.661 262.705C323.221 262.495 322.741 262.39 322.221 262.39C321.731 262.39 321.281 262.47 320.871 262.63C320.461 262.79 320.106 263.02 319.806 263.32C319.506 263.62 319.271 263.975 319.101 264.385C318.941 264.795 318.861 265.25 318.861 265.75C318.861 266.25 318.941 266.705 319.101 267.115C319.271 267.525 319.506 267.88 319.806 268.18C320.106 268.48 320.461 268.71 320.871 268.87C321.281 269.03 321.731 269.11 322.221 269.11C322.741 269.11 323.221 269.01 323.661 268.81C324.101 268.6 324.501 268.285 324.861 267.865L326.421 269.305C325.921 269.915 325.301 270.38 324.561 270.7C323.831 271.02 323.006 271.18 322.086 271.18ZM333.8 271V267.685L334.4 268.21H331.52C330.61 268.21 329.825 268.06 329.165 267.76C328.505 267.46 328 267.025 327.65 266.455C327.3 265.885 327.125 265.205 327.125 264.415C327.125 263.595 327.31 262.895 327.68 262.315C328.06 261.725 328.59 261.275 329.27 260.965C329.95 260.655 330.75 260.5 331.67 260.5H336.2V271H333.8ZM327.155 271L329.765 267.235H332.225L329.72 271H327.155ZM333.8 266.905V261.85L334.4 262.48H331.73C331.04 262.48 330.51 262.64 330.14 262.96C329.78 263.28 329.6 263.755 329.6 264.385C329.6 264.995 329.775 265.465 330.125 265.795C330.475 266.125 330.99 266.29 331.67 266.29H334.4L333.8 266.905Z" fill="white"/>
</svg>
