<svg width="212" height="167" viewBox="0 0 212 167" fill="none" xmlns="http://www.w3.org/2000/svg">
<g id="Group">
<g id="Group_2">
<path id="Vector" d="M78.7323 35.1307C72.3922 35.1307 67.2307 29.9721 67.2307 23.6356C67.2307 17.2992 72.3866 12.1406 78.7323 12.1406C85.078 12.1406 90.2339 17.2935 90.2339 23.6356C90.2339 29.9777 85.0723 35.1307 78.7323 35.1307ZM78.7323 16.9651C75.0495 16.9651 72.0523 19.9606 72.0523 23.6413C72.0523 27.322 75.0495 30.3175 78.7323 30.3175C82.4151 30.3175 85.4123 27.322 85.4123 23.6413C85.4123 19.9606 82.4151 16.9651 78.7323 16.9651Z" fill="#008DDE"/>
</g>
<g id="Group_3">
<path id="Vector_2" d="M78.7323 63.2964C78.1657 63.2964 77.5991 63.0982 77.1458 62.6961C76.245 61.909 55.0775 43.1319 55.0775 23.6413C55.0775 10.606 65.6896 0 78.7323 0C91.775 0 102.387 10.606 102.387 23.6413C102.387 42.1013 81.2649 61.8241 80.364 62.6565C79.9051 63.0812 79.3215 63.2964 78.7323 63.2964ZM78.7323 4.8132C68.3468 4.8132 59.8934 13.2618 59.8934 23.6413C59.8934 38.0186 73.854 52.8433 78.6926 57.5545C83.5142 52.6677 97.5711 37.2598 97.5711 23.6413C97.5711 13.2561 89.1234 4.8132 78.7323 4.8132Z" fill="#008DDE"/>
</g>
<g id="Group_4">
<path id="Vector_3" d="M2.40797 76.3826C1.97171 76.3826 1.5411 76.2637 1.15583 76.0315C0.436269 75.5955 0 74.8141 0 73.976V62.4017C0 61.071 1.07651 59.9951 2.40797 59.9951C3.73944 59.9951 4.81595 61.071 4.81595 62.4017V70.0179L62.3524 40.2383C63.5309 39.6268 64.987 40.0854 65.5989 41.2689C66.2108 42.4467 65.7519 43.902 64.5677 44.5136L3.51848 76.1108C3.1672 76.292 2.78759 76.3826 2.40797 76.3826Z" fill="#008DDE"/>
</g>
<g id="Group_5">
<path id="Vector_4" d="M2.41364 63.2964C1.5411 63.2964 0.702559 62.8207 0.271957 61.994C-0.339952 60.8162 0.118979 59.3609 1.30314 58.7493L57.7971 29.5077C58.9812 28.8962 60.4317 29.3548 61.0436 30.5383C61.6555 31.7161 61.1909 33.1714 60.0124 33.783L3.51848 63.0246C3.16153 63.2114 2.78192 63.2964 2.41364 63.2964Z" fill="#008DDE"/>
</g>
<g id="Group_6">
<path id="Vector_5" d="M155.861 76.3826C155.482 76.3826 155.102 76.292 154.751 76.1108L93.6957 44.5079C92.5172 43.8964 92.0526 42.4411 92.6645 41.2632C93.2764 40.0798 94.7269 39.6211 95.9111 40.2327L153.447 70.0122V62.396C153.447 61.0653 154.524 59.9894 155.855 59.9894C157.187 59.9894 158.263 61.0653 158.263 62.396V73.9703C158.263 74.8084 157.827 75.5898 157.108 76.0259C156.728 76.2637 156.297 76.3826 155.861 76.3826Z" fill="#008DDE"/>
</g>
<g id="Group_7">
<path id="Vector_6" d="M155.861 63.2964C155.487 63.2964 155.108 63.2114 154.756 63.0246L98.2624 33.783C97.0839 33.1714 96.6193 31.7161 97.2312 30.5383C97.8431 29.3548 99.2936 28.8962 100.478 29.5077L156.972 58.7493C158.15 59.3609 158.615 60.8162 158.003 61.994C157.572 62.8207 156.728 63.2964 155.861 63.2964Z" fill="#008DDE"/>
</g>
<g id="Group_8">
<path id="Vector_7" d="M154.677 97.3738H149.974C148.643 97.3738 147.566 96.2979 147.566 94.9672C147.566 93.6365 148.643 92.5606 149.974 92.5606H154.677C156.008 92.5606 157.085 93.6365 157.085 94.9672C157.085 96.2979 156.003 97.3738 154.677 97.3738Z" fill="#008DDE"/>
</g>
<g id="Group_9">
<path id="Vector_8" d="M163.238 156.599H137.385C136.053 156.599 134.977 155.523 134.977 154.192C134.977 152.862 136.053 151.786 137.385 151.786H163.238C165.244 151.786 166.87 150.155 166.87 148.15V101.004C166.87 98.999 165.238 97.3682 163.238 97.3682C161.907 97.3682 160.83 96.2923 160.83 94.9616C160.83 93.6309 161.907 92.555 163.238 92.555C167.901 92.555 171.691 96.3432 171.691 101.004V148.15C171.691 152.811 167.895 156.599 163.238 156.599Z" fill="#008DDE"/>
</g>
<g id="Group_10">
<path id="Vector_9" d="M169.278 136.972H124.96C123.628 136.972 122.552 135.896 122.552 134.566C122.552 133.235 123.628 132.159 124.96 132.159H169.278C170.609 132.159 171.686 133.235 171.686 134.566C171.686 135.896 170.609 136.972 169.278 136.972Z" fill="#008DDE"/>
</g>
<g id="Group_11">
<path id="Vector_10" d="M158.87 146.87H144.597C143.266 146.87 142.189 145.795 142.189 144.464C142.189 143.133 143.266 142.057 144.597 142.057H158.87C160.201 142.057 161.278 143.133 161.278 144.464C161.278 145.795 160.201 146.87 158.87 146.87Z" fill="#008DDE"/>
</g>
<g id="Group_12">
<path id="Vector_11" d="M114.886 112.306C113.554 112.306 112.478 111.23 112.478 109.899V104.865C112.478 103.535 113.554 102.459 114.886 102.459H119.923C121.254 102.459 122.331 103.535 122.331 104.865C122.331 106.196 121.254 107.272 119.923 107.272H117.294V109.899C117.3 111.23 116.217 112.306 114.886 112.306Z" fill="#008DDE"/>
</g>
<g id="Group_13">
<path id="Vector_12" d="M124.96 166.333C118.263 166.333 112.812 160.885 112.812 154.192C112.812 147.499 118.263 142.052 124.96 142.052C131.657 142.052 137.107 147.499 137.107 154.192C137.107 160.885 131.657 166.333 124.96 166.333ZM124.96 146.871C120.92 146.871 117.634 150.155 117.634 154.192C117.634 158.23 120.92 161.514 124.96 161.514C128.999 161.514 132.286 158.23 132.286 154.192C132.286 150.155 128.999 146.871 124.96 146.871Z" fill="#008DDE"/>
</g>
<g id="Group_14">
<path id="Vector_13" d="M189.34 166.333C182.643 166.333 177.193 160.885 177.193 154.192C177.193 147.499 182.643 142.052 189.34 142.052C196.037 142.052 201.488 147.499 201.488 154.192C201.488 160.885 196.037 166.333 189.34 166.333ZM189.34 146.871C185.301 146.871 182.015 150.155 182.015 154.192C182.015 158.23 185.301 161.514 189.34 161.514C193.38 161.514 196.666 158.23 196.666 154.192C196.666 150.155 193.38 146.871 189.34 146.871Z" fill="#008DDE"/>
</g>
<g id="Group_15">
<path id="Vector_14" d="M124.96 156.876C126.443 156.876 127.645 155.675 127.645 154.192C127.645 152.71 126.443 151.508 124.96 151.508C123.477 151.508 122.274 152.71 122.274 154.192C122.274 155.675 123.477 156.876 124.96 156.876Z" fill="#008DDE"/>
</g>
<g id="Group_16">
<path id="Vector_15" d="M189.34 156.876C190.824 156.876 192.026 155.675 192.026 154.192C192.026 152.71 190.824 151.508 189.34 151.508C187.857 151.508 186.655 152.71 186.655 154.192C186.655 155.675 187.857 156.876 189.34 156.876Z" fill="#008DDE"/>
</g>
<g id="Group_17">
<path id="Vector_16" d="M203.193 156.599H199.08C197.749 156.599 196.672 155.523 196.672 154.192C196.672 152.862 197.749 151.786 199.08 151.786H203.193C205.103 151.786 206.661 150.234 206.661 148.32V130.058L194.604 110.93C193.159 108.642 190.683 107.272 187.975 107.272H169.289C167.958 107.272 166.881 106.196 166.881 104.865C166.881 103.535 167.958 102.459 169.289 102.459H187.975C192.349 102.459 196.349 104.667 198.683 108.365L211.114 128.082C211.358 128.467 211.483 128.909 211.483 129.367V148.326C211.477 152.884 207.76 156.599 203.193 156.599Z" fill="#008DDE"/>
</g>
<g id="Group_18">
<path id="Vector_17" d="M209.069 132.42H179.607C178.275 132.42 177.199 131.344 177.199 130.013V106.377C177.199 105.047 178.275 103.971 179.607 103.971C180.938 103.971 182.015 105.047 182.015 106.377V127.606H209.069C210.4 127.606 211.477 128.682 211.477 130.013C211.477 131.344 210.395 132.42 209.069 132.42Z" fill="#008DDE"/>
</g>
<g id="Group_19">
<path id="Vector_18" d="M179.601 156.599H161.89C160.558 156.599 159.482 155.523 159.482 154.192C159.482 152.862 160.558 151.786 161.89 151.786H179.601C180.932 151.786 182.009 152.862 182.009 154.192C182.009 155.523 180.932 156.599 179.601 156.599Z" fill="#008DDE"/>
</g>
<g id="Group_20">
<path id="Vector_19" d="M209.069 166.333H104.478C103.146 166.333 102.07 165.257 102.07 163.926C102.07 162.595 103.146 161.52 104.478 161.52H209.063C210.395 161.52 211.471 162.595 211.471 163.926C211.471 165.257 210.395 166.333 209.069 166.333Z" fill="#008DDE"/>
</g>
<g id="Group_21">
<path id="Vector_20" d="M140.235 89.9728C138.903 89.9728 137.827 88.8969 137.827 87.5662V65.8899C137.827 64.5591 138.903 63.4833 140.235 63.4833C141.566 63.4833 142.643 64.5591 142.643 65.8899V87.5662C142.648 88.8969 141.566 89.9728 140.235 89.9728Z" fill="#008DDE"/>
</g>
<g id="Group_22">
<path id="Vector_21" d="M111.532 156.599H18.4876C17.1561 156.599 16.0796 155.523 16.0796 154.192V65.8899C16.0796 64.5591 17.1561 63.4833 18.4876 63.4833C19.8191 63.4833 20.8956 64.5591 20.8956 65.8899V151.786H103.9C103.373 150.687 103.078 149.453 103.078 148.15V101.004C103.078 96.3432 106.869 92.555 111.532 92.555H140.24C141.572 92.555 142.648 93.6309 142.648 94.9616C142.648 96.2923 141.572 97.3682 140.24 97.3682H111.532C109.526 97.3682 107.894 98.999 107.894 101.004V148.15C107.894 150.155 109.526 151.786 111.532 151.786C112.863 151.786 113.94 152.862 113.94 154.192C113.94 155.523 112.863 156.599 111.532 156.599Z" fill="#008DDE"/>
</g>
<g id="Group_23">
<path id="Vector_22" d="M105.486 146.87H20.7539C19.4224 146.87 18.3459 145.795 18.3459 144.464C18.3459 143.133 19.4224 142.057 20.7539 142.057H105.486C106.818 142.057 107.894 143.133 107.894 144.464C107.894 145.795 106.818 146.87 105.486 146.87Z" fill="#008DDE"/>
</g>
<g id="Group_24">
<path id="Vector_23" d="M32.9354 146.87C31.604 146.87 30.5275 145.795 30.5275 144.464V67.934C30.5275 66.6033 31.604 65.5274 32.9354 65.5274H127.611C128.943 65.5274 130.019 66.6033 130.019 67.934V87.5662C130.019 88.8969 128.943 89.9728 127.611 89.9728C126.28 89.9728 125.203 88.8969 125.203 87.5662V70.3406H35.3434V144.458C35.3434 145.795 34.2669 146.87 32.9354 146.87Z" fill="#008DDE"/>
</g>
<g id="Group_25">
<path id="Vector_24" d="M117.407 81.6658H43.1452C41.8138 81.6658 40.7373 80.5899 40.7373 79.2592C40.7373 77.9285 41.8138 76.8526 43.1452 76.8526H117.407C118.739 76.8526 119.815 77.9285 119.815 79.2592C119.815 80.5899 118.739 81.6658 117.407 81.6658Z" fill="#008DDE"/>
</g>
<g id="Group_26">
<g id="Group_27">
<path id="Vector_25" d="M56.5109 145.421H40.165C38.8336 145.421 37.757 144.345 37.757 143.014V118.778C37.757 117.448 38.8336 116.372 40.165 116.372H56.5109C57.8424 116.372 58.9189 117.448 58.9189 118.778V143.014C58.9246 144.345 57.8424 145.421 56.5109 145.421ZM42.573 140.608H54.1029V121.191H42.573V140.608Z" fill="#008DDE"/>
</g>
<g id="Group_28">
<path id="Vector_26" d="M58.9019 121.185H37.7797C36.4482 121.185 35.3717 120.109 35.3717 118.778C35.3717 117.448 36.4482 116.372 37.7797 116.372H58.9019C60.2334 116.372 61.3099 117.448 61.3099 118.778C61.3099 120.109 60.2334 121.185 58.9019 121.185Z" fill="#008DDE"/>
</g>
<g id="Group_29">
<path id="Vector_27" d="M58.9019 145.421H37.7797C36.4482 145.421 35.3717 144.345 35.3717 143.014C35.3717 141.684 36.4482 140.608 37.7797 140.608H58.9019C60.2334 140.608 61.3099 141.684 61.3099 143.014C61.3099 144.345 60.2334 145.421 58.9019 145.421Z" fill="#008DDE"/>
</g>
<g id="Group_30">
<path id="Vector_28" d="M48.3408 137.403H38.8789C37.5474 137.403 36.4709 136.327 36.4709 134.996C36.4709 133.665 37.5474 132.589 38.8789 132.589H48.3408C49.6723 132.589 50.7488 133.665 50.7488 134.996C50.7488 136.327 49.6723 137.403 48.3408 137.403Z" fill="#008DDE"/>
</g>
<g id="Group_31">
<path id="Vector_29" d="M48.3408 129.384H38.8789C37.5474 129.384 36.4709 128.309 36.4709 126.978C36.4709 125.647 37.5474 124.571 38.8789 124.571H48.3408C49.6723 124.571 50.7488 125.647 50.7488 126.978C50.7488 128.309 49.6723 129.384 48.3408 129.384Z" fill="#008DDE"/>
</g>
<g id="Group_32">
<path id="Vector_30" d="M57.6894 137.403H54.018C52.6865 137.403 51.61 136.327 51.61 134.996C51.61 133.665 52.6865 132.589 54.018 132.589H57.6894C59.0209 132.589 60.0974 133.665 60.0974 134.996C60.0974 136.327 59.0209 137.403 57.6894 137.403Z" fill="#008DDE"/>
</g>
<g id="Group_33">
<path id="Vector_31" d="M57.6894 129.384H54.018C52.6865 129.384 51.61 128.309 51.61 126.978C51.61 125.647 52.6865 124.571 54.018 124.571H57.6894C59.0209 124.571 60.0974 125.647 60.0974 126.978C60.0974 128.309 59.0209 129.384 57.6894 129.384Z" fill="#008DDE"/>
</g>
</g>
<g id="Group_34">
<g id="Group_35">
<path id="Vector_32" d="M83.1573 145.421H66.8114C65.4799 145.421 64.4034 144.345 64.4034 143.014V118.778C64.4034 117.448 65.4799 116.372 66.8114 116.372H83.1573C84.4888 116.372 85.5653 117.448 85.5653 118.778V143.014C85.5653 144.345 84.4831 145.421 83.1573 145.421ZM69.2137 140.608H80.7437V121.191H69.2137V140.608Z" fill="#008DDE"/>
</g>
<g id="Group_36">
<path id="Vector_33" d="M85.5426 121.185H64.4204C63.0889 121.185 62.0124 120.109 62.0124 118.778C62.0124 117.448 63.0889 116.372 64.4204 116.372H85.5426C86.8741 116.372 87.9506 117.448 87.9506 118.778C87.9506 120.109 86.8741 121.185 85.5426 121.185Z" fill="#008DDE"/>
</g>
<g id="Group_37">
<path id="Vector_34" d="M85.5426 145.421H64.4204C63.0889 145.421 62.0124 144.345 62.0124 143.014C62.0124 141.684 63.0889 140.608 64.4204 140.608H85.5426C86.8741 140.608 87.9506 141.684 87.9506 143.014C87.9506 144.345 86.8741 145.421 85.5426 145.421Z" fill="#008DDE"/>
</g>
<g id="Group_38">
<path id="Vector_35" d="M74.9815 137.403H65.5196C64.1881 137.403 63.1116 136.327 63.1116 134.996C63.1116 133.665 64.1881 132.589 65.5196 132.589H74.9815C76.313 132.589 77.3895 133.665 77.3895 134.996C77.3895 136.327 76.313 137.403 74.9815 137.403Z" fill="#008DDE"/>
</g>
<g id="Group_39">
<path id="Vector_36" d="M74.9815 129.384H65.5196C64.1881 129.384 63.1116 128.309 63.1116 126.978C63.1116 125.647 64.1881 124.571 65.5196 124.571H74.9815C76.313 124.571 77.3895 125.647 77.3895 126.978C77.3895 128.309 76.313 129.384 74.9815 129.384Z" fill="#008DDE"/>
</g>
<g id="Group_40">
<path id="Vector_37" d="M84.3301 137.403H80.6587C79.3272 137.403 78.2507 136.327 78.2507 134.996C78.2507 133.665 79.3272 132.589 80.6587 132.589H84.3301C85.6616 132.589 86.7381 133.665 86.7381 134.996C86.7381 136.327 85.6616 137.403 84.3301 137.403Z" fill="#008DDE"/>
</g>
<g id="Group_41">
<path id="Vector_38" d="M84.3301 129.384H80.6587C79.3272 129.384 78.2507 128.309 78.2507 126.978C78.2507 125.647 79.3272 124.571 80.6587 124.571H84.3301C85.6616 124.571 86.7381 125.647 86.7381 126.978C86.7381 128.309 85.6616 129.384 84.3301 129.384Z" fill="#008DDE"/>
</g>
</g>
<g id="Group_42">
<g id="Group_43">
<path id="Vector_39" d="M105.486 145.421H93.2991C91.9676 145.421 90.8911 144.345 90.8911 143.014V118.778C90.8911 117.448 91.9676 116.372 93.2991 116.372H105.486C106.818 116.372 107.894 117.448 107.894 118.778C107.894 120.109 106.818 121.185 105.486 121.185H95.7071V140.602H105.486C106.818 140.602 107.894 141.678 107.894 143.009C107.894 144.339 106.818 145.421 105.486 145.421Z" fill="#008DDE"/>
</g>
<g id="Group_44">
<path id="Vector_40" d="M105.486 121.185H90.9081C89.5767 121.185 88.5002 120.109 88.5002 118.778C88.5002 117.448 89.5767 116.372 90.9081 116.372H105.486C106.818 116.372 107.894 117.448 107.894 118.778C107.894 120.109 106.818 121.185 105.486 121.185Z" fill="#008DDE"/>
</g>
<g id="Group_45">
<path id="Vector_41" d="M105.486 145.421H90.9081C89.5767 145.421 88.5002 144.345 88.5002 143.014C88.5002 141.684 89.5767 140.608 90.9081 140.608H105.486C106.818 140.608 107.894 141.684 107.894 143.014C107.894 144.345 106.818 145.421 105.486 145.421Z" fill="#008DDE"/>
</g>
<g id="Group_46">
<path id="Vector_42" d="M101.469 137.403H92.0073C90.6758 137.403 89.5993 136.327 89.5993 134.996C89.5993 133.665 90.6758 132.589 92.0073 132.589H101.469C102.801 132.589 103.877 133.665 103.877 134.996C103.877 136.327 102.801 137.403 101.469 137.403Z" fill="#008DDE"/>
</g>
<g id="Group_47">
<path id="Vector_43" d="M101.469 129.384H92.0073C90.6758 129.384 89.5993 128.309 89.5993 126.978C89.5993 125.647 90.6758 124.571 92.0073 124.571H101.469C102.801 124.571 103.877 125.647 103.877 126.978C103.877 128.309 102.801 129.384 101.469 129.384Z" fill="#008DDE"/>
</g>
<g id="Group_48">
<path id="Vector_44" d="M110.824 137.403H107.152C105.821 137.403 104.744 136.327 104.744 134.996C104.744 133.665 105.821 132.589 107.152 132.589H110.824C112.155 132.589 113.231 133.665 113.231 134.996C113.231 136.327 112.155 137.403 110.824 137.403Z" fill="#008DDE"/>
</g>
</g>
<g id="Group_49">
<g id="Group_50">
<path id="Vector_45" d="M56.5109 117.199H40.165C38.8336 117.199 37.757 116.123 37.757 114.792V90.5561C37.757 89.2254 38.8336 88.1495 40.165 88.1495H56.5109C57.8424 88.1495 58.9189 89.2254 58.9189 90.5561V114.792C58.9246 116.123 57.8424 117.199 56.5109 117.199ZM42.573 112.385H54.1029V92.9683H42.573V112.385Z" fill="#008DDE"/>
</g>
<g id="Group_51">
<path id="Vector_46" d="M58.9019 92.9683H37.7797C36.4482 92.9683 35.3717 91.8924 35.3717 90.5617C35.3717 89.231 36.4482 88.1551 37.7797 88.1551H58.9019C60.2334 88.1551 61.3099 89.231 61.3099 90.5617C61.3099 91.8924 60.2334 92.9683 58.9019 92.9683Z" fill="#008DDE"/>
</g>
<g id="Group_52">
<path id="Vector_47" d="M58.9019 117.199H37.7797C36.4482 117.199 35.3717 116.123 35.3717 114.792C35.3717 113.461 36.4482 112.385 37.7797 112.385H58.9019C60.2334 112.385 61.3099 113.461 61.3099 114.792C61.3099 116.123 60.2334 117.199 58.9019 117.199Z" fill="#008DDE"/>
</g>
<g id="Group_53">
<path id="Vector_48" d="M48.3408 109.18H38.8789C37.5474 109.18 36.4709 108.104 36.4709 106.774C36.4709 105.443 37.5474 104.367 38.8789 104.367H48.3408C49.6723 104.367 50.7488 105.443 50.7488 106.774C50.7488 108.104 49.6723 109.18 48.3408 109.18Z" fill="#008DDE"/>
</g>
<g id="Group_54">
<path id="Vector_49" d="M48.3408 101.162H38.8789C37.5474 101.162 36.4709 100.086 36.4709 98.7555C36.4709 97.4248 37.5474 96.3489 38.8789 96.3489H48.3408C49.6723 96.3489 50.7488 97.4248 50.7488 98.7555C50.7488 100.086 49.6723 101.162 48.3408 101.162Z" fill="#008DDE"/>
</g>
<g id="Group_55">
<path id="Vector_50" d="M57.6894 109.18H54.018C52.6865 109.18 51.61 108.104 51.61 106.774C51.61 105.443 52.6865 104.367 54.018 104.367H57.6894C59.0209 104.367 60.0974 105.443 60.0974 106.774C60.0974 108.104 59.0209 109.18 57.6894 109.18Z" fill="#008DDE"/>
</g>
<g id="Group_56">
<path id="Vector_51" d="M57.6894 101.162H54.018C52.6865 101.162 51.61 100.086 51.61 98.7555C51.61 97.4248 52.6865 96.3489 54.018 96.3489H57.6894C59.0209 96.3489 60.0974 97.4248 60.0974 98.7555C60.0974 100.086 59.0209 101.162 57.6894 101.162Z" fill="#008DDE"/>
</g>
</g>
<g id="Group_57">
<g id="Group_58">
<path id="Vector_52" d="M83.1573 117.199H66.8114C65.4799 117.199 64.4034 116.123 64.4034 114.792V90.5561C64.4034 89.2254 65.4799 88.1495 66.8114 88.1495H83.1573C84.4888 88.1495 85.5653 89.2254 85.5653 90.5561V114.792C85.5653 116.123 84.4831 117.199 83.1573 117.199ZM69.2137 112.385H80.7437V92.9683H69.2137V112.385Z" fill="#008DDE"/>
</g>
<g id="Group_59">
<path id="Vector_53" d="M85.5426 92.9683H64.4204C63.0889 92.9683 62.0124 91.8924 62.0124 90.5617C62.0124 89.231 63.0889 88.1551 64.4204 88.1551H85.5426C86.8741 88.1551 87.9506 89.231 87.9506 90.5617C87.9506 91.8924 86.8741 92.9683 85.5426 92.9683Z" fill="#008DDE"/>
</g>
<g id="Group_60">
<path id="Vector_54" d="M111.798 92.9683H90.6702C89.3387 92.9683 88.2622 91.8924 88.2622 90.5617C88.2622 89.231 89.3387 88.1551 90.6702 88.1551H111.792C113.124 88.1551 114.2 89.231 114.2 90.5617C114.2 91.8924 113.124 92.9683 111.798 92.9683Z" fill="#008DDE"/>
</g>
<g id="Group_61">
<path id="Vector_55" d="M85.5426 117.199H64.4204C63.0889 117.199 62.0124 116.123 62.0124 114.792C62.0124 113.461 63.0889 112.385 64.4204 112.385H85.5426C86.8741 112.385 87.9506 113.461 87.9506 114.792C87.9506 116.123 86.8741 117.199 85.5426 117.199Z" fill="#008DDE"/>
</g>
<g id="Group_62">
<path id="Vector_56" d="M74.9815 109.18H65.5196C64.1881 109.18 63.1116 108.104 63.1116 106.774C63.1116 105.443 64.1881 104.367 65.5196 104.367H74.9815C76.313 104.367 77.3895 105.443 77.3895 106.774C77.3895 108.104 76.313 109.18 74.9815 109.18Z" fill="#008DDE"/>
</g>
<g id="Group_63">
<path id="Vector_57" d="M74.9815 101.162H65.5196C64.1881 101.162 63.1116 100.086 63.1116 98.7555C63.1116 97.4248 64.1881 96.3489 65.5196 96.3489H74.9815C76.313 96.3489 77.3895 97.4248 77.3895 98.7555C77.3895 100.086 76.313 101.162 74.9815 101.162Z" fill="#008DDE"/>
</g>
<g id="Group_64">
<path id="Vector_58" d="M84.3301 109.18H80.6587C79.3272 109.18 78.2507 108.104 78.2507 106.774C78.2507 105.443 79.3272 104.367 80.6587 104.367H84.3301C85.6616 104.367 86.7381 105.443 86.7381 106.774C86.7381 108.104 85.6616 109.18 84.3301 109.18Z" fill="#008DDE"/>
</g>
<g id="Group_65">
<path id="Vector_59" d="M84.3301 101.162H80.6587C79.3272 101.162 78.2507 100.086 78.2507 98.7555C78.2507 97.4248 79.3272 96.3489 80.6587 96.3489H84.3301C85.6616 96.3489 86.7381 97.4248 86.7381 98.7555C86.7381 100.086 85.6616 101.162 84.3301 101.162Z" fill="#008DDE"/>
</g>
</g>
<g id="Group_66">
<g id="Group_67">
<path id="Vector_60" d="M105.486 117.199H93.2991C91.9676 117.199 90.8911 116.123 90.8911 114.792V90.5561C90.8911 89.2254 91.9676 88.1495 93.2991 88.1495C94.6306 88.1495 95.7071 89.2254 95.7071 90.5561V112.38H105.486C106.818 112.38 107.894 113.456 107.894 114.786C107.894 116.117 106.818 117.199 105.486 117.199Z" fill="#008DDE"/>
</g>
<g id="Group_68">
<path id="Vector_61" d="M105.486 117.199H90.9081C89.5767 117.199 88.5002 116.123 88.5002 114.792C88.5002 113.461 89.5767 112.385 90.9081 112.385H105.486C106.818 112.385 107.894 113.461 107.894 114.792C107.894 116.123 106.818 117.199 105.486 117.199Z" fill="#008DDE"/>
</g>
<g id="Group_69">
<path id="Vector_62" d="M101.469 109.18H92.0073C90.6758 109.18 89.5993 108.104 89.5993 106.774C89.5993 105.443 90.6758 104.367 92.0073 104.367H101.469C102.801 104.367 103.877 105.443 103.877 106.774C103.877 108.104 102.801 109.18 101.469 109.18Z" fill="#008DDE"/>
</g>
<g id="Group_70">
<path id="Vector_63" d="M101.469 101.162H92.0073C90.6758 101.162 89.5993 100.086 89.5993 98.7555C89.5993 97.4248 90.6758 96.3489 92.0073 96.3489H101.469C102.801 96.3489 103.877 97.4248 103.877 98.7555C103.877 100.086 102.801 101.162 101.469 101.162Z" fill="#008DDE"/>
</g>
</g>
</g>
</svg>
