<svg width="237" height="128" viewBox="0 0 239 130" fill="none" xmlns="http://www.w3.org/2000/svg">
<g id="Group">
<g id="Group_2">
<path id="Vector" d="M170.272 77.7746H26.3322C25.0007 77.7746 23.9242 76.6987 23.9242 75.368V47.4401C23.9242 46.8003 24.1792 46.1887 24.6324 45.7357L34.202 36.1716C35.1425 35.2316 36.6666 35.2316 37.6072 36.1716C38.5477 37.1116 38.5477 38.6348 37.6072 39.5748L28.7401 48.4367V72.9614H170.272C183.723 72.9614 194.664 62.027 194.664 48.5896C194.664 35.1467 183.723 24.2122 170.272 24.2122H52.9105L45.1767 31.2395C44.1908 32.1342 42.6667 32.0605 41.7715 31.0753C40.8763 30.09 40.95 28.5667 41.9358 27.672L50.3553 20.0219C50.7972 19.6198 51.3751 19.3933 51.9757 19.3933H170.272C186.375 19.3933 199.48 32.4852 199.48 48.584C199.48 64.6827 186.38 77.7746 170.272 77.7746Z" fill="#008DDE"/>
</g>
<g id="Group_3">
<path id="Vector_2" d="M26.3322 63.6181C25.0007 63.6181 23.9242 62.5422 23.9242 61.2115C23.9242 59.8808 25.0007 58.8049 26.3322 58.8049C84.5202 58.8049 123.195 50.5036 145.388 43.5386C169.411 36.0017 179.831 28.3685 179.933 28.2949C180.998 27.5022 182.505 27.7173 183.304 28.7819C184.097 29.8465 183.882 31.3527 182.822 32.1455C182.386 32.4739 171.876 40.2317 147.218 48.0121C124.657 55.1356 85.37 63.6181 26.3322 63.6181Z" fill="#008DDE"/>
</g>
<g id="Group_4">
<path id="Vector_3" d="M183.292 60.9454H151.133C149.802 60.9454 148.725 59.8695 148.725 58.5388C148.725 57.2081 149.802 56.1322 151.133 56.1322H183.292C184.624 56.1322 185.7 57.2081 185.7 58.5388C185.7 59.8695 184.618 60.9454 183.292 60.9454Z" fill="#008DDE"/>
</g>
<g id="Group_5">
<path id="Vector_4" d="M183.292 50.9962H167.213C165.881 50.9962 164.805 49.9204 164.805 48.5896C164.805 47.2589 165.881 46.183 167.213 46.183H183.292C184.624 46.183 185.7 47.2589 185.7 48.5896C185.7 49.9204 184.618 50.9962 183.292 50.9962Z" fill="#008DDE"/>
</g>
<g id="Group_6">
<path id="Vector_5" d="M34.9725 49.909C30.0489 49.909 26.7684 49.8581 26.2868 49.8467C24.9554 49.8241 23.8958 48.7255 23.9185 47.4005C23.9412 46.0698 25.0573 45.0279 26.3661 45.0335C26.8137 45.0392 71.4661 45.747 89.727 41.6473C93.9538 40.7017 96.5827 38.9463 97.5345 36.4434C99.2456 31.9473 95.5968 25.373 94.0444 23.2156C93.2682 22.1397 93.5118 20.6335 94.5883 19.8577C95.6648 19.0819 97.1719 19.3197 97.9482 20.3956C98.2371 20.7977 105.013 30.2938 102.045 38.1422C100.486 42.2589 96.696 45.0222 90.7809 46.3473C76.8316 49.4787 49.1144 49.909 34.9725 49.909Z" fill="#008DDE"/>
</g>
<g id="Group_7">
<path id="Vector_6" d="M35.9017 123.07C26.0262 123.07 17.9864 115.04 17.9864 105.165C17.9864 95.289 26.0205 87.2595 35.9017 87.2595C45.7829 87.2595 53.8171 95.289 53.8171 105.165C53.8171 115.04 45.7773 123.07 35.9017 123.07ZM35.9017 92.0783C28.6835 92.0783 22.808 97.9504 22.808 105.165C22.808 112.379 28.6835 118.251 35.9017 118.251C43.12 118.251 48.9954 112.379 48.9954 105.165C48.9954 97.9504 43.1256 92.0783 35.9017 92.0783Z" fill="#008DDE"/>
</g>
<g id="Group_8">
<path id="Vector_7" d="M84.1689 122.911C74.2933 122.911 66.2535 114.882 66.2535 105.006C66.2535 95.1304 74.2877 87.1009 84.1689 87.1009C94.0501 87.1009 102.084 95.1304 102.084 105.006C102.084 114.882 94.0444 122.911 84.1689 122.911ZM84.1689 91.9198C76.9506 91.9198 71.0752 97.7919 71.0752 105.006C71.0752 112.22 76.9506 118.092 84.1689 118.092C91.3871 118.092 97.2626 112.22 97.2626 105.006C97.2626 97.7919 91.3871 91.9198 84.1689 91.9198Z" fill="#008DDE"/>
</g>
<g id="Group_9">
<path id="Vector_8" d="M181.377 122.911C171.502 122.911 163.462 114.882 163.462 105.006C163.462 95.1304 171.496 87.1009 181.377 87.1009C191.259 87.1009 199.293 95.1304 199.293 105.006C199.293 114.882 191.253 122.911 181.377 122.911ZM181.377 91.9198C174.159 91.9198 168.284 97.7919 168.284 105.006C168.284 112.22 174.159 118.092 181.377 118.092C188.596 118.092 194.471 112.22 194.471 105.006C194.471 97.7919 188.596 91.9198 181.377 91.9198Z" fill="#008DDE"/>
</g>
<g id="Group_10">
<path id="Vector_9" d="M35.9017 112.713C31.7373 112.713 28.3492 109.327 28.3492 105.165C28.3492 101.003 31.7373 97.6163 35.9017 97.6163C40.0661 97.6163 43.4543 101.003 43.4543 105.165C43.4543 109.327 40.0661 112.713 35.9017 112.713ZM35.9017 102.43C34.3946 102.43 33.1651 103.658 33.1651 105.165C33.1651 106.671 34.3946 107.9 35.9017 107.9C37.4088 107.9 38.6383 106.671 38.6383 105.165C38.6383 103.658 37.4088 102.43 35.9017 102.43Z" fill="#008DDE"/>
</g>
<g id="Group_11">
<path id="Vector_10" d="M84.1689 112.56C80.0045 112.56 76.6163 109.174 76.6163 105.012C76.6163 100.85 80.0045 97.4634 84.1689 97.4634C88.3333 97.4634 91.7214 100.85 91.7214 105.012C91.7214 109.174 88.3333 112.56 84.1689 112.56ZM84.1689 102.277C82.6618 102.277 81.4323 103.505 81.4323 105.012C81.4323 106.518 82.6618 107.747 84.1689 107.747C85.676 107.747 86.9055 106.518 86.9055 105.012C86.9055 103.505 85.676 102.277 84.1689 102.277Z" fill="#008DDE"/>
</g>
<g id="Group_12">
<path id="Vector_11" d="M130.77 122.911C120.895 122.911 112.855 114.882 112.855 105.006C112.855 95.1304 120.889 87.1009 130.77 87.1009C140.651 87.1009 148.686 95.1304 148.686 105.006C148.686 114.882 140.646 122.911 130.77 122.911ZM130.77 91.9198C123.552 91.9198 117.677 97.7919 117.677 105.006C117.677 112.22 123.552 118.092 130.77 118.092C137.989 118.092 143.864 112.22 143.864 105.006C143.864 97.7919 137.989 91.9198 130.77 91.9198Z" fill="#008DDE"/>
</g>
<g id="Group_13">
<path id="Vector_12" d="M130.77 112.56C126.606 112.56 123.218 109.174 123.218 105.012C123.218 100.85 126.606 97.4634 130.77 97.4634C134.935 97.4634 138.323 100.85 138.323 105.012C138.323 109.174 134.935 112.56 130.77 112.56ZM130.77 102.277C129.263 102.277 128.034 103.505 128.034 105.012C128.034 106.518 129.263 107.747 130.77 107.747C132.277 107.747 133.507 106.518 133.507 105.012C133.507 103.505 132.277 102.277 130.77 102.277Z" fill="#008DDE"/>
</g>
<g id="Group_14">
<path id="Vector_13" d="M181.377 112.56C177.213 112.56 173.825 109.174 173.825 105.012C173.825 100.85 177.213 97.4634 181.377 97.4634C185.542 97.4634 188.93 100.85 188.93 105.012C188.93 109.174 185.542 112.56 181.377 112.56ZM181.377 102.277C179.87 102.277 178.641 103.505 178.641 105.012C178.641 106.518 179.87 107.747 181.377 107.747C182.884 107.747 184.114 106.518 184.114 105.012C184.114 103.505 182.884 102.277 181.377 102.277Z" fill="#008DDE"/>
</g>
<g id="Group_15">
<path id="Vector_14" d="M181.95 129.032H34.6156C21.3632 129.032 10.5755 118.256 10.5755 105.006C10.5755 91.7555 21.3576 80.9796 34.6156 80.9796H181.95C195.202 80.9796 205.99 91.7555 205.99 105.006C205.99 118.256 195.208 129.032 181.95 129.032ZM34.6156 85.7985C24.0148 85.7985 15.3971 94.4169 15.3971 105.006C15.3971 115.595 24.0205 124.213 34.6156 124.213H181.95C192.55 124.213 201.168 115.595 201.168 105.006C201.168 94.4169 192.545 85.7985 181.95 85.7985H34.6156Z" fill="#008DDE"/>
</g>
<g id="Group_16">
<path id="Vector_15" d="M160.703 24.2122C159.371 24.2122 158.295 23.1363 158.295 21.8056V2.67174C158.295 1.34103 159.371 0.265137 160.703 0.265137C162.034 0.265137 163.111 1.34103 163.111 2.67174V21.7999C163.111 23.1363 162.034 24.2122 160.703 24.2122Z" fill="#008DDE"/>
</g>
<g id="Group_17">
<path id="Vector_16" d="M128.827 42.4118H117.059C112.776 42.4118 109.291 38.9293 109.291 34.6484C109.291 30.3674 112.776 26.8849 117.059 26.8849H128.827C133.11 26.8849 136.595 30.3674 136.595 34.6484C136.595 38.9293 133.11 42.4118 128.827 42.4118ZM117.059 31.6981C115.433 31.6981 114.107 33.0232 114.107 34.6484C114.107 36.2735 115.433 37.5986 117.059 37.5986H128.827C130.453 37.5986 131.779 36.2735 131.779 34.6484C131.779 33.0232 130.453 31.6981 128.827 31.6981H117.059Z" fill="#008DDE"/>
</g>
<g id="Group_18">
<path id="Vector_17" d="M236.121 30.3618H189.769C188.437 30.3618 187.361 29.2859 187.361 27.9552C187.361 26.6245 188.437 25.5486 189.769 25.5486H236.121C237.452 25.5486 238.529 26.6245 238.529 27.9552C238.529 29.2859 237.452 30.3618 236.121 30.3618Z" fill="#008DDE"/>
</g>
<g id="Group_19">
<path id="Vector_18" d="M225.021 44.1219H196.182C194.851 44.1219 193.774 43.046 193.774 41.7153C193.774 40.3845 194.851 39.3087 196.182 39.3087H225.021C226.353 39.3087 227.429 40.3845 227.429 41.7153C227.429 43.046 226.347 44.1219 225.021 44.1219Z" fill="#008DDE"/>
</g>
<g id="Group_20">
<path id="Vector_19" d="M212.947 57.865H197.072C195.74 57.865 194.664 56.7891 194.664 55.4584C194.664 54.1276 195.74 53.0518 197.072 53.0518H212.947C214.279 53.0518 215.355 54.1276 215.355 55.4584C215.355 56.7891 214.273 57.865 212.947 57.865Z" fill="#008DDE"/>
</g>
<g id="Group_21">
<path id="Vector_20" d="M212.947 102.577C211.616 102.577 210.539 101.501 210.539 100.17C210.539 87.8257 200.165 77.7803 187.417 77.7803H28.8478C16.0997 77.7803 5.72556 87.8257 5.72556 100.17C5.72556 101.501 4.64905 102.577 3.31758 102.577C1.98611 102.577 0.909607 101.501 0.909607 100.17C0.909607 85.17 13.4424 72.9614 28.8478 72.9614H187.417C202.823 72.9614 215.355 85.1643 215.355 100.17C215.355 101.501 214.273 102.577 212.947 102.577Z" fill="#008DDE"/>
</g>
</g>
</svg>
