<svg width="226" height="135" viewBox="0 0 226 135" fill="none" xmlns="http://www.w3.org/2000/svg">
<path d="M50.197 9.53641H3" stroke="#008DDE" stroke-width="5" stroke-miterlimit="10" stroke-linecap="round" stroke-linejoin="round"/>
<path d="M51.547 23.5553H22.1823" stroke="#008DDE" stroke-width="5" stroke-miterlimit="10" stroke-linecap="round" stroke-linejoin="round"/>
<path d="M64.6486 37.5569H48.4893" stroke="#008DDE" stroke-width="5" stroke-miterlimit="10" stroke-linecap="round" stroke-linejoin="round"/>
<path d="M110.484 86.4211H104.38" stroke="#008DDE" stroke-width="5" stroke-miterlimit="10" stroke-linecap="round" stroke-linejoin="round"/>
<path d="M140.766 86.4211H132.534" stroke="#008DDE" stroke-width="5" stroke-miterlimit="10" stroke-linecap="round" stroke-linejoin="round"/>
<path d="M36.8646 71.5484V5.82109C36.8646 4.26343 38.128 3 39.6857 3H150.793C152.35 3 153.614 4.26343 153.614 5.82109V54.2815" stroke="#008DDE" stroke-width="5" stroke-miterlimit="10" stroke-linecap="round" stroke-linejoin="round"/>
<path d="M95.2363 58.7295H125.582" stroke="#008DDE" stroke-width="5" stroke-miterlimit="10" stroke-linecap="round" stroke-linejoin="round"/>
<path d="M153.614 43.8568H193.271" stroke="#008DDE" stroke-width="5" stroke-miterlimit="10" stroke-linecap="round" stroke-linejoin="round"/>
<path d="M132.534 58.7295H137.316" stroke="#008DDE" stroke-width="5" stroke-miterlimit="10" stroke-linecap="round" stroke-linejoin="round"/>
<path d="M67.1177 107.299C74.2134 107.299 79.9655 101.547 79.9655 94.4517C79.9655 87.3561 74.2134 81.6039 67.1177 81.6039C60.0221 81.6039 54.27 87.3561 54.27 94.4517C54.27 101.547 60.0221 107.299 67.1177 107.299Z" stroke="#008DDE" stroke-width="5" stroke-miterlimit="10" stroke-linecap="round" stroke-linejoin="round"/>
<path d="M178.802 107.299C185.897 107.299 191.649 101.547 191.649 94.4517C191.649 87.3561 185.897 81.6039 178.802 81.6039C171.706 81.6039 165.954 87.3561 165.954 94.4517C165.954 101.547 171.706 107.299 178.802 107.299Z" stroke="#008DDE" stroke-width="5" stroke-miterlimit="10" stroke-linecap="round" stroke-linejoin="round"/>
<path d="M178.802 97.8728C180.691 97.8728 182.223 96.3411 182.223 94.4517C182.223 92.5623 180.691 91.0306 178.802 91.0306C176.912 91.0306 175.381 92.5623 175.381 94.4517C175.381 96.3411 176.912 97.8728 178.802 97.8728Z" fill="#008DDE"/>
<path d="M67.1177 97.8728C69.0071 97.8728 70.5388 96.3411 70.5388 94.4517C70.5388 92.5623 69.0071 91.0306 67.1177 91.0306C65.2283 91.0306 63.6967 92.5623 63.6967 94.4517C63.6967 96.3411 65.2283 97.8728 67.1177 97.8728Z" fill="#008DDE"/>
<path d="M153.614 13.2574H175.363C180.688 13.2574 185.361 16.8227 186.769 21.9572L192.763 43.851L193.334 44.0529C199.986 46.3778 205.801 50.6008 210.064 56.2084L210.364 56.6064V76.1579" stroke="#008DDE" stroke-width="5" stroke-miterlimit="10" stroke-linecap="round" stroke-linejoin="round"/>
<path d="M103.878 86.4961L101.242 84.9154C100.752 83.1558 100.128 81.4539 99.39 79.8213L100.394 76.9137C99.9381 76.0541 99.4535 75.2176 98.9401 74.3983L95.9171 73.8157C94.8613 72.3503 93.7017 70.9657 92.4383 69.6792L92.3921 66.5985C91.6768 65.9466 90.9268 65.3236 90.1595 64.7293L87.1192 65.2139C85.6365 64.1986 84.0673 63.2871 82.4347 62.5025L81.3385 59.6295C80.4501 59.266 79.5386 58.9314 78.6155 58.6372L75.9271 60.1371C74.1964 59.6929 72.4138 59.3814 70.5907 59.2025L68.5773 56.8776C68.0927 56.8603 67.6081 56.8488 67.1177 56.8488C66.6274 56.8488 66.1427 56.8603 65.6581 56.8776L63.6447 59.2025C61.8217 59.3814 60.039 59.6929 58.3083 60.1371L55.6199 58.6372C54.6969 58.9314 53.7911 59.266 52.8969 59.6295L51.8008 62.5025C50.1623 63.2871 48.5989 64.1986 47.1163 65.2139L44.076 64.7293C43.3087 65.3236 42.5645 65.9466 41.8433 66.5985L41.7972 69.6792C40.5395 70.9657 39.3741 72.3503 38.3242 73.8157L35.3012 74.3983C34.7877 75.2176 34.3031 76.0541 33.8473 76.9137L34.8512 79.8213C34.107 81.4597 33.4897 83.1616 32.9993 84.9154L30.3628 86.4961C30.1609 87.4365 29.9936 88.3942 29.8609 89.3576L31.8051 91.746C31.7359 92.6402 31.7012 93.5402 31.7012 94.4517C31.7012 95.3632 31.7359 96.2632 31.8051 97.1574L29.8609 99.5458C29.9936 100.509 30.1609 101.467 30.3628 102.407L32.9993 103.988C33.4897 105.748 34.1127 107.449 34.8512 109.082L33.8473 111.99C34.3031 112.849 34.7877 113.686 35.3012 114.505L38.3242 115.088C39.3799 116.553 40.5395 117.938 41.7972 119.224L41.8433 122.305C42.5587 122.957 43.3087 123.58 44.076 124.174L47.1163 123.69C48.5989 124.705 50.1681 125.616 51.8008 126.401L52.8969 129.274C53.7853 129.637 54.6969 129.972 55.6199 130.266L58.3083 128.766C60.039 129.211 61.8217 129.522 63.6447 129.701L65.6581 132.026C66.1427 132.043 66.6274 132.055 67.1177 132.055C67.6081 132.055 68.0927 132.043 68.5773 132.026L70.5907 129.701C72.4138 129.522 74.1964 129.211 75.9271 128.766L78.6155 130.266C79.5386 129.972 80.4443 129.637 81.3385 129.274L82.4347 126.401C84.0731 125.616 85.6365 124.705 87.1192 123.69L90.1595 124.174C90.9268 123.58 91.671 122.957 92.3921 122.305L92.4383 119.224C93.6959 117.938 94.8613 116.553 95.9113 115.088L98.9343 114.505C99.4477 113.686 99.9323 112.849 100.388 111.99L99.3843 109.082C100.128 107.444 100.746 105.742 101.236 103.988L103.873 102.407C104.075 101.467 104.242 100.509 104.375 99.5458L102.43 97.1574C102.5 96.2632 102.534 95.3632 102.534 94.4517C102.534 93.5402 102.5 92.6402 102.43 91.746L104.375 89.3576C104.248 88.3942 104.08 87.4365 103.878 86.4961Z" stroke="#008DDE" stroke-width="5" stroke-miterlimit="10" stroke-linecap="round" stroke-linejoin="round"/>
<path d="M215.562 86.4961L212.926 84.9154C212.436 83.1558 211.812 81.4539 211.074 79.8213L212.078 76.9137C211.622 76.0541 211.137 75.2176 210.624 74.3983L207.601 73.8157C206.545 72.3503 205.386 70.9657 204.122 69.6792L204.076 66.5985C203.361 65.9466 202.611 65.3236 201.843 64.7293L198.803 65.2139C197.32 64.1986 195.751 63.2871 194.119 62.5025L193.023 59.6295C192.134 59.266 191.223 58.9314 190.299 58.6372L187.611 60.1371C185.88 59.6929 184.098 59.3814 182.275 59.2025L180.261 56.8776C179.777 56.8603 179.292 56.8488 178.802 56.8488C178.311 56.8488 177.827 56.8603 177.342 56.8776L175.329 59.2025C173.506 59.3814 171.723 59.6929 169.992 60.1371L167.304 58.6372C166.381 58.9314 165.475 59.266 164.581 59.6295L163.485 62.5025C161.846 63.2871 160.283 64.1986 158.8 65.2139L155.76 64.7293C154.993 65.3236 154.248 65.9466 153.527 66.5985L153.481 69.6792C152.223 70.9657 151.058 72.3503 150.008 73.8157L146.985 74.3983C146.472 75.2176 145.987 76.0541 145.531 76.9137L146.535 79.8213C145.791 81.4597 145.174 83.1616 144.683 84.9154L142.047 86.4961C141.845 87.4365 141.678 88.3942 141.545 89.3576L143.489 91.746C143.42 92.6402 143.385 93.5402 143.385 94.4517C143.385 95.3632 143.42 96.2632 143.489 97.1574L141.545 99.5458C141.678 100.509 141.845 101.467 142.047 102.407L144.683 103.988C145.174 105.748 145.797 107.449 146.535 109.082L145.531 111.99C145.987 112.849 146.472 113.686 146.985 114.505L150.008 115.088C151.064 116.553 152.223 117.938 153.481 119.224L153.527 122.305C154.243 122.957 154.993 123.58 155.76 124.174L158.8 123.69C160.283 124.705 161.852 125.616 163.485 126.401L164.581 129.274C165.469 129.637 166.381 129.972 167.304 130.266L169.992 128.766C171.723 129.211 173.506 129.522 175.329 129.701L177.342 132.026C177.827 132.043 178.311 132.055 178.802 132.055C179.292 132.055 179.777 132.043 180.261 132.026L182.275 129.701C184.098 129.522 185.88 129.211 187.611 128.766L190.299 130.266C191.223 129.972 192.128 129.637 193.023 129.274L194.119 126.401C195.757 125.616 197.32 124.705 198.803 123.69L201.843 124.174C202.611 123.58 203.355 122.957 204.076 122.305L204.122 119.224C205.38 117.938 206.545 116.553 207.595 115.088L210.618 114.505C211.132 113.686 211.616 112.849 212.072 111.99L211.068 109.082C211.812 107.444 212.43 105.742 212.92 103.988L215.557 102.407C215.759 101.467 215.926 100.509 216.059 99.5458L214.114 97.1574C214.184 96.2632 214.218 95.3632 214.218 94.4517C214.218 93.5402 214.184 92.6402 214.114 91.746L216.059 89.3576C215.932 88.3942 215.764 87.4365 215.562 86.4961Z" stroke="#008DDE" stroke-width="5" stroke-miterlimit="10" stroke-linecap="round" stroke-linejoin="round"/>
<path d="M222.797 72.8292L197.926 51.1604H158.235L133.364 72.8292H110.605L85.7346 51.1604H48.9451L24.0745 72.8292" stroke="#008DDE" stroke-width="5" stroke-miterlimit="10" stroke-linecap="round" stroke-linejoin="round"/>
<path d="M110.484 72.8291H132.534L128.432 94.6248H115.099L110.484 72.8291Z" stroke="#008DDE" stroke-width="5" stroke-miterlimit="10" stroke-linecap="round" stroke-linejoin="round"/>
</svg>
