<svg width="137" height="147" viewBox="0 0 137 147" fill="none" xmlns="http://www.w3.org/2000/svg">
<g id="Group">
<g id="Group_2">
<path id="Vector" d="M28.3121 87.3227C20.8729 87.3227 14.8218 81.2751 14.8218 73.8401C14.8218 66.4051 20.8729 60.3575 28.3121 60.3575C35.7513 60.3575 41.8024 66.4051 41.8024 73.8401C41.8024 81.2751 35.7513 87.3227 28.3121 87.3227ZM28.3121 65.1707C23.5301 65.1707 19.6377 69.0609 19.6377 73.8401C19.6377 78.6193 23.5301 82.5095 28.3121 82.5095C33.0941 82.5095 36.9865 78.6193 36.9865 73.8401C36.9865 69.0609 33.0941 65.1707 28.3121 65.1707Z" fill="#008DDE"/>
</g>
<g id="Group_3">
<path id="Vector_2" d="M28.3121 121.655C27.7455 121.655 27.179 121.457 26.7257 121.055C25.6322 120.098 0 97.3625 0 73.8344C0 58.234 12.7028 45.5385 28.3121 45.5385C43.9215 45.5385 56.6242 58.234 56.6242 73.8344C56.6242 96.111 31.0374 120.007 29.9439 121.015C29.4849 121.445 28.8957 121.655 28.3121 121.655ZM28.3121 50.3574C15.3544 50.3574 4.81595 60.8898 4.81595 73.8401C4.81595 91.9491 22.7086 110.573 28.2725 115.924C33.808 110.369 51.8083 90.9921 51.8083 73.8401C51.8026 60.8898 41.2642 50.3574 28.3121 50.3574Z" fill="#008DDE"/>
</g>
<g id="Group_4">
<path id="Vector_3" d="M28.3121 146.106C23.0939 146.106 18.8502 141.865 18.8502 136.649C18.8502 131.434 23.0939 127.193 28.3121 127.193C33.5304 127.193 37.7741 131.434 37.7741 136.649C37.7741 141.865 33.5247 146.106 28.3121 146.106ZM28.3121 132.012C25.7512 132.012 23.6718 134.09 23.6718 136.649C23.6718 139.209 25.7569 141.287 28.3121 141.287C30.8731 141.287 32.9525 139.209 32.9525 136.649C32.9525 134.09 30.8674 132.012 28.3121 132.012Z" fill="#008DDE"/>
</g>
<g id="Group_5">
<path id="Vector_4" d="M126.756 45.7537C121.538 45.7537 117.294 41.5124 117.294 36.2972C117.294 31.0819 121.538 26.8406 126.756 26.8406C131.974 26.8406 136.218 31.0819 136.218 36.2972C136.218 41.5124 131.974 45.7537 126.756 45.7537ZM126.756 31.6595C124.195 31.6595 122.116 33.7377 122.116 36.2972C122.116 38.8567 124.201 40.9348 126.756 40.9348C129.317 40.9348 131.396 38.8567 131.396 36.2972C131.396 33.7377 129.317 31.6595 126.756 31.6595Z" fill="#008DDE"/>
</g>
<g id="Group_6">
<path id="Vector_5" d="M110.937 38.7038H98.8516C97.5202 38.7038 96.4437 37.6279 96.4437 36.2972C96.4437 34.9665 97.5202 33.8906 98.8516 33.8906H110.937C112.268 33.8906 113.345 34.9665 113.345 36.2972C113.345 37.6279 112.268 38.7038 110.937 38.7038Z" fill="#008DDE"/>
</g>
<g id="Group_7">
<path id="Vector_6" d="M106.314 139.062H35.3604C34.029 139.062 32.9525 137.986 32.9525 136.655C32.9525 135.324 34.029 134.249 35.3604 134.249H106.314C118.455 134.249 128.337 124.373 128.337 112.238C128.337 100.103 118.455 90.2276 106.314 90.2276H89.0328C74.2336 90.2276 62.1938 78.1946 62.1938 63.404V60.7199C62.1938 45.9292 74.2336 33.8962 89.0328 33.8962C90.3642 33.8962 91.4407 34.9721 91.4407 36.3028C91.4407 37.6335 90.3642 38.7094 89.0328 38.7094C76.8909 38.7094 67.0097 48.585 67.0097 60.7199V63.404C67.0097 75.5389 76.8909 85.4144 89.0328 85.4144H106.314C121.113 85.4144 133.153 97.4474 133.153 112.238C133.153 127.029 121.118 139.062 106.314 139.062Z" fill="#008DDE"/>
</g>
<g id="Group_8">
<path id="Vector_7" d="M125.373 31.6595C124.042 31.6595 122.965 30.5836 122.965 29.2529V16.8971H108.586C107.69 16.8971 106.874 16.4045 106.455 15.6117C106.036 14.8246 106.093 13.8677 106.597 13.1315L109.821 8.41459L106.608 3.77694C106.098 3.0408 106.042 2.08381 106.455 1.29105C106.869 0.49829 107.69 0 108.591 0H125.379C126.71 0 127.787 1.07589 127.787 2.4066V29.2529C127.787 30.5836 126.705 31.6595 125.373 31.6595ZM113.152 12.0783H122.971V4.8132H113.192L114.727 7.03292C115.294 7.854 115.299 8.93556 114.739 9.76229L113.152 12.0783Z" fill="#008DDE"/>
</g>
</g>
</svg>
