<svg width="183" height="157" viewBox="0 0 183 157" fill="none" xmlns="http://www.w3.org/2000/svg">
<g id="Group">
<g id="Group_2">
<path id="Vector" d="M134.405 146.754H108.551C107.22 146.754 106.144 145.678 106.144 144.347C106.144 143.017 107.22 141.941 108.551 141.941H134.405C136.41 141.941 138.042 140.31 138.042 138.305V91.1587C138.042 89.1542 136.41 87.529 134.405 87.529C133.073 87.529 131.997 86.4531 131.997 85.1224C131.997 83.7917 133.073 82.7158 134.405 82.7158C139.068 82.7158 142.858 86.5041 142.858 91.1644V138.311C142.852 142.96 139.062 146.754 134.405 146.754Z" fill="#008DDE"/>
</g>
<g id="Group_3">
<path id="Vector_2" d="M96.1264 156.482C89.4294 156.482 83.9788 151.035 83.9788 144.342C83.9788 137.649 89.4294 132.201 96.1264 132.201C102.823 132.201 108.274 137.649 108.274 144.342C108.274 151.041 102.823 156.482 96.1264 156.482ZM96.1264 137.02C92.0866 137.02 88.8004 140.304 88.8004 144.342C88.8004 148.379 92.0866 151.663 96.1264 151.663C100.166 151.663 103.452 148.379 103.452 144.342C103.452 140.304 100.166 137.02 96.1264 137.02Z" fill="#008DDE"/>
</g>
<g id="Group_4">
<path id="Vector_3" d="M160.507 156.482C153.81 156.482 148.36 151.035 148.36 144.342C148.36 137.649 153.81 132.201 160.507 132.201C167.204 132.201 172.655 137.649 172.655 144.342C172.649 151.041 167.204 156.482 160.507 156.482ZM160.507 137.02C156.467 137.02 153.181 140.304 153.181 144.342C153.181 148.379 156.467 151.663 160.507 151.663C164.547 151.663 167.833 148.379 167.833 144.342C167.833 140.304 164.547 137.02 160.507 137.02Z" fill="#008DDE"/>
</g>
<g id="Group_5">
<path id="Vector_4" d="M96.1264 147.031C97.6096 147.031 98.8119 145.83 98.8119 144.347C98.8119 142.865 97.6096 141.663 96.1264 141.663C94.6431 141.663 93.4408 142.865 93.4408 144.347C93.4408 145.83 94.6431 147.031 96.1264 147.031Z" fill="#008DDE"/>
</g>
<g id="Group_6">
<path id="Vector_5" d="M160.507 147.031C161.99 147.031 163.193 145.83 163.193 144.347C163.193 142.865 161.99 141.663 160.507 141.663C159.024 141.663 157.822 142.865 157.822 144.347C157.822 145.83 159.024 147.031 160.507 147.031Z" fill="#008DDE"/>
</g>
<g id="Group_7">
<path id="Vector_6" d="M174.354 146.754H170.241C168.91 146.754 167.833 145.678 167.833 144.347C167.833 143.017 168.91 141.941 170.241 141.941H174.354C176.264 141.941 177.822 140.389 177.822 138.475V120.213L165.765 101.085C164.32 98.7976 161.844 97.4272 159.136 97.4272H140.45C139.119 97.4272 138.042 96.3513 138.042 95.0206C138.042 93.6899 139.119 92.614 140.45 92.614H159.136C163.51 92.614 167.51 94.8224 169.844 98.5201L182.275 118.237C182.519 118.622 182.643 119.064 182.643 119.523V138.481C182.643 143.039 178.927 146.754 174.354 146.754Z" fill="#008DDE"/>
</g>
<g id="Group_8">
<path id="Vector_7" d="M180.23 122.569H150.768C149.436 122.569 148.36 121.493 148.36 120.163V96.5269C148.36 95.1962 149.436 94.1203 150.768 94.1203C152.099 94.1203 153.176 95.1962 153.176 96.5269V117.756H180.23C181.561 117.756 182.638 118.832 182.638 120.163C182.638 121.493 181.561 122.569 180.23 122.569Z" fill="#008DDE"/>
</g>
<g id="Group_9">
<path id="Vector_8" d="M150.768 146.754H133.056C131.725 146.754 130.648 145.678 130.648 144.347C130.648 143.017 131.725 141.941 133.056 141.941H150.768C152.099 141.941 153.176 143.017 153.176 144.347C153.176 145.678 152.099 146.754 150.768 146.754Z" fill="#008DDE"/>
</g>
<g id="Group_10">
<path id="Vector_9" d="M180.23 156.482H75.6444C74.3129 156.482 73.2364 155.406 73.2364 154.076C73.2364 152.745 74.3129 151.669 75.6444 151.669H180.23C181.561 151.669 182.638 152.745 182.638 154.076C182.638 155.406 181.561 156.482 180.23 156.482Z" fill="#008DDE"/>
</g>
<g id="Group_11">
<path id="Vector_10" d="M30.6181 156.482H5.50717C4.17571 156.482 3.0992 155.406 3.0992 154.076C3.0992 152.745 4.17571 151.669 5.50717 151.669H30.6181C31.9496 151.669 33.0261 152.745 33.0261 154.076C33.0261 155.406 31.9496 156.482 30.6181 156.482Z" fill="#008DDE"/>
</g>
<g id="Group_12">
<path id="Vector_11" d="M59.3438 156.482H42.4993C41.1679 156.482 40.0913 155.406 40.0913 154.076C40.0913 152.745 41.1679 151.669 42.4993 151.669H59.3438C60.6753 151.669 61.7518 152.745 61.7518 154.076C61.7518 155.406 60.6753 156.482 59.3438 156.482Z" fill="#008DDE"/>
</g>
<g id="Group_13">
<path id="Vector_12" d="M82.6983 146.754C78.0354 146.754 74.2449 142.966 74.2449 138.305V91.1588C74.2449 86.4984 78.0354 82.7102 82.6983 82.7102H91.5314C92.8629 82.7102 93.9394 83.7861 93.9394 85.1168C93.9394 86.4475 92.8629 87.5234 91.5314 87.5234H82.6983C80.6926 87.5234 79.0609 89.1542 79.0609 91.1531V138.3C79.0609 140.304 80.6926 141.935 82.6983 141.935C84.0298 141.935 85.1063 143.011 85.1063 144.342C85.1063 145.672 84.0298 146.754 82.6983 146.754Z" fill="#008DDE"/>
</g>
<g id="Group_14">
<path id="Vector_13" d="M108.551 88.3898C103.209 88.3898 98.863 84.0465 98.863 78.7067C98.863 73.3669 103.209 69.0237 108.551 69.0237C113.894 69.0237 118.24 73.3669 118.24 78.7067C118.24 84.0465 113.894 88.3898 108.551 88.3898ZM108.551 73.8369C105.866 73.8369 103.679 76.0227 103.679 78.7067C103.679 81.3908 105.866 83.5766 108.551 83.5766C111.237 83.5766 113.424 81.3908 113.424 78.7067C113.424 76.0227 111.237 73.8369 108.551 73.8369Z" fill="#008DDE"/>
</g>
<g id="Group_15">
<path id="Vector_14" d="M108.551 110.949C107.985 110.949 107.418 110.751 106.965 110.349C106.234 109.709 89.1291 94.5336 89.1291 78.7067C89.1291 67.9988 97.8431 59.2897 108.557 59.2897C119.271 59.2897 127.985 67.9988 127.985 78.7067C127.985 93.6956 110.92 109.636 110.195 110.31C109.724 110.734 109.135 110.949 108.551 110.949ZM108.551 64.1029C100.495 64.1029 93.945 70.6545 93.945 78.701C93.945 89.7431 104.41 101.136 108.518 105.185C112.614 100.978 123.164 89.1315 123.164 78.701C123.158 70.6545 116.603 64.1029 108.551 64.1029Z" fill="#008DDE"/>
</g>
<g id="Group_16">
<path id="Vector_15" d="M133.062 127.263C132.269 127.263 131.487 126.873 131.028 126.154L124.971 116.686L119.657 124.681C119.22 125.332 118.495 125.734 117.713 125.757C116.926 125.78 116.183 125.412 115.713 124.783L114.801 123.554L112.353 126.425C111.894 126.963 111.226 127.269 110.518 127.269H88.0469C86.7154 127.269 85.6389 126.193 85.6389 124.862V114.743C85.6389 113.413 86.7154 112.337 88.0469 112.337H105.872V108.554C105.872 107.224 106.948 106.148 108.28 106.148C109.611 106.148 110.688 107.224 110.688 108.554V114.749C110.688 116.08 109.611 117.156 108.28 117.156H90.4549V122.462H109.401L113.096 118.135C113.571 117.575 114.263 117.269 115.011 117.292C115.741 117.314 116.427 117.677 116.863 118.266L117.532 119.172L122.994 110.955C123.447 110.276 124.218 109.885 125.022 109.879C125.838 109.885 126.591 110.304 127.033 110.989L135.079 123.571C135.793 124.693 135.47 126.182 134.348 126.895C133.957 127.139 133.504 127.263 133.062 127.263Z" fill="#008DDE"/>
</g>
<g id="Group_17">
<path id="Vector_16" d="M58.8339 156.46C58.375 156.46 57.9104 156.329 57.5024 156.058L25.0486 134.512C25.0259 134.495 25.0033 134.478 24.9806 134.466C9.33726 123.283 -1.38283e-05 105.134 -1.38283e-05 85.9095V20.8125C-1.38283e-05 19.7592 0.685551 18.8249 1.69973 18.5135L58.1313 1.06703C59.4061 0.676307 60.7489 1.38413 61.1456 2.65821C61.5365 3.92663 60.8283 5.27433 59.5535 5.67071L4.82161 22.5962V85.9039C4.82161 103.56 13.394 120.236 27.7512 130.519L60.171 152.043C61.2815 152.779 61.5818 154.274 60.8453 155.378C60.375 156.08 59.6101 156.46 58.8339 156.46Z" fill="#008DDE"/>
</g>
<g id="Group_18">
<path id="Vector_17" d="M58.8339 156.46C58.052 156.46 57.2871 156.08 56.8225 155.384C56.086 154.274 56.3863 152.779 57.4968 152.049L70.2675 143.572C71.378 142.836 72.8738 143.136 73.6047 144.245C74.3413 145.355 74.041 146.85 72.9305 147.581L60.1597 156.058C59.7574 156.329 59.2928 156.46 58.8339 156.46Z" fill="#008DDE"/>
</g>
<g id="Group_19">
<path id="Vector_18" d="M115.266 57.2965C113.934 57.2965 112.858 56.2206 112.858 54.8899V22.5848L58.1257 5.65937C56.8565 5.26865 56.1426 3.91529 56.5393 2.64687C56.9302 1.37845 58.2787 0.664965 59.5535 1.05568L115.985 18.5021C116.994 18.8136 117.685 19.7479 117.685 20.8011V54.8786C117.673 56.2206 116.597 57.2965 115.266 57.2965Z" fill="#008DDE"/>
</g>
<g id="Group_20">
<path id="Vector_19" d="M58.8339 141.125C58.0294 141.125 57.2418 140.723 56.7885 139.987C56.086 138.86 56.4316 137.371 57.5648 136.669L67.8029 130.304C68.9304 129.602 70.4205 129.947 71.1231 131.08C71.8256 132.207 71.48 133.696 70.3469 134.398L60.1087 140.763C59.7121 141.006 59.2702 141.125 58.8339 141.125Z" fill="#008DDE"/>
</g>
<g id="Group_21">
<path id="Vector_20" d="M101.594 56.2885C100.262 56.2885 99.1859 55.2127 99.1859 53.8819V31.6563L57.0152 17.0468C55.7574 16.6108 55.0945 15.2405 55.5251 13.9834C55.9613 12.7263 57.3324 12.0637 58.5903 12.4941L102.381 27.6642C103.35 27.9983 104.002 28.9156 104.002 29.9405V53.8819C104.008 55.2127 102.925 56.2885 101.594 56.2885Z" fill="#008DDE"/>
</g>
<g id="Group_22">
<path id="Vector_21" d="M58.8339 141.125C58.409 141.125 57.9784 141.012 57.5931 140.78L37.876 128.889C22.1194 118.917 12.7368 102.733 12.7368 85.5698V75.6036C12.7368 74.2729 13.8133 73.197 15.1447 73.197C16.4762 73.197 17.5527 74.2729 17.5527 75.6036V85.5698C17.5527 101.074 26.0968 115.74 40.403 124.794L60.0747 136.663C61.2135 137.348 61.5818 138.832 60.8906 139.97C60.443 140.712 59.6498 141.125 58.8339 141.125Z" fill="#008DDE"/>
</g>
<g id="Group_23">
<path id="Vector_22" d="M15.1447 68.061C13.8133 68.061 12.7368 66.9852 12.7368 65.6545V63.061C12.7368 61.7303 13.8133 60.6544 15.1447 60.6544C16.4762 60.6544 17.5527 61.7303 17.5527 63.061V65.6545C17.5527 66.9795 16.4762 68.061 15.1447 68.061Z" fill="#008DDE"/>
</g>
<g id="Group_24">
<path id="Vector_23" d="M15.1447 52.0756C13.8133 52.0756 12.7368 50.9997 12.7368 49.669V30.2237C12.7368 29.2101 13.3713 28.3041 14.3232 27.9586L56.9812 12.5054C58.2277 12.0524 59.6158 12.698 60.069 13.9494C60.5223 15.2008 59.8764 16.5825 58.6243 17.0355L17.5527 31.9111V49.669C17.5527 50.9997 16.4762 52.0756 15.1447 52.0756Z" fill="#008DDE"/>
</g>
<g id="Group_25">
<path id="Vector_24" d="M51.797 102.416C49.338 102.416 46.879 101.482 45.0376 99.6187L34.3292 88.8088C31.0487 85.5018 31.0147 80.0827 34.2556 76.7362C35.8647 75.0714 38.029 74.1314 40.3463 74.1031C42.6636 74.0804 44.8563 74.9468 46.5107 76.5663C46.5334 76.5889 46.5561 76.6116 46.5787 76.6342L52.0803 82.461L69.9503 65.4336C73.2761 62.2682 78.6076 62.3419 81.8428 65.5922C83.4689 67.2287 84.3471 69.4031 84.3131 71.7078C84.2791 74.0181 83.3329 76.1586 81.6615 77.7498L58.3296 99.8338C56.5109 101.555 54.1539 102.416 51.797 102.416ZM40.471 78.9106C40.454 78.9106 40.437 78.9106 40.4143 78.9106C39.3888 78.9276 38.4313 79.3409 37.7174 80.0771C36.284 81.5607 36.301 83.956 37.7514 85.4169L48.4598 96.2268C50.2389 98.0218 53.1794 98.0671 55.0151 96.3344L78.347 74.2503C79.0722 73.5651 79.4802 72.6364 79.4972 71.6342C79.5142 70.6319 79.1346 69.6919 78.4263 68.9841C77.0269 67.5741 74.7096 67.5401 73.2704 68.9161L55.1794 86.1474C54.3012 86.9854 53.1284 87.4214 51.9443 87.3931C50.7318 87.3592 49.6099 86.8609 48.7771 85.9775L43.1056 79.9695C42.3973 79.29 41.4625 78.9106 40.471 78.9106Z" fill="#008DDE"/>
</g>
</g>
</svg>
