<svg width="634" height="154" viewBox="0 0 634 154" fill="none" xmlns="http://www.w3.org/2000/svg">
<path d="M623.253 154.005L454.5 16L454.5 65L623.253 154.005Z" fill="white"/>
<rect width="460" height="88" rx="20" fill="white"/>
<path d="M40.958 40V16.2H60.168V20.586H46.432V25.482H53.028C55.9067 25.482 58.094 26.0827 59.59 27.284C61.1087 28.4853 61.868 30.2307 61.868 32.52C61.868 34.8773 61.0293 36.7133 59.352 38.028C57.6747 39.3427 55.306 40 52.246 40H40.958ZM46.432 35.92H51.94C53.3453 35.92 54.422 35.648 55.17 35.104C55.918 34.5373 56.292 33.7213 56.292 32.656C56.292 30.5707 54.8413 29.528 51.94 29.528H46.432V35.92ZM77.4496 40.408C75.5682 40.408 73.8229 40.102 72.2136 39.49C70.6269 38.878 69.2442 38.0167 68.0656 36.906C66.9096 35.7953 66.0029 34.492 65.3456 32.996C64.7109 31.5 64.3936 29.868 64.3936 28.1C64.3936 26.332 64.7109 24.7 65.3456 23.204C66.0029 21.708 66.9209 20.4047 68.0996 19.294C69.2782 18.1833 70.6609 17.322 72.2476 16.71C73.8342 16.098 75.5569 15.792 77.4156 15.792C79.2969 15.792 81.0196 16.098 82.5836 16.71C84.1702 17.322 85.5416 18.1833 86.6976 19.294C87.8762 20.4047 88.7942 21.708 89.4516 23.204C90.1089 24.6773 90.4376 26.3093 90.4376 28.1C90.4376 29.868 90.1089 31.5113 89.4516 33.03C88.7942 34.526 87.8762 35.8293 86.6976 36.94C85.5416 38.028 84.1702 38.878 82.5836 39.49C81.0196 40.102 79.3082 40.408 77.4496 40.408ZM77.4156 35.716C78.4809 35.716 79.4556 35.5347 80.3396 35.172C81.2462 34.8093 82.0396 34.288 82.7196 33.608C83.3996 32.928 83.9209 32.1233 84.2836 31.194C84.6689 30.2647 84.8616 29.2333 84.8616 28.1C84.8616 26.9667 84.6689 25.9353 84.2836 25.006C83.9209 24.0767 83.3996 23.272 82.7196 22.592C82.0622 21.912 81.2802 21.3907 80.3736 21.028C79.4669 20.6653 78.4809 20.484 77.4156 20.484C76.3502 20.484 75.3642 20.6653 74.4576 21.028C73.5736 21.3907 72.7916 21.912 72.1116 22.592C71.4316 23.272 70.8989 24.0767 70.5136 25.006C70.1509 25.9353 69.9696 26.9667 69.9696 28.1C69.9696 29.2107 70.1509 30.242 70.5136 31.194C70.8989 32.1233 71.4202 32.928 72.0776 33.608C72.7576 34.288 73.5509 34.8093 74.4576 35.172C75.3642 35.5347 76.3502 35.716 77.4156 35.716ZM94.6807 40V16.2H105.765C108.53 16.2 110.683 16.7327 112.225 17.798C113.766 18.8633 114.537 20.382 114.537 22.354C114.537 24.3033 113.811 25.822 112.361 26.91C110.91 27.9753 108.983 28.508 106.581 28.508L107.227 27.08C109.901 27.08 111.975 27.6127 113.449 28.678C114.922 29.7433 115.659 31.2847 115.659 33.302C115.659 35.3873 114.865 37.0307 113.279 38.232C111.715 39.4107 109.425 40 106.411 40H94.6807ZM100.155 35.92H106.207C107.476 35.92 108.439 35.6707 109.097 35.172C109.754 34.6733 110.083 33.9027 110.083 32.86C110.083 31.8627 109.754 31.126 109.097 30.65C108.439 30.1513 107.476 29.902 106.207 29.902H100.155V35.92ZM100.155 26.06H105.289C106.49 26.06 107.397 25.822 108.009 25.346C108.621 24.8473 108.927 24.122 108.927 23.17C108.927 22.218 108.621 21.504 108.009 21.028C107.397 20.5293 106.49 20.28 105.289 20.28H100.155V26.06ZM117.329 40L127.937 16.2H133.377L144.019 40H138.239L129.535 18.988H131.711L122.973 40H117.329ZM122.633 34.9L124.095 30.718H136.335L137.831 34.9H122.633ZM163.495 16.2H169.003V40H163.495V16.2ZM152.683 40H147.175V16.2H152.683V40ZM163.903 30.242H152.275V25.584H163.903V30.242ZM180.032 25.788H191.49V30.072H180.032V25.788ZM180.44 35.58H193.394V40H174.966V16.2H192.952V20.62H180.44V35.58ZM214.163 16.2H219.671V40H214.163V16.2ZM203.351 40H197.843V16.2H203.351V40ZM214.571 30.242H202.943V25.584H214.571V30.242ZM241.036 40L233.624 28.542L238.078 25.856L247.292 40H241.036ZM225.566 40V16.2H231.04V40H225.566ZM229.442 30.412V25.822H237.738V30.412H229.442ZM238.588 28.712L233.522 28.1L241.24 16.2H247.054L238.588 28.712ZM261.162 40.408C259.281 40.408 257.536 40.102 255.926 39.49C254.34 38.878 252.957 38.0167 251.778 36.906C250.622 35.7953 249.716 34.492 249.058 32.996C248.424 31.5 248.106 29.868 248.106 28.1C248.106 26.332 248.424 24.7 249.058 23.204C249.716 21.708 250.634 20.4047 251.812 19.294C252.991 18.1833 254.374 17.322 255.96 16.71C257.547 16.098 259.27 15.792 261.128 15.792C263.01 15.792 264.732 16.098 266.296 16.71C267.883 17.322 269.254 18.1833 270.41 19.294C271.589 20.4047 272.507 21.708 273.164 23.204C273.822 24.6773 274.15 26.3093 274.15 28.1C274.15 29.868 273.822 31.5113 273.164 33.03C272.507 34.526 271.589 35.8293 270.41 36.94C269.254 38.028 267.883 38.878 266.296 39.49C264.732 40.102 263.021 40.408 261.162 40.408ZM261.128 35.716C262.194 35.716 263.168 35.5347 264.052 35.172C264.959 34.8093 265.752 34.288 266.432 33.608C267.112 32.928 267.634 32.1233 267.996 31.194C268.382 30.2647 268.574 29.2333 268.574 28.1C268.574 26.9667 268.382 25.9353 267.996 25.006C267.634 24.0767 267.112 23.272 266.432 22.592C265.775 21.912 264.993 21.3907 264.086 21.028C263.18 20.6653 262.194 20.484 261.128 20.484C260.063 20.484 259.077 20.6653 258.17 21.028C257.286 21.3907 256.504 21.912 255.824 22.592C255.144 23.272 254.612 24.0767 254.226 25.006C253.864 25.9353 253.682 26.9667 253.682 28.1C253.682 29.2107 253.864 30.242 254.226 31.194C254.612 32.1233 255.133 32.928 255.79 33.608C256.47 34.288 257.264 34.8093 258.17 35.172C259.077 35.5347 260.063 35.716 261.128 35.716ZM278.394 40V16.2H289.478C292.243 16.2 294.396 16.7327 295.938 17.798C297.479 18.8633 298.25 20.382 298.25 22.354C298.25 24.3033 297.524 25.822 296.074 26.91C294.623 27.9753 292.696 28.508 290.294 28.508L290.94 27.08C293.614 27.08 295.688 27.6127 297.162 28.678C298.635 29.7433 299.372 31.2847 299.372 33.302C299.372 35.3873 298.578 37.0307 296.992 38.232C295.428 39.4107 293.138 40 290.124 40H278.394ZM283.868 35.92H289.92C291.189 35.92 292.152 35.6707 292.81 35.172C293.467 34.6733 293.796 33.9027 293.796 32.86C293.796 31.8627 293.467 31.126 292.81 30.65C292.152 30.1513 291.189 29.902 289.92 29.902H283.868V35.92ZM283.868 26.06H289.002C290.203 26.06 291.11 25.822 291.722 25.346C292.334 24.8473 292.64 24.122 292.64 23.17C292.64 22.218 292.334 21.504 291.722 21.028C291.11 20.5293 290.203 20.28 289.002 20.28H283.868V26.06ZM314.982 40.408C313.146 40.408 311.434 40.1133 309.848 39.524C308.284 38.912 306.924 38.0507 305.768 36.94C304.612 35.8293 303.705 34.526 303.048 33.03C302.413 31.534 302.096 29.8907 302.096 28.1C302.096 26.3093 302.413 24.666 303.048 23.17C303.705 21.674 304.612 20.3707 305.768 19.26C306.946 18.1493 308.318 17.2993 309.882 16.71C311.446 16.098 313.157 15.792 315.016 15.792C317.078 15.792 318.937 16.1547 320.592 16.88C322.269 17.5827 323.674 18.6253 324.808 20.008L321.272 23.272C320.456 22.3427 319.549 21.6513 318.552 21.198C317.554 20.722 316.466 20.484 315.288 20.484C314.177 20.484 313.157 20.6653 312.228 21.028C311.298 21.3907 310.494 21.912 309.814 22.592C309.134 23.272 308.601 24.0767 308.216 25.006C307.853 25.9353 307.672 26.9667 307.672 28.1C307.672 29.2333 307.853 30.2647 308.216 31.194C308.601 32.1233 309.134 32.928 309.814 33.608C310.494 34.288 311.298 34.8093 312.228 35.172C313.157 35.5347 314.177 35.716 315.288 35.716C316.466 35.716 317.554 35.4893 318.552 35.036C319.549 34.56 320.456 33.846 321.272 32.894L324.808 36.158C323.674 37.5407 322.269 38.5947 320.592 39.32C318.937 40.0453 317.067 40.408 314.982 40.408ZM343.799 40L336.387 28.542L340.841 25.856L350.055 40H343.799ZM328.329 40V16.2H333.803V40H328.329ZM332.205 30.412V25.822H340.501V30.412H332.205ZM341.351 28.712L336.285 28.1L344.003 16.2H349.817L341.351 28.712ZM363.926 40.408C362.045 40.408 360.299 40.102 358.69 39.49C357.103 38.878 355.721 38.0167 354.542 36.906C353.386 35.7953 352.479 34.492 351.822 32.996C351.187 31.5 350.87 29.868 350.87 28.1C350.87 26.332 351.187 24.7 351.822 23.204C352.479 21.708 353.397 20.4047 354.576 19.294C355.755 18.1833 357.137 17.322 358.724 16.71C360.311 16.098 362.033 15.792 363.892 15.792C365.773 15.792 367.496 16.098 369.06 16.71C370.647 17.322 372.018 18.1833 373.174 19.294C374.353 20.4047 375.271 21.708 375.928 23.204C376.585 24.6773 376.914 26.3093 376.914 28.1C376.914 29.868 376.585 31.5113 375.928 33.03C375.271 34.526 374.353 35.8293 373.174 36.94C372.018 38.028 370.647 38.878 369.06 39.49C367.496 40.102 365.785 40.408 363.926 40.408ZM363.892 35.716C364.957 35.716 365.932 35.5347 366.816 35.172C367.723 34.8093 368.516 34.288 369.196 33.608C369.876 32.928 370.397 32.1233 370.76 31.194C371.145 30.2647 371.338 29.2333 371.338 28.1C371.338 26.9667 371.145 25.9353 370.76 25.006C370.397 24.0767 369.876 23.272 369.196 22.592C368.539 21.912 367.757 21.3907 366.85 21.028C365.943 20.6653 364.957 20.484 363.892 20.484C362.827 20.484 361.841 20.6653 360.934 21.028C360.05 21.3907 359.268 21.912 358.588 22.592C357.908 23.272 357.375 24.0767 356.99 25.006C356.627 25.9353 356.446 26.9667 356.446 28.1C356.446 29.2107 356.627 30.242 356.99 31.194C357.375 32.1233 357.897 32.928 358.554 33.608C359.234 34.288 360.027 34.8093 360.934 35.172C361.841 35.5347 362.827 35.716 363.892 35.716ZM386.223 25.788H397.681V30.072H386.223V25.788ZM386.631 35.58H399.585V40H381.157V16.2H399.143V20.62H386.631V35.58Z" fill="black"/>
<path d="M50.206 58.4H53.122V71H50.206V58.4ZM44.482 71H41.566V58.4H44.482V71ZM50.422 65.834H44.266V63.368H50.422V65.834ZM58.9609 63.476H65.0269V65.744H58.9609V63.476ZM59.1769 68.66H66.0349V71H56.2789V58.4H65.8009V60.74H59.1769V68.66ZM75.0502 70.208C73.4182 70.208 72.0322 69.992 70.8922 69.56C69.7642 69.128 68.9062 68.504 68.3182 67.688C67.7302 66.86 67.4362 65.852 67.4362 64.664C67.4362 63.476 67.7302 62.474 68.3182 61.658C68.9062 60.83 69.7642 60.2 70.8922 59.768C72.0322 59.336 73.4182 59.12 75.0502 59.12C75.0742 59.12 75.1402 59.12 75.2482 59.12C75.3682 59.12 75.4822 59.12 75.5902 59.12C75.7102 59.12 75.7762 59.12 75.7882 59.12C77.4082 59.12 78.7762 59.336 79.8922 59.768C81.0202 60.2 81.8722 60.83 82.4482 61.658C83.0242 62.486 83.3122 63.488 83.3122 64.664C83.3122 65.828 83.0242 66.83 82.4482 67.67C81.8842 68.498 81.0502 69.128 79.9462 69.56C78.8542 69.992 77.5162 70.208 75.9322 70.208C75.8962 70.208 75.8122 70.208 75.6802 70.208C75.5482 70.208 75.4162 70.208 75.2842 70.208C75.1642 70.208 75.0862 70.208 75.0502 70.208ZM75.3202 67.958C75.3562 67.958 75.4042 67.958 75.4642 67.958C75.5242 67.958 75.5662 67.958 75.5902 67.958C76.6942 67.958 77.6062 67.838 78.3262 67.598C79.0582 67.346 79.6042 66.98 79.9642 66.5C80.3242 66.008 80.5042 65.39 80.5042 64.646C80.5042 63.902 80.3182 63.29 79.9462 62.81C79.5742 62.33 79.0282 61.976 78.3082 61.748C77.6002 61.508 76.7062 61.388 75.6262 61.388C75.6022 61.388 75.5542 61.388 75.4822 61.388C75.4222 61.388 75.3682 61.388 75.3202 61.388C74.1802 61.388 73.2382 61.502 72.4942 61.73C71.7502 61.958 71.1922 62.318 70.8202 62.81C70.4482 63.29 70.2622 63.908 70.2622 64.664C70.2622 65.42 70.4602 66.044 70.8562 66.536C71.2522 67.016 71.8222 67.376 72.5662 67.616C73.3222 67.844 74.2402 67.958 75.3202 67.958ZM74.0422 71.558V57.86H76.7242V71.558H74.0422ZM88.036 71V60.11L88.702 60.776H84.022V58.4H94.948V60.776H90.268L90.916 60.11V71H88.036ZM99.4609 63.476H105.527V65.744H99.4609V63.476ZM99.6769 68.66H106.535V71H96.7789V58.4H106.301V60.74H99.6769V68.66ZM108.89 71V58.4H117.782L117.764 60.776H111.104L111.77 60.11L111.788 71H108.89ZM115.677 71L121.293 58.4H124.173L129.807 71H126.747L122.139 59.876H123.291L118.665 71H115.677ZM118.485 68.3L119.259 66.086H125.739L126.531 68.3H118.485ZM130.344 69.884L131.244 67.796C131.784 68.12 132.36 68.372 132.972 68.552C133.596 68.72 134.202 68.816 134.79 68.84C135.39 68.852 135.93 68.792 136.41 68.66C136.902 68.528 137.292 68.33 137.58 68.066C137.88 67.802 138.03 67.466 138.03 67.058C138.03 66.578 137.832 66.224 137.436 65.996C137.04 65.756 136.512 65.636 135.852 65.636H132.774V63.44H135.636C136.224 63.44 136.68 63.32 137.004 63.08C137.34 62.84 137.508 62.51 137.508 62.09C137.508 61.73 137.388 61.442 137.148 61.226C136.908 60.998 136.578 60.83 136.158 60.722C135.75 60.614 135.288 60.566 134.772 60.578C134.256 60.59 133.722 60.674 133.17 60.83C132.618 60.986 132.09 61.202 131.586 61.478L130.704 59.228C131.52 58.808 132.378 58.52 133.278 58.364C134.19 58.196 135.066 58.154 135.906 58.238C136.758 58.31 137.526 58.502 138.21 58.814C138.894 59.114 139.44 59.51 139.848 60.002C140.256 60.494 140.46 61.076 140.46 61.748C140.46 62.348 140.304 62.882 139.992 63.35C139.68 63.818 139.242 64.178 138.678 64.43C138.126 64.682 137.49 64.808 136.77 64.808L136.842 64.16C137.682 64.16 138.408 64.304 139.02 64.592C139.644 64.868 140.124 65.258 140.46 65.762C140.808 66.254 140.982 66.824 140.982 67.472C140.982 68.072 140.82 68.612 140.496 69.092C140.184 69.56 139.752 69.956 139.2 70.28C138.648 70.604 138.018 70.844 137.31 71C136.602 71.156 135.846 71.222 135.042 71.198C134.25 71.174 133.452 71.06 132.648 70.856C131.844 70.64 131.076 70.316 130.344 69.884ZM149.321 71.216C148.325 71.216 147.401 71.054 146.549 70.73C145.709 70.406 144.977 69.95 144.353 69.362C143.741 68.774 143.261 68.084 142.913 67.292C142.577 66.5 142.409 65.636 142.409 64.7C142.409 63.764 142.577 62.9 142.913 62.108C143.261 61.316 143.747 60.626 144.371 60.038C144.995 59.45 145.727 58.994 146.567 58.67C147.407 58.346 148.319 58.184 149.303 58.184C150.299 58.184 151.211 58.346 152.039 58.67C152.879 58.994 153.605 59.45 154.217 60.038C154.841 60.626 155.327 61.316 155.675 62.108C156.023 62.888 156.197 63.752 156.197 64.7C156.197 65.636 156.023 66.506 155.675 67.31C155.327 68.102 154.841 68.792 154.217 69.38C153.605 69.956 152.879 70.406 152.039 70.73C151.211 71.054 150.305 71.216 149.321 71.216ZM149.303 68.732C149.867 68.732 150.383 68.636 150.851 68.444C151.331 68.252 151.751 67.976 152.111 67.616C152.471 67.256 152.747 66.83 152.939 66.338C153.143 65.846 153.245 65.3 153.245 64.7C153.245 64.1 153.143 63.554 152.939 63.062C152.747 62.57 152.471 62.144 152.111 61.784C151.763 61.424 151.349 61.148 150.869 60.956C150.389 60.764 149.867 60.668 149.303 60.668C148.739 60.668 148.217 60.764 147.737 60.956C147.269 61.148 146.855 61.424 146.495 61.784C146.135 62.144 145.853 62.57 145.649 63.062C145.457 63.554 145.361 64.1 145.361 64.7C145.361 65.288 145.457 65.834 145.649 66.338C145.853 66.83 146.129 67.256 146.477 67.616C146.837 67.976 147.257 68.252 147.737 68.444C148.217 68.636 148.739 68.732 149.303 68.732ZM158.443 71V58.4H164.311C165.775 58.4 166.915 58.682 167.731 59.246C168.547 59.81 168.955 60.614 168.955 61.658C168.955 62.69 168.571 63.494 167.803 64.07C167.035 64.634 166.015 64.916 164.743 64.916L165.085 64.16C166.501 64.16 167.599 64.442 168.379 65.006C169.159 65.57 169.549 66.386 169.549 67.454C169.549 68.558 169.129 69.428 168.289 70.064C167.461 70.688 166.249 71 164.653 71H158.443ZM161.341 68.84H164.545C165.217 68.84 165.727 68.708 166.075 68.444C166.423 68.18 166.597 67.772 166.597 67.22C166.597 66.692 166.423 66.302 166.075 66.05C165.727 65.786 165.217 65.654 164.545 65.654H161.341V68.84ZM161.341 63.62H164.059C164.695 63.62 165.175 63.494 165.499 63.242C165.823 62.978 165.985 62.594 165.985 62.09C165.985 61.586 165.823 61.208 165.499 60.956C165.175 60.692 164.695 60.56 164.059 60.56H161.341V63.62ZM177.885 71.216C176.889 71.216 175.965 71.054 175.113 70.73C174.273 70.406 173.541 69.95 172.917 69.362C172.305 68.774 171.825 68.084 171.477 67.292C171.141 66.5 170.973 65.636 170.973 64.7C170.973 63.764 171.141 62.9 171.477 62.108C171.825 61.316 172.311 60.626 172.935 60.038C173.559 59.45 174.291 58.994 175.131 58.67C175.971 58.346 176.883 58.184 177.867 58.184C178.863 58.184 179.775 58.346 180.603 58.67C181.443 58.994 182.169 59.45 182.781 60.038C183.405 60.626 183.891 61.316 184.239 62.108C184.587 62.888 184.761 63.752 184.761 64.7C184.761 65.636 184.587 66.506 184.239 67.31C183.891 68.102 183.405 68.792 182.781 69.38C182.169 69.956 181.443 70.406 180.603 70.73C179.775 71.054 178.869 71.216 177.885 71.216ZM177.867 68.732C178.431 68.732 178.947 68.636 179.415 68.444C179.895 68.252 180.315 67.976 180.675 67.616C181.035 67.256 181.311 66.83 181.503 66.338C181.707 65.846 181.809 65.3 181.809 64.7C181.809 64.1 181.707 63.554 181.503 63.062C181.311 62.57 181.035 62.144 180.675 61.784C180.327 61.424 179.913 61.148 179.433 60.956C178.953 60.764 178.431 60.668 177.867 60.668C177.303 60.668 176.781 60.764 176.301 60.956C175.833 61.148 175.419 61.424 175.059 61.784C174.699 62.144 174.417 62.57 174.213 63.062C174.021 63.554 173.925 64.1 173.925 64.7C173.925 65.288 174.021 65.834 174.213 66.338C174.417 66.83 174.693 67.256 175.041 67.616C175.401 67.976 175.821 68.252 176.301 68.444C176.781 68.636 177.303 68.732 177.867 68.732ZM189.689 63.476H195.755V65.744H189.689V63.476ZM189.905 68.66H196.763V71H187.007V58.4H196.529V60.74H189.905V68.66ZM204.216 71V58.4H206.628L211.992 67.292H210.714L215.988 58.4H218.4L218.418 71H215.682L215.664 62.594H216.186L211.956 69.668H210.66L206.34 62.594H206.952V71H204.216ZM224.23 63.476H230.296V65.744H224.23V63.476ZM224.446 68.66H231.304V71H221.548V58.4H231.07V60.74H224.446V68.66ZM239.618 71.216C238.646 71.216 237.74 71.06 236.9 70.748C236.072 70.424 235.352 69.968 234.74 69.38C234.128 68.792 233.648 68.102 233.3 67.31C232.964 66.518 232.796 65.648 232.796 64.7C232.796 63.752 232.964 62.882 233.3 62.09C233.648 61.298 234.128 60.608 234.74 60.02C235.364 59.432 236.09 58.982 236.918 58.67C237.746 58.346 238.652 58.184 239.636 58.184C240.728 58.184 241.712 58.376 242.588 58.76C243.476 59.132 244.22 59.684 244.82 60.416L242.948 62.144C242.516 61.652 242.036 61.286 241.508 61.046C240.98 60.794 240.404 60.668 239.78 60.668C239.192 60.668 238.652 60.764 238.16 60.956C237.668 61.148 237.242 61.424 236.882 61.784C236.522 62.144 236.24 62.57 236.036 63.062C235.844 63.554 235.748 64.1 235.748 64.7C235.748 65.3 235.844 65.846 236.036 66.338C236.24 66.83 236.522 67.256 236.882 67.616C237.242 67.976 237.668 68.252 238.16 68.444C238.652 68.636 239.192 68.732 239.78 68.732C240.404 68.732 240.98 68.612 241.508 68.372C242.036 68.12 242.516 67.742 242.948 67.238L244.82 68.966C244.22 69.698 243.476 70.256 242.588 70.64C241.712 71.024 240.722 71.216 239.618 71.216ZM249.315 71V60.11L249.981 60.776H245.301V58.4H256.227V60.776H251.547L252.195 60.11V71H249.315ZM263.912 71.216C262.916 71.216 261.992 71.054 261.14 70.73C260.3 70.406 259.568 69.95 258.944 69.362C258.332 68.774 257.852 68.084 257.504 67.292C257.168 66.5 257 65.636 257 64.7C257 63.764 257.168 62.9 257.504 62.108C257.852 61.316 258.338 60.626 258.962 60.038C259.586 59.45 260.318 58.994 261.158 58.67C261.998 58.346 262.91 58.184 263.894 58.184C264.89 58.184 265.802 58.346 266.63 58.67C267.47 58.994 268.196 59.45 268.808 60.038C269.432 60.626 269.918 61.316 270.266 62.108C270.614 62.888 270.788 63.752 270.788 64.7C270.788 65.636 270.614 66.506 270.266 67.31C269.918 68.102 269.432 68.792 268.808 69.38C268.196 69.956 267.47 70.406 266.63 70.73C265.802 71.054 264.896 71.216 263.912 71.216ZM263.894 68.732C264.458 68.732 264.974 68.636 265.442 68.444C265.922 68.252 266.342 67.976 266.702 67.616C267.062 67.256 267.338 66.83 267.53 66.338C267.734 65.846 267.836 65.3 267.836 64.7C267.836 64.1 267.734 63.554 267.53 63.062C267.338 62.57 267.062 62.144 266.702 61.784C266.354 61.424 265.94 61.148 265.46 60.956C264.98 60.764 264.458 60.668 263.894 60.668C263.33 60.668 262.808 60.764 262.328 60.956C261.86 61.148 261.446 61.424 261.086 61.784C260.726 62.144 260.444 62.57 260.24 63.062C260.048 63.554 259.952 64.1 259.952 64.7C259.952 65.288 260.048 65.834 260.24 66.338C260.444 66.83 260.72 67.256 261.068 67.616C261.428 67.976 261.848 68.252 262.328 68.444C262.808 68.636 263.33 68.732 263.894 68.732ZM273.035 71V58.4H278.489C279.617 58.4 280.589 58.586 281.405 58.958C282.221 59.318 282.851 59.84 283.295 60.524C283.739 61.208 283.961 62.024 283.961 62.972C283.961 63.908 283.739 64.718 283.295 65.402C282.851 66.086 282.221 66.614 281.405 66.986C280.589 67.346 279.617 67.526 278.489 67.526H274.655L275.951 66.212V71H273.035ZM275.951 66.536L274.655 65.15H278.327C279.227 65.15 279.899 64.958 280.343 64.574C280.787 64.19 281.009 63.656 281.009 62.972C281.009 62.276 280.787 61.736 280.343 61.352C279.899 60.968 279.227 60.776 278.327 60.776H274.655L275.951 59.39V66.536ZM292.09 71.216C291.094 71.216 290.17 71.054 289.318 70.73C288.478 70.406 287.746 69.95 287.122 69.362C286.51 68.774 286.03 68.084 285.682 67.292C285.346 66.5 285.178 65.636 285.178 64.7C285.178 63.764 285.346 62.9 285.682 62.108C286.03 61.316 286.516 60.626 287.14 60.038C287.764 59.45 288.496 58.994 289.336 58.67C290.176 58.346 291.088 58.184 292.072 58.184C293.068 58.184 293.98 58.346 294.808 58.67C295.648 58.994 296.374 59.45 296.986 60.038C297.61 60.626 298.096 61.316 298.444 62.108C298.792 62.888 298.966 63.752 298.966 64.7C298.966 65.636 298.792 66.506 298.444 67.31C298.096 68.102 297.61 68.792 296.986 69.38C296.374 69.956 295.648 70.406 294.808 70.73C293.98 71.054 293.074 71.216 292.09 71.216ZM292.072 68.732C292.636 68.732 293.152 68.636 293.62 68.444C294.1 68.252 294.52 67.976 294.88 67.616C295.24 67.256 295.516 66.83 295.708 66.338C295.912 65.846 296.014 65.3 296.014 64.7C296.014 64.1 295.912 63.554 295.708 63.062C295.516 62.57 295.24 62.144 294.88 61.784C294.532 61.424 294.118 61.148 293.638 60.956C293.158 60.764 292.636 60.668 292.072 60.668C291.508 60.668 290.986 60.764 290.506 60.956C290.038 61.148 289.624 61.424 289.264 61.784C288.904 62.144 288.622 62.57 288.418 63.062C288.226 63.554 288.13 64.1 288.13 64.7C288.13 65.288 288.226 65.834 288.418 66.338C288.622 66.83 288.898 67.256 289.246 67.616C289.606 67.976 290.026 68.252 290.506 68.444C290.986 68.636 291.508 68.732 292.072 68.732ZM315.011 71L311.627 64.934L314.093 63.512L318.377 71H315.011ZM309.485 65.924V63.494H313.409V65.924H309.485ZM314.255 65.024L311.555 64.7L315.065 58.4H318.143L314.255 65.024ZM302.789 71H299.423L303.707 63.512L306.173 64.934L302.789 71ZM310.349 71H307.487V58.4H310.349V71ZM308.333 65.924H304.391V63.494H308.333V65.924ZM303.563 65.024L299.657 58.4H302.735L306.227 64.7L303.563 65.024ZM328.443 69.704V60.776H324.123L324.069 62.612C324.033 63.392 323.979 64.13 323.907 64.826C323.847 65.522 323.751 66.158 323.619 66.734C323.487 67.298 323.313 67.778 323.097 68.174C322.893 68.57 322.635 68.852 322.323 69.02L319.209 68.624C319.641 68.636 319.995 68.486 320.271 68.174C320.559 67.862 320.787 67.424 320.955 66.86C321.123 66.284 321.243 65.612 321.315 64.844C321.399 64.076 321.459 63.242 321.495 62.342L321.639 58.4H331.323V69.704H328.443ZM318.795 73.61L318.813 68.624H333.087V73.61H330.387V71H321.495V73.61H318.795ZM337.732 63.476H343.798V65.744H337.732V63.476ZM337.948 68.66H344.806V71H335.05V58.4H344.572V60.74H337.948V68.66ZM355.802 58.4H358.718V71H355.802V58.4ZM350.078 71H347.162V58.4H350.078V71ZM356.018 65.834H349.862V63.368H356.018V65.834ZM361.875 71V58.4H364.773V66.608L370.785 58.4H373.521V71H370.641V62.81L364.629 71H361.875ZM379.34 63.476H385.406V65.744H379.34V63.476ZM379.556 68.66H386.414V71H376.658V58.4H386.18V60.74H379.556V68.66Z" fill="black"/>
<g filter="url(#filter0_d_68_174)">
<rect x="22" y="11" width="66" height="6" transform="rotate(90 22 11)" fill="#D9D9D9"/>
<rect x="22" y="11" width="66" height="6" transform="rotate(90 22 11)" fill="url(#paint0_linear_68_174)"/>
</g>
<defs>
<filter id="filter0_d_68_174" x="12" y="11" width="14" height="74" filterUnits="userSpaceOnUse" color-interpolation-filters="sRGB">
<feFlood flood-opacity="0" result="BackgroundImageFix"/>
<feColorMatrix in="SourceAlpha" type="matrix" values="0 0 0 0 0 0 0 0 0 0 0 0 0 0 0 0 0 0 127 0" result="hardAlpha"/>
<feOffset dy="4"/>
<feGaussianBlur stdDeviation="2"/>
<feComposite in2="hardAlpha" operator="out"/>
<feColorMatrix type="matrix" values="0 0 0 0 0 0 0 0 0 0 0 0 0 0 0 0 0 0 0.25 0"/>
<feBlend mode="normal" in2="BackgroundImageFix" result="effect1_dropShadow_68_174"/>
<feBlend mode="normal" in="SourceGraphic" in2="effect1_dropShadow_68_174" result="shape"/>
</filter>
<linearGradient id="paint0_linear_68_174" x1="22" y1="11" x2="88" y2="11" gradientUnits="userSpaceOnUse">
<stop stop-color="#008DDE"/>
<stop offset="0.53125" stop-color="#EB097B"/>
<stop offset="1" stop-color="#571273"/>
</linearGradient>
</defs>
</svg>
