<svg width="243" height="81" viewBox="0 0 243 81" fill="none" xmlns="http://www.w3.org/2000/svg">
<path d="M194.5 76.1621L212.5 42.4767L198.603 42.4767L194.5 76.1621Z" fill="white"/>
<rect y="0.162292" width="243" height="46.487" rx="10.5652" fill="white"/>
<path d="M29.503 16.1726C28.8804 16.424 28.2817 16.6156 27.707 16.7473C27.1323 16.8671 26.5815 16.9269 26.0547 16.9269C24.3664 16.9269 23.0733 16.5258 22.1753 15.7236C21.2773 14.9094 20.8283 13.742 20.8283 12.2214V8.28817H23.7019V11.8981C23.7019 12.7602 23.9354 13.4128 24.4023 13.8558C24.8693 14.2868 25.5338 14.5023 26.3959 14.5023C26.9467 14.5023 27.4795 14.4425 27.9943 14.3227C28.5092 14.191 28.9881 14.0054 29.4311 13.766L29.503 16.1726ZM29.0899 20.8602V8.28817H31.9635V20.8602H29.0899ZM33.6701 20.8602L39.2736 8.28817H42.1472L47.7687 20.8602H44.7155L40.1178 9.76089H41.2672L36.6515 20.8602H33.6701ZM36.4719 18.1662L37.2442 15.9571H43.7098L44.5 18.1662H36.4719ZM55.9355 20.8602V16.891L56.6539 17.5196H53.2055C52.116 17.5196 51.1761 17.34 50.3858 16.9808C49.5956 16.6216 48.9909 16.1008 48.5719 15.4183C48.1528 14.7358 47.9433 13.9216 47.9433 12.9757C47.9433 11.9939 48.1648 11.1558 48.6078 10.4613C49.0628 9.7549 49.6974 9.2161 50.5115 8.84493C51.3257 8.47376 52.2836 8.28817 53.3851 8.28817H58.8091V20.8602H55.9355ZM47.9792 20.8602L51.1042 16.3522H54.0497L51.0503 20.8602H47.9792ZM55.9355 15.9571V9.90457L56.6539 10.6589H53.457C52.6308 10.6589 51.9962 10.8505 51.5532 11.2336C51.1222 11.6168 50.9067 12.1855 50.9067 12.9398C50.9067 13.6702 51.1162 14.2329 51.5353 14.628C51.9543 15.0232 52.571 15.2207 53.3851 15.2207H56.6539L55.9355 15.9571ZM70.5796 8.28817H73.4891V20.8602H70.5796V8.28817ZM64.8683 20.8602H61.9588V8.28817H64.8683V20.8602ZM70.7951 15.7056H64.6528V13.2451H70.7951V15.7056ZM84.8847 19.567V10.6589H80.5743L80.5205 12.4908C80.4845 13.2691 80.4307 14.0054 80.3588 14.6999C80.299 15.3943 80.2032 16.0289 80.0715 16.6036C79.9398 17.1664 79.7661 17.6453 79.5506 18.0404C79.3471 18.4356 79.0896 18.7169 78.7783 18.8846L75.6713 18.4894C76.1023 18.5014 76.4555 18.3518 76.7309 18.0404C77.0183 17.7291 77.2458 17.2921 77.4134 16.7294C77.581 16.1546 77.7007 15.4841 77.7726 14.7178C77.8564 13.9516 77.9163 13.1194 77.9522 12.2214L78.0959 8.28817H87.7583V19.567H84.8847ZM75.2582 23.4644L75.2761 18.4894H89.5184V23.4644H86.8244V20.8602H77.9522V23.4644H75.2582ZM91.477 20.8602V8.28817H94.3686V16.4779L100.367 8.28817H103.097V20.8602H100.224V12.6884L94.2249 20.8602H91.477ZM114.848 8.28817H117.758V20.8602H114.848V8.28817ZM109.137 20.8602H106.227V8.28817H109.137V20.8602ZM115.064 15.7056H108.921V13.2451H115.064V15.7056ZM126.852 21.0757C125.883 21.0757 124.979 20.92 124.14 20.6087C123.314 20.2854 122.596 19.8305 121.985 19.2438C121.375 18.6571 120.896 17.9686 120.548 17.1784C120.213 16.3881 120.046 15.5201 120.046 14.5742C120.046 13.6283 120.213 12.7602 120.548 11.97C120.896 11.1797 121.375 10.4913 121.985 9.90457C122.608 9.31788 123.332 8.86887 124.158 8.55757C124.985 8.23429 125.888 8.07265 126.87 8.07265C127.96 8.07265 128.942 8.26422 129.816 8.64737C130.702 9.01854 131.444 9.56932 132.043 10.2997L130.175 12.0238C129.744 11.5329 129.265 11.1678 128.738 10.9283C128.211 10.6768 127.637 10.5511 127.014 10.5511C126.427 10.5511 125.888 10.6469 125.398 10.8385C124.907 11.0301 124.482 11.3054 124.122 11.6646C123.763 12.0238 123.482 12.4489 123.278 12.9398C123.087 13.4307 122.991 13.9755 122.991 14.5742C122.991 15.1728 123.087 15.7176 123.278 16.2085C123.482 16.6994 123.763 17.1245 124.122 17.4837C124.482 17.8429 124.907 18.1183 125.398 18.3098C125.888 18.5014 126.427 18.5972 127.014 18.5972C127.637 18.5972 128.211 18.4775 128.738 18.238C129.265 17.9866 129.744 17.6094 130.175 17.1065L132.043 18.8307C131.444 19.5611 130.702 20.1178 129.816 20.501C128.942 20.8841 127.954 21.0757 126.852 21.0757ZM142.075 20.8602L138.16 14.8076L140.512 13.3888L145.38 20.8602H142.075ZM133.903 20.8602V8.28817H136.795V20.8602H133.903ZM135.951 15.7954V13.3708H140.333V15.7954H135.951ZM140.782 14.8974L138.106 14.5742L142.183 8.28817H145.254L140.782 14.8974ZM152.707 21.0757C151.713 21.0757 150.791 20.914 149.941 20.5908C149.103 20.2675 148.372 19.8125 147.75 19.2258C147.139 18.6391 146.66 17.9506 146.313 17.1604C145.978 16.3702 145.81 15.5081 145.81 14.5742C145.81 13.6402 145.978 12.7782 146.313 11.9879C146.66 11.1977 147.145 10.5092 147.768 9.92253C148.39 9.33583 149.121 8.88085 149.959 8.55757C150.797 8.23429 151.707 8.07265 152.689 8.07265C153.682 8.07265 154.592 8.23429 155.419 8.55757C156.257 8.88085 156.981 9.33583 157.592 9.92253C158.214 10.5092 158.699 11.1977 159.046 11.9879C159.394 12.7662 159.567 13.6283 159.567 14.5742C159.567 15.5081 159.394 16.3762 159.046 17.1784C158.699 17.9686 158.214 18.6571 157.592 19.2438C156.981 19.8185 156.257 20.2675 155.419 20.5908C154.592 20.914 153.688 21.0757 152.707 21.0757ZM152.689 18.5972C153.251 18.5972 153.766 18.5014 154.233 18.3098C154.712 18.1183 155.131 17.8429 155.49 17.4837C155.85 17.1245 156.125 16.6994 156.317 16.2085C156.52 15.7176 156.622 15.1728 156.622 14.5742C156.622 13.9755 156.52 13.4307 156.317 12.9398C156.125 12.4489 155.85 12.0238 155.49 11.6646C155.143 11.3054 154.73 11.0301 154.251 10.8385C153.772 10.6469 153.251 10.5511 152.689 10.5511C152.126 10.5511 151.605 10.6469 151.126 10.8385C150.659 11.0301 150.246 11.3054 149.887 11.6646C149.528 12.0238 149.246 12.4489 149.043 12.9398C148.851 13.4307 148.755 13.9755 148.755 14.5742C148.755 15.1609 148.851 15.7056 149.043 16.2085C149.246 16.6994 149.522 17.1245 149.869 17.4837C150.228 17.8429 150.647 18.1183 151.126 18.3098C151.605 18.5014 152.126 18.5972 152.689 18.5972ZM164.485 13.3529H170.537V15.6158H164.485V13.3529ZM164.7 18.5254H171.543V20.8602H161.809V8.28817H171.31V10.623H164.7V18.5254Z" fill="black"/>
<path d="M26.5219 31.0323H28.0623V37.6884H26.5219V31.0323ZM23.4982 37.6884H21.9577V31.0323H23.4982V37.6884ZM26.636 34.9594H23.3841V33.6567H26.636V34.9594ZM31.1468 33.7138H34.3512V34.9119H31.1468V33.7138ZM31.2609 36.4523H34.8837V37.6884H29.73V31.0323H34.7601V32.2685H31.2609V36.4523ZM39.6462 37.27C38.784 37.27 38.0519 37.1559 37.4496 36.9277C36.8538 36.6995 36.4005 36.3699 36.0899 35.9388C35.7793 35.5014 35.624 34.9689 35.624 34.3414C35.624 33.7138 35.7793 33.1845 36.0899 32.7534C36.4005 32.316 36.8538 31.9832 37.4496 31.755C38.0519 31.5268 38.784 31.4127 39.6462 31.4127C39.6588 31.4127 39.6937 31.4127 39.7507 31.4127C39.8141 31.4127 39.8744 31.4127 39.9314 31.4127C39.9948 31.4127 40.0297 31.4127 40.036 31.4127C40.8918 31.4127 41.6145 31.5268 42.204 31.755C42.7999 31.9832 43.2499 32.316 43.5542 32.7534C43.8585 33.1908 44.0106 33.7201 44.0106 34.3414C44.0106 34.9563 43.8585 35.4856 43.5542 35.9293C43.2563 36.3667 42.8157 36.6995 42.2325 36.9277C41.6557 37.1559 40.9488 37.27 40.1121 37.27C40.0931 37.27 40.0487 37.27 39.979 37.27C39.9092 37.27 39.8395 37.27 39.7698 37.27C39.7064 37.27 39.6652 37.27 39.6462 37.27ZM39.7888 36.0814C39.8078 36.0814 39.8332 36.0814 39.8649 36.0814C39.8965 36.0814 39.9187 36.0814 39.9314 36.0814C40.5146 36.0814 40.9964 36.0181 41.3767 35.8913C41.7634 35.7582 42.0519 35.5648 42.242 35.3112C42.4322 35.0513 42.5273 34.7249 42.5273 34.3318C42.5273 33.9388 42.429 33.6155 42.2325 33.362C42.036 33.1084 41.7476 32.9214 41.3672 32.8009C40.9932 32.6742 40.521 32.6108 39.9504 32.6108C39.9378 32.6108 39.9124 32.6108 39.8744 32.6108C39.8427 32.6108 39.8141 32.6108 39.7888 32.6108C39.1866 32.6108 38.6889 32.671 38.2959 32.7914C37.9029 32.9119 37.6081 33.1021 37.4116 33.362C37.2151 33.6155 37.1168 33.942 37.1168 34.3414C37.1168 34.7407 37.2214 35.0704 37.4306 35.3303C37.6398 35.5838 37.9409 35.774 38.334 35.9008C38.7333 36.0212 39.2183 36.0814 39.7888 36.0814ZM39.1137 37.9832V30.7471H40.5305V37.9832H39.1137ZM46.506 37.6884V31.9357L46.8578 32.2875H44.3856V31.0323H50.1573V32.2875H47.6851L48.0274 31.9357V37.6884H46.506ZM52.5414 33.7138H55.7458V34.9119H52.5414V33.7138ZM52.6555 36.4523H56.2783V37.6884H51.1246V31.0323H56.1547V32.2685H52.6555V36.4523ZM57.5225 37.6884V31.0323H62.2198L62.2103 32.2875H58.6921L59.0439 31.9357L59.0534 37.6884H57.5225ZM61.1078 37.6884L64.0745 31.0323H65.5959L68.5721 37.6884H66.9556L64.5214 31.812H65.13L62.6862 37.6884H61.1078ZM62.5912 36.2621L63 35.0925H66.4232L66.8415 36.2621H62.5912ZM68.8557 37.0989L69.3312 35.9959C69.6164 36.167 69.9207 36.3001 70.244 36.3952C70.5737 36.484 70.8938 36.5347 71.2044 36.5474C71.5214 36.5537 71.8066 36.522 72.0602 36.4523C72.3201 36.3826 72.5261 36.278 72.6782 36.1385C72.8367 35.999 72.916 35.8215 72.916 35.606C72.916 35.3524 72.8114 35.1654 72.6022 35.045C72.393 34.9182 72.1141 34.8548 71.7654 34.8548H70.1394V33.6948H71.6513C71.9619 33.6948 72.2028 33.6314 72.374 33.5046C72.5515 33.3778 72.6402 33.2035 72.6402 32.9816C72.6402 32.7914 72.5768 32.6393 72.45 32.5252C72.3233 32.4047 72.1489 32.316 71.9271 32.2589C71.7115 32.2019 71.4675 32.1765 71.1949 32.1829C70.9223 32.1892 70.6402 32.2336 70.3486 32.316C70.057 32.3984 69.7781 32.5125 69.5118 32.6583L69.0459 31.4697C69.477 31.2479 69.9302 31.0957 70.4057 31.0133C70.8874 30.9246 71.3502 30.9024 71.7939 30.9467C72.244 30.9848 72.6497 31.0862 73.011 31.251C73.3724 31.4095 73.6608 31.6187 73.8763 31.8786C74.0919 32.1385 74.1996 32.446 74.1996 32.8009C74.1996 33.1179 74.1172 33.4 73.9524 33.6472C73.7876 33.8944 73.5562 34.0846 73.2583 34.2177C72.9667 34.3509 72.6307 34.4174 72.2504 34.4174L72.2884 34.0751C72.7321 34.0751 73.1156 34.1512 73.4389 34.3033C73.7686 34.4491 74.0221 34.6551 74.1996 34.9214C74.3835 35.1813 74.4754 35.4824 74.4754 35.8247C74.4754 36.1417 74.3898 36.4269 74.2187 36.6805C74.0538 36.9277 73.8256 37.1369 73.534 37.3081C73.2424 37.4792 72.9096 37.606 72.5356 37.6884C72.1616 37.7708 71.7622 37.8057 71.3375 37.793C70.9191 37.7803 70.4976 37.7201 70.0729 37.6123C69.6481 37.4982 69.2424 37.3271 68.8557 37.0989ZM78.8803 37.8025C78.3541 37.8025 77.866 37.7169 77.416 37.5458C76.9722 37.3746 76.5855 37.1337 76.2559 36.8231C75.9326 36.5125 75.679 36.148 75.4952 35.7296C75.3177 35.3112 75.229 34.8548 75.229 34.3604C75.229 33.8659 75.3177 33.4095 75.4952 32.9911C75.679 32.5727 75.9358 32.2082 76.2654 31.8976C76.595 31.587 76.9817 31.3461 77.4255 31.175C77.8692 31.0038 78.351 30.9182 78.8708 30.9182C79.3969 30.9182 79.8787 31.0038 80.3161 31.175C80.7598 31.3461 81.1434 31.587 81.4667 31.8976C81.7963 32.2082 82.053 32.5727 82.2369 32.9911C82.4207 33.4032 82.5126 33.8596 82.5126 34.3604C82.5126 34.8548 82.4207 35.3144 82.2369 35.7391C82.053 36.1575 81.7963 36.522 81.4667 36.8326C81.1434 37.1369 80.7598 37.3746 80.3161 37.5458C79.8787 37.7169 79.4001 37.8025 78.8803 37.8025ZM78.8708 36.4903C79.1687 36.4903 79.4413 36.4396 79.6885 36.3382C79.9421 36.2368 80.164 36.091 80.3541 35.9008C80.5443 35.7106 80.6901 35.4856 80.7915 35.2257C80.8993 34.9658 80.9532 34.6773 80.9532 34.3604C80.9532 34.0434 80.8993 33.755 80.7915 33.4951C80.6901 33.2352 80.5443 33.0101 80.3541 32.82C80.1703 32.6298 79.9516 32.484 79.698 32.3826C79.4445 32.2811 79.1687 32.2304 78.8708 32.2304C78.5728 32.2304 78.2971 32.2811 78.0435 32.3826C77.7963 32.484 77.5776 32.6298 77.3874 32.82C77.1973 33.0101 77.0483 33.2352 76.9405 33.4951C76.8391 33.755 76.7884 34.0434 76.7884 34.3604C76.7884 34.671 76.8391 34.9594 76.9405 35.2257C77.0483 35.4856 77.1941 35.7106 77.3779 35.9008C77.5681 36.091 77.79 36.2368 78.0435 36.3382C78.2971 36.4396 78.5728 36.4903 78.8708 36.4903ZM83.6993 37.6884V31.0323H86.7991C87.5725 31.0323 88.1747 31.1813 88.6058 31.4792C89.0368 31.7772 89.2523 32.2019 89.2523 32.7534C89.2523 33.2986 89.0495 33.7233 88.6438 34.0276C88.2381 34.3255 87.6993 34.4745 87.0273 34.4745L87.208 34.0751C87.956 34.0751 88.536 34.2241 88.9481 34.522C89.3601 34.82 89.5661 35.251 89.5661 35.8152C89.5661 36.3984 89.3443 36.858 88.9005 37.194C88.4631 37.5236 87.8229 37.6884 86.9798 37.6884H83.6993ZM85.2302 36.5474H86.9227C87.2777 36.5474 87.5471 36.4776 87.731 36.3382C87.9148 36.1987 88.0067 35.9832 88.0067 35.6916C88.0067 35.4127 87.9148 35.2066 87.731 35.0735C87.5471 34.9341 87.2777 34.8643 86.9227 34.8643H85.2302V36.5474ZM85.2302 33.7899H86.666C87.002 33.7899 87.2555 33.7233 87.4267 33.5902C87.5978 33.4507 87.6834 33.2479 87.6834 32.9816C87.6834 32.7154 87.5978 32.5157 87.4267 32.3826C87.2555 32.2431 87.002 32.1734 86.666 32.1734H85.2302V33.7899ZM93.9698 37.8025C93.4436 37.8025 92.9555 37.7169 92.5054 37.5458C92.0617 37.3746 91.675 37.1337 91.3454 36.8231C91.0221 36.5125 90.7685 36.148 90.5847 35.7296C90.4072 35.3112 90.3184 34.8548 90.3184 34.3604C90.3184 33.8659 90.4072 33.4095 90.5847 32.9911C90.7685 32.5727 91.0253 32.2082 91.3549 31.8976C91.6845 31.587 92.0712 31.3461 92.5149 31.175C92.9587 31.0038 93.4405 30.9182 93.9603 30.9182C94.4864 30.9182 94.9682 31.0038 95.4056 31.175C95.8493 31.3461 96.2328 31.587 96.5561 31.8976C96.8858 32.2082 97.1425 32.5727 97.3263 32.9911C97.5102 33.4032 97.6021 33.8596 97.6021 34.3604C97.6021 34.8548 97.5102 35.3144 97.3263 35.7391C97.1425 36.1575 96.8858 36.522 96.5561 36.8326C96.2328 37.1369 95.8493 37.3746 95.4056 37.5458C94.9682 37.7169 94.4896 37.8025 93.9698 37.8025ZM93.9603 36.4903C94.2582 36.4903 94.5308 36.4396 94.778 36.3382C95.0316 36.2368 95.2535 36.091 95.4436 35.9008C95.6338 35.7106 95.7796 35.4856 95.881 35.2257C95.9888 34.9658 96.0427 34.6773 96.0427 34.3604C96.0427 34.0434 95.9888 33.755 95.881 33.4951C95.7796 33.2352 95.6338 33.0101 95.4436 32.82C95.2598 32.6298 95.0411 32.484 94.7875 32.3826C94.534 32.2811 94.2582 32.2304 93.9603 32.2304C93.6623 32.2304 93.3866 32.2811 93.133 32.3826C92.8858 32.484 92.6671 32.6298 92.4769 32.82C92.2867 33.0101 92.1378 33.2352 92.03 33.4951C91.9286 33.755 91.8779 34.0434 91.8779 34.3604C91.8779 34.671 91.9286 34.9594 92.03 35.2257C92.1378 35.4856 92.2836 35.7106 92.4674 35.9008C92.6576 36.091 92.8794 36.2368 93.133 36.3382C93.3866 36.4396 93.6623 36.4903 93.9603 36.4903ZM100.206 33.7138H103.41V34.9119H100.206V33.7138ZM100.32 36.4523H103.942V37.6884H98.7888V31.0323H103.819V32.2685H100.32V36.4523ZM107.88 37.6884V31.0323H109.154L111.987 35.7296H111.312L114.098 31.0323H115.372L115.382 37.6884H113.937L113.927 33.2479H114.203L111.968 36.9848H111.284L109.002 33.2479H109.325V37.6884H107.88ZM118.452 33.7138H121.657V34.9119H118.452V33.7138ZM118.566 36.4523H122.189V37.6884H117.035V31.0323H122.066V32.2685H118.566V36.4523ZM126.581 37.8025C126.067 37.8025 125.589 37.7201 125.145 37.5553C124.708 37.3841 124.327 37.1433 124.004 36.8326C123.681 36.522 123.427 36.1575 123.243 35.7391C123.066 35.3208 122.977 34.8612 122.977 34.3604C122.977 33.8596 123.066 33.4 123.243 32.9816C123.427 32.5632 123.681 32.1987 124.004 31.8881C124.334 31.5775 124.717 31.3398 125.154 31.175C125.592 31.0038 126.07 30.9182 126.59 30.9182C127.167 30.9182 127.687 31.0197 128.15 31.2225C128.619 31.419 129.012 31.7106 129.329 32.0973L128.34 33.0101C128.112 32.7502 127.858 32.5569 127.579 32.4301C127.3 32.297 126.996 32.2304 126.666 32.2304C126.356 32.2304 126.07 32.2811 125.811 32.3826C125.551 32.484 125.326 32.6298 125.135 32.82C124.945 33.0101 124.796 33.2352 124.689 33.4951C124.587 33.755 124.536 34.0434 124.536 34.3604C124.536 34.6773 124.587 34.9658 124.689 35.2257C124.796 35.4856 124.945 35.7106 125.135 35.9008C125.326 36.091 125.551 36.2368 125.811 36.3382C126.07 36.4396 126.356 36.4903 126.666 36.4903C126.996 36.4903 127.3 36.4269 127.579 36.3001C127.858 36.167 128.112 35.9673 128.34 35.7011L129.329 36.6139C129.012 37.0006 128.619 37.2954 128.15 37.4982C127.687 37.7011 127.164 37.8025 126.581 37.8025ZM131.704 37.6884V31.9357L132.055 32.2875H129.583V31.0323H135.355V32.2875H132.883L133.225 31.9357V37.6884H131.704ZM139.415 37.8025C138.889 37.8025 138.4 37.7169 137.95 37.5458C137.507 37.3746 137.12 37.1337 136.79 36.8231C136.467 36.5125 136.213 36.148 136.03 35.7296C135.852 35.3112 135.763 34.8548 135.763 34.3604C135.763 33.8659 135.852 33.4095 136.03 32.9911C136.213 32.5727 136.47 32.2082 136.8 31.8976C137.129 31.587 137.516 31.3461 137.96 31.175C138.404 31.0038 138.885 30.9182 139.405 30.9182C139.931 30.9182 140.413 31.0038 140.85 31.175C141.294 31.3461 141.678 31.587 142.001 31.8976C142.331 32.2082 142.587 32.5727 142.771 32.9911C142.955 33.4032 143.047 33.8596 143.047 34.3604C143.047 34.8548 142.955 35.3144 142.771 35.7391C142.587 36.1575 142.331 36.522 142.001 36.8326C141.678 37.1369 141.294 37.3746 140.85 37.5458C140.413 37.7169 139.934 37.8025 139.415 37.8025ZM139.405 36.4903C139.703 36.4903 139.976 36.4396 140.223 36.3382C140.476 36.2368 140.698 36.091 140.889 35.9008C141.079 35.7106 141.224 35.4856 141.326 35.2257C141.434 34.9658 141.488 34.6773 141.488 34.3604C141.488 34.0434 141.434 33.755 141.326 33.4951C141.224 33.2352 141.079 33.0101 140.889 32.82C140.705 32.6298 140.486 32.484 140.232 32.3826C139.979 32.2811 139.703 32.2304 139.405 32.2304C139.107 32.2304 138.831 32.2811 138.578 32.3826C138.331 32.484 138.112 32.6298 137.922 32.82C137.732 33.0101 137.583 33.2352 137.475 33.4951C137.373 33.755 137.323 34.0434 137.323 34.3604C137.323 34.671 137.373 34.9594 137.475 35.2257C137.583 35.4856 137.728 35.7106 137.912 35.9008C138.102 36.091 138.324 36.2368 138.578 36.3382C138.831 36.4396 139.107 36.4903 139.405 36.4903ZM144.234 37.6884V31.0323H147.115C147.711 31.0323 148.224 31.1306 148.655 31.3271C149.086 31.5173 149.419 31.793 149.654 32.1544C149.888 32.5157 150.005 32.9467 150.005 33.4475C150.005 33.942 149.888 34.3699 149.654 34.7312C149.419 35.0925 149.086 35.3715 148.655 35.568C148.224 35.7582 147.711 35.8532 147.115 35.8532H145.089L145.774 35.1591V37.6884H144.234ZM145.774 35.3303L145.089 34.5981H147.029C147.505 34.5981 147.86 34.4967 148.094 34.2938C148.329 34.091 148.446 33.8089 148.446 33.4475C148.446 33.0799 148.329 32.7946 148.094 32.5918C147.86 32.3889 147.505 32.2875 147.029 32.2875H145.089L145.774 31.5553V35.3303ZM154.3 37.8025C153.774 37.8025 153.286 37.7169 152.836 37.5458C152.392 37.3746 152.005 37.1337 151.675 36.8231C151.352 36.5125 151.099 36.148 150.915 35.7296C150.737 35.3112 150.649 34.8548 150.649 34.3604C150.649 33.8659 150.737 33.4095 150.915 32.9911C151.099 32.5727 151.355 32.2082 151.685 31.8976C152.015 31.587 152.401 31.3461 152.845 31.175C153.289 31.0038 153.771 30.9182 154.29 30.9182C154.816 30.9182 155.298 31.0038 155.736 31.175C156.179 31.3461 156.563 31.587 156.886 31.8976C157.216 32.2082 157.473 32.5727 157.656 32.9911C157.84 33.4032 157.932 33.8596 157.932 34.3604C157.932 34.8548 157.84 35.3144 157.656 35.7391C157.473 36.1575 157.216 36.522 156.886 36.8326C156.563 37.1369 156.179 37.3746 155.736 37.5458C155.298 37.7169 154.82 37.8025 154.3 37.8025ZM154.29 36.4903C154.588 36.4903 154.861 36.4396 155.108 36.3382C155.362 36.2368 155.584 36.091 155.774 35.9008C155.964 35.7106 156.11 35.4856 156.211 35.2257C156.319 34.9658 156.373 34.6773 156.373 34.3604C156.373 34.0434 156.319 33.755 156.211 33.4951C156.11 33.2352 155.964 33.0101 155.774 32.82C155.59 32.6298 155.371 32.484 155.118 32.3826C154.864 32.2811 154.588 32.2304 154.29 32.2304C153.992 32.2304 153.717 32.2811 153.463 32.3826C153.216 32.484 152.997 32.6298 152.807 32.82C152.617 33.0101 152.468 33.2352 152.36 33.4951C152.259 33.755 152.208 34.0434 152.208 34.3604C152.208 34.671 152.259 34.9594 152.36 35.2257C152.468 35.4856 152.614 35.7106 152.797 35.9008C152.988 36.091 153.21 36.2368 153.463 36.3382C153.717 36.4396 153.992 36.4903 154.29 36.4903ZM166.408 37.6884L164.621 34.484L165.923 33.7328L168.186 37.6884H166.408ZM163.489 35.007V33.7233H165.562V35.007H163.489ZM166.009 34.5315L164.583 34.3604L166.437 31.0323H168.063L166.009 34.5315ZM159.952 37.6884H158.174L160.437 33.7328L161.74 34.484L159.952 37.6884ZM163.946 37.6884H162.434V31.0323H163.946V37.6884ZM162.881 35.007H160.798V33.7233H162.881V35.007ZM160.361 34.5315L158.297 31.0323H159.923L161.768 34.3604L160.361 34.5315ZM173.504 37.0038V32.2875H171.222L171.193 33.2574C171.174 33.6694 171.146 34.0593 171.108 34.4269C171.076 34.7946 171.025 35.1306 170.956 35.4349C170.886 35.7328 170.794 35.9864 170.68 36.1956C170.572 36.4047 170.436 36.5537 170.271 36.6425L168.626 36.4333C168.854 36.4396 169.041 36.3604 169.187 36.1956C169.339 36.0307 169.459 35.7994 169.548 35.5014C169.637 35.1971 169.7 34.8421 169.738 34.4364C169.783 34.0307 169.814 33.5902 169.833 33.1147L169.91 31.0323H175.025V37.0038H173.504ZM168.407 39.0672L168.417 36.4333H175.957V39.0672H174.531V37.6884H169.833V39.0672H168.407ZM178.411 33.7138H181.615V34.9119H178.411V33.7138ZM178.525 36.4523H182.148V37.6884H176.994V31.0323H182.024V32.2685H178.525V36.4523ZM187.956 31.0323H189.497V37.6884H187.956V31.0323ZM184.932 37.6884H183.392V31.0323H184.932V37.6884ZM188.07 34.9594H184.818V33.6567H188.07V34.9594ZM191.164 37.6884V31.0323H192.695V35.3683L195.871 31.0323H197.316V37.6884H195.795V33.362L192.619 37.6884H191.164ZM200.39 33.7138H203.595V34.9119H200.39V33.7138ZM200.505 36.4523H204.127V37.6884H198.974V31.0323H204.004V32.2685H200.505V36.4523Z" fill="black"/>
<g filter="url(#filter0_d_296_865)">
<rect x="11.6217" y="5.97321" width="34.8652" height="3.16956" transform="rotate(90 11.6217 5.97321)" fill="#D9D9D9"/>
<rect x="11.6217" y="5.97321" width="34.8652" height="3.16956" transform="rotate(90 11.6217 5.97321)" fill="url(#paint0_linear_296_865)"/>
</g>
<defs>
<filter id="filter0_d_296_865" x="6.3391" y="5.97321" width="7.39564" height="39.0913" filterUnits="userSpaceOnUse" color-interpolation-filters="sRGB">
<feFlood flood-opacity="0" result="BackgroundImageFix"/>
<feColorMatrix in="SourceAlpha" type="matrix" values="0 0 0 0 0 0 0 0 0 0 0 0 0 0 0 0 0 0 127 0" result="hardAlpha"/>
<feOffset dy="2.11304"/>
<feGaussianBlur stdDeviation="1.05652"/>
<feComposite in2="hardAlpha" operator="out"/>
<feColorMatrix type="matrix" values="0 0 0 0 0 0 0 0 0 0 0 0 0 0 0 0 0 0 0.25 0"/>
<feBlend mode="normal" in2="BackgroundImageFix" result="effect1_dropShadow_296_865"/>
<feBlend mode="normal" in="SourceGraphic" in2="effect1_dropShadow_296_865" result="shape"/>
</filter>
<linearGradient id="paint0_linear_296_865" x1="11.6217" y1="5.97321" x2="46.4869" y2="5.97321" gradientUnits="userSpaceOnUse">
<stop stop-color="#008DDE"/>
<stop offset="0.53125" stop-color="#EB097B"/>
<stop offset="1" stop-color="#571273"/>
</linearGradient>
</defs>
</svg>
