<svg width="276" height="47" viewBox="0 0 276 47" fill="none" xmlns="http://www.w3.org/2000/svg">
<path d="M270.5 35.4869L238 23.4869L241.108 36.4935L270.5 35.4869Z" fill="white"/>
<rect y="0.487122" width="243" height="46.487" rx="10.5652" fill="white"/>
<path d="M27.6531 21.4005C26.6593 21.4005 25.7374 21.2389 24.8873 20.9156C24.0491 20.5923 23.3187 20.1373 22.6961 19.5506C22.0855 18.9639 21.6066 18.2755 21.2593 17.4852C20.9241 16.695 20.7565 15.8329 20.7565 14.899C20.7565 13.9651 20.9241 13.103 21.2593 12.3128C21.6066 11.5225 22.0915 10.8341 22.7141 10.2474C23.3367 9.66066 24.0671 9.20568 24.9052 8.8824C25.7433 8.55912 26.6533 8.39748 27.6351 8.39748C28.6289 8.39748 29.5389 8.55912 30.3651 8.8824C31.2032 9.20568 31.9276 9.66066 32.5382 10.2474C33.1608 10.8341 33.6457 11.5225 33.993 12.3128C34.3402 13.091 34.5138 13.9531 34.5138 14.899C34.5138 15.8329 34.3402 16.701 33.993 17.5032C33.6457 18.2934 33.1608 18.9819 32.5382 19.5686C31.9276 20.1433 31.2032 20.5923 30.3651 20.9156C29.5389 21.2389 28.6349 21.4005 27.6531 21.4005ZM27.6351 18.922C28.1979 18.922 28.7127 18.8263 29.1797 18.6347C29.6586 18.4431 30.0777 18.1677 30.4369 17.8085C30.7961 17.4493 31.0715 17.0243 31.2631 16.5334C31.4666 16.0425 31.5684 15.4977 31.5684 14.899C31.5684 14.3003 31.4666 13.7555 31.2631 13.2646C31.0715 12.7737 30.7961 12.3487 30.4369 11.9895C30.0897 11.6303 29.6766 11.3549 29.1977 11.1633C28.7187 10.9717 28.1979 10.876 27.6351 10.876C27.0724 10.876 26.5515 10.9717 26.0726 11.1633C25.6057 11.3549 25.1926 11.6303 24.8334 11.9895C24.4742 12.3487 24.1928 12.7737 23.9893 13.2646C23.7977 13.7555 23.7019 14.3003 23.7019 14.899C23.7019 15.4857 23.7977 16.0305 23.9893 16.5334C24.1928 17.0243 24.4682 17.4493 24.8154 17.8085C25.1746 18.1677 25.5937 18.4431 26.0726 18.6347C26.5515 18.8263 27.0724 18.922 27.6351 18.922ZM39.2917 21.185V10.3192L39.9563 10.9837H35.2867V8.613H46.1884V10.9837H41.5188L42.1653 10.3192V21.185H39.2917ZM48.0152 21.185V8.613H53.4571C54.5826 8.613 55.5525 8.79858 56.3666 9.16976C57.1808 9.52896 57.8094 10.0498 58.2524 10.7323C58.6955 11.4148 58.917 12.2289 58.917 13.1748C58.917 14.1088 58.6955 14.917 58.2524 15.5994C57.8094 16.2819 57.1808 16.8087 56.3666 17.1799C55.5525 17.5391 54.5826 17.7187 53.4571 17.7187H49.6316L50.9248 16.4076V21.185H48.0152ZM50.9248 16.7309L49.6316 15.348H53.2955C54.1935 15.348 54.864 15.1564 55.307 14.7733C55.75 14.3901 55.9715 13.8573 55.9715 13.1748C55.9715 12.4804 55.75 11.9416 55.307 11.5584C54.864 11.1753 54.1935 10.9837 53.2955 10.9837H49.6316L50.9248 9.6008V16.7309ZM58.7861 21.185L64.3896 8.613H67.2632L72.8847 21.185H69.8315L65.2337 10.0857H66.3831L61.7674 21.185H58.7861ZM61.5878 18.491L62.3601 16.2819H68.8257L69.6159 18.491H61.5878ZM82.9554 19.8919V10.9837H78.645L78.5912 12.8156C78.5552 13.5939 78.5014 14.3303 78.4295 15.0247C78.3697 15.7192 78.2739 16.3538 78.1422 16.9285C78.0105 17.4912 77.8368 17.9702 77.6213 18.3653C77.4178 18.7604 77.1603 19.0418 76.849 19.2094L73.742 18.8143C74.173 18.8263 74.5262 18.6766 74.8016 18.3653C75.089 18.054 75.3165 17.6169 75.4841 17.0542C75.6517 16.4795 75.7714 15.809 75.8433 15.0427C75.9271 14.2764 75.987 13.4442 76.0229 12.5462L76.1666 8.613H85.829V19.8919H82.9554ZM73.3289 23.7892L73.3468 18.8143H87.5891V23.7892H84.8951V21.185H76.0229V23.7892H73.3289ZM98.1685 8.613H101.078V21.185H98.1685V8.613ZM92.4573 21.185H89.5477V8.613H92.4573V21.185ZM98.3841 16.0305H92.2417V13.57H98.3841V16.0305ZM106.904 13.6777H112.956V15.9407H106.904V13.6777ZM107.119 18.8502H113.962V21.185H104.228V8.613H113.729V10.9478H107.119V18.8502ZM124.933 8.613H127.843V21.185H124.933V8.613ZM119.222 21.185H116.312V8.613H119.222V21.185ZM125.149 16.0305H119.006V13.57H125.149V16.0305ZM136.937 21.4005C135.967 21.4005 135.063 21.2449 134.225 20.9336C133.399 20.6103 132.681 20.1553 132.07 19.5686C131.46 18.9819 130.981 18.2934 130.633 17.5032C130.298 16.713 130.13 15.8449 130.13 14.899C130.13 13.9531 130.298 13.085 130.633 12.2948C130.981 11.5046 131.46 10.8161 132.07 10.2294C132.693 9.6427 133.417 9.1937 134.243 8.8824C135.069 8.55912 135.973 8.39748 136.955 8.39748C138.045 8.39748 139.027 8.58905 139.901 8.9722C140.787 9.34337 141.529 9.89414 142.128 10.6245L140.26 12.3487C139.829 11.8578 139.35 11.4926 138.823 11.2531C138.296 11.0017 137.722 10.876 137.099 10.876C136.512 10.876 135.973 10.9717 135.483 11.1633C134.992 11.3549 134.567 11.6303 134.207 11.9895C133.848 12.3487 133.567 12.7737 133.363 13.2646C133.172 13.7555 133.076 14.3003 133.076 14.899C133.076 15.4977 133.172 16.0425 133.363 16.5334C133.567 17.0243 133.848 17.4493 134.207 17.8085C134.567 18.1677 134.992 18.4431 135.483 18.6347C135.973 18.8263 136.512 18.922 137.099 18.922C137.722 18.922 138.296 18.8023 138.823 18.5628C139.35 18.3114 139.829 17.9342 140.26 17.4314L142.128 19.1555C141.529 19.8859 140.787 20.4427 139.901 20.8258C139.027 21.2089 138.039 21.4005 136.937 21.4005ZM152.16 21.185L148.245 15.1325L150.597 13.7136L155.465 21.185H152.16ZM143.988 21.185V8.613H146.88V21.185H143.988ZM146.036 16.1203V13.6957H150.418V16.1203H146.036ZM150.867 15.2223L148.191 14.899L152.268 8.613H155.339L150.867 15.2223ZM162.792 21.4005C161.798 21.4005 160.876 21.2389 160.026 20.9156C159.188 20.5923 158.457 20.1373 157.835 19.5506C157.224 18.9639 156.745 18.2755 156.398 17.4852C156.063 16.695 155.895 15.8329 155.895 14.899C155.895 13.9651 156.063 13.103 156.398 12.3128C156.745 11.5225 157.23 10.8341 157.853 10.2474C158.475 9.66066 159.206 9.20568 160.044 8.8824C160.882 8.55912 161.792 8.39748 162.774 8.39748C163.767 8.39748 164.677 8.55912 165.504 8.8824C166.342 9.20568 167.066 9.66066 167.677 10.2474C168.299 10.8341 168.784 11.5225 169.131 12.3128C169.479 13.091 169.652 13.9531 169.652 14.899C169.652 15.8329 169.479 16.701 169.131 17.5032C168.784 18.2934 168.299 18.9819 167.677 19.5686C167.066 20.1433 166.342 20.5923 165.504 20.9156C164.677 21.2389 163.773 21.4005 162.792 21.4005ZM162.774 18.922C163.336 18.922 163.851 18.8263 164.318 18.6347C164.797 18.4431 165.216 18.1677 165.575 17.8085C165.935 17.4493 166.21 17.0243 166.402 16.5334C166.605 16.0425 166.707 15.4977 166.707 14.899C166.707 14.3003 166.605 13.7555 166.402 13.2646C166.21 12.7737 165.935 12.3487 165.575 11.9895C165.228 11.6303 164.815 11.3549 164.336 11.1633C163.857 10.9717 163.336 10.876 162.774 10.876C162.211 10.876 161.69 10.9717 161.211 11.1633C160.744 11.3549 160.331 11.6303 159.972 11.9895C159.613 12.3487 159.331 12.7737 159.128 13.2646C158.936 13.7555 158.84 14.3003 158.84 14.899C158.84 15.4857 158.936 16.0305 159.128 16.5334C159.331 17.0243 159.607 17.4493 159.954 17.8085C160.313 18.1677 160.732 18.4431 161.211 18.6347C161.69 18.8263 162.211 18.922 162.774 18.922ZM174.57 13.6777H180.622V15.9407H174.57V13.6777ZM174.785 18.8502H181.628V21.185H171.894V8.613H181.394V10.9478H174.785V18.8502Z" fill="black"/>
<path d="M26.5219 31.3572H28.0623V38.0132H26.5219V31.3572ZM23.4982 38.0132H21.9577V31.3572H23.4982V38.0132ZM26.636 35.2842H23.3841V33.9816H26.636V35.2842ZM31.1468 34.0386H34.3512V35.2367H31.1468V34.0386ZM31.2609 36.7771H34.8837V38.0132H29.73V31.3572H34.7601V32.5933H31.2609V36.7771ZM39.6462 37.5949C38.784 37.5949 38.0519 37.4808 37.4496 37.2525C36.8538 37.0243 36.4005 36.6947 36.0899 36.2636C35.7793 35.8262 35.624 35.2938 35.624 34.6662C35.624 34.0386 35.7793 33.5093 36.0899 33.0782C36.4005 32.6408 36.8538 32.308 37.4496 32.0798C38.0519 31.8516 38.784 31.7375 39.6462 31.7375C39.6588 31.7375 39.6937 31.7375 39.7507 31.7375C39.8141 31.7375 39.8744 31.7375 39.9314 31.7375C39.9948 31.7375 40.0297 31.7375 40.036 31.7375C40.8918 31.7375 41.6145 31.8516 42.204 32.0798C42.7999 32.308 43.2499 32.6408 43.5542 33.0782C43.8585 33.5156 44.0106 34.0449 44.0106 34.6662C44.0106 35.2811 43.8585 35.8104 43.5542 36.2541C43.2563 36.6915 42.8157 37.0243 42.2325 37.2525C41.6557 37.4808 40.9488 37.5949 40.1121 37.5949C40.0931 37.5949 40.0487 37.5949 39.979 37.5949C39.9092 37.5949 39.8395 37.5949 39.7698 37.5949C39.7064 37.5949 39.6652 37.5949 39.6462 37.5949ZM39.7888 36.4063C39.8078 36.4063 39.8332 36.4063 39.8649 36.4063C39.8965 36.4063 39.9187 36.4063 39.9314 36.4063C40.5146 36.4063 40.9964 36.3429 41.3767 36.2161C41.7634 36.083 42.0519 35.8896 42.242 35.6361C42.4322 35.3762 42.5273 35.0497 42.5273 34.6567C42.5273 34.2636 42.429 33.9404 42.2325 33.6868C42.036 33.4332 41.7476 33.2462 41.3672 33.1258C40.9932 32.999 40.521 32.9356 39.9504 32.9356C39.9378 32.9356 39.9124 32.9356 39.8744 32.9356C39.8427 32.9356 39.8141 32.9356 39.7888 32.9356C39.1866 32.9356 38.6889 32.9958 38.2959 33.1163C37.9029 33.2367 37.6081 33.4269 37.4116 33.6868C37.2151 33.9404 37.1168 34.2668 37.1168 34.6662C37.1168 35.0655 37.2214 35.3952 37.4306 35.6551C37.6398 35.9087 37.9409 36.0988 38.334 36.2256C38.7333 36.3461 39.2183 36.4063 39.7888 36.4063ZM39.1137 38.308V31.0719H40.5305V38.308H39.1137ZM46.506 38.0132V32.2605L46.8578 32.6123H44.3856V31.3572H50.1573V32.6123H47.6851L48.0274 32.2605V38.0132H46.506ZM52.5414 34.0386H55.7458V35.2367H52.5414V34.0386ZM52.6555 36.7771H56.2783V38.0132H51.1246V31.3572H56.1547V32.5933H52.6555V36.7771ZM57.5225 38.0132V31.3572H62.2198L62.2103 32.6123H58.6921L59.0439 32.2605L59.0534 38.0132H57.5225ZM61.1078 38.0132L64.0745 31.3572H65.5959L68.5721 38.0132H66.9556L64.5214 32.1369H65.13L62.6862 38.0132H61.1078ZM62.5912 36.5869L63 35.4174H66.4232L66.8415 36.5869H62.5912ZM68.8557 37.4237L69.3312 36.3207C69.6164 36.4919 69.9207 36.625 70.244 36.7201C70.5737 36.8088 70.8938 36.8595 71.2044 36.8722C71.5214 36.8785 71.8066 36.8468 72.0602 36.7771C72.3201 36.7074 72.5261 36.6028 72.6782 36.4633C72.8367 36.3239 72.916 36.1464 72.916 35.9308C72.916 35.6773 72.8114 35.4903 72.6022 35.3698C72.393 35.243 72.1141 35.1797 71.7654 35.1797H70.1394V34.0196H71.6513C71.9619 34.0196 72.2028 33.9562 72.374 33.8294C72.5515 33.7026 72.6402 33.5283 72.6402 33.3064C72.6402 33.1163 72.5768 32.9641 72.45 32.85C72.3233 32.7296 72.1489 32.6408 71.9271 32.5838C71.7115 32.5267 71.4675 32.5014 71.1949 32.5077C70.9223 32.514 70.6402 32.5584 70.3486 32.6408C70.057 32.7232 69.7781 32.8373 69.5118 32.9831L69.0459 31.7946C69.477 31.5727 69.9302 31.4205 70.4057 31.3381C70.8874 31.2494 71.3502 31.2272 71.7939 31.2716C72.244 31.3096 72.6497 31.411 73.011 31.5759C73.3724 31.7343 73.6608 31.9435 73.8763 32.2034C74.0919 32.4633 74.1996 32.7708 74.1996 33.1258C74.1996 33.4427 74.1172 33.7248 73.9524 33.972C73.7876 34.2193 73.5562 34.4094 73.2583 34.5426C72.9667 34.6757 72.6307 34.7423 72.2504 34.7423L72.2884 34.3999C72.7321 34.3999 73.1156 34.476 73.4389 34.6281C73.7686 34.7739 74.0221 34.98 74.1996 35.2462C74.3835 35.5061 74.4754 35.8072 74.4754 36.1495C74.4754 36.4665 74.3898 36.7518 74.2187 37.0053C74.0538 37.2525 73.8256 37.4617 73.534 37.6329C73.2424 37.8041 72.9096 37.9308 72.5356 38.0132C72.1616 38.0957 71.7622 38.1305 71.3375 38.1178C70.9191 38.1052 70.4976 38.0449 70.0729 37.9372C69.6481 37.8231 69.2424 37.6519 68.8557 37.4237ZM78.8803 38.1273C78.3541 38.1273 77.866 38.0418 77.416 37.8706C76.9722 37.6995 76.5855 37.4586 76.2559 37.148C75.9326 36.8373 75.679 36.4728 75.4952 36.0545C75.3177 35.6361 75.229 35.1797 75.229 34.6852C75.229 34.1907 75.3177 33.7343 75.4952 33.3159C75.679 32.8976 75.9358 32.5331 76.2654 32.2224C76.595 31.9118 76.9817 31.6709 77.4255 31.4998C77.8692 31.3286 78.351 31.2431 78.8708 31.2431C79.3969 31.2431 79.8787 31.3286 80.3161 31.4998C80.7598 31.6709 81.1434 31.9118 81.4667 32.2224C81.7963 32.5331 82.053 32.8976 82.2369 33.3159C82.4207 33.728 82.5126 34.1844 82.5126 34.6852C82.5126 35.1797 82.4207 35.6392 82.2369 36.064C82.053 36.4823 81.7963 36.8468 81.4667 37.1575C81.1434 37.4617 80.7598 37.6995 80.3161 37.8706C79.8787 38.0418 79.4001 38.1273 78.8803 38.1273ZM78.8708 36.8151C79.1687 36.8151 79.4413 36.7644 79.6885 36.663C79.9421 36.5616 80.164 36.4158 80.3541 36.2256C80.5443 36.0354 80.6901 35.8104 80.7915 35.5505C80.8993 35.2906 80.9532 35.0022 80.9532 34.6852C80.9532 34.3682 80.8993 34.0798 80.7915 33.8199C80.6901 33.56 80.5443 33.335 80.3541 33.1448C80.1703 32.9546 79.9516 32.8088 79.698 32.7074C79.4445 32.606 79.1687 32.5553 78.8708 32.5553C78.5728 32.5553 78.2971 32.606 78.0435 32.7074C77.7963 32.8088 77.5776 32.9546 77.3874 33.1448C77.1973 33.335 77.0483 33.56 76.9405 33.8199C76.8391 34.0798 76.7884 34.3682 76.7884 34.6852C76.7884 34.9958 76.8391 35.2842 76.9405 35.5505C77.0483 35.8104 77.1941 36.0354 77.3779 36.2256C77.5681 36.4158 77.79 36.5616 78.0435 36.663C78.2971 36.7644 78.5728 36.8151 78.8708 36.8151ZM83.6993 38.0132V31.3572H86.7991C87.5725 31.3572 88.1747 31.5061 88.6058 31.8041C89.0368 32.102 89.2523 32.5267 89.2523 33.0782C89.2523 33.6234 89.0495 34.0481 88.6438 34.3524C88.2381 34.6503 87.6993 34.7993 87.0273 34.7993L87.208 34.3999C87.956 34.3999 88.536 34.5489 88.9481 34.8468C89.3601 35.1448 89.5661 35.5758 89.5661 36.14C89.5661 36.7232 89.3443 37.1828 88.9005 37.5188C88.4631 37.8484 87.8229 38.0132 86.9798 38.0132H83.6993ZM85.2302 36.8722H86.9227C87.2777 36.8722 87.5471 36.8025 87.731 36.663C87.9148 36.5235 88.0067 36.308 88.0067 36.0164C88.0067 35.7375 87.9148 35.5315 87.731 35.3984C87.5471 35.2589 87.2777 35.1892 86.9227 35.1892H85.2302V36.8722ZM85.2302 34.1147H86.666C87.002 34.1147 87.2555 34.0481 87.4267 33.915C87.5978 33.7755 87.6834 33.5727 87.6834 33.3064C87.6834 33.0402 87.5978 32.8405 87.4267 32.7074C87.2555 32.5679 87.002 32.4982 86.666 32.4982H85.2302V34.1147ZM93.9698 38.1273C93.4436 38.1273 92.9555 38.0418 92.5054 37.8706C92.0617 37.6995 91.675 37.4586 91.3454 37.148C91.0221 36.8373 90.7685 36.4728 90.5847 36.0545C90.4072 35.6361 90.3184 35.1797 90.3184 34.6852C90.3184 34.1907 90.4072 33.7343 90.5847 33.3159C90.7685 32.8976 91.0253 32.5331 91.3549 32.2224C91.6845 31.9118 92.0712 31.6709 92.5149 31.4998C92.9587 31.3286 93.4405 31.2431 93.9603 31.2431C94.4864 31.2431 94.9682 31.3286 95.4056 31.4998C95.8493 31.6709 96.2328 31.9118 96.5561 32.2224C96.8858 32.5331 97.1425 32.8976 97.3263 33.3159C97.5102 33.728 97.6021 34.1844 97.6021 34.6852C97.6021 35.1797 97.5102 35.6392 97.3263 36.064C97.1425 36.4823 96.8858 36.8468 96.5561 37.1575C96.2328 37.4617 95.8493 37.6995 95.4056 37.8706C94.9682 38.0418 94.4896 38.1273 93.9698 38.1273ZM93.9603 36.8151C94.2582 36.8151 94.5308 36.7644 94.778 36.663C95.0316 36.5616 95.2535 36.4158 95.4436 36.2256C95.6338 36.0354 95.7796 35.8104 95.881 35.5505C95.9888 35.2906 96.0427 35.0022 96.0427 34.6852C96.0427 34.3682 95.9888 34.0798 95.881 33.8199C95.7796 33.56 95.6338 33.335 95.4436 33.1448C95.2598 32.9546 95.0411 32.8088 94.7875 32.7074C94.534 32.606 94.2582 32.5553 93.9603 32.5553C93.6623 32.5553 93.3866 32.606 93.133 32.7074C92.8858 32.8088 92.6671 32.9546 92.4769 33.1448C92.2867 33.335 92.1378 33.56 92.03 33.8199C91.9286 34.0798 91.8779 34.3682 91.8779 34.6852C91.8779 34.9958 91.9286 35.2842 92.03 35.5505C92.1378 35.8104 92.2836 36.0354 92.4674 36.2256C92.6576 36.4158 92.8794 36.5616 93.133 36.663C93.3866 36.7644 93.6623 36.8151 93.9603 36.8151ZM100.206 34.0386H103.41V35.2367H100.206V34.0386ZM100.32 36.7771H103.942V38.0132H98.7888V31.3572H103.819V32.5933H100.32V36.7771ZM107.88 38.0132V31.3572H109.154L111.987 36.0545H111.312L114.098 31.3572H115.372L115.382 38.0132H113.937L113.927 33.5727H114.203L111.968 37.3096H111.284L109.002 33.5727H109.325V38.0132H107.88ZM118.452 34.0386H121.657V35.2367H118.452V34.0386ZM118.566 36.7771H122.189V38.0132H117.035V31.3572H122.066V32.5933H118.566V36.7771ZM126.581 38.1273C126.067 38.1273 125.589 38.0449 125.145 37.8801C124.708 37.709 124.327 37.4681 124.004 37.1575C123.681 36.8468 123.427 36.4823 123.243 36.064C123.066 35.6456 122.977 35.186 122.977 34.6852C122.977 34.1844 123.066 33.7248 123.243 33.3064C123.427 32.8881 123.681 32.5236 124.004 32.2129C124.334 31.9023 124.717 31.6646 125.154 31.4998C125.592 31.3286 126.07 31.2431 126.59 31.2431C127.167 31.2431 127.687 31.3445 128.15 31.5473C128.619 31.7438 129.012 32.0354 129.329 32.4221L128.34 33.335C128.112 33.0751 127.858 32.8817 127.579 32.7549C127.3 32.6218 126.996 32.5553 126.666 32.5553C126.356 32.5553 126.07 32.606 125.811 32.7074C125.551 32.8088 125.326 32.9546 125.135 33.1448C124.945 33.335 124.796 33.56 124.689 33.8199C124.587 34.0798 124.536 34.3682 124.536 34.6852C124.536 35.0022 124.587 35.2906 124.689 35.5505C124.796 35.8104 124.945 36.0354 125.135 36.2256C125.326 36.4158 125.551 36.5616 125.811 36.663C126.07 36.7644 126.356 36.8151 126.666 36.8151C126.996 36.8151 127.3 36.7518 127.579 36.625C127.858 36.4919 128.112 36.2922 128.34 36.0259L129.329 36.9388C129.012 37.3254 128.619 37.6202 128.15 37.8231C127.687 38.0259 127.164 38.1273 126.581 38.1273ZM131.704 38.0132V32.2605L132.055 32.6123H129.583V31.3572H135.355V32.6123H132.883L133.225 32.2605V38.0132H131.704ZM139.415 38.1273C138.889 38.1273 138.4 38.0418 137.95 37.8706C137.507 37.6995 137.12 37.4586 136.79 37.148C136.467 36.8373 136.213 36.4728 136.03 36.0545C135.852 35.6361 135.763 35.1797 135.763 34.6852C135.763 34.1907 135.852 33.7343 136.03 33.3159C136.213 32.8976 136.47 32.5331 136.8 32.2224C137.129 31.9118 137.516 31.6709 137.96 31.4998C138.404 31.3286 138.885 31.2431 139.405 31.2431C139.931 31.2431 140.413 31.3286 140.85 31.4998C141.294 31.6709 141.678 31.9118 142.001 32.2224C142.331 32.5331 142.587 32.8976 142.771 33.3159C142.955 33.728 143.047 34.1844 143.047 34.6852C143.047 35.1797 142.955 35.6392 142.771 36.064C142.587 36.4823 142.331 36.8468 142.001 37.1575C141.678 37.4617 141.294 37.6995 140.85 37.8706C140.413 38.0418 139.934 38.1273 139.415 38.1273ZM139.405 36.8151C139.703 36.8151 139.976 36.7644 140.223 36.663C140.476 36.5616 140.698 36.4158 140.889 36.2256C141.079 36.0354 141.224 35.8104 141.326 35.5505C141.434 35.2906 141.488 35.0022 141.488 34.6852C141.488 34.3682 141.434 34.0798 141.326 33.8199C141.224 33.56 141.079 33.335 140.889 33.1448C140.705 32.9546 140.486 32.8088 140.232 32.7074C139.979 32.606 139.703 32.5553 139.405 32.5553C139.107 32.5553 138.831 32.606 138.578 32.7074C138.331 32.8088 138.112 32.9546 137.922 33.1448C137.732 33.335 137.583 33.56 137.475 33.8199C137.373 34.0798 137.323 34.3682 137.323 34.6852C137.323 34.9958 137.373 35.2842 137.475 35.5505C137.583 35.8104 137.728 36.0354 137.912 36.2256C138.102 36.4158 138.324 36.5616 138.578 36.663C138.831 36.7644 139.107 36.8151 139.405 36.8151ZM144.234 38.0132V31.3572H147.115C147.711 31.3572 148.224 31.4554 148.655 31.6519C149.086 31.8421 149.419 32.1179 149.654 32.4792C149.888 32.8405 150.005 33.2716 150.005 33.7724C150.005 34.2668 149.888 34.6947 149.654 35.056C149.419 35.4174 149.086 35.6963 148.655 35.8928C148.224 36.083 147.711 36.1781 147.115 36.1781H145.089L145.774 35.4839V38.0132H144.234ZM145.774 35.6551L145.089 34.9229H147.029C147.505 34.9229 147.86 34.8215 148.094 34.6186C148.329 34.4158 148.446 34.1337 148.446 33.7724C148.446 33.4047 148.329 33.1194 148.094 32.9166C147.86 32.7137 147.505 32.6123 147.029 32.6123H145.089L145.774 31.8801V35.6551ZM154.3 38.1273C153.774 38.1273 153.286 38.0418 152.836 37.8706C152.392 37.6995 152.005 37.4586 151.675 37.148C151.352 36.8373 151.099 36.4728 150.915 36.0545C150.737 35.6361 150.649 35.1797 150.649 34.6852C150.649 34.1907 150.737 33.7343 150.915 33.3159C151.099 32.8976 151.355 32.5331 151.685 32.2224C152.015 31.9118 152.401 31.6709 152.845 31.4998C153.289 31.3286 153.771 31.2431 154.29 31.2431C154.816 31.2431 155.298 31.3286 155.736 31.4998C156.179 31.6709 156.563 31.9118 156.886 32.2224C157.216 32.5331 157.473 32.8976 157.656 33.3159C157.84 33.728 157.932 34.1844 157.932 34.6852C157.932 35.1797 157.84 35.6392 157.656 36.064C157.473 36.4823 157.216 36.8468 156.886 37.1575C156.563 37.4617 156.179 37.6995 155.736 37.8706C155.298 38.0418 154.82 38.1273 154.3 38.1273ZM154.29 36.8151C154.588 36.8151 154.861 36.7644 155.108 36.663C155.362 36.5616 155.584 36.4158 155.774 36.2256C155.964 36.0354 156.11 35.8104 156.211 35.5505C156.319 35.2906 156.373 35.0022 156.373 34.6852C156.373 34.3682 156.319 34.0798 156.211 33.8199C156.11 33.56 155.964 33.335 155.774 33.1448C155.59 32.9546 155.371 32.8088 155.118 32.7074C154.864 32.606 154.588 32.5553 154.29 32.5553C153.992 32.5553 153.717 32.606 153.463 32.7074C153.216 32.8088 152.997 32.9546 152.807 33.1448C152.617 33.335 152.468 33.56 152.36 33.8199C152.259 34.0798 152.208 34.3682 152.208 34.6852C152.208 34.9958 152.259 35.2842 152.36 35.5505C152.468 35.8104 152.614 36.0354 152.797 36.2256C152.988 36.4158 153.21 36.5616 153.463 36.663C153.717 36.7644 153.992 36.8151 154.29 36.8151ZM166.408 38.0132L164.621 34.8088L165.923 34.0576L168.186 38.0132H166.408ZM163.489 35.3318V34.0481H165.562V35.3318H163.489ZM166.009 34.8564L164.583 34.6852L166.437 31.3572H168.063L166.009 34.8564ZM159.952 38.0132H158.174L160.437 34.0576L161.74 34.8088L159.952 38.0132ZM163.946 38.0132H162.434V31.3572H163.946V38.0132ZM162.881 35.3318H160.798V34.0481H162.881V35.3318ZM160.361 34.8564L158.297 31.3572H159.923L161.768 34.6852L160.361 34.8564ZM173.504 37.3286V32.6123H171.222L171.193 33.5822C171.174 33.9942 171.146 34.3841 171.108 34.7518C171.076 35.1194 171.025 35.4554 170.956 35.7597C170.886 36.0576 170.794 36.3112 170.68 36.5204C170.572 36.7296 170.436 36.8785 170.271 36.9673L168.626 36.7581C168.854 36.7644 169.041 36.6852 169.187 36.5204C169.339 36.3556 169.459 36.1242 169.548 35.8262C169.637 35.522 169.7 35.167 169.738 34.7613C169.783 34.3556 169.814 33.915 169.833 33.4396L169.91 31.3572H175.025V37.3286H173.504ZM168.407 39.392L168.417 36.7581H175.957V39.392H174.531V38.0132H169.833V39.392H168.407ZM178.411 34.0386H181.615V35.2367H178.411V34.0386ZM178.525 36.7771H182.148V38.0132H176.994V31.3572H182.024V32.5933H178.525V36.7771ZM187.956 31.3572H189.497V38.0132H187.956V31.3572ZM184.932 38.0132H183.392V31.3572H184.932V38.0132ZM188.07 35.2842H184.818V33.9816H188.07V35.2842ZM191.164 38.0132V31.3572H192.695V35.6931L195.871 31.3572H197.316V38.0132H195.795V33.6868L192.619 38.0132H191.164ZM200.39 34.0386H203.595V35.2367H200.39V34.0386ZM200.505 36.7771H204.127V38.0132H198.974V31.3572H204.004V32.5933H200.505V36.7771Z" fill="black"/>
<g filter="url(#filter0_d_294_852)">
<rect x="11.6217" y="6.29803" width="34.8652" height="3.16956" transform="rotate(90 11.6217 6.29803)" fill="#D9D9D9"/>
<rect x="11.6217" y="6.29803" width="34.8652" height="3.16956" transform="rotate(90 11.6217 6.29803)" fill="url(#paint0_linear_294_852)"/>
</g>
<defs>
<filter id="filter0_d_294_852" x="6.3391" y="6.29803" width="7.39564" height="39.0913" filterUnits="userSpaceOnUse" color-interpolation-filters="sRGB">
<feFlood flood-opacity="0" result="BackgroundImageFix"/>
<feColorMatrix in="SourceAlpha" type="matrix" values="0 0 0 0 0 0 0 0 0 0 0 0 0 0 0 0 0 0 127 0" result="hardAlpha"/>
<feOffset dy="2.11304"/>
<feGaussianBlur stdDeviation="1.05652"/>
<feComposite in2="hardAlpha" operator="out"/>
<feColorMatrix type="matrix" values="0 0 0 0 0 0 0 0 0 0 0 0 0 0 0 0 0 0 0.25 0"/>
<feBlend mode="normal" in2="BackgroundImageFix" result="effect1_dropShadow_294_852"/>
<feBlend mode="normal" in="SourceGraphic" in2="effect1_dropShadow_294_852" result="shape"/>
</filter>
<linearGradient id="paint0_linear_294_852" x1="11.6217" y1="6.29803" x2="46.4869" y2="6.29803" gradientUnits="userSpaceOnUse">
<stop stop-color="#008DDE"/>
<stop offset="0.53125" stop-color="#EB097B"/>
<stop offset="1" stop-color="#571273"/>
</linearGradient>
</defs>
</svg>
