<svg width="243" height="83" viewBox="0 0 243 83" fill="none" xmlns="http://www.w3.org/2000/svg">
<path d="M10.037 77.6602L81.3522 44.9044L53.8876 44.9044L10.037 77.6602Z" fill="white"/>
<rect y="0.534088" width="243" height="46.487" rx="10.5652" fill="white"/>
<path d="M21.6366 21.2319V8.6593H24.5283V13.5985H27.7792V16.1131H24.5283V21.2319H21.6366ZM32.7364 21.4474C31.7785 21.4474 30.8924 21.2858 30.0782 20.9625C29.2759 20.6392 28.5755 20.1902 27.9768 19.6154C27.3781 19.0287 26.9111 18.3402 26.5758 17.5499C26.2525 16.7477 26.0909 15.8796 26.0909 14.9456C26.0909 13.9997 26.2525 13.1316 26.5758 12.3413C26.9111 11.551 27.3781 10.8685 27.9768 10.2937C28.5755 9.70702 29.2759 9.25201 30.0782 8.92871C30.8924 8.60542 31.7785 8.44377 32.7364 8.44377C33.6823 8.44377 34.5624 8.60542 35.3766 8.92871C36.1909 9.25201 36.8913 9.70702 37.4781 10.2937C38.0768 10.8685 38.5437 11.557 38.879 12.3592C39.2143 13.1495 39.3819 14.0116 39.3819 14.9456C39.3819 15.8796 39.2143 16.7477 38.879 17.5499C38.5437 18.3402 38.0768 19.0287 37.4781 19.6154C36.8913 20.1902 36.1909 20.6392 35.3766 20.9625C34.5624 21.2858 33.6823 21.4474 32.7364 21.4474ZM32.7364 18.9688C33.2632 18.9688 33.7482 18.873 34.1912 18.6815C34.6343 18.4899 35.0234 18.2205 35.3587 17.8732C35.6939 17.514 35.9574 17.0889 36.149 16.598C36.3405 16.1071 36.4363 15.5563 36.4363 14.9456C36.4363 14.3349 36.3405 13.7841 36.149 13.2932C35.9574 12.8023 35.6939 12.3832 35.3587 12.0359C35.0234 11.6767 34.6343 11.4013 34.1912 11.2097C33.7482 11.0182 33.2632 10.9224 32.7364 10.9224C32.2215 10.9224 31.7366 11.0182 31.2816 11.2097C30.8385 11.4013 30.4494 11.6767 30.1141 12.0359C29.7788 12.3832 29.5154 12.8023 29.3238 13.2932C29.1322 13.7841 29.0364 14.3349 29.0364 14.9456C29.0364 15.5563 29.1322 16.1071 29.3238 16.598C29.5154 17.0889 29.7788 17.514 30.1141 17.8732C30.4494 18.2205 30.8385 18.4899 31.2816 18.6815C31.7366 18.873 32.2215 18.9688 32.7364 18.9688ZM55.4186 21.2319L52.0419 15.1791L54.5026 13.7602L58.7773 21.2319H55.4186ZM49.9046 16.1669V13.7422H53.8201V16.1669H49.9046ZM54.6642 15.2689L51.9701 14.9456L55.4725 8.6593H58.5438L54.6642 15.2689ZM43.2232 21.2319H39.8645L44.1392 13.7602L46.5998 15.1791L43.2232 21.2319ZM50.7667 21.2319H47.9109V8.6593H50.7667V21.2319ZM48.7551 16.1669H44.8217V13.7422H48.7551V16.1669ZM43.9955 15.2689L40.098 8.6593H43.1693L46.6537 14.9456L43.9955 15.2689ZM68.793 8.6593H71.7026V21.2319H68.793V8.6593ZM63.0814 21.2319H60.1718V8.6593H63.0814V21.2319ZM69.0085 16.0771H62.8659V13.6165H69.0085V16.0771ZM80.8696 21.4474C79.8757 21.4474 78.9537 21.2858 78.1036 20.9625C77.2654 20.6392 76.535 20.1842 75.9124 19.5975C75.3017 19.0107 74.8227 18.3222 74.4755 17.532C74.1402 16.7417 73.9726 15.8796 73.9726 14.9456C73.9726 14.0116 74.1402 13.1495 74.4755 12.3592C74.8227 11.569 75.3077 10.8805 75.9303 10.2937C76.553 9.70702 77.2834 9.25201 78.1215 8.92871C78.9597 8.60542 79.8697 8.44377 80.8516 8.44377C81.8454 8.44377 82.7554 8.60542 83.5816 8.92871C84.4198 9.25201 85.1442 9.70702 85.7549 10.2937C86.3776 10.8805 86.8625 11.569 87.2097 12.3592C87.557 13.1375 87.7306 13.9997 87.7306 14.9456C87.7306 15.8796 87.557 16.7477 87.2097 17.5499C86.8625 18.3402 86.3776 19.0287 85.7549 19.6154C85.1442 20.1902 84.4198 20.6392 83.5816 20.9625C82.7554 21.2858 81.8514 21.4474 80.8696 21.4474ZM80.8516 18.9688C81.4144 18.9688 81.9292 18.873 82.3962 18.6815C82.8752 18.4899 83.2943 18.2145 83.6535 17.8553C84.0127 17.496 84.2881 17.071 84.4797 16.58C84.6832 16.0891 84.785 15.5443 84.785 14.9456C84.785 14.3469 84.6832 13.8021 84.4797 13.3112C84.2881 12.8202 84.0127 12.3952 83.6535 12.0359C83.3062 11.6767 82.8931 11.4013 82.4142 11.2097C81.9352 11.0182 81.4144 10.9224 80.8516 10.9224C80.2888 10.9224 79.768 11.0182 79.289 11.2097C78.822 11.4013 78.4089 11.6767 78.0497 12.0359C77.6905 12.3952 77.4091 12.8202 77.2055 13.3112C77.014 13.8021 76.9182 14.3469 76.9182 14.9456C76.9182 15.5323 77.014 16.0771 77.2055 16.58C77.4091 17.071 77.6845 17.496 78.0317 17.8553C78.391 18.2145 78.81 18.4899 79.289 18.6815C79.768 18.873 80.2888 18.9688 80.8516 18.9688ZM89.3961 17.2985V15.0534H94.479V17.2985H89.3961ZM98.9985 21.2319V10.3656L99.6631 11.0301H94.9933V8.6593H105.896V11.0301H101.226L101.872 10.3656V21.2319H98.9985ZM105.672 21.2319L111.276 8.6593H114.15L119.771 21.2319H116.718L112.12 10.1321H113.27L108.654 21.2319H105.672ZM108.474 18.5378L109.246 16.3286H115.712L116.503 18.5378H108.474ZM121.439 21.2319V8.6593H123.845L129.198 17.532H127.923L133.185 8.6593H135.592L135.61 21.2319H132.88L132.862 12.8442H133.383L129.162 19.9028H127.869L123.558 12.8442H124.169V21.2319H121.439ZM138.733 21.2319V8.6593H148.881V10.9763H141.625V13.5626H145.109C146.63 13.5626 147.785 13.8799 148.576 14.5145C149.378 15.1492 149.779 16.0712 149.779 17.2805C149.779 18.5258 149.336 19.4957 148.45 20.1902C147.564 20.8847 146.313 21.2319 144.696 21.2319H138.733ZM141.625 19.0766H144.534C145.277 19.0766 145.846 18.9329 146.241 18.6455C146.636 18.3462 146.833 17.9151 146.833 17.3524C146.833 16.2508 146.067 15.7 144.534 15.7H141.625V19.0766ZM154.669 13.7243H160.722V15.9873H154.669V13.7243ZM154.885 18.897H161.728V21.2319H151.993V8.6593H161.495V10.9942H154.885V18.897ZM164.078 21.2319V8.6593H166.97V16.8495L172.969 8.6593H175.699V21.2319H172.825V13.0597L166.826 21.2319H164.078ZM169.88 7.85106C168.682 7.85106 167.802 7.61158 167.239 7.13263C166.689 6.65367 166.407 5.97714 166.395 5.10305H168.389C168.401 5.53411 168.527 5.86339 168.766 6.0909C169.017 6.30643 169.389 6.41419 169.88 6.41419C170.359 6.41419 170.724 6.30643 170.975 6.0909C171.227 5.86339 171.358 5.53411 171.37 5.10305H173.364C173.352 5.97714 173.065 6.65367 172.502 7.13263C171.939 7.61158 171.065 7.85106 169.88 7.85106ZM184.774 21.4474C183.804 21.4474 182.9 21.2918 182.062 20.9805C181.236 20.6572 180.518 20.2022 179.907 19.6154C179.296 19.0287 178.817 18.3402 178.47 17.5499C178.135 16.7597 177.967 15.8915 177.967 14.9456C177.967 13.9997 178.135 13.1316 178.47 12.3413C178.817 11.551 179.296 10.8625 179.907 10.2758C180.53 9.68906 181.254 9.24004 182.08 8.92871C182.906 8.60542 183.81 8.44377 184.792 8.44377C185.882 8.44377 186.864 8.63535 187.738 9.01852C188.624 9.38971 189.366 9.94051 189.965 10.6709L188.097 12.3952C187.666 11.9042 187.187 11.539 186.66 11.2995C186.133 11.0481 185.559 10.9224 184.936 10.9224C184.349 10.9224 183.81 11.0182 183.319 11.2097C182.829 11.4013 182.403 11.6767 182.044 12.0359C181.685 12.3952 181.404 12.8202 181.2 13.3112C181.009 13.8021 180.913 14.3469 180.913 14.9456C180.913 15.5443 181.009 16.0891 181.2 16.58C181.404 17.071 181.685 17.496 182.044 17.8553C182.403 18.2145 182.829 18.4899 183.319 18.6815C183.81 18.873 184.349 18.9688 184.936 18.9688C185.559 18.9688 186.133 18.8491 186.66 18.6096C187.187 18.3582 187.666 17.981 188.097 17.4781L189.965 19.2023C189.366 19.9327 188.624 20.4895 187.738 20.8727C186.864 21.2559 185.876 21.4474 184.774 21.4474ZM199.998 21.2319L196.082 15.1791L198.435 13.7602L203.302 21.2319H199.998ZM191.826 21.2319V8.6593H194.717V21.2319H191.826ZM193.873 16.1669V13.7422H198.255V16.1669H193.873ZM198.705 15.2689L196.028 14.9456L200.105 8.6593H203.177L198.705 15.2689ZM210.63 21.4474C209.636 21.4474 208.714 21.2858 207.864 20.9625C207.026 20.6392 206.295 20.1842 205.673 19.5975C205.062 19.0107 204.583 18.3222 204.236 17.532C203.9 16.7417 203.733 15.8796 203.733 14.9456C203.733 14.0116 203.9 13.1495 204.236 12.3592C204.583 11.569 205.068 10.8805 205.691 10.2937C206.313 9.70702 207.044 9.25201 207.882 8.92871C208.72 8.60542 209.63 8.44377 210.612 8.44377C211.606 8.44377 212.516 8.60542 213.342 8.92871C214.18 9.25201 214.905 9.70702 215.515 10.2937C216.138 10.8805 216.623 11.569 216.97 12.3592C217.317 13.1375 217.491 13.9997 217.491 14.9456C217.491 15.8796 217.317 16.7477 216.97 17.5499C216.623 18.3402 216.138 19.0287 215.515 19.6154C214.905 20.1902 214.18 20.6392 213.342 20.9625C212.516 21.2858 211.612 21.4474 210.63 21.4474ZM210.612 18.9688C211.175 18.9688 211.69 18.873 212.157 18.6815C212.635 18.4899 213.055 18.2145 213.414 17.8553C213.773 17.496 214.048 17.071 214.24 16.58C214.444 16.0891 214.545 15.5443 214.545 14.9456C214.545 14.3469 214.444 13.8021 214.24 13.3112C214.048 12.8202 213.773 12.3952 213.414 12.0359C213.067 11.6767 212.653 11.4013 212.174 11.2097C211.696 11.0182 211.175 10.9224 210.612 10.9224C210.049 10.9224 209.528 11.0182 209.049 11.2097C208.582 11.4013 208.169 11.6767 207.81 12.0359C207.451 12.3952 207.169 12.8202 206.966 13.3112C206.774 13.8021 206.678 14.3469 206.678 14.9456C206.678 15.5323 206.774 16.0771 206.966 16.58C207.169 17.071 207.445 17.496 207.792 17.8553C208.151 18.2145 208.57 18.4899 209.049 18.6815C209.528 18.873 210.049 18.9688 210.612 18.9688ZM222.409 13.7243H228.461V15.9873H222.409V13.7243ZM222.624 18.897H229.467V21.2319H219.732V8.6593H229.234V10.9942H222.624V18.897Z" fill="black"/>
<path d="M26.5219 31.4041H28.0623V38.0602H26.5219V31.4041ZM23.4982 38.0602H21.9577V31.4041H23.4982V38.0602ZM26.636 35.3312H23.3841V34.0285H26.636V35.3312ZM31.1468 34.0855H34.3512V35.2836H31.1468V34.0855ZM31.2609 36.824H34.8837V38.0602H29.73V31.4041H34.7601V32.6402H31.2609V36.824ZM39.6462 37.6418C38.784 37.6418 38.0519 37.5277 37.4496 37.2995C36.8538 37.0713 36.4005 36.7416 36.0899 36.3106C35.7793 35.8732 35.624 35.3407 35.624 34.7131C35.624 34.0855 35.7793 33.5562 36.0899 33.1252C36.4005 32.6878 36.8538 32.355 37.4496 32.1267C38.0519 31.8985 38.784 31.7844 39.6462 31.7844C39.6588 31.7844 39.6937 31.7844 39.7507 31.7844C39.8141 31.7844 39.8744 31.7844 39.9314 31.7844C39.9948 31.7844 40.0297 31.7844 40.036 31.7844C40.8918 31.7844 41.6145 31.8985 42.204 32.1267C42.7999 32.355 43.2499 32.6878 43.5542 33.1252C43.8585 33.5626 44.0106 34.0919 44.0106 34.7131C44.0106 35.328 43.8585 35.8573 43.5542 36.3011C43.2563 36.7385 42.8157 37.0713 42.2325 37.2995C41.6557 37.5277 40.9488 37.6418 40.1121 37.6418C40.0931 37.6418 40.0487 37.6418 39.979 37.6418C39.9092 37.6418 39.8395 37.6418 39.7698 37.6418C39.7064 37.6418 39.6652 37.6418 39.6462 37.6418ZM39.7888 36.4532C39.8078 36.4532 39.8332 36.4532 39.8649 36.4532C39.8965 36.4532 39.9187 36.4532 39.9314 36.4532C40.5146 36.4532 40.9964 36.3898 41.3767 36.263C41.7634 36.1299 42.0519 35.9366 42.242 35.683C42.4322 35.4231 42.5273 35.0966 42.5273 34.7036C42.5273 34.3106 42.429 33.9873 42.2325 33.7337C42.036 33.4802 41.7476 33.2931 41.3672 33.1727C40.9932 33.0459 40.521 32.9825 39.9504 32.9825C39.9378 32.9825 39.9124 32.9825 39.8744 32.9825C39.8427 32.9825 39.8141 32.9825 39.7888 32.9825C39.1866 32.9825 38.6889 33.0428 38.2959 33.1632C37.9029 33.2836 37.6081 33.4738 37.4116 33.7337C37.2151 33.9873 37.1168 34.3137 37.1168 34.7131C37.1168 35.1125 37.2214 35.4421 37.4306 35.702C37.6398 35.9556 37.9409 36.1458 38.334 36.2725C38.7333 36.393 39.2183 36.4532 39.7888 36.4532ZM39.1137 38.3549V31.1188H40.5305V38.3549H39.1137ZM46.506 38.0602V32.3074L46.8578 32.6592H44.3856V31.4041H50.1573V32.6592H47.6851L48.0274 32.3074V38.0602H46.506ZM52.5414 34.0855H55.7458V35.2836H52.5414V34.0855ZM52.6555 36.824H56.2783V38.0602H51.1246V31.4041H56.1547V32.6402H52.6555V36.824ZM57.5225 38.0602V31.4041H62.2198L62.2103 32.6592H58.6921L59.0439 32.3074L59.0534 38.0602H57.5225ZM61.1078 38.0602L64.0745 31.4041H65.5959L68.5721 38.0602H66.9556L64.5214 32.1838H65.13L62.6862 38.0602H61.1078ZM62.5912 36.6339L63 35.4643H66.4232L66.8415 36.6339H62.5912ZM68.8557 37.4706L69.3312 36.3676C69.6164 36.5388 69.9207 36.6719 70.244 36.767C70.5737 36.8557 70.8938 36.9065 71.2044 36.9191C71.5214 36.9255 71.8066 36.8938 72.0602 36.824C72.3201 36.7543 72.5261 36.6497 72.6782 36.5103C72.8367 36.3708 72.916 36.1933 72.916 35.9778C72.916 35.7242 72.8114 35.5372 72.6022 35.4168C72.393 35.29 72.1141 35.2266 71.7654 35.2266H70.1394V34.0665H71.6513C71.9619 34.0665 72.2028 34.0031 72.374 33.8763C72.5515 33.7496 72.6402 33.5752 72.6402 33.3534C72.6402 33.1632 72.5768 33.0111 72.45 32.897C72.3233 32.7765 72.1489 32.6878 71.9271 32.6307C71.7115 32.5737 71.4675 32.5483 71.1949 32.5546C70.9223 32.561 70.6402 32.6054 70.3486 32.6878C70.057 32.7702 69.7781 32.8843 69.5118 33.0301L69.0459 31.8415C69.477 31.6196 69.9302 31.4675 70.4057 31.3851C70.8874 31.2963 71.3502 31.2741 71.7939 31.3185C72.244 31.3565 72.6497 31.458 73.011 31.6228C73.3724 31.7813 73.6608 31.9905 73.8763 32.2504C74.0919 32.5103 74.1996 32.8177 74.1996 33.1727C74.1996 33.4897 74.1172 33.7718 73.9524 34.019C73.7876 34.2662 73.5562 34.4564 73.2583 34.5895C72.9667 34.7226 72.6307 34.7892 72.2504 34.7892L72.2884 34.4469C72.7321 34.4469 73.1156 34.5229 73.4389 34.6751C73.7686 34.8209 74.0221 35.0269 74.1996 35.2931C74.3835 35.553 74.4754 35.8542 74.4754 36.1965C74.4754 36.5134 74.3898 36.7987 74.2187 37.0523C74.0538 37.2995 73.8256 37.5087 73.534 37.6798C73.2424 37.851 72.9096 37.9778 72.5356 38.0602C72.1616 38.1426 71.7622 38.1774 71.3375 38.1648C70.9191 38.1521 70.4976 38.0919 70.0729 37.9841C69.6481 37.87 69.2424 37.6988 68.8557 37.4706ZM78.8803 38.1743C78.3541 38.1743 77.866 38.0887 77.416 37.9175C76.9722 37.7464 76.5855 37.5055 76.2559 37.1949C75.9326 36.8843 75.679 36.5198 75.4952 36.1014C75.3177 35.683 75.229 35.2266 75.229 34.7321C75.229 34.2377 75.3177 33.7813 75.4952 33.3629C75.679 32.9445 75.9358 32.58 76.2654 32.2694C76.595 31.9588 76.9817 31.7179 77.4255 31.5467C77.8692 31.3756 78.351 31.29 78.8708 31.29C79.3969 31.29 79.8787 31.3756 80.3161 31.5467C80.7598 31.7179 81.1434 31.9588 81.4667 32.2694C81.7963 32.58 82.053 32.9445 82.2369 33.3629C82.4207 33.7749 82.5126 34.2313 82.5126 34.7321C82.5126 35.2266 82.4207 35.6862 82.2369 36.1109C82.053 36.5293 81.7963 36.8938 81.4667 37.2044C81.1434 37.5087 80.7598 37.7464 80.3161 37.9175C79.8787 38.0887 79.4001 38.1743 78.8803 38.1743ZM78.8708 36.8621C79.1687 36.8621 79.4413 36.8114 79.6885 36.7099C79.9421 36.6085 80.164 36.4627 80.3541 36.2725C80.5443 36.0824 80.6901 35.8573 80.7915 35.5974C80.8993 35.3375 80.9532 35.0491 80.9532 34.7321C80.9532 34.4152 80.8993 34.1267 80.7915 33.8668C80.6901 33.6069 80.5443 33.3819 80.3541 33.1917C80.1703 33.0015 79.9516 32.8557 79.698 32.7543C79.4445 32.6529 79.1687 32.6022 78.8708 32.6022C78.5728 32.6022 78.2971 32.6529 78.0435 32.7543C77.7963 32.8557 77.5776 33.0015 77.3874 33.1917C77.1973 33.3819 77.0483 33.6069 76.9405 33.8668C76.8391 34.1267 76.7884 34.4152 76.7884 34.7321C76.7884 35.0427 76.8391 35.3312 76.9405 35.5974C77.0483 35.8573 77.1941 36.0824 77.3779 36.2725C77.5681 36.4627 77.79 36.6085 78.0435 36.7099C78.2971 36.8114 78.5728 36.8621 78.8708 36.8621ZM83.6993 38.0602V31.4041H86.7991C87.5725 31.4041 88.1747 31.5531 88.6058 31.851C89.0368 32.1489 89.2523 32.5737 89.2523 33.1252C89.2523 33.6703 89.0495 34.095 88.6438 34.3993C88.2381 34.6973 87.6993 34.8462 87.0273 34.8462L87.208 34.4469C87.956 34.4469 88.536 34.5958 88.9481 34.8938C89.3601 35.1917 89.5661 35.6228 89.5661 36.187C89.5661 36.7702 89.3443 37.2297 88.9005 37.5657C88.4631 37.8954 87.8229 38.0602 86.9798 38.0602H83.6993ZM85.2302 36.9191H86.9227C87.2777 36.9191 87.5471 36.8494 87.731 36.7099C87.9148 36.5705 88.0067 36.3549 88.0067 36.0633C88.0067 35.7844 87.9148 35.5784 87.731 35.4453C87.5471 35.3058 87.2777 35.2361 86.9227 35.2361H85.2302V36.9191ZM85.2302 34.1616H86.666C87.002 34.1616 87.2555 34.095 87.4267 33.9619C87.5978 33.8225 87.6834 33.6196 87.6834 33.3534C87.6834 33.0871 87.5978 32.8874 87.4267 32.7543C87.2555 32.6149 87.002 32.5451 86.666 32.5451H85.2302V34.1616ZM93.9698 38.1743C93.4436 38.1743 92.9555 38.0887 92.5054 37.9175C92.0617 37.7464 91.675 37.5055 91.3454 37.1949C91.0221 36.8843 90.7685 36.5198 90.5847 36.1014C90.4072 35.683 90.3184 35.2266 90.3184 34.7321C90.3184 34.2377 90.4072 33.7813 90.5847 33.3629C90.7685 32.9445 91.0253 32.58 91.3549 32.2694C91.6845 31.9588 92.0712 31.7179 92.5149 31.5467C92.9587 31.3756 93.4405 31.29 93.9603 31.29C94.4864 31.29 94.9682 31.3756 95.4056 31.5467C95.8493 31.7179 96.2328 31.9588 96.5561 32.2694C96.8858 32.58 97.1425 32.9445 97.3263 33.3629C97.5102 33.7749 97.6021 34.2313 97.6021 34.7321C97.6021 35.2266 97.5102 35.6862 97.3263 36.1109C97.1425 36.5293 96.8858 36.8938 96.5561 37.2044C96.2328 37.5087 95.8493 37.7464 95.4056 37.9175C94.9682 38.0887 94.4896 38.1743 93.9698 38.1743ZM93.9603 36.8621C94.2582 36.8621 94.5308 36.8114 94.778 36.7099C95.0316 36.6085 95.2535 36.4627 95.4436 36.2725C95.6338 36.0824 95.7796 35.8573 95.881 35.5974C95.9888 35.3375 96.0427 35.0491 96.0427 34.7321C96.0427 34.4152 95.9888 34.1267 95.881 33.8668C95.7796 33.6069 95.6338 33.3819 95.4436 33.1917C95.2598 33.0015 95.0411 32.8557 94.7875 32.7543C94.534 32.6529 94.2582 32.6022 93.9603 32.6022C93.6623 32.6022 93.3866 32.6529 93.133 32.7543C92.8858 32.8557 92.6671 33.0015 92.4769 33.1917C92.2867 33.3819 92.1378 33.6069 92.03 33.8668C91.9286 34.1267 91.8779 34.4152 91.8779 34.7321C91.8779 35.0427 91.9286 35.3312 92.03 35.5974C92.1378 35.8573 92.2836 36.0824 92.4674 36.2725C92.6576 36.4627 92.8794 36.6085 93.133 36.7099C93.3866 36.8114 93.6623 36.8621 93.9603 36.8621ZM100.206 34.0855H103.41V35.2836H100.206V34.0855ZM100.32 36.824H103.942V38.0602H98.7888V31.4041H103.819V32.6402H100.32V36.824ZM107.88 38.0602V31.4041H109.154L111.987 36.1014H111.312L114.098 31.4041H115.372L115.382 38.0602H113.937L113.927 33.6196H114.203L111.968 37.3565H111.284L109.002 33.6196H109.325V38.0602H107.88ZM118.452 34.0855H121.657V35.2836H118.452V34.0855ZM118.566 36.824H122.189V38.0602H117.035V31.4041H122.066V32.6402H118.566V36.824ZM126.581 38.1743C126.067 38.1743 125.589 38.0919 125.145 37.9271C124.708 37.7559 124.327 37.515 124.004 37.2044C123.681 36.8938 123.427 36.5293 123.243 36.1109C123.066 35.6925 122.977 35.2329 122.977 34.7321C122.977 34.2313 123.066 33.7718 123.243 33.3534C123.427 32.935 123.681 32.5705 124.004 32.2599C124.334 31.9493 124.717 31.7115 125.154 31.5467C125.592 31.3756 126.07 31.29 126.59 31.29C127.167 31.29 127.687 31.3914 128.15 31.5943C128.619 31.7908 129.012 32.0824 129.329 32.4691L128.34 33.3819C128.112 33.122 127.858 32.9286 127.579 32.8019C127.3 32.6687 126.996 32.6022 126.666 32.6022C126.356 32.6022 126.07 32.6529 125.811 32.7543C125.551 32.8557 125.326 33.0015 125.135 33.1917C124.945 33.3819 124.796 33.6069 124.689 33.8668C124.587 34.1267 124.536 34.4152 124.536 34.7321C124.536 35.0491 124.587 35.3375 124.689 35.5974C124.796 35.8573 124.945 36.0824 125.135 36.2725C125.326 36.4627 125.551 36.6085 125.811 36.7099C126.07 36.8114 126.356 36.8621 126.666 36.8621C126.996 36.8621 127.3 36.7987 127.579 36.6719C127.858 36.5388 128.112 36.3391 128.34 36.0729L129.329 36.9857C129.012 37.3724 128.619 37.6671 128.15 37.87C127.687 38.0729 127.164 38.1743 126.581 38.1743ZM131.704 38.0602V32.3074L132.055 32.6592H129.583V31.4041H135.355V32.6592H132.883L133.225 32.3074V38.0602H131.704ZM139.415 38.1743C138.889 38.1743 138.4 38.0887 137.95 37.9175C137.507 37.7464 137.12 37.5055 136.79 37.1949C136.467 36.8843 136.213 36.5198 136.03 36.1014C135.852 35.683 135.763 35.2266 135.763 34.7321C135.763 34.2377 135.852 33.7813 136.03 33.3629C136.213 32.9445 136.47 32.58 136.8 32.2694C137.129 31.9588 137.516 31.7179 137.96 31.5467C138.404 31.3756 138.885 31.29 139.405 31.29C139.931 31.29 140.413 31.3756 140.85 31.5467C141.294 31.7179 141.678 31.9588 142.001 32.2694C142.331 32.58 142.587 32.9445 142.771 33.3629C142.955 33.7749 143.047 34.2313 143.047 34.7321C143.047 35.2266 142.955 35.6862 142.771 36.1109C142.587 36.5293 142.331 36.8938 142.001 37.2044C141.678 37.5087 141.294 37.7464 140.85 37.9175C140.413 38.0887 139.934 38.1743 139.415 38.1743ZM139.405 36.8621C139.703 36.8621 139.976 36.8114 140.223 36.7099C140.476 36.6085 140.698 36.4627 140.889 36.2725C141.079 36.0824 141.224 35.8573 141.326 35.5974C141.434 35.3375 141.488 35.0491 141.488 34.7321C141.488 34.4152 141.434 34.1267 141.326 33.8668C141.224 33.6069 141.079 33.3819 140.889 33.1917C140.705 33.0015 140.486 32.8557 140.232 32.7543C139.979 32.6529 139.703 32.6022 139.405 32.6022C139.107 32.6022 138.831 32.6529 138.578 32.7543C138.331 32.8557 138.112 33.0015 137.922 33.1917C137.732 33.3819 137.583 33.6069 137.475 33.8668C137.373 34.1267 137.323 34.4152 137.323 34.7321C137.323 35.0427 137.373 35.3312 137.475 35.5974C137.583 35.8573 137.728 36.0824 137.912 36.2725C138.102 36.4627 138.324 36.6085 138.578 36.7099C138.831 36.8114 139.107 36.8621 139.405 36.8621ZM144.234 38.0602V31.4041H147.115C147.711 31.4041 148.224 31.5023 148.655 31.6989C149.086 31.889 149.419 32.1648 149.654 32.5261C149.888 32.8874 150.005 33.3185 150.005 33.8193C150.005 34.3137 149.888 34.7416 149.654 35.103C149.419 35.4643 149.086 35.7432 148.655 35.9397C148.224 36.1299 147.711 36.225 147.115 36.225H145.089L145.774 35.5309V38.0602H144.234ZM145.774 35.702L145.089 34.9698H147.029C147.505 34.9698 147.86 34.8684 148.094 34.6656C148.329 34.4627 148.446 34.1806 148.446 33.8193C148.446 33.4516 148.329 33.1664 148.094 32.9635C147.86 32.7607 147.505 32.6592 147.029 32.6592H145.089L145.774 31.9271V35.702ZM154.3 38.1743C153.774 38.1743 153.286 38.0887 152.836 37.9175C152.392 37.7464 152.005 37.5055 151.675 37.1949C151.352 36.8843 151.099 36.5198 150.915 36.1014C150.737 35.683 150.649 35.2266 150.649 34.7321C150.649 34.2377 150.737 33.7813 150.915 33.3629C151.099 32.9445 151.355 32.58 151.685 32.2694C152.015 31.9588 152.401 31.7179 152.845 31.5467C153.289 31.3756 153.771 31.29 154.29 31.29C154.816 31.29 155.298 31.3756 155.736 31.5467C156.179 31.7179 156.563 31.9588 156.886 32.2694C157.216 32.58 157.473 32.9445 157.656 33.3629C157.84 33.7749 157.932 34.2313 157.932 34.7321C157.932 35.2266 157.84 35.6862 157.656 36.1109C157.473 36.5293 157.216 36.8938 156.886 37.2044C156.563 37.5087 156.179 37.7464 155.736 37.9175C155.298 38.0887 154.82 38.1743 154.3 38.1743ZM154.29 36.8621C154.588 36.8621 154.861 36.8114 155.108 36.7099C155.362 36.6085 155.584 36.4627 155.774 36.2725C155.964 36.0824 156.11 35.8573 156.211 35.5974C156.319 35.3375 156.373 35.0491 156.373 34.7321C156.373 34.4152 156.319 34.1267 156.211 33.8668C156.11 33.6069 155.964 33.3819 155.774 33.1917C155.59 33.0015 155.371 32.8557 155.118 32.7543C154.864 32.6529 154.588 32.6022 154.29 32.6022C153.992 32.6022 153.717 32.6529 153.463 32.7543C153.216 32.8557 152.997 33.0015 152.807 33.1917C152.617 33.3819 152.468 33.6069 152.36 33.8668C152.259 34.1267 152.208 34.4152 152.208 34.7321C152.208 35.0427 152.259 35.3312 152.36 35.5974C152.468 35.8573 152.614 36.0824 152.797 36.2725C152.988 36.4627 153.21 36.6085 153.463 36.7099C153.717 36.8114 153.992 36.8621 154.29 36.8621ZM166.408 38.0602L164.621 34.8557L165.923 34.1046L168.186 38.0602H166.408ZM163.489 35.3787V34.095H165.562V35.3787H163.489ZM166.009 34.9033L164.583 34.7321L166.437 31.4041H168.063L166.009 34.9033ZM159.952 38.0602H158.174L160.437 34.1046L161.74 34.8557L159.952 38.0602ZM163.946 38.0602H162.434V31.4041H163.946V38.0602ZM162.881 35.3787H160.798V34.095H162.881V35.3787ZM160.361 34.9033L158.297 31.4041H159.923L161.768 34.7321L160.361 34.9033ZM173.504 37.3755V32.6592H171.222L171.193 33.6291C171.174 34.0412 171.146 34.431 171.108 34.7987C171.076 35.1664 171.025 35.5023 170.956 35.8066C170.886 36.1046 170.794 36.3581 170.68 36.5673C170.572 36.7765 170.436 36.9255 170.271 37.0142L168.626 36.805C168.854 36.8114 169.041 36.7321 169.187 36.5673C169.339 36.4025 169.459 36.1711 169.548 35.8732C169.637 35.5689 169.7 35.2139 169.738 34.8082C169.783 34.4025 169.814 33.9619 169.833 33.4865L169.91 31.4041H175.025V37.3755H173.504ZM168.407 39.4389L168.417 36.805H175.957V39.4389H174.531V38.0602H169.833V39.4389H168.407ZM178.411 34.0855H181.615V35.2836H178.411V34.0855ZM178.525 36.824H182.148V38.0602H176.994V31.4041H182.024V32.6402H178.525V36.824ZM187.956 31.4041H189.497V38.0602H187.956V31.4041ZM184.932 38.0602H183.392V31.4041H184.932V38.0602ZM188.07 35.3312H184.818V34.0285H188.07V35.3312ZM191.164 38.0602V31.4041H192.695V35.7401L195.871 31.4041H197.316V38.0602H195.795V33.7337L192.619 38.0602H191.164ZM200.39 34.0855H203.595V35.2836H200.39V34.0855ZM200.505 36.824H204.127V38.0602H198.974V31.4041H204.004V32.6402H200.505V36.824Z" fill="black"/>
<g filter="url(#filter0_d_279_790)">
<rect x="11.6217" y="6.34496" width="34.8652" height="3.16956" transform="rotate(90 11.6217 6.34496)" fill="#D9D9D9"/>
<rect x="11.6217" y="6.34496" width="34.8652" height="3.16956" transform="rotate(90 11.6217 6.34496)" fill="url(#paint0_linear_279_790)"/>
</g>
<defs>
<filter id="filter0_d_279_790" x="6.3391" y="6.34496" width="7.39564" height="39.0913" filterUnits="userSpaceOnUse" color-interpolation-filters="sRGB">
<feFlood flood-opacity="0" result="BackgroundImageFix"/>
<feColorMatrix in="SourceAlpha" type="matrix" values="0 0 0 0 0 0 0 0 0 0 0 0 0 0 0 0 0 0 127 0" result="hardAlpha"/>
<feOffset dy="2.11304"/>
<feGaussianBlur stdDeviation="1.05652"/>
<feComposite in2="hardAlpha" operator="out"/>
<feColorMatrix type="matrix" values="0 0 0 0 0 0 0 0 0 0 0 0 0 0 0 0 0 0 0.25 0"/>
<feBlend mode="normal" in2="BackgroundImageFix" result="effect1_dropShadow_279_790"/>
<feBlend mode="normal" in="SourceGraphic" in2="effect1_dropShadow_279_790" result="shape"/>
</filter>
<linearGradient id="paint0_linear_279_790" x1="11.6217" y1="6.34496" x2="46.4869" y2="6.34496" gradientUnits="userSpaceOnUse">
<stop stop-color="#008DDE"/>
<stop offset="0.53125" stop-color="#EB097B"/>
<stop offset="1" stop-color="#571273"/>
</linearGradient>
</defs>
</svg>
