<svg width="243" height="76" viewBox="0 0 243 76" fill="none" xmlns="http://www.w3.org/2000/svg">
<path d="M181.257 71.2075L199.257 37.5221L185.36 37.5221L181.257 71.2075Z" fill="white"/>
<rect y="0.162354" width="243" height="46.487" rx="10.5652" fill="white"/>
<path d="M28.8025 20.8601V16.8909L29.5209 17.5195H26.0726C24.983 17.5195 24.0431 17.3399 23.2529 16.9807C22.4627 16.6215 21.858 16.1007 21.4389 15.4182C21.0199 14.7357 20.8103 13.9216 20.8103 12.9757C20.8103 11.9939 21.0318 11.1557 21.4749 10.4613C21.9298 9.75484 22.5644 9.21604 23.3786 8.84487C24.1928 8.47369 25.1507 8.28811 26.2522 8.28811H31.6761V20.8601H28.8025ZM20.8463 20.8601L23.9713 16.3521H26.9167L23.9174 20.8601H20.8463ZM28.8025 15.957V9.90451L29.5209 10.6588H26.3241C25.4979 10.6588 24.8633 10.8504 24.4203 11.2335C23.9893 11.6167 23.7737 12.1854 23.7737 12.9397C23.7737 13.6701 23.9833 14.2329 24.4023 14.628C24.8214 15.0231 25.438 15.2207 26.2522 15.2207H29.5209L28.8025 15.957ZM34.8259 20.8601V8.28811H40.2677C41.3932 8.28811 42.3631 8.47369 43.1773 8.84487C43.9915 9.20407 44.6201 9.72491 45.0631 10.4074C45.5061 11.0899 45.7276 11.9041 45.7276 12.8499C45.7276 13.7839 45.5061 14.5921 45.0631 15.2745C44.6201 15.957 43.9915 16.4839 43.1773 16.855C42.3631 17.2142 41.3932 17.3938 40.2677 17.3938H36.4423L37.7354 16.0827V20.8601H34.8259ZM37.7354 16.406L36.4423 15.0231H40.1061C41.0041 15.0231 41.6746 14.8315 42.1176 14.4484C42.5606 14.0652 42.7821 13.5324 42.7821 12.8499C42.7821 12.1555 42.5606 11.6167 42.1176 11.2335C41.6746 10.8504 41.0041 10.6588 40.1061 10.6588H36.4423L37.7354 9.27591V16.406ZM45.5967 20.8601L51.2002 8.28811H54.0738L59.6953 20.8601H56.6421L52.0443 9.76083H53.1938L48.578 20.8601H45.5967ZM48.3984 18.1661L49.1707 15.957H55.6363L56.4266 18.1661H48.3984ZM69.4983 20.8601L65.5831 14.8076L67.9358 13.3887L72.803 20.8601H69.4983ZM61.3265 20.8601V8.28811H64.2181V20.8601H61.3265ZM63.374 15.7954V13.3708H67.7562V15.7954H63.374ZM68.2052 14.8974L65.5292 14.5741L69.6061 8.28811H72.6773L68.2052 14.8974ZM76.7376 20.8601V9.99431L77.4021 10.6588H72.7326V8.28811H83.6343V10.6588H78.9647L79.6112 9.99431V20.8601H76.7376ZM85.4611 20.8601V8.28811H88.3527V16.4779L94.3513 8.28811H97.0813V20.8601H94.2077V12.6883L88.209 20.8601H85.4611ZM108.832 8.28811H111.742V20.8601H108.832V8.28811ZM103.121 20.8601H100.211V8.28811H103.121V20.8601ZM109.048 15.7056H102.905V13.2451H109.048V15.7056ZM120.836 21.0756C119.867 21.0756 118.963 20.92 118.124 20.6087C117.298 20.2854 116.58 19.8304 115.969 19.2437C115.359 18.657 114.88 17.9685 114.532 17.1783C114.197 16.3881 114.03 15.52 114.03 14.5741C114.03 13.6282 114.197 12.7601 114.532 11.9699C114.88 11.1797 115.359 10.4912 115.969 9.90451C116.592 9.31781 117.316 8.86881 118.142 8.55751C118.969 8.23423 119.873 8.07259 120.854 8.07259C121.944 8.07259 122.926 8.26416 123.8 8.64731C124.686 9.01848 125.428 9.56925 126.027 10.2996L124.159 12.0238C123.728 11.5329 123.249 11.1677 122.722 10.9282C122.195 10.6768 121.621 10.5511 120.998 10.5511C120.411 10.5511 119.873 10.6469 119.382 10.8384C118.891 11.03 118.466 11.3054 118.107 11.6646C117.747 12.0238 117.466 12.4488 117.262 12.9397C117.071 13.4307 116.975 13.9754 116.975 14.5741C116.975 15.1728 117.071 15.7176 117.262 16.2085C117.466 16.6994 117.747 17.1244 118.107 17.4836C118.466 17.8428 118.891 18.1182 119.382 18.3098C119.873 18.5014 120.411 18.5971 120.998 18.5971C121.621 18.5971 122.195 18.4774 122.722 18.2379C123.249 17.9865 123.728 17.6093 124.159 17.1065L126.027 18.8306C125.428 19.561 124.686 20.1178 123.8 20.5009C122.926 20.8841 121.938 21.0756 120.836 21.0756ZM136.059 20.8601L132.144 14.8076L134.497 13.3887L139.364 20.8601H136.059ZM127.887 20.8601V8.28811H130.779V20.8601H127.887ZM129.935 15.7954V13.3708H134.317V15.7954H129.935ZM134.766 14.8974L132.09 14.5741L136.167 8.28811H139.238L134.766 14.8974ZM146.691 21.0756C145.697 21.0756 144.775 20.914 143.925 20.5907C143.087 20.2674 142.356 19.8124 141.734 19.2257C141.123 18.6391 140.644 17.9506 140.297 17.1603C139.962 16.3701 139.794 15.508 139.794 14.5741C139.794 13.6402 139.962 12.7781 140.297 11.9879C140.644 11.1976 141.129 10.5092 141.752 9.92247C142.374 9.33577 143.105 8.88079 143.943 8.55751C144.781 8.23423 145.691 8.07259 146.673 8.07259C147.667 8.07259 148.577 8.23423 149.403 8.55751C150.241 8.88079 150.965 9.33577 151.576 9.92247C152.198 10.5092 152.683 11.1976 153.031 11.9879C153.378 12.7661 153.551 13.6282 153.551 14.5741C153.551 15.508 153.378 16.3761 153.031 17.1783C152.683 17.9685 152.198 18.657 151.576 19.2437C150.965 19.8184 150.241 20.2674 149.403 20.5907C148.577 20.914 147.673 21.0756 146.691 21.0756ZM146.673 18.5971C147.235 18.5971 147.75 18.5014 148.217 18.3098C148.696 18.1182 149.115 17.8428 149.475 17.4836C149.834 17.1244 150.109 16.6994 150.301 16.2085C150.504 15.7176 150.606 15.1728 150.606 14.5741C150.606 13.9754 150.504 13.4307 150.301 12.9397C150.109 12.4488 149.834 12.0238 149.475 11.6646C149.127 11.3054 148.714 11.03 148.235 10.8384C147.756 10.6469 147.235 10.5511 146.673 10.5511C146.11 10.5511 145.589 10.6469 145.11 10.8384C144.643 11.03 144.23 11.3054 143.871 11.6646C143.512 12.0238 143.23 12.4488 143.027 12.9397C142.835 13.4307 142.74 13.9754 142.74 14.5741C142.74 15.1608 142.835 15.7056 143.027 16.2085C143.23 16.6994 143.506 17.1244 143.853 17.4836C144.212 17.8428 144.631 18.1182 145.11 18.3098C145.589 18.5014 146.11 18.5971 146.673 18.5971ZM158.469 13.3528H164.521V15.6158H158.469V13.3528ZM158.684 18.5253H165.527V20.8601H155.793V8.28811H165.294V10.6229H158.684V18.5253Z" fill="black"/>
<path d="M26.5219 31.0323H28.0623V37.6884H26.5219V31.0323ZM23.4982 37.6884H21.9577V31.0323H23.4982V37.6884ZM26.636 34.9594H23.3841V33.6567H26.636V34.9594ZM31.1468 33.7137H34.3512V34.9118H31.1468V33.7137ZM31.2609 36.4522H34.8837V37.6884H29.73V31.0323H34.7601V32.2684H31.2609V36.4522ZM39.6462 37.27C38.784 37.27 38.0519 37.1559 37.4496 36.9277C36.8538 36.6995 36.4005 36.3698 36.0899 35.9388C35.7793 35.5014 35.624 34.9689 35.624 34.3413C35.624 33.7137 35.7793 33.1844 36.0899 32.7533C36.4005 32.3159 36.8538 31.9831 37.4496 31.7549C38.0519 31.5267 38.784 31.4126 39.6462 31.4126C39.6588 31.4126 39.6937 31.4126 39.7507 31.4126C39.8141 31.4126 39.8744 31.4126 39.9314 31.4126C39.9948 31.4126 40.0297 31.4126 40.036 31.4126C40.8918 31.4126 41.6145 31.5267 42.204 31.7549C42.7999 31.9831 43.2499 32.3159 43.5542 32.7533C43.8585 33.1907 44.0106 33.7201 44.0106 34.3413C44.0106 34.9562 43.8585 35.4855 43.5542 35.9292C43.2563 36.3666 42.8157 36.6995 42.2325 36.9277C41.6557 37.1559 40.9488 37.27 40.1121 37.27C40.0931 37.27 40.0487 37.27 39.979 37.27C39.9092 37.27 39.8395 37.27 39.7698 37.27C39.7064 37.27 39.6652 37.27 39.6462 37.27ZM39.7888 36.0814C39.8078 36.0814 39.8332 36.0814 39.8649 36.0814C39.8965 36.0814 39.9187 36.0814 39.9314 36.0814C40.5146 36.0814 40.9964 36.018 41.3767 35.8912C41.7634 35.7581 42.0519 35.5647 42.242 35.3112C42.4322 35.0513 42.5273 34.7248 42.5273 34.3318C42.5273 33.9388 42.429 33.6155 42.2325 33.3619C42.036 33.1083 41.7476 32.9213 41.3672 32.8009C40.9932 32.6741 40.521 32.6107 39.9504 32.6107C39.9378 32.6107 39.9124 32.6107 39.8744 32.6107C39.8427 32.6107 39.8141 32.6107 39.7888 32.6107C39.1866 32.6107 38.6889 32.6709 38.2959 32.7914C37.9029 32.9118 37.6081 33.102 37.4116 33.3619C37.2151 33.6155 37.1168 33.9419 37.1168 34.3413C37.1168 34.7407 37.2214 35.0703 37.4306 35.3302C37.6398 35.5838 37.9409 35.7739 38.334 35.9007C38.7333 36.0212 39.2183 36.0814 39.7888 36.0814ZM39.1137 37.9831V30.747H40.5305V37.9831H39.1137ZM46.506 37.6884V31.9356L46.8578 32.2874H44.3856V31.0323H50.1573V32.2874H47.6851L48.0274 31.9356V37.6884H46.506ZM52.5414 33.7137H55.7458V34.9118H52.5414V33.7137ZM52.6555 36.4522H56.2783V37.6884H51.1246V31.0323H56.1547V32.2684H52.6555V36.4522ZM57.5225 37.6884V31.0323H62.2198L62.2103 32.2874H58.6921L59.0439 31.9356L59.0534 37.6884H57.5225ZM61.1078 37.6884L64.0745 31.0323H65.5959L68.5721 37.6884H66.9556L64.5214 31.812H65.13L62.6862 37.6884H61.1078ZM62.5912 36.2621L63 35.0925H66.4232L66.8415 36.2621H62.5912ZM68.8557 37.0988L69.3312 35.9958C69.6164 36.167 69.9207 36.3001 70.244 36.3952C70.5737 36.4839 70.8938 36.5346 71.2044 36.5473C71.5214 36.5537 71.8066 36.522 72.0602 36.4522C72.3201 36.3825 72.5261 36.2779 72.6782 36.1384C72.8367 35.999 72.916 35.8215 72.916 35.606C72.916 35.3524 72.8114 35.1654 72.6022 35.0449C72.393 34.9182 72.1141 34.8548 71.7654 34.8548H70.1394V33.6947H71.6513C71.9619 33.6947 72.2028 33.6313 72.374 33.5045C72.5515 33.3777 72.6402 33.2034 72.6402 32.9815C72.6402 32.7914 72.5768 32.6392 72.45 32.5251C72.3233 32.4047 72.1489 32.3159 71.9271 32.2589C71.7115 32.2018 71.4675 32.1765 71.1949 32.1828C70.9223 32.1892 70.6402 32.2335 70.3486 32.3159C70.057 32.3983 69.7781 32.5125 69.5118 32.6583L69.0459 31.4697C69.477 31.2478 69.9302 31.0957 70.4057 31.0132C70.8874 30.9245 71.3502 30.9023 71.7939 30.9467C72.244 30.9847 72.6497 31.0861 73.011 31.251C73.3724 31.4094 73.6608 31.6186 73.8763 31.8785C74.0919 32.1384 74.1996 32.4459 74.1996 32.8009C74.1996 33.1178 74.1172 33.3999 73.9524 33.6472C73.7876 33.8944 73.5562 34.0846 73.2583 34.2177C72.9667 34.3508 72.6307 34.4174 72.2504 34.4174L72.2884 34.075C72.7321 34.075 73.1156 34.1511 73.4389 34.3033C73.7686 34.4491 74.0221 34.6551 74.1996 34.9213C74.3835 35.1812 74.4754 35.4823 74.4754 35.8247C74.4754 36.1416 74.3898 36.4269 74.2187 36.6804C74.0538 36.9277 73.8256 37.1369 73.534 37.308C73.2424 37.4792 72.9096 37.6059 72.5356 37.6884C72.1616 37.7708 71.7622 37.8056 71.3375 37.793C70.9191 37.7803 70.4976 37.7201 70.0729 37.6123C69.6481 37.4982 69.2424 37.327 68.8557 37.0988ZM78.8803 37.8025C78.3541 37.8025 77.866 37.7169 77.416 37.5457C76.9722 37.3746 76.5855 37.1337 76.2559 36.8231C75.9326 36.5124 75.679 36.1479 75.4952 35.7296C75.3177 35.3112 75.229 34.8548 75.229 34.3603C75.229 33.8659 75.3177 33.4094 75.4952 32.9911C75.679 32.5727 75.9358 32.2082 76.2654 31.8976C76.595 31.5869 76.9817 31.3461 77.4255 31.1749C77.8692 31.0037 78.351 30.9182 78.8708 30.9182C79.3969 30.9182 79.8787 31.0037 80.3161 31.1749C80.7598 31.3461 81.1434 31.5869 81.4667 31.8976C81.7963 32.2082 82.053 32.5727 82.2369 32.9911C82.4207 33.4031 82.5126 33.8595 82.5126 34.3603C82.5126 34.8548 82.4207 35.3144 82.2369 35.7391C82.053 36.1575 81.7963 36.522 81.4667 36.8326C81.1434 37.1369 80.7598 37.3746 80.3161 37.5457C79.8787 37.7169 79.4001 37.8025 78.8803 37.8025ZM78.8708 36.4903C79.1687 36.4903 79.4413 36.4395 79.6885 36.3381C79.9421 36.2367 80.164 36.0909 80.3541 35.9007C80.5443 35.7105 80.6901 35.4855 80.7915 35.2256C80.8993 34.9657 80.9532 34.6773 80.9532 34.3603C80.9532 34.0434 80.8993 33.7549 80.7915 33.495C80.6901 33.2351 80.5443 33.0101 80.3541 32.8199C80.1703 32.6297 79.9516 32.4839 79.698 32.3825C79.4445 32.2811 79.1687 32.2304 78.8708 32.2304C78.5728 32.2304 78.2971 32.2811 78.0435 32.3825C77.7963 32.4839 77.5776 32.6297 77.3874 32.8199C77.1973 33.0101 77.0483 33.2351 76.9405 33.495C76.8391 33.7549 76.7884 34.0434 76.7884 34.3603C76.7884 34.6709 76.8391 34.9594 76.9405 35.2256C77.0483 35.4855 77.1941 35.7105 77.3779 35.9007C77.5681 36.0909 77.79 36.2367 78.0435 36.3381C78.2971 36.4395 78.5728 36.4903 78.8708 36.4903ZM83.6993 37.6884V31.0323H86.7991C87.5725 31.0323 88.1747 31.1812 88.6058 31.4792C89.0368 31.7771 89.2523 32.2018 89.2523 32.7533C89.2523 33.2985 89.0495 33.7232 88.6438 34.0275C88.2381 34.3254 87.6993 34.4744 87.0273 34.4744L87.208 34.075C87.956 34.075 88.536 34.224 88.9481 34.522C89.3601 34.8199 89.5661 35.251 89.5661 35.8151C89.5661 36.3983 89.3443 36.8579 88.9005 37.1939C88.4631 37.5235 87.8229 37.6884 86.9798 37.6884H83.6993ZM85.2302 36.5473H86.9227C87.2777 36.5473 87.5471 36.4776 87.731 36.3381C87.9148 36.1987 88.0067 35.9831 88.0067 35.6915C88.0067 35.4126 87.9148 35.2066 87.731 35.0735C87.5471 34.934 87.2777 34.8643 86.9227 34.8643H85.2302V36.5473ZM85.2302 33.7898H86.666C87.002 33.7898 87.2555 33.7232 87.4267 33.5901C87.5978 33.4506 87.6834 33.2478 87.6834 32.9815C87.6834 32.7153 87.5978 32.5156 87.4267 32.3825C87.2555 32.243 87.002 32.1733 86.666 32.1733H85.2302V33.7898ZM93.9698 37.8025C93.4436 37.8025 92.9555 37.7169 92.5054 37.5457C92.0617 37.3746 91.675 37.1337 91.3454 36.8231C91.0221 36.5124 90.7685 36.1479 90.5847 35.7296C90.4072 35.3112 90.3184 34.8548 90.3184 34.3603C90.3184 33.8659 90.4072 33.4094 90.5847 32.9911C90.7685 32.5727 91.0253 32.2082 91.3549 31.8976C91.6845 31.5869 92.0712 31.3461 92.5149 31.1749C92.9587 31.0037 93.4405 30.9182 93.9603 30.9182C94.4864 30.9182 94.9682 31.0037 95.4056 31.1749C95.8493 31.3461 96.2328 31.5869 96.5561 31.8976C96.8858 32.2082 97.1425 32.5727 97.3263 32.9911C97.5102 33.4031 97.6021 33.8595 97.6021 34.3603C97.6021 34.8548 97.5102 35.3144 97.3263 35.7391C97.1425 36.1575 96.8858 36.522 96.5561 36.8326C96.2328 37.1369 95.8493 37.3746 95.4056 37.5457C94.9682 37.7169 94.4896 37.8025 93.9698 37.8025ZM93.9603 36.4903C94.2582 36.4903 94.5308 36.4395 94.778 36.3381C95.0316 36.2367 95.2535 36.0909 95.4436 35.9007C95.6338 35.7105 95.7796 35.4855 95.881 35.2256C95.9888 34.9657 96.0427 34.6773 96.0427 34.3603C96.0427 34.0434 95.9888 33.7549 95.881 33.495C95.7796 33.2351 95.6338 33.0101 95.4436 32.8199C95.2598 32.6297 95.0411 32.4839 94.7875 32.3825C94.534 32.2811 94.2582 32.2304 93.9603 32.2304C93.6623 32.2304 93.3866 32.2811 93.133 32.3825C92.8858 32.4839 92.6671 32.6297 92.4769 32.8199C92.2867 33.0101 92.1378 33.2351 92.03 33.495C91.9286 33.7549 91.8779 34.0434 91.8779 34.3603C91.8779 34.6709 91.9286 34.9594 92.03 35.2256C92.1378 35.4855 92.2836 35.7105 92.4674 35.9007C92.6576 36.0909 92.8794 36.2367 93.133 36.3381C93.3866 36.4395 93.6623 36.4903 93.9603 36.4903ZM100.206 33.7137H103.41V34.9118H100.206V33.7137ZM100.32 36.4522H103.942V37.6884H98.7888V31.0323H103.819V32.2684H100.32V36.4522ZM107.88 37.6884V31.0323H109.154L111.987 35.7296H111.312L114.098 31.0323H115.372L115.382 37.6884H113.937L113.927 33.2478H114.203L111.968 36.9847H111.284L109.002 33.2478H109.325V37.6884H107.88ZM118.452 33.7137H121.657V34.9118H118.452V33.7137ZM118.566 36.4522H122.189V37.6884H117.035V31.0323H122.066V32.2684H118.566V36.4522ZM126.581 37.8025C126.067 37.8025 125.589 37.7201 125.145 37.5552C124.708 37.3841 124.327 37.1432 124.004 36.8326C123.681 36.522 123.427 36.1575 123.243 35.7391C123.066 35.3207 122.977 34.8611 122.977 34.3603C122.977 33.8595 123.066 33.3999 123.243 32.9815C123.427 32.5632 123.681 32.1987 124.004 31.8881C124.334 31.5774 124.717 31.3397 125.154 31.1749C125.592 31.0037 126.07 30.9182 126.59 30.9182C127.167 30.9182 127.687 31.0196 128.15 31.2224C128.619 31.419 129.012 31.7106 129.329 32.0972L128.34 33.0101C128.112 32.7502 127.858 32.5568 127.579 32.43C127.3 32.2969 126.996 32.2304 126.666 32.2304C126.356 32.2304 126.07 32.2811 125.811 32.3825C125.551 32.4839 125.326 32.6297 125.135 32.8199C124.945 33.0101 124.796 33.2351 124.689 33.495C124.587 33.7549 124.536 34.0434 124.536 34.3603C124.536 34.6773 124.587 34.9657 124.689 35.2256C124.796 35.4855 124.945 35.7105 125.135 35.9007C125.326 36.0909 125.551 36.2367 125.811 36.3381C126.07 36.4395 126.356 36.4903 126.666 36.4903C126.996 36.4903 127.3 36.4269 127.579 36.3001C127.858 36.167 128.112 35.9673 128.34 35.701L129.329 36.6139C129.012 37.0006 128.619 37.2953 128.15 37.4982C127.687 37.701 127.164 37.8025 126.581 37.8025ZM131.704 37.6884V31.9356L132.055 32.2874H129.583V31.0323H135.355V32.2874H132.883L133.225 31.9356V37.6884H131.704ZM139.415 37.8025C138.889 37.8025 138.4 37.7169 137.95 37.5457C137.507 37.3746 137.12 37.1337 136.79 36.8231C136.467 36.5124 136.213 36.1479 136.03 35.7296C135.852 35.3112 135.763 34.8548 135.763 34.3603C135.763 33.8659 135.852 33.4094 136.03 32.9911C136.213 32.5727 136.47 32.2082 136.8 31.8976C137.129 31.5869 137.516 31.3461 137.96 31.1749C138.404 31.0037 138.885 30.9182 139.405 30.9182C139.931 30.9182 140.413 31.0037 140.85 31.1749C141.294 31.3461 141.678 31.5869 142.001 31.8976C142.331 32.2082 142.587 32.5727 142.771 32.9911C142.955 33.4031 143.047 33.8595 143.047 34.3603C143.047 34.8548 142.955 35.3144 142.771 35.7391C142.587 36.1575 142.331 36.522 142.001 36.8326C141.678 37.1369 141.294 37.3746 140.85 37.5457C140.413 37.7169 139.934 37.8025 139.415 37.8025ZM139.405 36.4903C139.703 36.4903 139.976 36.4395 140.223 36.3381C140.476 36.2367 140.698 36.0909 140.889 35.9007C141.079 35.7105 141.224 35.4855 141.326 35.2256C141.434 34.9657 141.488 34.6773 141.488 34.3603C141.488 34.0434 141.434 33.7549 141.326 33.495C141.224 33.2351 141.079 33.0101 140.889 32.8199C140.705 32.6297 140.486 32.4839 140.232 32.3825C139.979 32.2811 139.703 32.2304 139.405 32.2304C139.107 32.2304 138.831 32.2811 138.578 32.3825C138.331 32.4839 138.112 32.6297 137.922 32.8199C137.732 33.0101 137.583 33.2351 137.475 33.495C137.373 33.7549 137.323 34.0434 137.323 34.3603C137.323 34.6709 137.373 34.9594 137.475 35.2256C137.583 35.4855 137.728 35.7105 137.912 35.9007C138.102 36.0909 138.324 36.2367 138.578 36.3381C138.831 36.4395 139.107 36.4903 139.405 36.4903ZM144.234 37.6884V31.0323H147.115C147.711 31.0323 148.224 31.1305 148.655 31.327C149.086 31.5172 149.419 31.793 149.654 32.1543C149.888 32.5156 150.005 32.9467 150.005 33.4475C150.005 33.9419 149.888 34.3698 149.654 34.7311C149.419 35.0925 149.086 35.3714 148.655 35.5679C148.224 35.7581 147.711 35.8532 147.115 35.8532H145.089L145.774 35.159V37.6884H144.234ZM145.774 35.3302L145.089 34.598H147.029C147.505 34.598 147.86 34.4966 148.094 34.2937C148.329 34.0909 148.446 33.8088 148.446 33.4475C148.446 33.0798 148.329 32.7945 148.094 32.5917C147.86 32.3888 147.505 32.2874 147.029 32.2874H145.089L145.774 31.5552V35.3302ZM154.3 37.8025C153.774 37.8025 153.286 37.7169 152.836 37.5457C152.392 37.3746 152.005 37.1337 151.675 36.8231C151.352 36.5124 151.099 36.1479 150.915 35.7296C150.737 35.3112 150.649 34.8548 150.649 34.3603C150.649 33.8659 150.737 33.4094 150.915 32.9911C151.099 32.5727 151.355 32.2082 151.685 31.8976C152.015 31.5869 152.401 31.3461 152.845 31.1749C153.289 31.0037 153.771 30.9182 154.29 30.9182C154.816 30.9182 155.298 31.0037 155.736 31.1749C156.179 31.3461 156.563 31.5869 156.886 31.8976C157.216 32.2082 157.473 32.5727 157.656 32.9911C157.84 33.4031 157.932 33.8595 157.932 34.3603C157.932 34.8548 157.84 35.3144 157.656 35.7391C157.473 36.1575 157.216 36.522 156.886 36.8326C156.563 37.1369 156.179 37.3746 155.736 37.5457C155.298 37.7169 154.82 37.8025 154.3 37.8025ZM154.29 36.4903C154.588 36.4903 154.861 36.4395 155.108 36.3381C155.362 36.2367 155.584 36.0909 155.774 35.9007C155.964 35.7105 156.11 35.4855 156.211 35.2256C156.319 34.9657 156.373 34.6773 156.373 34.3603C156.373 34.0434 156.319 33.7549 156.211 33.495C156.11 33.2351 155.964 33.0101 155.774 32.8199C155.59 32.6297 155.371 32.4839 155.118 32.3825C154.864 32.2811 154.588 32.2304 154.29 32.2304C153.992 32.2304 153.717 32.2811 153.463 32.3825C153.216 32.4839 152.997 32.6297 152.807 32.8199C152.617 33.0101 152.468 33.2351 152.36 33.495C152.259 33.7549 152.208 34.0434 152.208 34.3603C152.208 34.6709 152.259 34.9594 152.36 35.2256C152.468 35.4855 152.614 35.7105 152.797 35.9007C152.988 36.0909 153.21 36.2367 153.463 36.3381C153.717 36.4395 153.992 36.4903 154.29 36.4903ZM166.408 37.6884L164.621 34.4839L165.923 33.7327L168.186 37.6884H166.408ZM163.489 35.0069V33.7232H165.562V35.0069H163.489ZM166.009 34.5315L164.583 34.3603L166.437 31.0323H168.063L166.009 34.5315ZM159.952 37.6884H158.174L160.437 33.7327L161.74 34.4839L159.952 37.6884ZM163.946 37.6884H162.434V31.0323H163.946V37.6884ZM162.881 35.0069H160.798V33.7232H162.881V35.0069ZM160.361 34.5315L158.297 31.0323H159.923L161.768 34.3603L160.361 34.5315ZM173.504 37.0037V32.2874H171.222L171.193 33.2573C171.174 33.6693 171.146 34.0592 171.108 34.4269C171.076 34.7945 171.025 35.1305 170.956 35.4348C170.886 35.7327 170.794 35.9863 170.68 36.1955C170.572 36.4047 170.436 36.5537 170.271 36.6424L168.626 36.4332C168.854 36.4395 169.041 36.3603 169.187 36.1955C169.339 36.0307 169.459 35.7993 169.548 35.5014C169.637 35.1971 169.7 34.8421 169.738 34.4364C169.783 34.0307 169.814 33.5901 169.833 33.1147L169.91 31.0323H175.025V37.0037H173.504ZM168.407 39.0671L168.417 36.4332H175.957V39.0671H174.531V37.6884H169.833V39.0671H168.407ZM178.411 33.7137H181.615V34.9118H178.411V33.7137ZM178.525 36.4522H182.148V37.6884H176.994V31.0323H182.024V32.2684H178.525V36.4522ZM187.956 31.0323H189.497V37.6884H187.956V31.0323ZM184.932 37.6884H183.392V31.0323H184.932V37.6884ZM188.07 34.9594H184.818V33.6567H188.07V34.9594ZM191.164 37.6884V31.0323H192.695V35.3682L195.871 31.0323H197.316V37.6884H195.795V33.3619L192.619 37.6884H191.164ZM200.39 33.7137H203.595V34.9118H200.39V33.7137ZM200.505 36.4522H204.127V37.6884H198.974V31.0323H204.004V32.2684H200.505V36.4522Z" fill="black"/>
<g filter="url(#filter0_d_296_877)">
<rect x="11.6217" y="5.97314" width="34.8652" height="3.16956" transform="rotate(90 11.6217 5.97314)" fill="#D9D9D9"/>
<rect x="11.6217" y="5.97314" width="34.8652" height="3.16956" transform="rotate(90 11.6217 5.97314)" fill="url(#paint0_linear_296_877)"/>
</g>
<defs>
<filter id="filter0_d_296_877" x="6.3391" y="5.97314" width="7.39564" height="39.0913" filterUnits="userSpaceOnUse" color-interpolation-filters="sRGB">
<feFlood flood-opacity="0" result="BackgroundImageFix"/>
<feColorMatrix in="SourceAlpha" type="matrix" values="0 0 0 0 0 0 0 0 0 0 0 0 0 0 0 0 0 0 127 0" result="hardAlpha"/>
<feOffset dy="2.11304"/>
<feGaussianBlur stdDeviation="1.05652"/>
<feComposite in2="hardAlpha" operator="out"/>
<feColorMatrix type="matrix" values="0 0 0 0 0 0 0 0 0 0 0 0 0 0 0 0 0 0 0.25 0"/>
<feBlend mode="normal" in2="BackgroundImageFix" result="effect1_dropShadow_296_877"/>
<feBlend mode="normal" in="SourceGraphic" in2="effect1_dropShadow_296_877" result="shape"/>
</filter>
<linearGradient id="paint0_linear_296_877" x1="11.6217" y1="5.97314" x2="46.4869" y2="5.97314" gradientUnits="userSpaceOnUse">
<stop stop-color="#008DDE"/>
<stop offset="0.53125" stop-color="#EB097B"/>
<stop offset="1" stop-color="#571273"/>
</linearGradient>
</defs>
</svg>
