<svg width="243" height="83" viewBox="0 0 243 83" fill="none" xmlns="http://www.w3.org/2000/svg">
<path d="M10.037 77.6602L81.3522 44.9044L53.8876 44.9044L10.037 77.6602Z" fill="white"/>
<rect y="0.534088" width="243" height="46.487" rx="10.5652" fill="white"/>
<path d="M22.0675 18.8612C22.762 19.0647 23.3427 19.1246 23.8097 19.0408C24.2886 18.945 24.7136 18.6097 25.0848 18.035L25.6955 17.1191L25.9649 16.8137L30.1316 8.6599H32.9872L27.6351 18.6097C27.1562 19.5077 26.5875 20.1962 25.9289 20.6751C25.2824 21.1541 24.57 21.4235 23.7917 21.4833C23.0134 21.5552 22.2052 21.4175 21.3671 21.0703L22.0675 18.8612ZM25.911 19.2383L20.2356 8.6599H23.3427L27.5094 17.1011L25.911 19.2383ZM34.3699 21.2319V8.6599H39.8117C40.9372 8.6599 41.9071 8.84549 42.7213 9.21666C43.5354 9.57586 44.164 10.0967 44.6071 10.7792C45.0501 11.4617 45.2716 12.2758 45.2716 13.2217C45.2716 14.1557 45.0501 14.9639 44.6071 15.6463C44.164 16.3288 43.5354 16.8556 42.7213 17.2268C41.9071 17.586 40.9372 17.7656 39.8117 17.7656H35.9863L37.2794 16.4545V21.2319H34.3699ZM37.2794 16.7778L35.9863 15.3949H39.6501C40.5481 15.3949 41.2186 15.2033 41.6616 14.8202C42.1046 14.437 42.3261 13.9042 42.3261 13.2217C42.3261 12.5273 42.1046 11.9885 41.6616 11.6053C41.2186 11.2222 40.5481 11.0306 39.6501 11.0306H35.9863L37.2794 9.6477V16.7778ZM49.8669 13.7246H55.9195V15.9876H49.8669V13.7246ZM50.0825 18.8971H56.9252V21.2319H47.1909V8.6599H56.6917V10.9947H50.0825V18.8971ZM67.8961 8.6599H70.8056V21.2319H67.8961V8.6599ZM62.1848 21.2319H59.2753V8.6599H62.1848V21.2319ZM68.1116 16.0774H61.9693V13.6169H68.1116V16.0774ZM73.9555 21.2319V8.6599H82.8278L82.8098 11.0306H76.1646L76.8291 10.3661L76.8471 21.2319H73.9555ZM89.338 21.4474C88.3442 21.4474 87.4222 21.2858 86.5721 20.9625C85.734 20.6392 85.0036 20.1842 84.381 19.5975C83.7704 19.0108 83.2914 18.3224 82.9442 17.5321C82.609 16.7419 82.4413 15.8798 82.4413 14.9459C82.4413 14.012 82.609 13.1499 82.9442 12.3597C83.2914 11.5694 83.7764 10.881 84.399 10.2943C85.0216 9.70757 85.752 9.25258 86.5901 8.9293C87.4282 8.60602 88.3382 8.44438 89.32 8.44438C90.3138 8.44438 91.2238 8.60602 92.0499 8.9293C92.8881 9.25258 93.6125 9.70757 94.2231 10.2943C94.8457 10.881 95.3306 11.5694 95.6779 12.3597C96.0251 13.1379 96.1987 14 96.1987 14.9459C96.1987 15.8798 96.0251 16.7479 95.6779 17.5501C95.3306 18.3403 94.8457 19.0288 94.2231 19.6155C93.6125 20.1902 92.8881 20.6392 92.0499 20.9625C91.2238 21.2858 90.3198 21.4474 89.338 21.4474ZM89.32 18.9689C89.8828 18.9689 90.3976 18.8732 90.8646 18.6816C91.3435 18.49 91.7626 18.2146 92.1218 17.8554C92.481 17.4962 92.7564 17.0712 92.9479 16.5803C93.1515 16.0894 93.2533 15.5446 93.2533 14.9459C93.2533 14.3472 93.1515 13.8024 92.9479 13.3115C92.7564 12.8206 92.481 12.3956 92.1218 12.0364C91.7745 11.6772 91.3615 11.4018 90.8825 11.2102C90.4036 11.0187 89.8828 10.9229 89.32 10.9229C88.7573 10.9229 88.2364 11.0187 87.7575 11.2102C87.2905 11.4018 86.8775 11.6772 86.5183 12.0364C86.1591 12.3956 85.8777 12.8206 85.6741 13.3115C85.4826 13.8024 85.3868 14.3472 85.3868 14.9459C85.3868 15.5326 85.4826 16.0774 85.6741 16.5803C85.8777 17.0712 86.1531 17.4962 86.5003 17.8554C86.8595 18.2146 87.2786 18.49 87.7575 18.6816C88.2364 18.8732 88.7573 18.9689 89.32 18.9689ZM98.44 21.2319V8.6599H101.332V16.8497L107.33 8.6599H110.06V21.2319H107.187V13.0601L101.188 21.2319H98.44ZM104.241 7.8517C103.044 7.8517 102.164 7.61224 101.601 7.1333C101.05 6.65437 100.769 5.97788 100.757 5.10382H102.75C102.762 5.53486 102.888 5.86413 103.128 6.09162C103.379 6.30714 103.75 6.4149 104.241 6.4149C104.72 6.4149 105.085 6.30714 105.337 6.09162C105.588 5.86413 105.72 5.53486 105.732 5.10382H107.725C107.713 5.97788 107.426 6.65437 106.863 7.1333C106.301 7.61224 105.426 7.8517 104.241 7.8517ZM119.135 21.4474C118.165 21.4474 117.261 21.2918 116.423 20.9805C115.597 20.6572 114.879 20.2022 114.268 19.6155C113.657 19.0288 113.178 18.3403 112.831 17.5501C112.496 16.7599 112.328 15.8918 112.328 14.9459C112.328 14 112.496 13.1319 112.831 12.3417C113.178 11.5515 113.657 10.863 114.268 10.2763C114.891 9.68961 115.615 9.24061 116.441 8.9293C117.267 8.60602 118.171 8.44438 119.153 8.44438C120.243 8.44438 121.225 8.63596 122.099 9.0191C122.985 9.39028 123.727 9.94105 124.326 10.6714L122.458 12.3956C122.027 11.9047 121.548 11.5395 121.021 11.3C120.494 11.0486 119.919 10.9229 119.297 10.9229C118.71 10.9229 118.171 11.0187 117.68 11.2102C117.189 11.4018 116.764 11.6772 116.405 12.0364C116.046 12.3956 115.765 12.8206 115.561 13.3115C115.37 13.8024 115.274 14.3472 115.274 14.9459C115.274 15.5446 115.37 16.0894 115.561 16.5803C115.765 17.0712 116.046 17.4962 116.405 17.8554C116.764 18.2146 117.189 18.49 117.68 18.6816C118.171 18.8732 118.71 18.9689 119.297 18.9689C119.919 18.9689 120.494 18.8492 121.021 18.6097C121.548 18.3583 122.027 17.9811 122.458 17.4783L124.326 19.2024C123.727 19.9328 122.985 20.4896 122.099 20.8727C121.225 21.2558 120.237 21.4474 119.135 21.4474ZM134.358 21.2319L130.443 15.1794L132.795 13.7605L137.662 21.2319H134.358ZM126.186 21.2319V8.6599H129.078V21.2319H126.186ZM128.233 16.1672V13.7426H132.616V16.1672H128.233ZM133.065 15.2692L130.389 14.9459L134.466 8.6599H137.537L133.065 15.2692ZM144.989 21.4474C143.996 21.4474 143.074 21.2858 142.224 20.9625C141.385 20.6392 140.655 20.1842 140.032 19.5975C139.422 19.0108 138.943 18.3224 138.596 17.5321C138.26 16.7419 138.093 15.8798 138.093 14.9459C138.093 14.012 138.26 13.1499 138.596 12.3597C138.943 11.5694 139.428 10.881 140.05 10.2943C140.673 9.70757 141.403 9.25258 142.242 8.9293C143.08 8.60602 143.99 8.44438 144.971 8.44438C145.965 8.44438 146.875 8.60602 147.701 8.9293C148.54 9.25258 149.264 9.70757 149.875 10.2943C150.497 10.881 150.982 11.5694 151.329 12.3597C151.677 13.1379 151.85 14 151.85 14.9459C151.85 15.8798 151.677 16.7479 151.329 17.5501C150.982 18.3403 150.497 19.0288 149.875 19.6155C149.264 20.1902 148.54 20.6392 147.701 20.9625C146.875 21.2858 145.971 21.4474 144.989 21.4474ZM144.971 18.9689C145.534 18.9689 146.049 18.8732 146.516 18.6816C146.995 18.49 147.414 18.2146 147.773 17.8554C148.132 17.4962 148.408 17.0712 148.599 16.5803C148.803 16.0894 148.905 15.5446 148.905 14.9459C148.905 14.3472 148.803 13.8024 148.599 13.3115C148.408 12.8206 148.132 12.3956 147.773 12.0364C147.426 11.6772 147.013 11.4018 146.534 11.2102C146.055 11.0187 145.534 10.9229 144.971 10.9229C144.409 10.9229 143.888 11.0187 143.409 11.2102C142.942 11.4018 142.529 11.6772 142.17 12.0364C141.81 12.3956 141.529 12.8206 141.326 13.3115C141.134 13.8024 141.038 14.3472 141.038 14.9459C141.038 15.5326 141.134 16.0774 141.326 16.5803C141.529 17.0712 141.805 17.4962 142.152 17.8554C142.511 18.2146 142.93 18.49 143.409 18.6816C143.888 18.8732 144.409 18.9689 144.971 18.9689ZM156.768 13.7246H162.82V15.9876H156.768V13.7246ZM156.983 18.8971H163.826V21.2319H154.091V8.6599H163.592V10.9947H156.983V18.8971Z" fill="black"/>
<path d="M26.5219 31.4041H28.0623V38.0602H26.5219V31.4041ZM23.4982 38.0602H21.9577V31.4041H23.4982V38.0602ZM26.636 35.3312H23.3841V34.0285H26.636V35.3312ZM31.1468 34.0855H34.3512V35.2836H31.1468V34.0855ZM31.2609 36.8241H34.8837V38.0602H29.73V31.4041H34.7601V32.6402H31.2609V36.8241ZM39.6462 37.6418C38.784 37.6418 38.0519 37.5277 37.4496 37.2995C36.8538 37.0713 36.4005 36.7416 36.0899 36.3106C35.7793 35.8732 35.624 35.3407 35.624 34.7131C35.624 34.0855 35.7793 33.5562 36.0899 33.1252C36.4005 32.6878 36.8538 32.355 37.4496 32.1268C38.0519 31.8985 38.784 31.7844 39.6462 31.7844C39.6588 31.7844 39.6937 31.7844 39.7507 31.7844C39.8141 31.7844 39.8744 31.7844 39.9314 31.7844C39.9948 31.7844 40.0297 31.7844 40.036 31.7844C40.8918 31.7844 41.6145 31.8985 42.204 32.1268C42.7999 32.355 43.2499 32.6878 43.5542 33.1252C43.8585 33.5626 44.0106 34.0919 44.0106 34.7131C44.0106 35.328 43.8585 35.8573 43.5542 36.3011C43.2563 36.7385 42.8157 37.0713 42.2325 37.2995C41.6557 37.5277 40.9488 37.6418 40.1121 37.6418C40.0931 37.6418 40.0487 37.6418 39.979 37.6418C39.9092 37.6418 39.8395 37.6418 39.7698 37.6418C39.7064 37.6418 39.6652 37.6418 39.6462 37.6418ZM39.7888 36.4532C39.8078 36.4532 39.8332 36.4532 39.8649 36.4532C39.8965 36.4532 39.9187 36.4532 39.9314 36.4532C40.5146 36.4532 40.9964 36.3898 41.3767 36.263C41.7634 36.1299 42.0519 35.9366 42.242 35.683C42.4322 35.4231 42.5273 35.0966 42.5273 34.7036C42.5273 34.3106 42.429 33.9873 42.2325 33.7337C42.036 33.4802 41.7476 33.2932 41.3672 33.1727C40.9932 33.0459 40.521 32.9825 39.9504 32.9825C39.9378 32.9825 39.9124 32.9825 39.8744 32.9825C39.8427 32.9825 39.8141 32.9825 39.7888 32.9825C39.1866 32.9825 38.6889 33.0428 38.2959 33.1632C37.9029 33.2836 37.6081 33.4738 37.4116 33.7337C37.2151 33.9873 37.1168 34.3138 37.1168 34.7131C37.1168 35.1125 37.2214 35.4421 37.4306 35.702C37.6398 35.9556 37.9409 36.1458 38.334 36.2725C38.7333 36.393 39.2183 36.4532 39.7888 36.4532ZM39.1137 38.355V31.1188H40.5305V38.355H39.1137ZM46.506 38.0602V32.3074L46.8578 32.6592H44.3856V31.4041H50.1573V32.6592H47.6851L48.0274 32.3074V38.0602H46.506ZM52.5414 34.0855H55.7458V35.2836H52.5414V34.0855ZM52.6555 36.8241H56.2783V38.0602H51.1246V31.4041H56.1547V32.6402H52.6555V36.8241ZM57.5225 38.0602V31.4041H62.2198L62.2103 32.6592H58.6921L59.0439 32.3074L59.0534 38.0602H57.5225ZM61.1078 38.0602L64.0745 31.4041H65.5959L68.5721 38.0602H66.9556L64.5214 32.1838H65.13L62.6862 38.0602H61.1078ZM62.5912 36.6339L63 35.4643H66.4232L66.8415 36.6339H62.5912ZM68.8557 37.4706L69.3312 36.3676C69.6164 36.5388 69.9207 36.6719 70.244 36.767C70.5737 36.8557 70.8938 36.9065 71.2044 36.9191C71.5214 36.9255 71.8066 36.8938 72.0602 36.8241C72.3201 36.7543 72.5261 36.6497 72.6782 36.5103C72.8367 36.3708 72.916 36.1933 72.916 35.9778C72.916 35.7242 72.8114 35.5372 72.6022 35.4168C72.393 35.29 72.1141 35.2266 71.7654 35.2266H70.1394V34.0665H71.6513C71.9619 34.0665 72.2028 34.0031 72.374 33.8764C72.5515 33.7496 72.6402 33.5752 72.6402 33.3534C72.6402 33.1632 72.5768 33.0111 72.45 32.897C72.3233 32.7765 72.1489 32.6878 71.9271 32.6307C71.7115 32.5737 71.4675 32.5483 71.1949 32.5546C70.9223 32.561 70.6402 32.6054 70.3486 32.6878C70.057 32.7702 69.7781 32.8843 69.5118 33.0301L69.0459 31.8415C69.477 31.6196 69.9302 31.4675 70.4057 31.3851C70.8874 31.2963 71.3502 31.2741 71.7939 31.3185C72.244 31.3566 72.6497 31.458 73.011 31.6228C73.3724 31.7813 73.6608 31.9905 73.8763 32.2504C74.0919 32.5103 74.1996 32.8177 74.1996 33.1727C74.1996 33.4897 74.1172 33.7718 73.9524 34.019C73.7876 34.2662 73.5562 34.4564 73.2583 34.5895C72.9667 34.7226 72.6307 34.7892 72.2504 34.7892L72.2884 34.4469C72.7321 34.4469 73.1156 34.5229 73.4389 34.6751C73.7686 34.8209 74.0221 35.0269 74.1996 35.2932C74.3835 35.5531 74.4754 35.8542 74.4754 36.1965C74.4754 36.5134 74.3898 36.7987 74.2187 37.0523C74.0538 37.2995 73.8256 37.5087 73.534 37.6798C73.2424 37.851 72.9096 37.9778 72.5356 38.0602C72.1616 38.1426 71.7622 38.1775 71.3375 38.1648C70.9191 38.1521 70.4976 38.0919 70.0729 37.9841C69.6481 37.87 69.2424 37.6989 68.8557 37.4706ZM78.8803 38.1743C78.3541 38.1743 77.866 38.0887 77.416 37.9176C76.9722 37.7464 76.5855 37.5055 76.2559 37.1949C75.9326 36.8843 75.679 36.5198 75.4952 36.1014C75.3177 35.683 75.229 35.2266 75.229 34.7321C75.229 34.2377 75.3177 33.7813 75.4952 33.3629C75.679 32.9445 75.9358 32.58 76.2654 32.2694C76.595 31.9588 76.9817 31.7179 77.4255 31.5467C77.8692 31.3756 78.351 31.29 78.8708 31.29C79.3969 31.29 79.8787 31.3756 80.3161 31.5467C80.7598 31.7179 81.1434 31.9588 81.4667 32.2694C81.7963 32.58 82.053 32.9445 82.2369 33.3629C82.4207 33.7749 82.5126 34.2313 82.5126 34.7321C82.5126 35.2266 82.4207 35.6862 82.2369 36.1109C82.053 36.5293 81.7963 36.8938 81.4667 37.2044C81.1434 37.5087 80.7598 37.7464 80.3161 37.9176C79.8787 38.0887 79.4001 38.1743 78.8803 38.1743ZM78.8708 36.8621C79.1687 36.8621 79.4413 36.8114 79.6885 36.7099C79.9421 36.6085 80.164 36.4627 80.3541 36.2725C80.5443 36.0824 80.6901 35.8573 80.7915 35.5974C80.8993 35.3375 80.9532 35.0491 80.9532 34.7321C80.9532 34.4152 80.8993 34.1268 80.7915 33.8668C80.6901 33.6069 80.5443 33.3819 80.3541 33.1917C80.1703 33.0016 79.9516 32.8558 79.698 32.7543C79.4445 32.6529 79.1687 32.6022 78.8708 32.6022C78.5728 32.6022 78.2971 32.6529 78.0435 32.7543C77.7963 32.8558 77.5776 33.0016 77.3874 33.1917C77.1973 33.3819 77.0483 33.6069 76.9405 33.8668C76.8391 34.1268 76.7884 34.4152 76.7884 34.7321C76.7884 35.0428 76.8391 35.3312 76.9405 35.5974C77.0483 35.8573 77.1941 36.0824 77.3779 36.2725C77.5681 36.4627 77.79 36.6085 78.0435 36.7099C78.2971 36.8114 78.5728 36.8621 78.8708 36.8621ZM83.6993 38.0602V31.4041H86.7991C87.5725 31.4041 88.1747 31.5531 88.6058 31.851C89.0368 32.1489 89.2523 32.5737 89.2523 33.1252C89.2523 33.6703 89.0495 34.0951 88.6438 34.3993C88.2381 34.6973 87.6993 34.8462 87.0273 34.8462L87.208 34.4469C87.956 34.4469 88.536 34.5958 88.9481 34.8938C89.3601 35.1917 89.5661 35.6228 89.5661 36.187C89.5661 36.7702 89.3443 37.2298 88.9005 37.5657C88.4631 37.8954 87.8229 38.0602 86.9798 38.0602H83.6993ZM85.2302 36.9191H86.9227C87.2777 36.9191 87.5471 36.8494 87.731 36.7099C87.9148 36.5705 88.0067 36.355 88.0067 36.0634C88.0067 35.7844 87.9148 35.5784 87.731 35.4453C87.5471 35.3058 87.2777 35.2361 86.9227 35.2361H85.2302V36.9191ZM85.2302 34.1616H86.666C87.002 34.1616 87.2555 34.0951 87.4267 33.9619C87.5978 33.8225 87.6834 33.6196 87.6834 33.3534C87.6834 33.0871 87.5978 32.8875 87.4267 32.7543C87.2555 32.6149 87.002 32.5451 86.666 32.5451H85.2302V34.1616ZM93.9698 38.1743C93.4436 38.1743 92.9555 38.0887 92.5054 37.9176C92.0617 37.7464 91.675 37.5055 91.3454 37.1949C91.0221 36.8843 90.7685 36.5198 90.5847 36.1014C90.4072 35.683 90.3184 35.2266 90.3184 34.7321C90.3184 34.2377 90.4072 33.7813 90.5847 33.3629C90.7685 32.9445 91.0253 32.58 91.3549 32.2694C91.6845 31.9588 92.0712 31.7179 92.5149 31.5467C92.9587 31.3756 93.4405 31.29 93.9603 31.29C94.4864 31.29 94.9682 31.3756 95.4056 31.5467C95.8493 31.7179 96.2328 31.9588 96.5561 32.2694C96.8858 32.58 97.1425 32.9445 97.3263 33.3629C97.5102 33.7749 97.6021 34.2313 97.6021 34.7321C97.6021 35.2266 97.5102 35.6862 97.3263 36.1109C97.1425 36.5293 96.8858 36.8938 96.5561 37.2044C96.2328 37.5087 95.8493 37.7464 95.4056 37.9176C94.9682 38.0887 94.4896 38.1743 93.9698 38.1743ZM93.9603 36.8621C94.2582 36.8621 94.5308 36.8114 94.778 36.7099C95.0316 36.6085 95.2535 36.4627 95.4436 36.2725C95.6338 36.0824 95.7796 35.8573 95.881 35.5974C95.9888 35.3375 96.0427 35.0491 96.0427 34.7321C96.0427 34.4152 95.9888 34.1268 95.881 33.8668C95.7796 33.6069 95.6338 33.3819 95.4436 33.1917C95.2598 33.0016 95.0411 32.8558 94.7875 32.7543C94.534 32.6529 94.2582 32.6022 93.9603 32.6022C93.6623 32.6022 93.3866 32.6529 93.133 32.7543C92.8858 32.8558 92.6671 33.0016 92.4769 33.1917C92.2867 33.3819 92.1378 33.6069 92.03 33.8668C91.9286 34.1268 91.8779 34.4152 91.8779 34.7321C91.8779 35.0428 91.9286 35.3312 92.03 35.5974C92.1378 35.8573 92.2836 36.0824 92.4674 36.2725C92.6576 36.4627 92.8794 36.6085 93.133 36.7099C93.3866 36.8114 93.6623 36.8621 93.9603 36.8621ZM100.206 34.0855H103.41V35.2836H100.206V34.0855ZM100.32 36.8241H103.942V38.0602H98.7888V31.4041H103.819V32.6402H100.32V36.8241ZM107.88 38.0602V31.4041H109.154L111.987 36.1014H111.312L114.098 31.4041H115.372L115.382 38.0602H113.937L113.927 33.6196H114.203L111.968 37.3565H111.284L109.002 33.6196H109.325V38.0602H107.88ZM118.452 34.0855H121.657V35.2836H118.452V34.0855ZM118.566 36.8241H122.189V38.0602H117.035V31.4041H122.066V32.6402H118.566V36.8241ZM126.581 38.1743C126.067 38.1743 125.589 38.0919 125.145 37.9271C124.708 37.7559 124.327 37.515 124.004 37.2044C123.681 36.8938 123.427 36.5293 123.243 36.1109C123.066 35.6925 122.977 35.2329 122.977 34.7321C122.977 34.2313 123.066 33.7718 123.243 33.3534C123.427 32.935 123.681 32.5705 124.004 32.2599C124.334 31.9493 124.717 31.7115 125.154 31.5467C125.592 31.3756 126.07 31.29 126.59 31.29C127.167 31.29 127.687 31.3914 128.15 31.5943C128.619 31.7908 129.012 32.0824 129.329 32.4691L128.34 33.3819C128.112 33.122 127.858 32.9287 127.579 32.8019C127.3 32.6688 126.996 32.6022 126.666 32.6022C126.356 32.6022 126.07 32.6529 125.811 32.7543C125.551 32.8558 125.326 33.0016 125.135 33.1917C124.945 33.3819 124.796 33.6069 124.689 33.8668C124.587 34.1268 124.536 34.4152 124.536 34.7321C124.536 35.0491 124.587 35.3375 124.689 35.5974C124.796 35.8573 124.945 36.0824 125.135 36.2725C125.326 36.4627 125.551 36.6085 125.811 36.7099C126.07 36.8114 126.356 36.8621 126.666 36.8621C126.996 36.8621 127.3 36.7987 127.579 36.6719C127.858 36.5388 128.112 36.3391 128.34 36.0729L129.329 36.9857C129.012 37.3724 128.619 37.6672 128.15 37.87C127.687 38.0729 127.164 38.1743 126.581 38.1743ZM131.704 38.0602V32.3074L132.055 32.6592H129.583V31.4041H135.355V32.6592H132.883L133.225 32.3074V38.0602H131.704ZM139.415 38.1743C138.889 38.1743 138.4 38.0887 137.95 37.9176C137.507 37.7464 137.12 37.5055 136.79 37.1949C136.467 36.8843 136.213 36.5198 136.03 36.1014C135.852 35.683 135.763 35.2266 135.763 34.7321C135.763 34.2377 135.852 33.7813 136.03 33.3629C136.213 32.9445 136.47 32.58 136.8 32.2694C137.129 31.9588 137.516 31.7179 137.96 31.5467C138.404 31.3756 138.885 31.29 139.405 31.29C139.931 31.29 140.413 31.3756 140.85 31.5467C141.294 31.7179 141.678 31.9588 142.001 32.2694C142.331 32.58 142.587 32.9445 142.771 33.3629C142.955 33.7749 143.047 34.2313 143.047 34.7321C143.047 35.2266 142.955 35.6862 142.771 36.1109C142.587 36.5293 142.331 36.8938 142.001 37.2044C141.678 37.5087 141.294 37.7464 140.85 37.9176C140.413 38.0887 139.934 38.1743 139.415 38.1743ZM139.405 36.8621C139.703 36.8621 139.976 36.8114 140.223 36.7099C140.476 36.6085 140.698 36.4627 140.889 36.2725C141.079 36.0824 141.224 35.8573 141.326 35.5974C141.434 35.3375 141.488 35.0491 141.488 34.7321C141.488 34.4152 141.434 34.1268 141.326 33.8668C141.224 33.6069 141.079 33.3819 140.889 33.1917C140.705 33.0016 140.486 32.8558 140.232 32.7543C139.979 32.6529 139.703 32.6022 139.405 32.6022C139.107 32.6022 138.831 32.6529 138.578 32.7543C138.331 32.8558 138.112 33.0016 137.922 33.1917C137.732 33.3819 137.583 33.6069 137.475 33.8668C137.373 34.1268 137.323 34.4152 137.323 34.7321C137.323 35.0428 137.373 35.3312 137.475 35.5974C137.583 35.8573 137.728 36.0824 137.912 36.2725C138.102 36.4627 138.324 36.6085 138.578 36.7099C138.831 36.8114 139.107 36.8621 139.405 36.8621ZM144.234 38.0602V31.4041H147.115C147.711 31.4041 148.224 31.5023 148.655 31.6989C149.086 31.889 149.419 32.1648 149.654 32.5261C149.888 32.8874 150.005 33.3185 150.005 33.8193C150.005 34.3138 149.888 34.7416 149.654 35.103C149.419 35.4643 149.086 35.7432 148.655 35.9397C148.224 36.1299 147.711 36.225 147.115 36.225H145.089L145.774 35.5309V38.0602H144.234ZM145.774 35.702L145.089 34.9699H147.029C147.505 34.9699 147.86 34.8684 148.094 34.6656C148.329 34.4627 148.446 34.1806 148.446 33.8193C148.446 33.4516 148.329 33.1664 148.094 32.9635C147.86 32.7607 147.505 32.6592 147.029 32.6592H145.089L145.774 31.9271V35.702ZM154.3 38.1743C153.774 38.1743 153.286 38.0887 152.836 37.9176C152.392 37.7464 152.005 37.5055 151.675 37.1949C151.352 36.8843 151.099 36.5198 150.915 36.1014C150.737 35.683 150.649 35.2266 150.649 34.7321C150.649 34.2377 150.737 33.7813 150.915 33.3629C151.099 32.9445 151.355 32.58 151.685 32.2694C152.015 31.9588 152.401 31.7179 152.845 31.5467C153.289 31.3756 153.771 31.29 154.29 31.29C154.816 31.29 155.298 31.3756 155.736 31.5467C156.179 31.7179 156.563 31.9588 156.886 32.2694C157.216 32.58 157.473 32.9445 157.656 33.3629C157.84 33.7749 157.932 34.2313 157.932 34.7321C157.932 35.2266 157.84 35.6862 157.656 36.1109C157.473 36.5293 157.216 36.8938 156.886 37.2044C156.563 37.5087 156.179 37.7464 155.736 37.9176C155.298 38.0887 154.82 38.1743 154.3 38.1743ZM154.29 36.8621C154.588 36.8621 154.861 36.8114 155.108 36.7099C155.362 36.6085 155.584 36.4627 155.774 36.2725C155.964 36.0824 156.11 35.8573 156.211 35.5974C156.319 35.3375 156.373 35.0491 156.373 34.7321C156.373 34.4152 156.319 34.1268 156.211 33.8668C156.11 33.6069 155.964 33.3819 155.774 33.1917C155.59 33.0016 155.371 32.8558 155.118 32.7543C154.864 32.6529 154.588 32.6022 154.29 32.6022C153.992 32.6022 153.717 32.6529 153.463 32.7543C153.216 32.8558 152.997 33.0016 152.807 33.1917C152.617 33.3819 152.468 33.6069 152.36 33.8668C152.259 34.1268 152.208 34.4152 152.208 34.7321C152.208 35.0428 152.259 35.3312 152.36 35.5974C152.468 35.8573 152.614 36.0824 152.797 36.2725C152.988 36.4627 153.21 36.6085 153.463 36.7099C153.717 36.8114 153.992 36.8621 154.29 36.8621ZM166.408 38.0602L164.621 34.8558L165.923 34.1046L168.186 38.0602H166.408ZM163.489 35.3787V34.0951H165.562V35.3787H163.489ZM166.009 34.9033L164.583 34.7321L166.437 31.4041H168.063L166.009 34.9033ZM159.952 38.0602H158.174L160.437 34.1046L161.74 34.8558L159.952 38.0602ZM163.946 38.0602H162.434V31.4041H163.946V38.0602ZM162.881 35.3787H160.798V34.0951H162.881V35.3787ZM160.361 34.9033L158.297 31.4041H159.923L161.768 34.7321L160.361 34.9033ZM173.504 37.3756V32.6592H171.222L171.193 33.6291C171.174 34.0412 171.146 34.431 171.108 34.7987C171.076 35.1664 171.025 35.5023 170.956 35.8066C170.886 36.1046 170.794 36.3581 170.68 36.5673C170.572 36.7765 170.436 36.9255 170.271 37.0142L168.626 36.805C168.854 36.8114 169.041 36.7321 169.187 36.5673C169.339 36.4025 169.459 36.1711 169.548 35.8732C169.637 35.5689 169.7 35.2139 169.738 34.8082C169.783 34.4025 169.814 33.9619 169.833 33.4865L169.91 31.4041H175.025V37.3756H173.504ZM168.407 39.4389L168.417 36.805H175.957V39.4389H174.531V38.0602H169.833V39.4389H168.407ZM178.411 34.0855H181.615V35.2836H178.411V34.0855ZM178.525 36.8241H182.148V38.0602H176.994V31.4041H182.024V32.6402H178.525V36.8241ZM187.956 31.4041H189.497V38.0602H187.956V31.4041ZM184.932 38.0602H183.392V31.4041H184.932V38.0602ZM188.07 35.3312H184.818V34.0285H188.07V35.3312ZM191.164 38.0602V31.4041H192.695V35.7401L195.871 31.4041H197.316V38.0602H195.795V33.7337L192.619 38.0602H191.164ZM200.39 34.0855H203.595V35.2836H200.39V34.0855ZM200.505 36.8241H204.127V38.0602H198.974V31.4041H204.004V32.6402H200.505V36.8241Z" fill="black"/>
<g filter="url(#filter0_d_279_808)">
<rect x="11.6217" y="6.34497" width="34.8652" height="3.16956" transform="rotate(90 11.6217 6.34497)" fill="#D9D9D9"/>
<rect x="11.6217" y="6.34497" width="34.8652" height="3.16956" transform="rotate(90 11.6217 6.34497)" fill="url(#paint0_linear_279_808)"/>
</g>
<defs>
<filter id="filter0_d_279_808" x="6.3391" y="6.34497" width="7.39564" height="39.0913" filterUnits="userSpaceOnUse" color-interpolation-filters="sRGB">
<feFlood flood-opacity="0" result="BackgroundImageFix"/>
<feColorMatrix in="SourceAlpha" type="matrix" values="0 0 0 0 0 0 0 0 0 0 0 0 0 0 0 0 0 0 127 0" result="hardAlpha"/>
<feOffset dy="2.11304"/>
<feGaussianBlur stdDeviation="1.05652"/>
<feComposite in2="hardAlpha" operator="out"/>
<feColorMatrix type="matrix" values="0 0 0 0 0 0 0 0 0 0 0 0 0 0 0 0 0 0 0.25 0"/>
<feBlend mode="normal" in2="BackgroundImageFix" result="effect1_dropShadow_279_808"/>
<feBlend mode="normal" in="SourceGraphic" in2="effect1_dropShadow_279_808" result="shape"/>
</filter>
<linearGradient id="paint0_linear_279_808" x1="11.6217" y1="6.34497" x2="46.4869" y2="6.34497" gradientUnits="userSpaceOnUse">
<stop stop-color="#008DDE"/>
<stop offset="0.53125" stop-color="#EB097B"/>
<stop offset="1" stop-color="#571273"/>
</linearGradient>
</defs>
</svg>
