<svg width="247" height="71" viewBox="0 0 247 71" fill="none" xmlns="http://www.w3.org/2000/svg">
<path d="M4 62.8729L42.5 44.2746L22 44.2746L4 62.8729Z" fill="white"/>
<rect x="4" y="0.774643" width="243" height="46.487" rx="10.5652" fill="white"/>
<path d="M25.6365 21.4725V8.90046H35.7839V11.2173H28.5281V13.8035H32.0123C33.5329 13.8035 34.6883 14.1208 35.4786 14.7554C36.2808 15.39 36.6819 16.312 36.6819 17.5213C36.6819 18.7665 36.2389 19.7363 35.3529 20.4308C34.4668 21.1252 33.2156 21.4725 31.5992 21.4725H25.6365ZM28.5281 19.3173H31.4376C32.1799 19.3173 32.7487 19.1736 33.1438 18.8862C33.5389 18.5869 33.7365 18.1558 33.7365 17.5931C33.7365 16.4916 32.9702 15.9408 31.4376 15.9408H28.5281V19.3173ZM44.9126 21.688C43.9188 21.688 42.9969 21.5263 42.1468 21.2031C41.3087 20.8798 40.5783 20.4248 39.9557 19.8381C39.345 19.2514 38.8661 18.5629 38.5189 17.7727C38.1836 16.9825 38.016 16.1204 38.016 15.1865C38.016 14.2525 38.1836 13.3905 38.5189 12.6002C38.8661 11.81 39.351 11.1215 39.9736 10.5348C40.5962 9.94812 41.3266 9.49314 42.1647 9.16986C43.0029 8.84658 43.9129 8.68494 44.8947 8.68494C45.8885 8.68494 46.7984 8.84658 47.6246 9.16986C48.4627 9.49314 49.1871 9.94812 49.7977 10.5348C50.4204 11.1215 50.9053 11.81 51.2525 12.6002C51.5997 13.3785 51.7733 14.2406 51.7733 15.1865C51.7733 16.1204 51.5997 16.9884 51.2525 17.7907C50.9053 18.5809 50.4204 19.2694 49.7977 19.8561C49.1871 20.4308 48.4627 20.8798 47.6246 21.2031C46.7984 21.5263 45.8944 21.688 44.9126 21.688ZM44.8947 19.2095C45.4574 19.2095 45.9723 19.1137 46.4392 18.9221C46.9182 18.7306 47.3372 18.4552 47.6964 18.096C48.0556 17.7368 48.331 17.3117 48.5226 16.8208C48.7261 16.3299 48.8279 15.7851 48.8279 15.1865C48.8279 14.5878 48.7261 14.043 48.5226 13.5521C48.331 13.0612 48.0556 12.6361 47.6964 12.2769C47.3492 11.9177 46.9361 11.6424 46.4572 11.4508C45.9783 11.2592 45.4574 11.1634 44.8947 11.1634C44.3319 11.1634 43.8111 11.2592 43.3321 11.4508C42.8652 11.6424 42.4521 11.9177 42.0929 12.2769C41.7337 12.6361 41.4523 13.0612 41.2488 13.5521C41.0572 14.043 40.9614 14.5878 40.9614 15.1865C40.9614 15.7732 41.0572 16.3179 41.2488 16.8208C41.4523 17.3117 41.7277 17.7368 42.0749 18.096C42.4341 18.4552 42.8532 18.7306 43.3321 18.9221C43.8111 19.1137 44.3319 19.2095 44.8947 19.2095ZM54.0147 21.4725V8.90046H59.8697C61.3304 8.90046 62.4679 9.18183 63.2821 9.74458C64.0962 10.3073 64.5033 11.1095 64.5033 12.1512C64.5033 13.1809 64.1202 13.9831 63.3539 14.5579C62.5876 15.1206 61.5699 15.402 60.3007 15.402L60.6419 14.6477C62.0548 14.6477 63.1504 14.929 63.9286 15.4918C64.7069 16.0545 65.096 16.8687 65.096 17.9343C65.096 19.0359 64.677 19.904 63.8388 20.5385C63.0127 21.1612 61.8033 21.4725 60.2109 21.4725H54.0147ZM56.9063 19.3173H60.1031C60.7736 19.3173 61.2825 19.1856 61.6297 18.9221C61.977 18.6587 62.1506 18.2516 62.1506 17.7009C62.1506 17.174 61.977 16.7849 61.6297 16.5335C61.2825 16.27 60.7736 16.1383 60.1031 16.1383H56.9063V19.3173ZM56.9063 14.1089H59.6182C60.2528 14.1089 60.7317 13.9831 61.055 13.7317C61.3783 13.4683 61.5399 13.0851 61.5399 12.5823C61.5399 12.0794 61.3783 11.7022 61.055 11.4508C60.7317 11.1874 60.2528 11.0557 59.6182 11.0557H56.9063V14.1089ZM65.9782 21.4725L71.5817 8.90046H74.4553L80.0768 21.4725H77.0236L72.4258 10.3732H73.5752L68.9595 21.4725H65.9782ZM68.7799 18.7785L69.5522 16.5694H76.0178L76.808 18.7785H68.7799ZM90.3648 8.90046H93.2743V21.4725H90.3648V8.90046ZM84.6535 21.4725H81.744V8.90046H84.6535V21.4725ZM90.5803 16.3179H84.438V13.8574H90.5803V16.3179ZM99.1002 13.9652H105.153V16.2281H99.1002V13.9652ZM99.3157 19.1377H106.158V21.4725H96.4241V8.90046H105.925V11.2353H99.3157V19.1377ZM117.129 8.90046H120.039V21.4725H117.129V8.90046ZM111.418 21.4725H108.509V8.90046H111.418V21.4725ZM117.345 16.3179H111.203V13.8574H117.345V16.3179ZM131.325 21.4725L127.409 15.4199L129.762 14.0011L134.629 21.4725H131.325ZM123.153 21.4725V8.90046H126.044V21.4725H123.153ZM125.2 16.4077V13.9831H129.583V16.4077H125.2ZM130.032 15.5097L127.355 15.1865L131.432 8.90046H134.504L130.032 15.5097ZM141.956 21.688C140.962 21.688 140.041 21.5263 139.19 21.2031C138.352 20.8798 137.622 20.4248 136.999 19.8381C136.389 19.2514 135.91 18.5629 135.562 17.7727C135.227 16.9825 135.06 16.1204 135.06 15.1865C135.06 14.2525 135.227 13.3905 135.562 12.6002C135.91 11.81 136.395 11.1215 137.017 10.5348C137.64 9.94812 138.37 9.49314 139.208 9.16986C140.047 8.84658 140.956 8.68494 141.938 8.68494C142.932 8.68494 143.842 8.84658 144.668 9.16986C145.506 9.49314 146.231 9.94812 146.841 10.5348C147.464 11.1215 147.949 11.81 148.296 12.6002C148.643 13.3785 148.817 14.2406 148.817 15.1865C148.817 16.1204 148.643 16.9884 148.296 17.7907C147.949 18.5809 147.464 19.2694 146.841 19.8561C146.231 20.4308 145.506 20.8798 144.668 21.2031C143.842 21.5263 142.938 21.688 141.956 21.688ZM141.938 19.2095C142.501 19.2095 143.016 19.1137 143.483 18.9221C143.962 18.7306 144.381 18.4552 144.74 18.096C145.099 17.7368 145.375 17.3117 145.566 16.8208C145.77 16.3299 145.872 15.7851 145.872 15.1865C145.872 14.5878 145.77 14.043 145.566 13.5521C145.375 13.0612 145.099 12.6361 144.74 12.2769C144.393 11.9177 143.98 11.6424 143.501 11.4508C143.022 11.2592 142.501 11.1634 141.938 11.1634C141.376 11.1634 140.855 11.2592 140.376 11.4508C139.909 11.6424 139.496 11.9177 139.137 12.2769C138.777 12.6361 138.496 13.0612 138.292 13.5521C138.101 14.043 138.005 14.5878 138.005 15.1865C138.005 15.7732 138.101 16.3179 138.292 16.8208C138.496 17.3117 138.771 17.7368 139.119 18.096C139.478 18.4552 139.897 18.7306 140.376 18.9221C140.855 19.1137 141.376 19.2095 141.938 19.2095ZM151.058 21.4725V8.90046H156.913C158.374 8.90046 159.511 9.18183 160.326 9.74458C161.14 10.3073 161.547 11.1095 161.547 12.1512C161.547 13.1809 161.164 13.9831 160.398 14.5579C159.631 15.1206 158.613 15.402 157.344 15.402L157.686 14.6477C159.098 14.6477 160.194 14.929 160.972 15.4918C161.751 16.0545 162.14 16.8687 162.14 17.9343C162.14 19.0359 161.721 19.904 160.882 20.5385C160.056 21.1612 158.847 21.4725 157.255 21.4725H151.058ZM153.95 19.3173H157.147C157.817 19.3173 158.326 19.1856 158.673 18.9221C159.021 18.6587 159.194 18.2516 159.194 17.7009C159.194 17.174 159.021 16.7849 158.673 16.5335C158.326 16.27 157.817 16.1383 157.147 16.1383H153.95V19.3173ZM153.95 14.1089H156.662C157.296 14.1089 157.775 13.9831 158.099 13.7317C158.422 13.4683 158.584 13.0851 158.584 12.5823C158.584 12.0794 158.422 11.7022 158.099 11.4508C157.775 11.1874 157.296 11.0557 156.662 11.0557H153.95V14.1089ZM170.385 21.688C169.416 21.688 168.512 21.5323 167.673 21.221C166.847 20.8977 166.129 20.4428 165.518 19.8561C164.908 19.2694 164.429 18.5809 164.081 17.7907C163.746 17.0004 163.579 16.1324 163.579 15.1865C163.579 14.2406 163.746 13.3725 164.081 12.5823C164.429 11.792 164.908 11.1036 165.518 10.5169C166.141 9.93016 166.865 9.48116 167.691 9.16986C168.518 8.84658 169.422 8.68494 170.403 8.68494C171.493 8.68494 172.475 8.87651 173.349 9.25966C174.235 9.63083 174.977 10.1816 175.576 10.912L173.708 12.6361C173.277 12.1452 172.798 11.78 172.271 11.5406C171.744 11.2891 171.17 11.1634 170.547 11.1634C169.96 11.1634 169.422 11.2592 168.931 11.4508C168.44 11.6424 168.015 11.9177 167.655 12.2769C167.296 12.6361 167.015 13.0612 166.811 13.5521C166.62 14.043 166.524 14.5878 166.524 15.1865C166.524 15.7851 166.62 16.3299 166.811 16.8208C167.015 17.3117 167.296 17.7368 167.655 18.096C168.015 18.4552 168.44 18.7306 168.931 18.9221C169.422 19.1137 169.96 19.2095 170.547 19.2095C171.17 19.2095 171.744 19.0898 172.271 18.8503C172.798 18.5989 173.277 18.2217 173.708 17.7188L175.576 19.443C174.977 20.1734 174.235 20.7301 173.349 21.1133C172.475 21.4964 171.487 21.688 170.385 21.688ZM185.608 21.4725L181.693 15.4199L184.046 14.0011L188.913 21.4725H185.608ZM177.436 21.4725V8.90046H180.328V21.4725H177.436ZM179.484 16.4077V13.9831H183.866V16.4077H179.484ZM184.315 15.5097L181.639 15.1865L185.716 8.90046H188.787L184.315 15.5097ZM196.24 21.688C195.246 21.688 194.324 21.5263 193.474 21.2031C192.636 20.8798 191.905 20.4248 191.283 19.8381C190.672 19.2514 190.193 18.5629 189.846 17.7727C189.511 16.9825 189.343 16.1204 189.343 15.1865C189.343 14.2525 189.511 13.3905 189.846 12.6002C190.193 11.81 190.678 11.1215 191.301 10.5348C191.923 9.94812 192.654 9.49314 193.492 9.16986C194.33 8.84658 195.24 8.68494 196.222 8.68494C197.215 8.68494 198.125 8.84658 198.952 9.16986C199.79 9.49314 200.514 9.94812 201.125 10.5348C201.747 11.1215 202.232 11.81 202.58 12.6002C202.927 13.3785 203.1 14.2406 203.1 15.1865C203.1 16.1204 202.927 16.9884 202.58 17.7907C202.232 18.5809 201.747 19.2694 201.125 19.8561C200.514 20.4308 199.79 20.8798 198.952 21.2031C198.125 21.5263 197.221 21.688 196.24 21.688ZM196.222 19.2095C196.784 19.2095 197.299 19.1137 197.766 18.9221C198.245 18.7306 198.664 18.4552 199.023 18.096C199.383 17.7368 199.658 17.3117 199.85 16.8208C200.053 16.3299 200.155 15.7851 200.155 15.1865C200.155 14.5878 200.053 14.043 199.85 13.5521C199.658 13.0612 199.383 12.6361 199.023 12.2769C198.676 11.9177 198.263 11.6424 197.784 11.4508C197.305 11.2592 196.784 11.1634 196.222 11.1634C195.659 11.1634 195.138 11.2592 194.659 11.4508C194.192 11.6424 193.779 11.9177 193.42 12.2769C193.061 12.6361 192.779 13.0612 192.576 13.5521C192.384 14.043 192.288 14.5878 192.288 15.1865C192.288 15.7732 192.384 16.3179 192.576 16.8208C192.779 17.3117 193.055 17.7368 193.402 18.096C193.761 18.4552 194.18 18.7306 194.659 18.9221C195.138 19.1137 195.659 19.2095 196.222 19.2095ZM208.018 13.9652H214.07V16.2281H208.018V13.9652ZM208.233 19.1377H215.076V21.4725H205.342V8.90046H214.843V11.2353H208.233V19.1377Z" fill="black"/>
<path d="M30.5219 31.6446H32.0623V38.3007H30.5219V31.6446ZM27.4982 38.3007H25.9577V31.6446H27.4982V38.3007ZM30.636 35.5717H27.3841V34.269H30.636V35.5717ZM35.1468 34.3261H38.3512V35.5242H35.1468V34.3261ZM35.2609 37.0646H38.8837V38.3007H33.73V31.6446H38.7601V32.8807H35.2609V37.0646ZM43.6462 37.8823C42.784 37.8823 42.0519 37.7682 41.4496 37.54C40.8538 37.3118 40.4005 36.9822 40.0899 36.5511C39.7793 36.1137 39.624 35.5812 39.624 34.9536C39.624 34.3261 39.7793 33.7968 40.0899 33.3657C40.4005 32.9283 40.8538 32.5955 41.4496 32.3673C42.0519 32.1391 42.784 32.025 43.6462 32.025C43.6588 32.025 43.6937 32.025 43.7507 32.025C43.8141 32.025 43.8744 32.025 43.9314 32.025C43.9948 32.025 44.0297 32.025 44.036 32.025C44.8918 32.025 45.6145 32.1391 46.204 32.3673C46.7999 32.5955 47.2499 32.9283 47.5542 33.3657C47.8585 33.8031 48.0106 34.3324 48.0106 34.9536C48.0106 35.5685 47.8585 36.0979 47.5542 36.5416C47.2563 36.979 46.8157 37.3118 46.2325 37.54C45.6557 37.7682 44.9488 37.8823 44.1121 37.8823C44.0931 37.8823 44.0487 37.8823 43.979 37.8823C43.9092 37.8823 43.8395 37.8823 43.7698 37.8823C43.7064 37.8823 43.6652 37.8823 43.6462 37.8823ZM43.7888 36.6937C43.8078 36.6937 43.8332 36.6937 43.8649 36.6937C43.8965 36.6937 43.9187 36.6937 43.9314 36.6937C44.5146 36.6937 44.9964 36.6303 45.3767 36.5036C45.7634 36.3704 46.0519 36.1771 46.242 35.9235C46.4322 35.6636 46.5273 35.3372 46.5273 34.9441C46.5273 34.5511 46.429 34.2278 46.2325 33.9742C46.036 33.7207 45.7476 33.5337 45.3672 33.4132C44.9932 33.2865 44.521 33.2231 43.9504 33.2231C43.9378 33.2231 43.9124 33.2231 43.8744 33.2231C43.8427 33.2231 43.8141 33.2231 43.7888 33.2231C43.1866 33.2231 42.6889 33.2833 42.2959 33.4037C41.9029 33.5242 41.6081 33.7143 41.4116 33.9742C41.2151 34.2278 41.1168 34.5543 41.1168 34.9536C41.1168 35.353 41.2214 35.6826 41.4306 35.9425C41.6398 36.1961 41.9409 36.3863 42.334 36.5131C42.7333 36.6335 43.2183 36.6937 43.7888 36.6937ZM43.1137 38.5955V31.3594H44.5305V38.5955H43.1137ZM50.506 38.3007V32.5479L50.8578 32.8998H48.3856V31.6446H54.1573V32.8998H51.6851L52.0274 32.5479V38.3007H50.506ZM56.5414 34.3261H59.7458V35.5242H56.5414V34.3261ZM56.6555 37.0646H60.2783V38.3007H55.1246V31.6446H60.1547V32.8807H56.6555V37.0646ZM61.5225 38.3007V31.6446H66.2198L66.2103 32.8998H62.6921L63.0439 32.5479L63.0534 38.3007H61.5225ZM65.1078 38.3007L68.0745 31.6446H69.5959L72.5721 38.3007H70.9556L68.5214 32.4243H69.13L66.6862 38.3007H65.1078ZM66.5912 36.8744L67 35.7048H70.4232L70.8415 36.8744H66.5912ZM72.8557 37.7112L73.3312 36.6082C73.6164 36.7793 73.9207 36.9124 74.244 37.0075C74.5737 37.0963 74.8938 37.147 75.2044 37.1597C75.5214 37.166 75.8066 37.1343 76.0602 37.0646C76.3201 36.9948 76.5261 36.8902 76.6782 36.7508C76.8367 36.6113 76.916 36.4338 76.916 36.2183C76.916 35.9647 76.8114 35.7777 76.6022 35.6573C76.393 35.5305 76.1141 35.4671 75.7654 35.4671H74.1394V34.3071H75.6513C75.9619 34.3071 76.2028 34.2437 76.374 34.1169C76.5515 33.9901 76.6402 33.8158 76.6402 33.5939C76.6402 33.4037 76.5768 33.2516 76.45 33.1375C76.3233 33.017 76.1489 32.9283 75.9271 32.8712C75.7115 32.8142 75.4675 32.7888 75.1949 32.7952C74.9223 32.8015 74.6402 32.8459 74.3486 32.9283C74.057 33.0107 73.7781 33.1248 73.5118 33.2706L73.0459 32.082C73.477 31.8601 73.9302 31.708 74.4057 31.6256C74.8874 31.5369 75.3502 31.5147 75.7939 31.559C76.244 31.5971 76.6497 31.6985 77.011 31.8633C77.3724 32.0218 77.6608 32.231 77.8763 32.4909C78.0919 32.7508 78.1996 33.0582 78.1996 33.4132C78.1996 33.7302 78.1172 34.0123 77.9524 34.2595C77.7876 34.5067 77.5562 34.6969 77.2583 34.83C76.9667 34.9632 76.6307 35.0297 76.2504 35.0297L76.2884 34.6874C76.7321 34.6874 77.1156 34.7635 77.4389 34.9156C77.7686 35.0614 78.0221 35.2674 78.1996 35.5337C78.3835 35.7936 78.4754 36.0947 78.4754 36.437C78.4754 36.754 78.3898 37.0392 78.2187 37.2928C78.0538 37.54 77.8256 37.7492 77.534 37.9204C77.2424 38.0915 76.9096 38.2183 76.5356 38.3007C76.1616 38.3831 75.7622 38.418 75.3375 38.4053C74.9191 38.3926 74.4976 38.3324 74.0729 38.2246C73.6481 38.1105 73.2424 37.9394 72.8557 37.7112ZM82.8803 38.4148C82.3541 38.4148 81.866 38.3292 81.416 38.1581C80.9722 37.9869 80.5855 37.746 80.2559 37.4354C79.9326 37.1248 79.679 36.7603 79.4952 36.3419C79.3177 35.9235 79.229 35.4671 79.229 34.9727C79.229 34.4782 79.3177 34.0218 79.4952 33.6034C79.679 33.185 79.9358 32.8205 80.2654 32.5099C80.595 32.1993 80.9817 31.9584 81.4255 31.7872C81.8692 31.6161 82.351 31.5305 82.8708 31.5305C83.3969 31.5305 83.8787 31.6161 84.3161 31.7872C84.7598 31.9584 85.1434 32.1993 85.4667 32.5099C85.7963 32.8205 86.053 33.185 86.2369 33.6034C86.4207 34.0155 86.5126 34.4719 86.5126 34.9727C86.5126 35.4671 86.4207 35.9267 86.2369 36.3514C86.053 36.7698 85.7963 37.1343 85.4667 37.4449C85.1434 37.7492 84.7598 37.9869 84.3161 38.1581C83.8787 38.3292 83.4001 38.4148 82.8803 38.4148ZM82.8708 37.1026C83.1687 37.1026 83.4413 37.0519 83.6885 36.9505C83.9421 36.849 84.164 36.7032 84.3541 36.5131C84.5443 36.3229 84.6901 36.0979 84.7915 35.838C84.8993 35.578 84.9532 35.2896 84.9532 34.9727C84.9532 34.6557 84.8993 34.3673 84.7915 34.1074C84.6901 33.8475 84.5443 33.6224 84.3541 33.4323C84.1703 33.2421 83.9516 33.0963 83.698 32.9949C83.4445 32.8934 83.1687 32.8427 82.8708 32.8427C82.5728 32.8427 82.2971 32.8934 82.0435 32.9949C81.7963 33.0963 81.5776 33.2421 81.3874 33.4323C81.1973 33.6224 81.0483 33.8475 80.9405 34.1074C80.8391 34.3673 80.7884 34.6557 80.7884 34.9727C80.7884 35.2833 80.8391 35.5717 80.9405 35.838C81.0483 36.0979 81.1941 36.3229 81.3779 36.5131C81.5681 36.7032 81.79 36.849 82.0435 36.9505C82.2971 37.0519 82.5728 37.1026 82.8708 37.1026ZM87.6993 38.3007V31.6446H90.7991C91.5725 31.6446 92.1747 31.7936 92.6058 32.0915C93.0368 32.3895 93.2523 32.8142 93.2523 33.3657C93.2523 33.9109 93.0495 34.3356 92.6438 34.6399C92.2381 34.9378 91.6993 35.0868 91.0273 35.0868L91.208 34.6874C91.956 34.6874 92.536 34.8364 92.9481 35.1343C93.3601 35.4322 93.5661 35.8633 93.5661 36.4275C93.5661 37.0107 93.3443 37.4703 92.9005 37.8063C92.4631 38.1359 91.8229 38.3007 90.9798 38.3007H87.6993ZM89.2302 37.1597H90.9227C91.2777 37.1597 91.5471 37.0899 91.731 36.9505C91.9148 36.811 92.0067 36.5955 92.0067 36.3039C92.0067 36.025 91.9148 35.8189 91.731 35.6858C91.5471 35.5464 91.2777 35.4766 90.9227 35.4766H89.2302V37.1597ZM89.2302 34.4021H90.666C91.002 34.4021 91.2555 34.3356 91.4267 34.2025C91.5978 34.063 91.6834 33.8601 91.6834 33.5939C91.6834 33.3277 91.5978 33.128 91.4267 32.9949C91.2555 32.8554 91.002 32.7857 90.666 32.7857H89.2302V34.4021ZM97.9698 38.4148C97.4436 38.4148 96.9555 38.3292 96.5054 38.1581C96.0617 37.9869 95.675 37.746 95.3454 37.4354C95.0221 37.1248 94.7685 36.7603 94.5847 36.3419C94.4072 35.9235 94.3184 35.4671 94.3184 34.9727C94.3184 34.4782 94.4072 34.0218 94.5847 33.6034C94.7685 33.185 95.0253 32.8205 95.3549 32.5099C95.6845 32.1993 96.0712 31.9584 96.5149 31.7872C96.9587 31.6161 97.4405 31.5305 97.9603 31.5305C98.4864 31.5305 98.9682 31.6161 99.4056 31.7872C99.8493 31.9584 100.233 32.1993 100.556 32.5099C100.886 32.8205 101.143 33.185 101.326 33.6034C101.51 34.0155 101.602 34.4719 101.602 34.9727C101.602 35.4671 101.51 35.9267 101.326 36.3514C101.143 36.7698 100.886 37.1343 100.556 37.4449C100.233 37.7492 99.8493 37.9869 99.4056 38.1581C98.9682 38.3292 98.4896 38.4148 97.9698 38.4148ZM97.9603 37.1026C98.2582 37.1026 98.5308 37.0519 98.778 36.9505C99.0316 36.849 99.2535 36.7032 99.4436 36.5131C99.6338 36.3229 99.7796 36.0979 99.881 35.838C99.9888 35.578 100.043 35.2896 100.043 34.9727C100.043 34.6557 99.9888 34.3673 99.881 34.1074C99.7796 33.8475 99.6338 33.6224 99.4436 33.4323C99.2598 33.2421 99.0411 33.0963 98.7875 32.9949C98.534 32.8934 98.2582 32.8427 97.9603 32.8427C97.6623 32.8427 97.3866 32.8934 97.133 32.9949C96.8858 33.0963 96.6671 33.2421 96.4769 33.4323C96.2867 33.6224 96.1378 33.8475 96.03 34.1074C95.9286 34.3673 95.8779 34.6557 95.8779 34.9727C95.8779 35.2833 95.9286 35.5717 96.03 35.838C96.1378 36.0979 96.2836 36.3229 96.4674 36.5131C96.6576 36.7032 96.8794 36.849 97.133 36.9505C97.3866 37.0519 97.6623 37.1026 97.9603 37.1026ZM104.206 34.3261H107.41V35.5242H104.206V34.3261ZM104.32 37.0646H107.942V38.3007H102.789V31.6446H107.819V32.8807H104.32V37.0646ZM111.88 38.3007V31.6446H113.154L115.987 36.3419H115.312L118.098 31.6446H119.372L119.382 38.3007H117.937L117.927 33.8601H118.203L115.968 37.5971H115.284L113.002 33.8601H113.325V38.3007H111.88ZM122.452 34.3261H125.657V35.5242H122.452V34.3261ZM122.566 37.0646H126.189V38.3007H121.035V31.6446H126.066V32.8807H122.566V37.0646ZM130.581 38.4148C130.067 38.4148 129.589 38.3324 129.145 38.1676C128.708 37.9964 128.327 37.7555 128.004 37.4449C127.681 37.1343 127.427 36.7698 127.243 36.3514C127.066 35.933 126.977 35.4735 126.977 34.9727C126.977 34.4719 127.066 34.0123 127.243 33.5939C127.427 33.1755 127.681 32.811 128.004 32.5004C128.334 32.1898 128.717 31.9521 129.154 31.7872C129.592 31.6161 130.07 31.5305 130.59 31.5305C131.167 31.5305 131.687 31.6319 132.15 31.8348C132.619 32.0313 133.012 32.3229 133.329 32.7096L132.34 33.6224C132.112 33.3625 131.858 33.1692 131.579 33.0424C131.3 32.9093 130.996 32.8427 130.666 32.8427C130.356 32.8427 130.07 32.8934 129.811 32.9949C129.551 33.0963 129.326 33.2421 129.135 33.4323C128.945 33.6224 128.796 33.8475 128.689 34.1074C128.587 34.3673 128.536 34.6557 128.536 34.9727C128.536 35.2896 128.587 35.578 128.689 35.838C128.796 36.0979 128.945 36.3229 129.135 36.5131C129.326 36.7032 129.551 36.849 129.811 36.9505C130.07 37.0519 130.356 37.1026 130.666 37.1026C130.996 37.1026 131.3 37.0392 131.579 36.9124C131.858 36.7793 132.112 36.5796 132.34 36.3134L133.329 37.2262C133.012 37.6129 132.619 37.9077 132.15 38.1105C131.687 38.3134 131.164 38.4148 130.581 38.4148ZM135.704 38.3007V32.5479L136.055 32.8998H133.583V31.6446H139.355V32.8998H136.883L137.225 32.5479V38.3007H135.704ZM143.415 38.4148C142.889 38.4148 142.4 38.3292 141.95 38.1581C141.507 37.9869 141.12 37.746 140.79 37.4354C140.467 37.1248 140.213 36.7603 140.03 36.3419C139.852 35.9235 139.763 35.4671 139.763 34.9727C139.763 34.4782 139.852 34.0218 140.03 33.6034C140.213 33.185 140.47 32.8205 140.8 32.5099C141.129 32.1993 141.516 31.9584 141.96 31.7872C142.404 31.6161 142.885 31.5305 143.405 31.5305C143.931 31.5305 144.413 31.6161 144.85 31.7872C145.294 31.9584 145.678 32.1993 146.001 32.5099C146.331 32.8205 146.587 33.185 146.771 33.6034C146.955 34.0155 147.047 34.4719 147.047 34.9727C147.047 35.4671 146.955 35.9267 146.771 36.3514C146.587 36.7698 146.331 37.1343 146.001 37.4449C145.678 37.7492 145.294 37.9869 144.85 38.1581C144.413 38.3292 143.934 38.4148 143.415 38.4148ZM143.405 37.1026C143.703 37.1026 143.976 37.0519 144.223 36.9505C144.476 36.849 144.698 36.7032 144.889 36.5131C145.079 36.3229 145.224 36.0979 145.326 35.838C145.434 35.578 145.488 35.2896 145.488 34.9727C145.488 34.6557 145.434 34.3673 145.326 34.1074C145.224 33.8475 145.079 33.6224 144.889 33.4323C144.705 33.2421 144.486 33.0963 144.232 32.9949C143.979 32.8934 143.703 32.8427 143.405 32.8427C143.107 32.8427 142.831 32.8934 142.578 32.9949C142.331 33.0963 142.112 33.2421 141.922 33.4323C141.732 33.6224 141.583 33.8475 141.475 34.1074C141.373 34.3673 141.323 34.6557 141.323 34.9727C141.323 35.2833 141.373 35.5717 141.475 35.838C141.583 36.0979 141.728 36.3229 141.912 36.5131C142.102 36.7032 142.324 36.849 142.578 36.9505C142.831 37.0519 143.107 37.1026 143.405 37.1026ZM148.234 38.3007V31.6446H151.115C151.711 31.6446 152.224 31.7429 152.655 31.9394C153.086 32.1296 153.419 32.4053 153.654 32.7666C153.888 33.128 154.005 33.559 154.005 34.0598C154.005 34.5543 153.888 34.9822 153.654 35.3435C153.419 35.7048 153.086 35.9838 152.655 36.1803C152.224 36.3704 151.711 36.4655 151.115 36.4655H149.089L149.774 35.7714V38.3007H148.234ZM149.774 35.9425L149.089 35.2104H151.029C151.505 35.2104 151.86 35.109 152.094 34.9061C152.329 34.7032 152.446 34.4212 152.446 34.0598C152.446 33.6922 152.329 33.4069 152.094 33.204C151.86 33.0012 151.505 32.8998 151.029 32.8998H149.089L149.774 32.1676V35.9425ZM158.3 38.4148C157.774 38.4148 157.286 38.3292 156.836 38.1581C156.392 37.9869 156.005 37.746 155.675 37.4354C155.352 37.1248 155.099 36.7603 154.915 36.3419C154.737 35.9235 154.649 35.4671 154.649 34.9727C154.649 34.4782 154.737 34.0218 154.915 33.6034C155.099 33.185 155.355 32.8205 155.685 32.5099C156.015 32.1993 156.401 31.9584 156.845 31.7872C157.289 31.6161 157.771 31.5305 158.29 31.5305C158.816 31.5305 159.298 31.6161 159.736 31.7872C160.179 31.9584 160.563 32.1993 160.886 32.5099C161.216 32.8205 161.473 33.185 161.656 33.6034C161.84 34.0155 161.932 34.4719 161.932 34.9727C161.932 35.4671 161.84 35.9267 161.656 36.3514C161.473 36.7698 161.216 37.1343 160.886 37.4449C160.563 37.7492 160.179 37.9869 159.736 38.1581C159.298 38.3292 158.82 38.4148 158.3 38.4148ZM158.29 37.1026C158.588 37.1026 158.861 37.0519 159.108 36.9505C159.362 36.849 159.584 36.7032 159.774 36.5131C159.964 36.3229 160.11 36.0979 160.211 35.838C160.319 35.578 160.373 35.2896 160.373 34.9727C160.373 34.6557 160.319 34.3673 160.211 34.1074C160.11 33.8475 159.964 33.6224 159.774 33.4323C159.59 33.2421 159.371 33.0963 159.118 32.9949C158.864 32.8934 158.588 32.8427 158.29 32.8427C157.992 32.8427 157.717 32.8934 157.463 32.9949C157.216 33.0963 156.997 33.2421 156.807 33.4323C156.617 33.6224 156.468 33.8475 156.36 34.1074C156.259 34.3673 156.208 34.6557 156.208 34.9727C156.208 35.2833 156.259 35.5717 156.36 35.838C156.468 36.0979 156.614 36.3229 156.797 36.5131C156.988 36.7032 157.21 36.849 157.463 36.9505C157.717 37.0519 157.992 37.1026 158.29 37.1026ZM170.408 38.3007L168.621 35.0963L169.923 34.3451L172.186 38.3007H170.408ZM167.489 35.6193V34.3356H169.562V35.6193H167.489ZM170.009 35.1438L168.583 34.9727L170.437 31.6446H172.063L170.009 35.1438ZM163.952 38.3007H162.174L164.437 34.3451L165.74 35.0963L163.952 38.3007ZM167.946 38.3007H166.434V31.6446H167.946V38.3007ZM166.881 35.6193H164.798V34.3356H166.881V35.6193ZM164.361 35.1438L162.297 31.6446H163.923L165.768 34.9727L164.361 35.1438ZM177.504 37.6161V32.8998H175.222L175.193 33.8697C175.174 34.2817 175.146 34.6716 175.108 35.0392C175.076 35.4069 175.025 35.7429 174.956 36.0471C174.886 36.3451 174.794 36.5986 174.68 36.8078C174.572 37.017 174.436 37.166 174.271 37.2547L172.626 37.0456C172.854 37.0519 173.041 36.9727 173.187 36.8078C173.339 36.643 173.459 36.4116 173.548 36.1137C173.637 35.8094 173.7 35.4544 173.738 35.0487C173.783 34.643 173.814 34.2025 173.833 33.727L173.91 31.6446H179.025V37.6161H177.504ZM172.407 39.6795L172.417 37.0456H179.957V39.6795H178.531V38.3007H173.833V39.6795H172.407ZM182.411 34.3261H185.615V35.5242H182.411V34.3261ZM182.525 37.0646H186.148V38.3007H180.994V31.6446H186.024V32.8807H182.525V37.0646ZM191.956 31.6446H193.497V38.3007H191.956V31.6446ZM188.932 38.3007H187.392V31.6446H188.932V38.3007ZM192.07 35.5717H188.818V34.269H192.07V35.5717ZM195.164 38.3007V31.6446H196.695V35.9806L199.871 31.6446H201.316V38.3007H199.795V33.9742L196.619 38.3007H195.164ZM204.39 34.3261H207.595V35.5242H204.39V34.3261ZM204.505 37.0646H208.127V38.3007H202.974V31.6446H208.004V32.8807H204.505V37.0646Z" fill="black"/>
<g filter="url(#filter0_d_279_828)">
<rect x="15.6217" y="6.58549" width="34.8652" height="3.16956" transform="rotate(90 15.6217 6.58549)" fill="#D9D9D9"/>
<rect x="15.6217" y="6.58549" width="34.8652" height="3.16956" transform="rotate(90 15.6217 6.58549)" fill="url(#paint0_linear_279_828)"/>
</g>
<defs>
<filter id="filter0_d_279_828" x="10.3391" y="6.58549" width="7.39564" height="39.0913" filterUnits="userSpaceOnUse" color-interpolation-filters="sRGB">
<feFlood flood-opacity="0" result="BackgroundImageFix"/>
<feColorMatrix in="SourceAlpha" type="matrix" values="0 0 0 0 0 0 0 0 0 0 0 0 0 0 0 0 0 0 127 0" result="hardAlpha"/>
<feOffset dy="2.11304"/>
<feGaussianBlur stdDeviation="1.05652"/>
<feComposite in2="hardAlpha" operator="out"/>
<feColorMatrix type="matrix" values="0 0 0 0 0 0 0 0 0 0 0 0 0 0 0 0 0 0 0.25 0"/>
<feBlend mode="normal" in2="BackgroundImageFix" result="effect1_dropShadow_279_828"/>
<feBlend mode="normal" in="SourceGraphic" in2="effect1_dropShadow_279_828" result="shape"/>
</filter>
<linearGradient id="paint0_linear_279_828" x1="15.6217" y1="6.58549" x2="50.4869" y2="6.58549" gradientUnits="userSpaceOnUse">
<stop stop-color="#008DDE"/>
<stop offset="0.53125" stop-color="#EB097B"/>
<stop offset="1" stop-color="#571273"/>
</linearGradient>
</defs>
</svg>
